<svg xmlns="http://www.w3.org/2000/svg" viewBox="0 0 216 216.00024"><defs><style>.cls-1{fill:#283456;}</style></defs><g id="Layer_2" data-name="Layer 2"><g id="Layer_2-2" data-name="Layer 2"><path class="cls-1" d="M109.27338,0c2.2779,1.23918,3.062,3.12705,2.99908,5.72186-.14462,5.95882-.03121,11.92359-.05367,17.88583-.00937,2.49209-1.18636,4.15468-3.16665,4.62506a4.16679,4.16679,0,0,1-5.23928-4.20609c-.06593-6.5228.00243-13.04686-.03322-19.57013-.012-2.198,1.30965-3.41414,2.96231-4.45653Z"/><path class="cls-1" d="M0,106.742c1.2354-2.28423,3.12631-3.06288,5.72075-2.999,5.8887.145,11.78345.03423,17.67567.05066,3.11863.00869,4.93064,1.58021,4.93065,4.2117,0,2.63137-1.81181,4.20665-4.92865,4.216-5.89222.01763-11.78692-.09287-17.67569.05059-2.59289.06317-4.486-.71508-5.72273-2.9985Z"/><path class="cls-1" d="M40.85958,107.93631A67.14744,67.14744,0,1,1,107.991,175.15848,67.14358,67.14358,0,0,1,40.85958,107.93631Zm125.621.04491c-.00268-32.06332-26.29359-58.42631-58.28735-58.44717-32.25244-.021-58.64159,26.20029-58.65865,58.28558a58.47316,58.47316,0,1,0,116.946.16159Z"/><path class="cls-1" d="M39.62373,150.76769c-.48342.61467-1.16088,2.13649-2.33124,2.85177-5.56724,3.40242-11.24772,6.62241-16.93259,9.828a4.15773,4.15773,0,0,1-5.87-1.39686c-1.24677-2.10954-.56755-4.54938,1.78447-5.928,5.57015-3.265,11.14748-6.5198,16.77789-9.679C36.1541,144.70318,39.59671,146.58643,39.62373,150.76769Z"/><path class="cls-1" d="M164.09788,18.74412a17.80748,17.80748,0,0,1-.96082,2.19717q-4.54085,7.9535-9.15227,15.86661c-1.55889,2.67727-3.89583,3.50854-6.1223,2.24848-2.21045-1.251-2.71648-3.76664-1.20938-6.40147q4.7043-8.22436,9.4803-16.40753a4.20464,4.20464,0,0,1,4.9833-2.17949A4.45485,4.45485,0,0,1,164.09788,18.74412Z"/><path class="cls-1" d="M18.58383,51.89892a10.98682,10.98682,0,0,1,1.89275.73807q8.415,4.79336,16.78916,9.65848a4.09017,4.09017,0,0,1,2.249,4.57569,3.85989,3.85989,0,0,1-3.58965,3.33023,4.70036,4.70036,0,0,1-2.61245-.51588q-8.71315-4.90743-17.33387-9.97829a4.00125,4.00125,0,0,1-1.92915-4.71148C14.48291,53.18145,16.23184,51.90308,18.58383,51.89892Z"/><path class="cls-1" d="M202.11049,56.95648c-.456.58516-1.12309,2.10944-2.28707,2.82127-5.56752,3.40487-11.25137,6.622-16.93317,9.83638a4.18167,4.18167,0,0,1-5.88193-1.37265c-1.26408-2.11212-.60636-4.54409,1.75233-5.9274,5.57068-3.267,11.156-6.51087,16.78479-9.67638C198.66956,50.88076,202.05827,52.70352,202.11049,56.95648Z"/><path class="cls-1" d="M201.66476,103.79012c3.22634-.00044,6.453-.02812,9.67893.008,2.74223.03074,4.59379,1.69933,4.65479,4.10358.06294,2.481-1.84,4.29922-4.65661,4.31351q-9.57354.0486-19.14749-.00369c-2.76056-.01747-4.50765-1.71613-4.50769-4.20621,0-2.48922,1.74977-4.16487,4.50961-4.20434C195.35185,103.75588,198.50856,103.79055,201.66476,103.79012Z"/><path class="cls-1" d="M197.44166,164.123a14.65436,14.65436,0,0,1-2.21429-.90547q-8.14031-4.63891-16.23163-9.36351c-2.51935-1.47155-3.27718-3.84809-2.01946-6.02123,1.24282-2.14743,3.72579-2.7009,6.23367-1.27106q8.322,4.74459,16.58574,9.591A4.15535,4.15535,0,0,1,201.9282,161.15,4.45277,4.45277,0,0,1,197.44166,164.123Z"/><path class="cls-1" d="M103.78915,201.64212c.00008-3.08614-.02326-6.17249.00684-9.25832.02844-2.91546,1.66987-4.70629,4.23158-4.69546,2.56471.01084,4.17826,1.78818,4.19054,4.73722q.039,9.36344.00108,18.72712c-.01043,2.90195-1.65951,4.79526-4.1284,4.8465-2.55044.05294-4.27542-1.88637-4.29671-4.88831C103.7717,207.95478,103.78906,204.79838,103.78915,201.64212Z"/><path class="cls-1" d="M56.94133,202.12042c-4.08869-.09241-6.01593-3.35042-4.49144-6.24952,1.534-2.91709,3.26788-5.72909,4.91551-8.58636,1.61266-2.79666,3.19853-5.60929,4.84926-8.38329,1.42636-2.397,3.74279-3.14242,5.8771-1.97711,2.18056,1.19052,2.81551,3.72575,1.4095,6.19938-3.15569,5.55188-6.29646,11.11606-9.639,16.55495C59.11341,200.897,57.561,201.62157,56.94133,202.12042Z"/><path class="cls-1" d="M164.17266,197.60067c-.21964,2.355-1.19288,3.70623-3.04972,4.32876a4.07289,4.07289,0,0,1-4.87061-1.9777c-2.09409-3.49036-4.08876-7.04037-6.12518-10.56534-1.22879-2.127-2.50074-4.23045-3.67617-6.38652-1.30229-2.38882-.69486-4.84377,1.40189-6.03785,2.12154-1.2082,4.50163-.51424,5.903,1.87477Q158.603,187.1,163.3256,195.436A13.49883,13.49883,0,0,1,164.17266,197.60067Z"/><path class="cls-1" d="M70.296,34.94786A4.33423,4.33423,0,0,1,67.20015,39.432a3.93559,3.93559,0,0,1-4.70295-1.89008C60.948,35.03559,59.523,32.45246,58.04825,29.9002c-1.79065-3.099-3.60769-6.18331-5.35719-9.30543-1.39152-2.48326-.78723-4.98229,1.40544-6.18,2.13877-1.16829,4.45207-.436,5.87472,1.99q4.79244,8.1725,9.479,16.40684A13.3501,13.3501,0,0,1,70.296,34.94786Z"/></g></g></svg>