<?xml version="1.0" encoding="utf-8"?>
<!-- Generator: Adobe Illustrator 26.0.1, SVG Export Plug-In . SVG Version: 6.00 Build 0)  -->
<svg version="1.1" id="Layer_1" xmlns="http://www.w3.org/2000/svg" xmlns:xlink="http://www.w3.org/1999/xlink" x="0px" y="0px"
	 viewBox="0 0 216 216.1" style="enable-background:new 0 0 216 216.1;" xml:space="preserve">
<style type="text/css">
	.st0{fill:#008558;}
</style>
<g id="Layer_2_00000070089719138786466080000008531962570393947275_">
	<g id="Layer_1-2">
		<path class="st0" d="M90.3,130.7c0-2.8-2.2-5-5-5h-0.5c-22.2,0-44.4,0.1-66.6,0c-12.3-0.1-20.5-10.6-17.6-22.2
			c2-8,8.9-13.1,18-13.2c22.1-0.1,44.1,0,66.2,0h0.6c2.8,0,5-2.2,5-5v-0.2c0-22.3-0.1-44.7,0-67C90.5,6,100.8-2.1,112.2,0.5
			c8.2,1.9,13.5,8.8,13.5,18.1c0.1,22.1,0,44.1,0,66.2v0.5c0,2.8,2.2,5,5,5h0.3c22.3,0,44.7-0.1,67,0.1
			c12.1,0.1,20.2,10.5,17.4,21.9c-1.9,8.2-8.9,13.4-18.2,13.4c-21.9,0.1-43.9,0-65.8,0h-0.8c-2.8,0-5,2.2-5,5l0,0
			c0,22.5,0,45,0,67.4c0,7.5-3.5,13.1-10.3,16.2c-6.5,3-12.8,2.1-18.4-2.3c-4.8-3.8-6.7-8.9-6.7-15c0.1-21.9,0-43.9,0-65.8
			L90.3,130.7z"/>
	</g>
</g>
</svg>
