<svg xmlns="http://www.w3.org/2000/svg" viewBox="0 0 216 216.10677"><defs><style>.cls-1{fill:#fff;}</style></defs><g id="Layer_2" data-name="Layer 2"><g id="Layer_1-2" data-name="Layer 1"><path class="cls-1" d="M90.30847,130.688A4.99629,4.99629,0,0,0,85.313,125.6919l-.52626-.00005c-22.20349-.00233-44.40761.09394-66.61024-.04583C5.85625,125.56845-2.30854,115.08047.584,103.47267c1.99-7.986,8.87022-13.13475,17.9802-13.16142,22.06453-.06461,44.12939-.02237,66.19411-.02317l.555,0a4.99528,4.99528,0,0,0,4.99517-4.99469l0-.20767c.0029-22.34227-.09122-44.68512.04758-67.02655C90.43134,5.94249,100.70635-2.15251,112.20534.50668c8.20728,1.898,13.45616,8.81223,13.483,18.13238.0634,22.06453.02265,44.12939.024,66.19411l0,.46a4.99509,4.99509,0,0,0,4.99457,4.99484l.3031,0c22.34227.00263,44.68525-.10207,67.02648.051,12.08387.08279,20.152,10.459,17.4362,21.94792-1.92907,8.1607-8.87452,13.35951-18.22414,13.38414-21.9258.05776-43.85186.01991-65.77781.02074l-.7626,0a4.99576,4.99576,0,0,0-4.99582,4.99414h0q-.00568,33.72153-.02776,67.44307c-.0165,7.52667-3.5499,13.08324-10.32023,16.21885-6.45886,2.99141-12.76908,2.12-18.39335-2.25623-4.83022-3.75832-6.71176-8.89515-6.69021-14.97514.07766-21.92557.02881-43.85163.02774-65.77748Z"/></g></g></svg>