<svg xmlns="http://www.w3.org/2000/svg" viewBox="0 0 216 215.63907"><defs><style>.cls-1{fill:#02b58a;}</style></defs><g id="Layer_2" data-name="Layer 2"><g id="Layer_1-2" data-name="Layer 1"><path class="cls-1" d="M178.54567,46.831c-.04286.93189-.104,1.64275-.10413,2.35362-.00509,21.02436.01893,42.04879-.04778,63.07294a2.513,2.513,0,0,0,2.09092,2.88652,51.52458,51.52458,0,0,1,35.32007,53.7195c-1.97321,23.50271-21.08143,43.44029-44.39481,46.26376a64.31507,64.31507,0,0,1-7.67338.48647q-69.663.04276-139.32612.01191c-11.7016-.0054-21.33192-6.78829-23.49811-17.59089a62.80063,62.80063,0,0,1-.523-17.89852c.59143-6.39076,6.538-11.00608,13.00532-11.27231,1.67033-.06875,3.34591-.01033,5.335-.01033v-3.00712q.00008-70.54513.0026-141.09029c.00126-10.42361,4.4201-18.29564,14.02224-22.63315A25.1067,25.1067,0,0,1,42.76079.10126q74.615-.18631,149.2306-.06328c13.898.01579,23.78137,9.95556,23.96848,23.82022.04348,3.22213.079,6.44935-.04714,9.66777a13.68573,13.68573,0,0,1-13.29465,13.23147c-7.18581.17615-14.37878.06112-21.56861.07342C180.25847,46.83221,179.46745,46.831,178.54567,46.831Zm-9.46391,65.74979v-2.78075c0-27.83556.05835-55.67134-.0466-83.50651-.02242-5.94607.86167-11.50311,4.29333-16.48073.04661-.06762-.07285-.24937-.14068-.45711l-1.95182,0q-63.93672,0-127.87344.0023c-9.38837.00115-15.16081,5.79469-15.16263,15.24958q-.0136,70.87077.00114,141.74153c.0001.77035.081,1.54069.12347,2.29872h84.41729C109.81081,137.51979,136.70809,109.7805,169.08176,112.58083Zm-46.99689,51.40565a42.264,42.264,0,1,0,42.365-42.09287A42.281,42.281,0,0,0,122.08487,163.98648Zm-8.26812,14.17326h-1.32844q-24.8633,0-49.72659,0-23.87318,0-47.74634.00423c-3.90856.00244-5.61779,1.72655-5.63874,5.63176-.01335,2.48978-.00745,4.97968-.00167,7.46951.02111,9.09753,5.90358,15.02209,14.97379,15.02451q53.90714.01434,107.81429-.00122c.60832-.0001,1.21666-.07738,1.28962-.08233-3.7114-4.07184-7.99654-7.94635-11.23309-12.555C118.94121,188.98289,116.6997,183.58866,113.81675,178.15974ZM178.47645,37.4706c8.05467,0,15.88309.06347,23.70945-.03568,2.6109-.03309,4.35778-2.0738,4.40894-4.818.06138-3.2915.10324-6.58891-.02122-9.87717a14.05489,14.05489,0,0,0-28.04679-.46981C178.262,27.22437,178.47645,32.20435,178.47645,37.4706Z"/><path class="cls-1" d="M112.58539,46.83005c-10.70845-.001-21.41695.01388-32.12535-.01033-3.06746-.00693-4.97573-1.55916-5.2914-4.15091A4.67052,4.67052,0,0,1,79.241,37.549a16.42514,16.42514,0,0,1,2.19709-.05726q31.24521-.00364,62.49044-.00093c.65993,0,1.32481-.0337,1.97893.03215a4.71044,4.71044,0,0,1,4.33664,4.6982,4.52292,4.52292,0,0,1-4.43457,4.549c-4.91174.10857-9.82718.05529-14.74109.05963Q121.82692,46.83786,112.58539,46.83005Z"/><path class="cls-1" d="M112.57231,74.965q-15.40257,0-30.80516-.00149c-.73317-.00015-1.46942.01754-2.19895-.04a4.63928,4.63928,0,0,1-.09589-9.26537c.727-.07163,1.46564-.03336,2.19894-.0334q31.02519-.002,62.05038,0c.73327.00005,1.47206-.03881,2.19878.03444a4.70566,4.70566,0,0,1,4.3233,4.709,4.56036,4.56036,0,0,1-4.44753,4.54165c-2.78265.11383-5.57281.05233-8.35971.0537Q125.00439,74.96964,112.57231,74.965Z"/><path class="cls-1" d="M112.76323,103.099q-15.51261,0-31.02521-.00231a23.51771,23.51771,0,0,1-2.41767-.06221A4.62374,4.62374,0,0,1,75.134,98.6774a4.70769,4.70769,0,0,1,3.93124-4.83754,15.15037,15.15037,0,0,1,2.41511-.07937q31.24524-.00523,62.49047-.00081a15.93728,15.93728,0,0,1,2.19708.0573,4.70781,4.70781,0,0,1,4.075,4.71423,4.62428,4.62428,0,0,1-4.25623,4.51238c-.72761.0709-1.46518.05313-2.19819.05334Q128.27583,103.10137,112.76323,103.099Z"/><path class="cls-1" d="M93.90673,131.23141c-4.46852,0-8.93722.02539-13.40547-.00841-3.29258-.0249-5.45713-1.97739-5.37852-4.757.07734-2.735,2.17922-4.55983,5.37409-4.56686q13.40548-.02952,26.81106-.00008c3.20289.007,5.29742,1.822,5.37842,4.56209.08247,2.7898-2.071,4.73643-5.37411,4.76174C102.844,131.25716,98.37524,131.23141,93.90673,131.23141Z"/><path class="cls-1" d="M56.33376,46.78842c-1.6848,0-3.37535.08829-5.053-.02094a4.614,4.614,0,0,1-.10738-9.20279c3.43563-.15942,6.88989-.16108,10.32535-.00007a4.55559,4.55559,0,0,1,4.21015,4.77322,4.64031,4.64031,0,0,1-4.32058,4.45185c-.14576.01427-.29238.02752-.43863.02771q-2.30792.003-4.61584.00123Z"/><path class="cls-1" d="M56.29124,74.93544c-1.6117,0-3.22736.0719-4.83418-.01645a4.61721,4.61721,0,0,1-4.50645-4.49285,4.56083,4.56083,0,0,1,4.2648-4.73362c3.43638-.15,6.89077-.15959,10.32538.01177a4.61609,4.61609,0,0,1-.196,9.20406c-1.67846.1037-3.36856.01983-5.05345.01983Z"/><path class="cls-1" d="M56.29567,103.06977c-1.6117,0-3.22732.0715-4.8342-.01633a4.6198,4.6198,0,0,1-4.51068-4.48895,4.56032,4.56032,0,0,1,4.2603-4.73735c3.43632-.151,6.89069-.15976,10.3254.01041a4.61612,4.61612,0,0,1-.18735,9.20428c-1.67838.10426-3.36851.01995-5.05339.01995Z"/><path class="cls-1" d="M56.22644,131.19954c-1.61167-.00085-3.22793.07688-4.83387-.01868a4.62071,4.62071,0,0,1-.11274-9.22916c3.36424-.1395,6.743-.13887,10.10725-.00012a4.62187,4.62187,0,0,1-.10688,9.23036C59.60094,131.27943,57.91141,131.20038,56.22644,131.19954Z"/><path class="cls-1" d="M169.06792,187.465c0,1.788.06694,3.17618-.01392,4.5557-.16906,2.88442-2.0771,4.84954-4.64842,4.88921-2.64221.04077-4.62292-1.99939-4.76951-4.99273-.06734-1.37507-.01146-2.75616-.01146-4.47722-2.1042,0-3.995.094-5.87373-.01672a13.9,13.9,0,0,1-12.82456-13.72712c.03275-2.77781,1.7624-4.705,4.342-4.83791a4.611,4.611,0,0,1,4.96683,4.245c.55249,3.78907,1.98588,5.047,5.81282,5.05378q8.47313.015,16.94629-.00349c3.298-.01229,5.46044-1.929,5.427-4.739-.03277-2.75153-2.08761-4.56668-5.32436-4.585-5.942-.0336-11.88527.05178-17.82633-.03145a14.07045,14.07045,0,0,1-9.48916-24.72428,13.09442,13.09442,0,0,1,8.40544-3.34251c1.677-.04292,3.356-.00757,5.285-.00757.05387-1.09053.1334-2.00261.13811-2.91507.02206-4.2746,1.69891-6.57631,4.78845-6.5359,3.07911.04029,4.67456,2.30084,4.68315,6.63676.00157.79834.00021,1.59668.00021,2.82842,2.01625,0,3.88777-.085,5.74931.01512a13.87861,13.87861,0,0,1,12.92923,13.39769c.05023,2.97-1.58723,4.97483-4.22036,5.1671-2.78575.20341-4.70743-1.5167-5.09979-4.56488-.40915-3.17858-2.04961-4.70072-5.23909-4.7175q-8.913-.04689-17.82652.003c-2.99242.01906-5.06584,1.95153-5.10146,4.6136-.03595,2.68638,1.9827,4.66523,4.98954,4.69253,6.08844.05528,12.17893-.05258,18.26624.04809,5.6614.09364,10.07981,2.56641,12.689,7.64348a13.99921,13.99921,0,0,1-11.81427,20.41772C172.73387,187.52331,171.05883,187.465,169.06792,187.465Z"/></g></g></svg>