<svg xmlns="http://www.w3.org/2000/svg" viewBox="0 0 11.08525 21.6"><defs><style>.cls-1{fill:#354bff;}</style></defs><g id="Layer_2" data-name="Layer 2"><g id="Layer_2-2" data-name="Layer 2"><path class="cls-1" d="M1.94484,10.78818c.49733-.531.98216-1.05372,1.47264-1.57107.6432-.67844,1.291-1.35254,1.93658-2.02868q.95259-.99765,1.9048-1.99567.9918-1.03929,1.984-2.07823C9.754,2.5821,10.26966,2.054,10.7835,1.52417a.91132.91132,0,0,0,.026-1.32962A.78278.78278,0,0,0,9.80321.17246q-1.03168,1.09347-2.0634,2.1869Q6.791,3.36027,5.83658,4.35583,4.83685,5.403,3.83621,6.44928c-.62959.65956-1.25641,1.32177-1.88816,1.97924C1.42089,8.97714.89811,9.53054.3553,10.06338a.92135.92135,0,0,0-.01882,1.43879C.978,12.182,1.626,12.85558,2.27132,13.53171q.97593,1.02245,1.9521,2.04467c.65069.68157,1.29918,1.36525,1.95271,2.04409.5647.58656,1.13511,1.16762,1.703,1.7511.02127.02185.04285.04342.0639.06548.60838.63761,1.20941,1.28251,1.83,1.908a.64923.64923,0,0,0,.63319.23572.87671.87671,0,0,0,.39849-1.49983c-.22-.23067-.43384-.46716-.65372-.69792q-.97515-1.02345-1.95283-2.04448-.94472-.98937-1.88878-1.97933-1.00032-1.047-2.00246-2.09225c-.56516-.58625-1.13818-1.16493-1.70288-1.75164C2.38359,11.28624,2.17637,11.04442,1.94484,10.78818Z"/><path class="cls-1" d="M1.94484,10.78818c.23153.25624.43875.49806.65922.72711.5647.58671,1.13772,1.16539,1.70288,1.75164q1.005,1.0425,2.00246,2.09225.945.9891,1.88878,1.97933Q9.17441,18.36092,10.151,19.383c.21988.23076.43374.46725.65372.69792a.87671.87671,0,0,1-.39849,1.49983.64923.64923,0,0,1-.63319-.23572c-.62061-.62546-1.22164-1.27036-1.83-1.908-.02105-.02206-.04263-.04363-.0639-.06548-.56789-.58348-1.1383-1.16454-1.703-1.7511-.65353-.67884-1.302-1.36252-1.95271-2.04409s-1.30148-1.363-1.9521-2.04467C1.626,12.85558.978,12.182.33648,11.50217A.92135.92135,0,0,1,.3553,10.06338c.54281-.53284,1.06559-1.08624,1.59275-1.63486.63175-.65747,1.25857-1.31968,1.88816-1.97924Q4.83586,5.402,5.83658,4.35583q.95235-.99753,1.90323-1.99647,1.03425-1.091,2.0634-2.1869a.78278.78278,0,0,1,1.0063.02209.91132.91132,0,0,1-.026,1.32962C10.26966,2.054,9.754,2.5821,9.24285,3.11453Q8.248,4.15088,7.25886,5.19276q-.95232.99792-1.9048,1.99567c-.64561.67614-1.29338,1.35024-1.93658,2.02868C2.927,9.73446,2.44217,10.25718,1.94484,10.78818Z"/></g></g></svg>