<svg xmlns="http://www.w3.org/2000/svg" viewBox="0 0 11.08525 21.6"><defs><style>.cls-1{fill:#455068;}</style></defs><g id="Layer_2" data-name="Layer 2"><g id="Layer_2-2" data-name="Layer 2"><path class="cls-1" d="M8.48119,11.51529c-.56469.58671-1.13771,1.16539-1.70288,1.75164q-1.005,1.0425-2.00246,2.09225-.945.9891-1.88877,1.97933Q1.91084,18.36092.93424,19.383c-.21987.23076-.43374.46725-.65372.69792A.87671.87671,0,0,0,.679,21.58074a.64926.64926,0,0,0,.6332-.23572c.6206-.62546,1.22163-1.27036,1.83-1.908.021-.02206.04263-.04363.0639-.06548.56789-.58348,1.1383-1.16454,1.703-1.7511.65353-.67884,1.302-1.36252,1.95272-2.04409s1.30148-1.363,1.95209-2.04467c.64536-.67613,1.29336-1.34975,1.93484-2.02954A.92135.92135,0,0,0,10.73,10.06338c-.54281-.53284-1.06558-1.08624-1.59274-1.63486C8.50545,7.77105,7.87863,7.10884,7.249,6.44928Q6.2494,5.402,5.24867,4.35583,4.29632,3.3583,3.34544,2.35936,2.31119,1.26834,1.282.17246A.78278.78278,0,0,0,.27574.19455a.91132.91132,0,0,0,.026,1.32962C.81559,2.054,1.33126,2.5821,1.8424,3.11453q.99488,1.03635,1.984,2.07823.95232.99792,1.9048,1.99567c.64561.67614,1.29338,1.35024,1.93658,2.02868.49048.51735.97531,1.04007,1.47264,1.57107C8.90888,11.04442,8.70166,11.28624,8.48119,11.51529Z"/><path class="cls-1" d="M9.14041,10.78818c-.23153.25624-.43875.49806-.65922.72711-.56469.58671-1.13771,1.16539-1.70288,1.75164q-1.005,1.0425-2.00246,2.09225-.945.9891-1.88877,1.97933Q1.91084,18.36092.93424,19.383c-.21987.23076-.43374.46725-.65372.69792A.87671.87671,0,0,0,.679,21.58074a.64926.64926,0,0,0,.6332-.23572c.6206-.62546,1.22163-1.27036,1.83-1.908.021-.02206.04263-.04363.0639-.06548.56789-.58348,1.1383-1.16454,1.703-1.7511.65353-.67884,1.302-1.36252,1.95272-2.04409s1.30148-1.363,1.95209-2.04467c.64536-.67613,1.29336-1.34975,1.93484-2.02954A.92135.92135,0,0,0,10.73,10.06338c-.54281-.53284-1.06558-1.08624-1.59274-1.63486C8.50545,7.77105,7.87863,7.10884,7.249,6.44928Q6.2494,5.402,5.24867,4.35583,4.29632,3.3583,3.34544,2.35936,2.31119,1.26834,1.282.17246A.78278.78278,0,0,0,.27574.19455a.91132.91132,0,0,0,.026,1.32962C.81559,2.054,1.33126,2.5821,1.8424,3.11453q.99488,1.03635,1.984,2.07823.95232.99792,1.9048,1.99567c.64561.67614,1.29338,1.35024,1.93658,2.02868C8.15825,9.73446,8.64308,10.25718,9.14041,10.78818Z"/></g></g></svg>