<svg xmlns="http://www.w3.org/2000/svg" viewBox="0 0 13.19848 24.48"><defs><style>.cls-1{fill:#283456;}</style></defs><g id="Layer_2" data-name="Layer 2"><g id="Layer_5" data-name="Layer 5"><path class="cls-1" d="M10.91736,12.27a5.22493,5.22493,0,0,1-.50562-.38041Q5.45442,6.94007.512,1.97573a1.88727,1.88727,0,0,1-.48954-.90336A.89663.89663,0,0,1,.60309.1159.93231.93231,0,0,1,1.64914.21721a2.89844,2.89844,0,0,1,.31545.289q5.2725,5.27055,10.5377,10.54837a1.714,1.714,0,0,1,.62228,1.794,1.48651,1.48651,0,0,1-.32667.58087Q7.446,18.80228,2.07761,24.1587a1.73349,1.73349,0,0,1-1.56822.22214.83305.83305,0,0,1-.48513-.95756,1.84589,1.84589,0,0,1,.4805-.821q4.953-4.984,9.93129-9.94292C10.54669,12.54884,10.67979,12.46082,10.91736,12.27Z"/></g></g></svg>