<svg xmlns="http://www.w3.org/2000/svg" viewBox="0 0 216 249.32109"><defs><style>.cls-1{fill:#999;}</style></defs><g id="Layer_2" data-name="Layer 2"><g id="Layer_1-2" data-name="Layer 1"><path class="cls-1" d="M119.47715,0c51.66064-.035,91.071,35.30437,95.947,82.172,2.87,27.586-4.95392,52.06388-24.22959,71.99621-25.35048,26.21408-51.04328,52.13007-77.3927,77.33362-18.89632,18.07456-42.07192,22.03845-66.47409,13.52638-24.57424-8.5721-39.12641-26.63915-42.91508-52.48861-3.22389-21.99606,3.4564-41.01442,19.28114-56.78574Q59.71305,99.85622,95.63071,63.85664c12.00731-11.95775,26.13319-15.996,42.30541-9.98336,25.95455,9.64958,34.23446,42.4794,15.27242,62.48723C134.44092,136.16325,114.81941,155.16,95.444,174.38073a12.8204,12.8204,0,0,1-18.46669-.17216,13.09041,13.09041,0,0,1,.246-18.769q27.5653-27.73506,55.25309-55.34837c5.84885-5.87146,6.12754-12.71947.91831-18.21091-5.42508-5.719-12.56158-5.78734-18.43672.03508-11.73564,11.63037-23.38086,23.352-35.06253,35.0369-12.80908,12.81258-25.68008,25.564-38.4065,38.45821-10.979,11.12369-13.92379,24.58408-9.66763,39.27759,4.22577,14.58863,14.33951,23.72713,29.203,26.89215,13.11261,2.79223,25.31861.079,34.99765-9.45848,25.71648-25.34039,51.58047-50.56,76.47878-76.69207,17.38717-18.24876,21.5985-40.74009,13.52434-64.46807-8.05425-23.66952-25.05652-38.5714-49.79881-43.32085-22.48115-4.31541-42.11618,2.10256-58.38954,18.257q-27.49082,27.29-54.788,54.77508c-3.90832,3.91606-8.54641,5.24335-13.774,3.68391a12.48179,12.48179,0,0,1-8.945-9.81615c-1.13934-5.12668.75732-9.2955,4.39181-12.91055q18.613-18.51358,37.14029-37.11339c6.40641-6.40163,12.72757-12.89271,19.26126-19.162C78.71792,8.47209,99.85669.27593,119.47715,0Z"/></g></g></svg>