<?xml version="1.0" encoding="utf-8"?>
<!-- Generator: Adobe Illustrator 26.0.1, SVG Export Plug-In . SVG Version: 6.00 Build 0)  -->
<svg version="1.1" id="Layer_1" xmlns="http://www.w3.org/2000/svg" xmlns:xlink="http://www.w3.org/1999/xlink" x="0px" y="0px"
	 viewBox="0 0 216 214.7" style="enable-background:new 0 0 216 214.7;" xml:space="preserve">
<style type="text/css">
	.st0{fill:#008558;stroke:#008558;stroke-width:2;stroke-miterlimit:10;}
</style>
<g id="Layer_2_00000105424953574001857210000011714767242707229059_">
	<g id="Layer_1-2">
		<path class="st0" d="M108.2,2.6c20.7,0,41.3,0,62.1,0c9.7,0,19.3-0.2,29.1-0.1c7.2,0,12.4,4,14,10.7c0.2,1,0.3,2,0.3,2.9
			c0,35.8,0,71.5,0,107.3c0,8.9-5.5,14.5-14.5,14.6c-9,0-18.1-0.1-27.1-0.1c-42.7,0-85.4,0-128.1,0c-9,0-18.1,0.2-27.1,0.2
			c-7.4,0-12.6-3.9-14.2-10.7c-0.2-1.1-0.3-2.2-0.3-3.3c0-35.9,0-71.4,0-107.1C2.4,8,7.8,2.5,16.9,2.5c9,0,18,0.2,27,0.2
			C65.4,2.6,86.8,2.6,108.2,2.6z M170.6,128.5c-0.5-9.7,2.5-17.9,9.3-24.6c6.7-6.7,15-9.5,24.4-9.2V45.5c-9.7,0.4-17.9-2.5-24.6-9.3
			c-6.8-6.8-9.6-15.1-9.2-24.7H45.3c0.5,9.7-2.5,17.9-9.2,24.7c-6.7,6.8-15.1,9.6-24.5,9.4v49.2c9.6-0.4,17.9,2.4,24.5,9.2
			c6.4,6.4,9.9,15.4,9.3,24.5H170.6z M11.5,104c0,7-0.1,13.9,0.1,20.8c0.1,2.4,1.9,3.8,4.4,3.8c3.3,0,6.6,0,9.9,0
			c3.4,0,6.8,0,10.3,0C38.3,114.9,25.8,102.4,11.5,104z M36,11.7c-6.8,0-13.6,0-20.4,0c-2.1-0.1-4,1.6-4.2,3.8c0,0.1,0,0.2,0,0.4
			c-0.1,6.6,0,13.4,0,20c0,0.2,0.2,0.4,0.3,0.6C27.2,38,38.1,23.9,36,11.7z M179.9,11.6c-2.2,13.8,11.1,27.1,24.5,24.5
			c0-5.7-0.1-11.3,0-17c0.2-6.4-1.1-7.6-7.4-7.5C191.3,11.8,185.6,11.6,179.9,11.6z M179.9,128.6c6.6,0,13.2,0,19.7,0
			c3.3,0,4.9-1.6,4.9-5c0-6,0-12,0-18c0-0.6-0.1-1.1-0.2-1.7C190,102.6,177.5,115.1,179.9,128.6L179.9,128.6z"/>
		<path class="st0" d="M108.3,162.6c-30.2,0-60.4,0-90.7,0c-3.8,0-7.3-0.6-10.4-3c-3-2.3-4.8-6-4.9-9.8c-0.2-2.4,1.6-4.6,4-4.9
			c2.3-0.2,4.5,1.4,4.9,3.7c1.1,4.5,1.7,5,6.3,5c60.1,0,120.3,0,180.4,0c5.1,0,5.4-0.3,6.6-5.2c0.6-2.2,2.6-3.7,4.9-3.5
			c2.3,0.4,4,2.4,3.9,4.8c-0.2,6.5-5.2,12-11.7,12.7c-2.7,0.2-5.6,0.2-8.3,0.2C165,162.6,136.7,162.6,108.3,162.6z"/>
		<path class="st0" d="M108.3,187.4c-30.2,0-60.4,0-90.7,0c-3.8,0-7.3-0.6-10.4-3c-3-2.3-4.8-6-4.9-9.8c-0.2-2.4,1.6-4.6,4-4.9
			c2.3-0.2,4.5,1.4,4.9,3.7c1.1,4.5,1.7,4.9,6.3,4.9c60.3,0,120.6,0,180.9,0c4.6,0,5.2-0.6,6.2-5c0.5-2.3,2.6-3.9,5-3.7
			c2.3,0.4,4,2.4,3.9,4.8c-0.2,6.5-5.2,12-11.7,12.7c-2.7,0.2-5.6,0.2-8.3,0.2C165,187.4,136.7,187.4,108.3,187.4z"/>
		<path class="st0" d="M108.3,212.2c-30.2,0-60.4,0-90.7,0c-5.1,0-9.7-1.3-12.5-5.7c-1.3-2.2-2.1-4.7-2.5-7.3
			c-0.4-2.4,1.6-4.5,4-4.8c2.2-0.2,4.3,1.4,4.8,3.6c1.3,4.8,1.6,5.1,6.5,5.1c60.1,0,120.1,0,180.2,0c5,0,5.4-0.4,6.5-5.1
			c0.5-2.2,2.5-3.7,4.8-3.6c2.3,0.3,4.1,2.3,4,4.7c-0.2,6.5-5.1,12-11.6,12.8c-2.7,0.2-5.6,0.3-8.3,0.3
			C165,212.2,136.6,212.2,108.3,212.2z"/>
		<path class="st0" d="M65.7,70.5c-0.2-23,18.8-42.3,41.4-42.5c23.4-0.4,42.6,18.3,43,41.6c0,0.3,0,0.6,0,0.9
			c0.1,22.5-19,41.7-41.3,41.8C84.9,112.4,65.8,93.9,65.7,70.5z M107.9,103.4c18.7,0,33.2-14.8,33.2-33.9C141.2,52,126,37,108.3,37
			c-18.2-0.3-33.3,14.4-33.5,32.6c-0.3,18.3,14.4,33.4,32.7,33.6C107.6,103.4,107.8,103.4,107.9,103.4z"/>
	</g>
</g>
</svg>
