<?xml version="1.0" encoding="utf-8"?>
<!-- Generator: Adobe Illustrator 26.0.1, SVG Export Plug-In . SVG Version: 6.00 Build 0)  -->
<svg version="1.1" id="Layer_1" xmlns="http://www.w3.org/2000/svg" xmlns:xlink="http://www.w3.org/1999/xlink" x="0px" y="0px"
	 viewBox="0 0 19.8 19.7" style="enable-background:new 0 0 19.8 19.7;" xml:space="preserve">
<style type="text/css">
	.st0{fill:#7250FF;}
</style>
<g>
	<path class="st0" d="M17.3,19.6c-4.9,0-9.9,0-14.8,0H2.4c-1.1-0.2-1.8-0.8-2.1-1.9c0-0.1-0.1-0.3-0.1-0.4c0-3.2,0-6.3,0-9.5
		c0-0.2,0.1-0.4,0.1-0.5c0.4-1.1,1.3-1.8,2.5-1.8c4.7,0,9.4,0,14.1,0c0.1,0,0.1,0,0.2,0c1.1,0.1,2,0.8,2.3,1.8
		c0,0.2,0.1,0.3,0.1,0.5c0,3.2,0,6.3,0,9.5v0.1c-0.2,1.1-0.8,1.8-1.9,2.1C17.6,19.5,17.4,19.5,17.3,19.6z M9.9,17.8
		c2.3,0,4.6,0,6.9,0c0.1,0,0.2,0,0.3,0c0.3,0,0.6-0.2,0.7-0.6c0-0.1,0-0.3,0-0.4c0-2.8,0-5.7,0-8.5c0-0.1,0-0.2,0-0.3
		c0-0.4-0.3-0.6-0.6-0.7c-0.1,0-0.2,0-0.3,0c-4.6,0-9.3,0-13.9,0c-0.1,0-0.1,0-0.2,0C2.4,7.2,2.1,7.5,2,7.8C2,8,2,8.1,2,8.2
		c0,2.9,0,5.7,0,8.6c0,0.1,0,0.2,0,0.3c0,0.4,0.3,0.6,0.7,0.7c0.1,0,0.2,0,0.4,0C5.3,17.8,7.6,17.8,9.9,17.8z"/>
	<path class="st0" d="M16.3,0.1c0.6,0.2,0.8,0.6,0.6,1.2c-0.1,0.3-0.3,0.5-0.6,0.6c-0.1,0-0.2,0-0.3,0c-4,0-8,0-12.1,0
		c-0.1,0-0.3,0-0.4,0C3.1,1.8,2.9,1.5,2.8,1.1c0-0.4,0.2-0.8,0.5-0.9c0.1,0,0.1,0,0.2-0.1C7.8,0.1,12,0.1,16.3,0.1z"/>
	<path class="st0" d="M9.9,4.5c-2.3,0-4.7,0-7,0C2.4,4.5,2.1,4.4,2,4C1.8,3.4,2.1,2.8,2.9,2.8c3.8,0,7.5,0,11.3,0c0.9,0,1.8,0,2.7,0
		c0.6,0,1,0.5,0.9,1.2c-0.1,0.3-0.4,0.6-0.7,0.6c-0.1,0-0.2,0-0.3,0C14.5,4.5,12.2,4.5,9.9,4.5z"/>
	<path class="st0" d="M7.2,12.5c0-1.5,1.2-2.6,2.7-2.6s2.6,1.2,2.6,2.7s-1.2,2.6-2.7,2.6C8.4,15.1,7.2,14,7.2,12.5z M10.8,12.5
		c0-0.5-0.3-0.9-0.9-0.9C9.4,11.6,9,12,9,12.5s0.3,0.9,0.9,0.9C10.4,13.4,10.8,13,10.8,12.5z"/>
	<path class="st0" d="M16.1,12.5c0,0.6,0,1.2,0,1.7c0,0.6-0.4,1-1.1,0.9c-0.4-0.1-0.6-0.3-0.7-0.7c0-0.1,0-0.1,0-0.2
		c0-1.2,0-2.3,0-3.5c0-0.7,0.5-1,1.2-0.9c0.4,0.1,0.6,0.4,0.6,0.8C16.1,11.3,16.1,11.9,16.1,12.5z"/>
	<path class="st0" d="M3.7,12.5c0-0.6,0-1.2,0-1.7c0-0.7,0.5-1,1.2-0.9c0.3,0.1,0.5,0.3,0.6,0.6c0,0.1,0,0.2,0,0.3
		c0,1.1,0,2.2,0,3.3c0,0.1,0,0.3,0,0.4c-0.1,0.4-0.5,0.6-1,0.6C4,15,3.8,14.7,3.8,14.3C3.7,13.7,3.7,13.1,3.7,12.5L3.7,12.5z"/>
</g>
</svg>
