<svg xmlns="http://www.w3.org/2000/svg" viewBox="0 0 20.43823 20.95225"><defs><style>.cls-1{fill:#283456;}</style></defs><g id="Layer_2" data-name="Layer 2"><g id="Layer_2-2" data-name="Layer 2"><path class="cls-1" d="M16.35151,18.41073H4.08652c0,.47208.00056.93286-.00013,1.39365A1.03459,1.03459,0,0,1,2.94894,20.95c-.62271.00094-1.24544.00228-1.86814-.00042a1.00679,1.00679,0,0,1-1.07653-1.0571C.00039,17.33775-.004,14.783.00671,12.22833A3.43411,3.43411,0,0,1,1.376,9.453a.386.386,0,0,0,.16238-.34132C1.53382,7.26752,1.528,5.42329,1.538,3.57915A3.53973,3.53973,0,0,1,4.32826.08976,3.87209,3.87209,0,0,1,5.18264.00528q5.04156-.0084,10.08314-.0022A3.54945,3.54945,0,0,1,18.901,3.63774c.00727,1.8202.00337,3.64047-.00148,5.46069a.41.41,0,0,0,.17112.36093,3.40926,3.40926,0,0,1,1.35812,2.73211c.015,2.57059.0088,5.14132.00445,7.712a1.00338,1.00338,0,0,1-1.06349,1.04588c-.65463.00345-1.30932.00443-1.96393-.00036a1.01675,1.01675,0,0,1-1.05349-1.05993C16.34848,19.40346,16.35151,18.91782,16.35151,18.41073Zm3.056-4.11693c0-.77422.00276-1.52307-.00284-2.27185a1.54886,1.54886,0,0,0-.06183-.35243,2.56094,2.56094,0,0,0-2.61005-1.96541q-4.15426-.00363-8.30853-.00075c-1.58828,0-3.17659-.00585-4.76483.00182A2.54313,2.54313,0,0,0,1.034,12.06752c-.04025.724-.00794,1.452-.00714,2.17812,0,.01316.01555.0263.02933.04816Zm-1.523-5.54055V8.58881q0-2.45418-.00053-4.90837a2.55629,2.55629,0,0,0-2.67246-2.66026q-4.99219-.00218-9.98439,0a2.55826,2.55826,0,0,0-2.67345,2.683q-.00184,2.43025-.00028,4.8605V8.754l2.55125-.09823c0-.29388-.00819-.58121.00263-.86782a3.69394,3.69394,0,0,1,.06594-.66487A2.54986,2.54986,0,0,1,7.76347,5.10526q2.45417-.0075,4.90838.00165a3.00094,3.00094,0,0,1,.64094.06527A2.553,2.553,0,0,1,15.3326,7.73759c.00376.30854.00056.61717.00056.91864Zm-16.851,8.59962H19.39815V15.34418H1.03356ZM6.153,8.67109H14.298c0-.37946.013-.74555-.0027-1.11042a1.47508,1.47508,0,0,0-1.41954-1.41595Q10.21806,6.11871,7.56,6.1444A1.45526,1.45526,0,0,0,6.16209,7.39652,10.99209,10.99209,0,0,0,6.153,8.67109ZM1.03343,19.91676h2.0148V18.41731H1.03343Zm16.35025.00276h2.019v-1.504h-2.019Z"/></g></g></svg>