<?xml version="1.0" encoding="utf-8"?>
<!-- Generator: Adobe Illustrator 26.0.1, SVG Export Plug-In . SVG Version: 6.00 Build 0)  -->
<svg version="1.1" id="Layer_1" xmlns="http://www.w3.org/2000/svg" xmlns:xlink="http://www.w3.org/1999/xlink" x="0px" y="0px"
	 viewBox="0 0 227.2 218.6" style="enable-background:new 0 0 227.2 218.6;" xml:space="preserve">
<style type="text/css">
	.st0{fill:none;stroke:#008558;stroke-width:11.16;stroke-miterlimit:10;}
</style>
<g id="Layer_2_00000059308805962591423790000016245966513428969366_">
	<g id="Layer_1-2">
		<path class="st0" d="M112.8,5.6h2.1c0.2,0.1,0.3,0.1,0.5,0.1c2.5,0.2,4.9,0.9,7.2,2c3.8,1.8,6.9,4.7,9,8.4
			c8.1,13.4,16.1,26.9,24.2,40.3c0.7,1.3,2,2.2,3.4,2.5l44.3,10.2c2.3,0.4,4.6,1.2,6.8,2.2c7.8,3.9,12.2,12.3,11.2,21
			c-0.4,3.9-2,7.5-4.5,10.5c-4.2,4.9-8.4,9.7-12.6,14.6l-19.1,22c-1,1.1-1.4,2.5-1.3,4c0.2,2.2,0.4,4.3,0.6,6.5
			c0.3,3.4,0.6,6.8,0.9,10.2c0.3,3.9,0.7,7.8,1,11.7c0.5,5.6,1,11.3,1.5,16.9c0.3,2.1,0.3,4.2,0.1,6.3
			c-1.3,10.4-10.1,18.2-20.6,18.2c-2.9,0-5.8-0.7-8.4-1.9c-14.4-6.1-28.8-12.2-43.2-18.3c-1.4-0.6-3.1-0.6-4.5,0
			c-14.5,6-28.9,12.1-43.4,18.2c-3.5,1.6-7.3,2.1-11.1,1.6c-5-0.7-9.6-3.2-12.9-7.1c-3.6-4.1-5.3-9.4-4.9-14.8
			c0.2-3.8,0.6-7.6,1-11.4l1.4-16.8c0.3-3.4,0.6-6.8,0.9-10.2c0.3-3,0.5-6.1,0.8-9.1c0.2-1.6-0.3-3.3-1.4-4.5
			c-3.3-3.7-6.5-7.5-9.8-11.3c-7-8-13.9-16-20.9-24.1c-3-3.2-4.8-7.3-5.3-11.7c-0.1-0.7-0.1-1.5-0.2-2.2v-0.2c0-0.3,0.1-0.6,0.1-0.8
			c0.1-1.4,0.4-2.9,0.7-4.3c1.7-6.9,7-12.5,13.8-14.5c2.5-0.8,5.1-1.3,7.7-1.9l40.1-9c1.4-0.3,2.7-1.2,3.4-2.5
			C76.9,47.2,82.5,38,88,28.8c2.8-4.7,5.6-9.4,8.5-14.1c3.1-4.8,8-8,13.6-8.8C111.1,5.8,111.9,5.7,112.8,5.6z"/>
	</g>
</g>
</svg>
