<?xml version="1.0" encoding="utf-8"?>
<!-- Generator: Adobe Illustrator 26.0.1, SVG Export Plug-In . SVG Version: 6.00 Build 0)  -->
<svg version="1.1" id="Layer_1" xmlns="http://www.w3.org/2000/svg" xmlns:xlink="http://www.w3.org/1999/xlink" x="0px" y="0px"
	 viewBox="0 0 19 19" style="enable-background:new 0 0 19 19;" xml:space="preserve">
<style type="text/css">
	.st0{fill:#283456;}
</style>
<g>
	<path class="st0" d="M1.7,6.4c0,0.1,0,0.1,0,0.2c0,3.3,0,6.6,0,9.9c0,0.2,0,0.4,0.1,0.5c0.1,0.3,0.4,0.4,0.7,0.4s0.7,0,1,0
		c0.4,0,0.7,0.3,0.8,0.7c0,0.4-0.3,0.7-0.7,0.8c-0.5,0-1.1,0-1.6,0c-1.1-0.2-1.9-1.1-1.9-2.3c0-1.8,0-3.5,0-5.3c0-2.7,0-5.4,0-8.1
		c0-1.1,0.7-2,1.8-2.3c0.2,0,0.3,0,0.5,0c0.4,0,0.8,0,1.3,0c0-0.1,0-0.1,0.1-0.2C4,0.3,4.4,0.1,4.7,0.1c0.3,0,0.6,0.3,0.7,0.6
		c0,0.3,0,0.5,0,0.8s0,0.5,0,0.8C5.4,2.7,5.1,3,4.7,3C4.3,3.1,4,2.9,3.9,2.5V2.4c-0.5,0-1,0-1.4,0S1.8,2.7,1.8,3.1
		c0,0.6,0,1.2,0,1.8c5.2,0,10.3,0,15.5,0c0-0.1,0-0.2,0-0.3c0-0.5,0-0.9,0-1.4S17,2.4,16.5,2.4c-0.4,0-0.9,0-1.3,0
		c0,0.1,0,0.1-0.1,0.2C15,2.9,14.7,3.1,14.3,3c-0.3,0-0.6-0.2-0.7-0.5c0-0.1-0.1-0.2-0.2-0.2c-1,0-2,0-3,0c-0.1,0-0.1,0-0.2,0
		C10.1,2.9,9.9,3.1,9.5,3C9.1,3,8.9,2.8,8.7,2.3c-0.4,0-0.8,0-1.3,0c-0.1,0-0.3,0-0.4-0.1c-0.2,0-0.4-0.3-0.4-0.7
		c0-0.3,0.3-0.6,0.6-0.6c0.1,0,0.3,0,0.4,0c0.4,0,0.8,0,1.1,0c0.2-0.5,0.4-0.7,0.8-0.7c0.4,0,0.6,0.2,0.7,0.7c0.1,0,0.1,0,0.2,0
		c1,0,2,0,3,0c0.1,0,0.2,0,0.2-0.2c0.1-0.3,0.4-0.5,0.7-0.5s0.6,0.2,0.7,0.5c0,0.1,0,0.1,0,0.2c0.4,0,0.9,0,1.3,0
		c0.4,0,0.8,0.1,1.2,0.3c0.8,0.5,1.1,1.1,1.2,2c0,0.7,0,1.4,0,2.1s-0.4,1.1-1.1,1.1c-5.2,0-10.4,0-15.6,0C1.9,6.4,1.9,6.4,1.7,6.4z"
		/>
	<path class="st0" d="M9.5,18.8c-2.8,0-5-2.3-5-5c0-2.8,2.3-5,5-5c2.8,0,5,2.2,5,5S12.3,18.8,9.5,18.8z M9.5,17.5
		c2,0,3.7-1.6,3.7-3.7c0-2-1.6-3.7-3.7-3.7c-2,0-3.7,1.6-3.7,3.7C5.8,15.8,7.5,17.5,9.5,17.5z"/>
	<path class="st0" d="M18.7,12.5c0,1.3,0,2.7,0,4c0,1.1-0.7,2.1-1.8,2.3c-0.5,0.1-1.1,0.1-1.6,0c-0.4,0-0.7-0.4-0.6-0.8
		c0-0.4,0.3-0.7,0.7-0.7c0.3,0,0.7,0,1,0c0.6,0,0.9-0.3,0.9-0.9c0-2.7,0-5.3,0-8c0-0.2,0-0.3,0.1-0.5c0.1-0.3,0.4-0.5,0.8-0.4
		c0.3,0,0.6,0.3,0.6,0.6c0,0.1,0,0.2,0,0.3C18.7,9.8,18.7,11.2,18.7,12.5z"/>
	<path class="st0" d="M8.9,13.9C9,13.8,9,13.7,9.1,13.7c0.5-0.5,1-1,1.5-1.5c0.3-0.3,0.8-0.4,1.1-0.1c0.3,0.3,0.3,0.8,0,1.1
		c-0.7,0.7-1.4,1.5-2.2,2.2c-0.4,0.4-0.8,0.4-1.2,0c-0.3-0.3-0.7-0.7-1-1s-0.3-0.8,0-1.1s0.8-0.3,1.1,0C8.6,13.5,8.7,13.7,8.9,13.9z
		"/>
</g>
</svg>
