<?xml version="1.0" encoding="utf-8"?>
<!-- Generator: Adobe Illustrator 26.0.1, SVG Export Plug-In . SVG Version: 6.00 Build 0)  -->
<svg version="1.1" id="Layer_1" xmlns="http://www.w3.org/2000/svg" xmlns:xlink="http://www.w3.org/1999/xlink" x="0px" y="0px"
	 viewBox="0 0 216 198.1" style="enable-background:new 0 0 216 198.1;" xml:space="preserve">
<style type="text/css">
	.st0{fill:#BFDDD7;}
</style>
<g id="Layer_2_00000023990483241560430990000013292063914532634511_">
	<g id="Layer_1-2">
		<path class="st0" d="M216,21.4v155.2c-0.1,0.2-0.2,0.3-0.3,0.5c-3.1,13.5-12.3,20.9-26.1,20.9H59.4c-11.5,0-22.9,0.1-34.4,0
			C11.4,198.2,0.2,187.3,0,173.7c0-0.3,0-0.5,0-0.8c0-49.2,0-98.4,0-147.6c0-2,0.2-3.9,0.6-5.8C3.4,7.7,13.2,0,25.5,0
			c21,0,42,0,63,0c34,0,67.9,0,101.9,0c9.9,0,17.5,4.2,22.4,12.8C214.3,15.4,215,18.5,216,21.4z M13.5,45.1V172
			c0,8.1,4.5,12.6,12.7,12.6c54.5,0,109.1,0,163.6,0c8.1,0,12.7-4.6,12.7-12.7V45.1H13.5z M202.4,31.4c0-2.9,0.3-5.7-0.1-8.5
			c-0.9-5.9-5.6-9.5-12.3-9.5H26c-0.7,0-1.4,0-2.1,0.1c-5.3,0.6-9.5,4.2-10.2,9.4c-0.2,2.8-0.2,5.6-0.1,8.5H202.4z"/>
		<path class="st0" d="M153,121.2c0,14.1,0,28.1,0,42.2c0,4.3-2.3,7.2-6,7.5c-1.5,0.1-2.9-0.2-4.2-0.9c-5-2.1-9.9-4.3-14.8-6.6
			c-1-0.6-2.3-0.6-3.3,0c-4.3,2.2-8.7,4.3-13,6.5c-2.3,1.3-5,1.3-7.2,0c-4.3-2.2-8.7-4.3-13-6.5c-1-0.6-2.1-0.6-3.1-0.1
			c-5,2.3-10,4.5-15,6.7c-5.6,2.4-10.3-0.6-10.3-6.7c0-27.9,0-55.8,0-83.7c0-9.9,6.7-16.5,16.5-16.5c19,0,38,0,56.9,0
			c9.9,0,16.5,6.6,16.6,16.5C153.1,93.5,153,107.3,153,121.2z M76.5,153.9c3.6-1.6,6.9-3,10.1-4.5c2.2-1.1,4.9-1.1,7.1,0.1
			c4.2,2.2,8.5,4.4,12.8,6.4c1,0.4,2.1,0.4,3.1,0c4.2-1.9,8.3-4,12.4-6.2c2.4-1.4,5.4-1.5,7.8-0.2c3.1,1.5,6.2,2.8,9.6,4.2
			c0-0.9,0.1-1.6,0.1-2.3c0-23.7,0-47.4,0-71.1c0-3.4-0.5-3.8-3.9-3.8c-18.4,0-36.7,0-55.1,0c-3.8,0-4.1,0.3-4.1,4.1L76.5,153.9
			L76.5,153.9z"/>
		<path class="st0" d="M108.1,90.1c4.4,0,8.7,0,13.1,0c4.2,0,7.1,2.9,7.1,6.7c0,3.7-3,6.7-6.7,6.8c-0.1,0-0.2,0-0.2,0
			c-8.9,0.1-17.8,0.1-26.8,0c-3.7,0.1-6.7-2.9-6.8-6.6c0-0.1,0-0.2,0-0.3c0-3.8,2.9-6.5,7-6.6C99.2,90,103.6,90.1,108.1,90.1z"/>
		<path class="st0" d="M108.1,117.1c4.3,0,8.6,0,12.9,0s7.2,2.8,7.3,6.6s-2.9,6.9-7.2,6.9c-8.7,0.1-17.4,0.1-26.1,0
			c-4.2,0-7.1-2.9-7.2-6.7s2.9-6.7,7.3-6.8S103.8,117.1,108.1,117.1z"/>
	</g>
</g>
</svg>
