<?xml version="1.0" encoding="utf-8"?>
<!-- Generator: Adobe Illustrator 26.0.1, SVG Export Plug-In . SVG Version: 6.00 Build 0)  -->
<svg version="1.1" id="Layer_1" xmlns="http://www.w3.org/2000/svg" xmlns:xlink="http://www.w3.org/1999/xlink" x="0px" y="0px"
	 viewBox="0 0 216 215.6" style="enable-background:new 0 0 216 215.6;" xml:space="preserve">
<style type="text/css">
	.st0{fill:#7250FF;}
</style>
<g id="Layer_2_00000169545730426363182520000000221715269675975561_">
	<g id="Layer_1-2">
		<path class="st0" d="M107.8,215.6H24.6c-11.2,0-19.9-5.8-23.2-15.8c-0.9-2.7-1.3-5.5-1.3-8.4C0,135.7,0,80,0,24.3
			C0,10,10,0,24.3,0c55.8,0,111.7,0,167.5,0C206,0,216,10,216,24.3c0,55.7,0,111.3,0,167c0,14.5-10,24.3-24.6,24.3
			C163.5,215.6,135.6,215.6,107.8,215.6z M9.4,46.9V49c0,47.5,0,94.9,0,142.4c0,8.9,6,14.8,15,14.8h167.3c9.1,0,15-5.9,15-15.1
			c0-47.3,0-94.7,0-142c0-0.8-0.1-1.5-0.1-2.3L9.4,46.9z M46.9,9.4c-8,0-15.7,0-23.4,0c-7.2,0.1-13.2,5.1-13.9,12.2
			C9.1,26.7,9.5,32,9.5,37.4h197.2c0-4.6,0-9,0-13.5c-0.1-8.5-6.1-14.5-14.6-14.6c-7,0-13.9,0-20.9,0c-0.6,0-1.3,0.1-2.1,0.1V12
			c0,3.6,0,7.2,0,10.8c-0.1,3.2-2,5.3-4.7,5.3s-4.6-2.1-4.8-5.2c0-1.1,0-2.2,0-3.3v-10h-46.9c0,2.4,0,4.7,0,7c0,2.4,0.1,4.8-0.1,7.2
			c-0.1,2.5-2.2,4.4-4.7,4.3c-2.5,0-4.5-1.9-4.7-4.4c-0.1-1-0.1-2-0.1-3.1c0-3.7,0-7.4,0-11.1H56.4v13.1c0,2.3-0.8,4.2-3.1,5.1
			c-3.2,1.2-6.3-1-6.4-4.8C46.8,18.5,46.9,14.1,46.9,9.4z"/>
		<path class="st0" d="M94,114.7c1.7-1.8,3-3.3,4.4-4.8c10.5-10.5,21-21,31.6-31.5c6.8-6.8,14.9-6.8,21.7,0c1.6,1.6,3.1,3.1,4.7,4.7
			c5.5,5.9,5.5,14.2-0.2,19.9c-17.4,17.4-34.8,34.8-52.3,52.2c-5.3,5.5-14.1,5.7-19.6,0.4c-0.1-0.1-0.3-0.3-0.4-0.4
			c-8.2-8-16.3-16.1-24.3-24.2c-5.5-5.3-5.6-14.1-0.3-19.6c0,0,0.1-0.1,0.1-0.1c1.8-1.9,3.7-3.8,5.6-5.6c5.4-5.5,14.3-5.5,19.8-0.1
			c0.1,0.1,0.1,0.1,0.2,0.2C88,108.5,90.8,111.5,94,114.7z M94.1,150.5c1.5-0.9,2.8-1.8,4.1-2.9c13.5-13.4,26.9-26.8,40.3-40.2
			c3.4-3.4,6.9-6.8,10.3-10.2c3-3,3-5.3-0.1-8.4l-3.4-3.4c-3.4-3.4-5.5-3.4-8.9,0l-36.7,36.6c-3.9,3.9-7.7,3.8-11.7-0.1
			c-3.1-3.1-6.2-6.2-9.4-9.3c-2.3-2.3-4.8-2.3-7.2,0c-1.7,1.6-3.4,3.3-5,5c-2.2,2.3-2.2,4.8,0.1,7.2c7.9,7.9,15.7,15.8,23.7,23.6
			C91.5,149.2,92.7,149.9,94.1,150.5L94.1,150.5z"/>
	</g>
</g>
</svg>
