<?xml version="1.0" encoding="utf-8"?>
<!-- Generator: Adobe Illustrator 26.0.1, SVG Export Plug-In . SVG Version: 6.00 Build 0)  -->
<svg version="1.1" id="Layer_1" xmlns="http://www.w3.org/2000/svg" xmlns:xlink="http://www.w3.org/1999/xlink" x="0px" y="0px"
	 viewBox="0 0 216 215.6" style="enable-background:new 0 0 216 215.6;" xml:space="preserve">
<style type="text/css">
	.st0{fill:#008558;stroke:#008558;stroke-miterlimit:10;}
</style>
<g id="Layer_2_00000179629316669391677450000010755519012702336927_">
	<g id="Layer_1-2">
		<path class="st0" d="M107.8,211H28.2c-10.7,0-19-5.6-22.2-15.1c-0.9-2.6-1.2-5.3-1.2-8c-0.1-53.3-0.1-106.6-0.1-160
			c0-13.6,9.6-23.2,23.3-23.2c53.4,0,106.9,0,160.3,0c13.6,0,23.2,9.6,23.2,23.3c0,53.3,0,106.5,0,159.8c0,13.9-9.6,23.3-23.5,23.3
			C161.1,211,134.4,211,107.8,211z M13.6,49.5v2c0,45.5,0,90.8,0,136.3c0,8.5,5.7,14.2,14.4,14.2h160.1c8.7,0,14.4-5.6,14.4-14.4
			c0-45.3,0-90.6,0-135.9c0-0.8-0.1-1.4-0.1-2.2L13.6,49.5z M49.5,13.6c-7.7,0-15,0-22.4,0c-6.9,0.1-12.6,4.9-13.3,11.6
			c-0.5,5-0.1,10-0.1,15.1h188.7c0-4.4,0-8.6,0-12.9c-0.1-8.1-5.8-13.9-14-14c-6.7,0-13.3,0-20,0c-0.6,0-1.2,0.1-2,0.1v2.6
			c0,3.4,0,6.9,0,10.3c-0.1,3.1-1.9,5.1-4.5,5.1c-2.6,0-4.4-2-4.6-5c0-1.1,0-2.1,0-3.2v-9.6h-44.9c0,2.3,0,4.5,0,6.7
			c0,2.3,0.1,4.6-0.1,6.9c-0.1,2.4-2.1,4.2-4.5,4.1c-2.4,0-4.3-1.8-4.5-4.2c-0.1-1-0.1-1.9-0.1-3c0-3.5,0-7.1,0-10.6H58.6v12.5
			c0,2.2-0.8,4-3,4.9c-3.1,1.1-6-1-6.1-4.6C49.4,22.3,49.5,18.1,49.5,13.6z"/>
		<path class="st0" d="M94.6,114.4c1.6-1.7,2.9-3.2,4.2-4.6c10-10,20.1-20.1,30.2-30.1c6.5-6.5,14.3-6.5,20.8,0c1.5,1.5,3,3,4.5,4.5
			c5.3,5.6,5.3,13.6-0.2,19c-16.7,16.7-33.3,33.3-50,50c-5.1,5.3-13.5,5.5-18.8,0.4c-0.1-0.1-0.3-0.3-0.4-0.4
			c-7.8-7.7-15.6-15.4-23.3-23.2c-5.3-5.1-5.4-13.5-0.3-18.8l0.1-0.1c1.7-1.8,3.5-3.6,5.4-5.4c5.2-5.3,13.7-5.3,18.9-0.1
			c0.1,0.1,0.1,0.1,0.2,0.2C88.9,108.5,91.5,111.3,94.6,114.4z M94.7,148.7c1.4-0.9,2.7-1.7,3.9-2.8c12.9-12.8,25.7-25.6,38.6-38.5
			c3.3-3.3,6.6-6.5,9.9-9.8c2.9-2.9,2.9-5.1-0.1-8l-3.3-3.3c-3.3-3.3-5.3-3.3-8.5,0l-35.1,35c-3.7,3.7-7.4,3.6-11.2-0.1
			c-3-3-5.9-5.9-9-8.9c-2.2-2.2-4.6-2.2-6.9,0c-1.6,1.5-3.3,3.2-4.8,4.8c-2.1,2.2-2.1,4.6,0.1,6.9c7.6,7.6,15,15.1,22.7,22.6
			C92.2,147.4,93.4,148.1,94.7,148.7L94.7,148.7z"/>
	</g>
</g>
</svg>
