<svg xmlns="http://www.w3.org/2000/svg" viewBox="0 0 33.68456 28.8"><defs><style>.cls-1{fill:#283456;}</style></defs><g id="Layer_2" data-name="Layer 2"><g id="Layer_1-2" data-name="Layer 1"><path class="cls-1" d="M0,.78926C.22188.37742.43634.22943.7434.27626c.36644.0559.57062.334.57145.79732q.00364,2.02255.0009,4.04511v.38308H2.6315V5.153q0-2.00612.00158-4.01222a1.56967,1.56967,0,0,1,.038-.39.62906.62906,0,0,1,.6293-.47994.61607.61607,0,0,1,.60359.47,1.61393,1.61393,0,0,1,.04159.42217q.00433,1.98966.00172,3.97933v.36775H5.263v-.348q0-2.00612.00146-4.01222A1.63476,1.63476,0,0,1,5.2998.75954.63811.63811,0,0,1,6.54267.76337a1.85321,1.85321,0,0,1,.03464.42343c.0027,1.00526.00144,2.01054.00144,3.08132A14.22915,14.22915,0,0,1,18.45149.10045a14.25313,14.25313,0,0,1,10.649,6.68374c.1792-.52781.33522-1.02308.51486-1.50963a14.12754,14.12754,0,0,1,2.00074-3.863,7.98847,7.98847,0,0,1,.9934-.99434.59592.59592,0,0,1,.70736-.078.67054.67054,0,0,1,.36661.6482c-.00178.42752-.00025.85506-.00025,1.28259q0,11.06651.00137,22.133A2.63286,2.63286,0,0,1,32.40862,26.84a2.48819,2.48819,0,0,1-2.73832-.01318,2.53215,2.53215,0,0,1-1.24213-2.32c.0061-.53432.06924-1.068.10958-1.64386A14.2298,14.2298,0,0,1,16.83721,28.8a14.23787,14.23787,0,0,1-11.7225-5.96746c.01633.32264.02614.57536.04252.82766.03122.48118.07592.96167.09768,1.44323a1.97071,1.97071,0,1,1-3.92772-.00989q.25941-3.83748.56088-7.67211c.17289-2.23954.36432-4.47766.54905-6.71628.02973-.36031.08-.71953.09256-1.08024a.34971.34971,0,0,0-.15621-.281A3.314,3.314,0,0,1,.03093,6.636.21735.21735,0,0,0,0,6.57856ZM16.08357,27.50673a13.8581,13.8581,0,0,0,7.18823-1.67627,12.77693,12.77693,0,0,0,5.99707-7.32566,15.28663,15.28663,0,0,0,.44286-2.21316.58993.58993,0,0,0-.13011-.41041,5.16979,5.16979,0,0,1-.96633-2.02926,11.92618,11.92618,0,0,1-.03716-4.66749,1.15687,1.15687,0,0,0-.0352-.63162,13.07458,13.07458,0,0,0-21.775-2.50265,1.03351,1.03351,0,0,0-.2146.49211A3.22876,3.22876,0,0,1,4.2571,9.3101c-.20351.06943-.23652.15849-.21557.354q.12956,1.20919.22776,2.42173c.18723,2.32661.36534,4.654.55249,6.98057a2.26991,2.26991,0,0,0,.12743.80175C7.38881,24.817,11.43033,27.27354,16.08357,27.50673ZM32.33884,15.99V2.62194c-.19142.32862-.35235.57722-.4865.83953a19.14537,19.14537,0,0,0-2.15885,7.71968,7.19351,7.19351,0,0,0,.34991,2.85119A2.75344,2.75344,0,0,0,32.33884,15.99ZM30.995,16.99887c-.01394.06414-.02933.12715-.04123.1908-.27523,1.47271-.569,2.9423-.81835,4.41937-.16544.97987-.29359,1.968-.38751,2.95722a1.25017,1.25017,0,0,0,.82489,1.26031,1.30519,1.30519,0,0,0,1.42161-.3121,1.43,1.43,0,0,0,.37516-1.05222q-.00757-3.41736-.0049-6.83475c-.00007-.0957-.01129-.19139-.01638-.27228ZM3.32785,16.85693l-.06433-.00221a.75649.75649,0,0,0-.02727.1169q-.26724,3.58536-.532,7.1709c-.02733.37105-.06514.74276-.06412,1.11407a.64625.64625,0,0,0,1.28514.10787,2.1867,2.1867,0,0,0-.0019-.49014Q3.739,22.287,3.54881,19.70013C3.47873,18.75213,3.40173,17.80465,3.32785,16.85693ZM5.12017,6.84171H1.46108a1.93071,1.93071,0,0,0,3.65909,0Z"/><path class="cls-1" d="M6.76191,11.9317A2.75006,2.75006,0,0,1,8.053,9.62929c.66068-.42966,1.33554-.83749,1.99742-1.26537a4.66017,4.66017,0,0,0,1.40964-1.49353q.48652-.78045.97063-1.56241a2.79806,2.79806,0,0,1,4.92858.00245c.31719.51186.63666,1.02231.952,1.53528a5.19405,5.19405,0,0,0,1.72649,1.725c.62422.38474,1.26369.75156,1.852,1.18634a2.758,2.758,0,0,1-.11508,4.5502c-.57211.38461-1.16587.73726-1.753,1.09927a5.169,5.169,0,0,0-1.72238,1.72955q-.47952.78477-.96961,1.56305a2.791,2.791,0,0,1-4.87368-.001c-.325-.51988-.6499-1.03987-.96943-1.56312a5.21057,5.21057,0,0,0-1.74876-1.74837c-.63406-.3895-1.27561-.77135-1.879-1.205A2.66333,2.66333,0,0,1,6.76191,11.9317Zm1.3169.118a1.43939,1.43939,0,0,0,.75355,1.22733c.58418.367,1.17208.72805,1.75557,1.09611a5.3515,5.3515,0,0,1,1.667,1.56068c.44539.67661.87309,1.3649,1.30548,2.05a1.49085,1.49085,0,0,0,2.66794-.0018c.34859-.55692.693-1.11649,1.04258-1.67275a5.47623,5.47623,0,0,1,1.60666-1.71317c.66772-.43911,1.34891-.85771,2.02317-1.2869a1.48287,1.48287,0,0,0-.0145-2.6623c-.56669-.35367-1.13614-.703-1.7-1.061A5.31064,5.31064,0,0,1,17.543,8.04645c-.44518-.67681-.87405-1.36441-1.306-2.04984a1.49115,1.49115,0,0,0-2.68351.0013c-.32567.51961-.65929,1.03448-.97408,1.56062a6.10126,6.10126,0,0,1-2.117,2.1145c-.534.32312-1.05939.6603-1.58956.9897A1.53052,1.53052,0,0,0,8.07881,12.04972Z"/><path class="cls-1" d="M25.32582,19.35923A2.08328,2.08328,0,0,1,26.0593,20.956a2.01062,2.01062,0,0,1-1.51817,1.98781q-2.75008.7686-5.51841,1.47132a2.05145,2.05145,0,0,1-1.15872-3.9301c.90222-.29858,1.83227-.51374,2.75215-.7577.195-.05173.30552-.11263.33223-.354a2.06641,2.06641,0,0,1,.26177-.769q1.28136-2.25646,2.59416-4.495a1.96575,1.96575,0,0,1,3.58626.35237,2.00618,2.00618,0,0,1-.23308,1.73058C26.54787,17.2429,25.94108,18.2951,25.32582,19.35923Zm-3.95318,3.06914c-.55236-.3772-1.04674-.71735-1.54538-1.05116a.25138.25138,0,0,0-.18151-.03006c-.43356.11227-.87108.2147-1.29512.35676a.74353.74353,0,0,0-.50736.93446.76315.76315,0,0,0,.94894.48965c.5722-.1442,1.14106-.30175,1.71077-.45571C20.773,22.59934,21.04168,22.5214,21.37264,22.42837Zm.04971-1.5627c.54857.37663,1.02532.70662,1.5061,1.03063a.3036.3036,0,0,0,.20817.06439A10.79,10.79,0,0,0,24.35833,21.59a.69927.69927,0,0,0,.34513-.89287.72253.72253,0,0,0-.80607-.48233C23.09031,20.41057,22.29027,20.63535,21.42235,20.86567Zm.92862-1.61723a6.43457,6.43457,0,0,1,1.19487-.29146.92717.92717,0,0,0,.87983-.67105c.01265-.02992.04436-.05571.047-.0852.00693-.07862.03272-.17579-.0018-.23455-.21979-.37414-.45385-.73989-.69806-1.13225a1.77727,1.77727,0,0,0-.11251.1499C23.239,17.71071,22.819,18.43835,22.351,19.24844Zm2.94811-2.45575c.29047-.52536.5718-1.00416.82216-1.49865a.57313.57313,0,0,0-.19871-.73127.51606.51606,0,0,0-.72059-.04054,6.055,6.055,0,0,0-.66025.96234c-.019.02955.01393.10545.04049.149C24.80961,16.0065,25.04113,16.37694,25.29908,16.79269Z"/><path class="cls-1" d="M8.9025,21.555a1.96819,1.96819,0,0,1,.48562.22189,13.06382,13.06382,0,0,0,3.02285,2.125.58615.58615,0,0,1,.31333.66418.57968.57968,0,0,1-.51208.523.8876.8876,0,0,1-.47084-.08042,11.692,11.692,0,0,1-3.18055-2.23449.60474.60474,0,0,1-.17093-.74351A2.21954,2.21954,0,0,1,8.9025,21.555Z"/><path class="cls-1" d="M27.11712,8.77636a.65138.65138,0,0,1-.44109.684.604.604,0,0,1-.72928-.22787c-.20228-.28522-.35912-.606-.58231-.87234-.48384-.57728-.99626-1.13067-1.4997-1.69139-.09477-.10555-.21016-.19292-.30209-.30059a.64782.64782,0,0,1-.01821-.86682.62706.62706,0,0,1,.8864-.08082,4.9537,4.9537,0,0,1,.79489.73317c.59263.72765,1.15813,1.47772,1.72142,2.22862A1.51689,1.51689,0,0,1,27.11712,8.77636Z"/><path class="cls-1" d="M21.75983,4.76511a.62793.62793,0,0,1,.65425-.62836.65629.65629,0,1,1-.0027,1.31255A.68659.68659,0,0,1,21.75983,4.76511Z"/><path class="cls-1" d="M14.60725,25.1637a.63168.63168,0,0,1-.6536.63054.66124.66124,0,0,1-.66069-.66859.65743.65743,0,0,1,1.31429.038Z"/><path class="cls-1" d="M14.90339,14.6877a2.70646,2.70646,0,1,1,2.704-2.69728A2.72751,2.72751,0,0,1,14.90339,14.6877Zm.00663-1.316a1.39078,1.39078,0,1,0-1.414-1.38107A1.39814,1.39814,0,0,0,14.91,13.37166Z"/></g></g></svg>