<svg xmlns="http://www.w3.org/2000/svg" viewBox="0 0 216 235.15507"><defs><style>.cls-1{fill:#b50000;}</style></defs><g id="Layer_2" data-name="Layer 2"><g id="Layer_1-2" data-name="Layer 1"><path class="cls-1" d="M132.39741,0c2.75331.59469,5.54185,1.06138,8.25436,1.8044A48.56931,48.56931,0,0,1,176.597,47.84607c.254,19.89075.102,39.78715.05791,59.68091a9.75745,9.75745,0,1,1-19.50751-.06111c-.047-19.20523.00455-38.41069-.02936-57.616-.02526-14.29859-8.96555-26.02777-22.46184-29.34555a32.99015,32.99015,0,0,0-7.73477-.84136q-38.53107-.08977-77.06245-.02605c-17.39505.02721-30.17255,12.84118-30.17663,30.195q-.01593,67.71606.00038,135.43213c.00448,17.29735,12.83779,30.10577,30.22365,30.15783,12.57527.03764,25.1508-.01471,37.72609.01853,5.561.0147,9.49,3.16225,10.381,8.1706.98942,5.56154-2.99784,11.26726-8.65509,11.31481-15.40285.12951-30.86689.6382-46.20018-.47034C22.03718,232.92855,4.114,215.29.81141,194.33247a60.79461,60.79461,0,0,1-.76763-9.35887q-.07245-67.48644-.02339-134.973C.03931,25.01926,16.58953,5.22177,41.16534.63878,42.28527.42993,43.4037.21311,44.52283,0Z"/><path class="cls-1" d="M176.69755,209.6799c-6.616,6.63014-13.1004,13.12951-19.58656,19.62717-.97356.97529-1.92456,1.97579-2.9388,2.90738a9.78841,9.78841,0,0,1-13.859-.06824,9.63062,9.63062,0,0,1,.06426-13.80958c6.812-6.93723,13.73537-13.76569,20.64071-20.611a14.93656,14.93656,0,0,1,2.22372-1.50873c-7.87428-7.83756-15.27931-15.15261-22.61829-22.53305-4.62135-4.64743-4.12419-11.53182.99454-15.16851a9.69988,9.69988,0,0,1,12.77491,1.26949c6.86638,6.77579,13.67369,13.61121,20.49378,20.43354.53709.53727.98213,1.16611,1.59273,1.9.84706-.78356,1.4589-1.314,2.031-1.88415,6.77843-6.7558,13.52949-13.53909,20.333-20.2696,4.07536-4.03165,9.66922-4.36272,13.66948-.91139,4.47018,3.85673,4.67914,10.19751.32379,14.61683-6.71721,6.81593-13.52715,13.541-20.31328,20.289-.5928.58948-1.30081,1.06357-2.6865,2.18071a15.7628,15.7628,0,0,1,2.60358,1.61869q10.36372,10.2621,20.64493,20.60691a9.55421,9.55421,0,0,1,1.97043,11.01306,9.82749,9.82749,0,0,1-9.4727,5.65134,10.35945,10.35945,0,0,1-6.85562-3.32479C191.49027,224.43559,184.22174,217.19707,176.69755,209.6799Z"/><path class="cls-1" d="M88.43379,88.1482c9.80245.00123,19.60517-.04136,29.40723.01888a9.74249,9.74249,0,0,1,3.35914,18.89481,13.40634,13.40634,0,0,1-4.26951.68091q-28.6031.065-57.20641.01416c-7.913-.01872-12.85289-7.15869-9.66309-13.90975a9.48381,9.48381,0,0,1,9.195-5.69389Q73.84493,88.12325,88.43379,88.1482Z"/><path class="cls-1" d="M88.691,49.02811c9.81384,0,19.62805-.04984,29.44132.0239a9.06191,9.06191,0,0,1,8.64309,5.78842,9.27709,9.27709,0,0,1-1.53555,10.29644c-2.10531,2.51855-4.92878,3.4163-8.18541,3.4016-11.27048-.0509-22.54132-.01508-33.812-.02024-8.28032-.00378-16.56212.07021-24.8404-.06522a9.593,9.593,0,0,1-9.23163-8.62365,9.74455,9.74455,0,0,1,7.12836-10.454,15.46689,15.46689,0,0,1,3.87051-.35213c9.50718-.02747,19.01447-.01483,28.52173-.01483Z"/><path class="cls-1" d="M73.66707,146.90933c-4.74525-.00014-9.49065.02406-14.23571-.00629-5.91195-.03781-10.26846-4.17149-10.30175-9.72244-.03332-5.55542,4.2516-9.82171,10.16948-9.87227q14.34949-.12261,28.70074-.001c5.878.0484,10.25547,4.375,10.21613,9.85533-.03973,5.537-4.426,9.70227-10.31318,9.74052C83.15773,146.93406,78.41232,146.90947,73.66707,146.90933Z"/></g></g></svg>