<svg xmlns="http://www.w3.org/2000/svg" viewBox="0 0 35.04863 30.04455"><defs><style>.cls-1{fill:#455068;}</style></defs><g id="Layer_2" data-name="Layer 2"><g id="Layer_2-2" data-name="Layer 2"><path class="cls-1" d="M6.542,2.50647c-1.76326,0-3.497.00579-5.23073-.00233A1.24236,1.24236,0,0,1,.08544.8233,1.16614,1.16614,0,0,1,1.2191.00989Q4.38817-.01036,7.55742.00914A1.23852,1.23852,0,0,1,8.75977,1.051q.71157,2.659,1.41761,5.31956,1.61321,6.05544,3.22711,12.11069c.02345.088.05544.17366.08954.27931H29.10479L32.17465,7.5141h-.47457Q22.23156,7.514,12.763,7.51259a2.36957,2.36957,0,0,1-.50534-.03246,1.24771,1.24771,0,0,1,.28568-2.46722c1.52586-.0091,3.05181-.003,4.57773-.003q8.236.00009,16.472.00049a1.2824,1.2824,0,0,1,1.37469,1.79215q-1.82824,6.705-3.66043,13.40891a1.28185,1.28185,0,0,1-1.41822,1.07143q-8.58815.00109-17.1763.00009a1.29224,1.29224,0,0,1-1.4482-1.13015Q8.95517,11.495,6.64461,2.83747C6.61789,2.73736,6.58339,2.63931,6.542,2.50647Z"/><path class="cls-1" d="M15.0295,30.04455a3.75426,3.75426,0,1,1,3.75583-3.75414A3.76534,3.76534,0,0,1,15.0295,30.04455Zm.0128-2.5043a1.25045,1.25045,0,1,0-1.26338-1.22763A1.25346,1.25346,0,0,0,15.0423,27.54025Z"/><path class="cls-1" d="M27.55255,22.536a3.75426,3.75426,0,1,1-3.7554,3.75438A3.76184,3.76184,0,0,1,27.55255,22.536Zm-.00229,2.5038A1.25028,1.25028,0,1,0,28.80305,26.278,1.25443,1.25443,0,0,0,27.55026,25.03984Z"/></g></g></svg>