<svg xmlns="http://www.w3.org/2000/svg" viewBox="0 0 35.28759 25.2"><g id="Layer_2" data-name="Layer 2"><g id="Layer_2-2" data-name="Layer 2"><path d="M17.65065,25.19968q-6.59434,0-13.1887-.00026A4.21439,4.21439,0,0,1,.00067,20.73465Q-.00047,12.58694.0008,4.43923A4.21109,4.21109,0,0,1,4.44768.00062Q17.63638-.0007,30.82509.00054a4.21034,4.21034,0,0,1,4.46173,4.46381q.00133,8.1477-.00015,16.29541a4.20869,4.20869,0,0,1-4.44731,4.43958Q24.245,25.20122,17.65065,25.19968Zm-.01379-1.6734q6.61553,0,13.23105-.00093A2.549,2.549,0,0,0,33.612,20.80484q.00518-8.2086-.00014-16.4172A2.54161,2.54161,0,0,0,30.90081,1.675Q17.65007,1.67078,4.39932,1.67481A2.54692,2.54692,0,0,0,1.67511,4.41388q-.00365,8.18891.00362,16.37782a3.419,3.419,0,0,0,.10823.89354A2.52585,2.52585,0,0,0,4.4058,23.52539Q11.02133,23.52888,17.63686,23.52628Z"/><path d="M25.78864,8.33465a18.1856,18.1856,0,0,0-2.56946.25735,4.12685,4.12685,0,0,0-3.03966,4.4021,4.18094,4.18094,0,0,0,3.96553,3.78266c1.15347.03678,2.30893.00718,3.46336.0194a.85511.85511,0,0,1,.9456.94772.77977.77977,0,0,1-.76284.72119,31.91471,31.91471,0,0,1-4.59017-.14116,5.74032,5.74032,0,0,1-4.69591-6.15853,5.80037,5.80037,0,0,1,5.27754-5.3943c1.29115-.10287,2.59536-.05358,3.89359-.05038a.84086.84086,0,1,1,.008,1.67945c-.62923.01849-1.25941.00439-1.88918.00439Z"/><path d="M14.02141,8.33805a17.78383,17.78383,0,0,0-2.53244.24288,4.12511,4.12511,0,0,0-3.05423,4.53712,4.17276,4.17276,0,0,0,3.95516,3.659c1.14024.03612,2.28239.00941,3.42363.01794.57675.00431.93456.29117.9739.76019a.7595.7595,0,0,1-.68878.89355,19.334,19.334,0,0,1-5.01454-.17965,5.8593,5.8593,0,0,1,.94158-11.49848c1.304-.10366,2.62138-.05443,3.93252-.04644a.80151.80151,0,0,1,.83288.81718.81484.81484,0,0,1-.83562.856c-.64193.02376-1.28541.00569-1.92822.00569Z"/></g></g></svg>