<?xml version="1.0" encoding="utf-8"?>
<!-- Generator: Adobe Illustrator 26.0.1, SVG Export Plug-In . SVG Version: 6.00 Build 0)  -->
<svg version="1.1" id="Layer_1" xmlns="http://www.w3.org/2000/svg" xmlns:xlink="http://www.w3.org/1999/xlink" x="0px" y="0px"
	 viewBox="0 0 33.8 33.8" style="enable-background:new 0 0 33.8 33.8;" xml:space="preserve">
<style type="text/css">
	.st0{fill:#283456;stroke:#283456;stroke-width:1.25;stroke-miterlimit:10;}
</style>
<g>
	<path class="st0" d="M2.3,33.2c-0.7-0.2-1.2-1-1.1-1.7c0-8,0-16.1,0-24.1c0-3.7,3-6.8,6.7-6.8c0,0,0,0,0,0c6,0,11.9,0,17.9,0
		c3.7,0,6.7,3,6.7,6.7c0,0,0,0,0,0.1c0,2.5,0,5,0,7.5c0,0.8-0.6,1.2-1.2,1c-0.3-0.1-0.5-0.4-0.6-0.7c0-0.1,0-0.3,0-0.4
		c0-2.4,0-4.8,0-7.2c0.1-2.3-1.5-4.3-3.7-4.9c-0.4-0.1-0.8-0.2-1.3-0.2c-5.9,0-11.9,0-17.8,0C5.2,2.3,3,4.5,3,7.3c0,0,0,0,0,0
		C3,15,3,22.8,3,30.5v0.2l0.1,0.1c0.1-0.1,0.2-0.2,0.2-0.3c0.9-0.9,1.7-1.8,2.6-2.6c1.6-1.5,3.8-2.3,6-2.3c4.6,0,9.1,0.1,13.7,0.1
		c2.5,0.1,4.6-1.7,5-4.2c0.1-0.8,0.1-1.5,0.1-2.3c0-0.2,0-0.4,0-0.6c0.1-0.4,0.4-0.7,0.9-0.7c0.4,0,0.8,0.3,0.9,0.7
		c0.3,1.9,0,3.7-0.8,5.4c-1.2,2.2-3.5,3.5-6,3.4c-3.9,0-7.9,0-11.8,0c-1,0-2.1,0-3.1,0.1c-1.4,0.1-2.7,0.8-3.7,1.8
		c-1.1,1.1-2.1,2.1-3.2,3.2c-0.3,0.3-0.6,0.5-1,0.8L2.3,33.2z"/>
	<path class="st0" d="M16.8,12.8c-2.2,0-4.4,0-6.6,0c-0.5,0-0.9,0-1.4,0c-0.5,0-0.9-0.4-0.9-0.8c0,0,0,0,0-0.1
		c0-0.5,0.4-0.9,0.9-0.9c0,0,0.1,0,0.1,0c4.8,0,9.6,0,14.4,0c0.6,0,1.2,0,1.7,0c0.5,0,0.9,0.4,0.9,0.9c0,0.4-0.3,0.8-0.8,0.9
		c-0.4,0-0.8,0.1-1.2,0.1C21.5,12.8,19.2,12.8,16.8,12.8z"/>
	<path class="st0" d="M13.7,18c-0.9,0-1.8,0-2.7,0c-0.8,0-1.5,0-2.3-0.1c-0.5,0-0.9-0.4-0.9-0.9c0-0.5,0.3-0.8,0.8-0.9
		c0.4,0,0.8,0,1.2,0c2.3,0,4.6,0,6.9,0c0.5-0.1,1,0.3,1,0.8c0,0.1,0,0.2,0,0.2c0,0.4-0.3,0.7-0.7,0.8c-0.3,0-0.5,0.1-0.8,0
		C15.4,18,14.5,18,13.7,18z"/>
</g>
</svg>
