<svg xmlns="http://www.w3.org/2000/svg" viewBox="0 0 216 148.60434"><defs><style>.cls-1{fill:#fff;}</style></defs><g id="Layer_2" data-name="Layer 2"><g id="Layer_5" data-name="Layer 5"><path class="cls-1" d="M200.73464.69579l14.57395,14.5696a2.336,2.336,0,0,1,.02246,3.29528l-.01833.01836Q154.32337,79.576,93.31913,140.55814c-9.59039,9.58105-23.22983,10.69841-33.55422,2.85339a30.47537,30.47537,0,0,1-3.06474-2.726Q28.67961,112.692.68213,84.6754C.33889,84.33207.01743,83.967,0,83.9483,5.343,78.599,10.64148,73.29416,16.14491,67.78417a2.37082,2.37082,0,0,1,3.35389-.0081c17.61013,17.6108,35.665,35.66635,53.73037,53.73246a2.371,2.371,0,0,0,3.35322.00005L197.37859.69291A2.37481,2.37481,0,0,1,200.73464.69579Z"/></g></g></svg>