<svg xmlns="http://www.w3.org/2000/svg" viewBox="0 0 21.6 16.20264"><defs><style>.cls-1{fill:#283456;}</style></defs><g id="Layer_2" data-name="Layer 2"><g id="Layer_2-2" data-name="Layer 2"><path class="cls-1" d="M21.6,1.73214V14.47247a.3243.3243,0,0,0-.03623.07163,2.0163,2.0163,0,0,1-2.04472,1.65717q-8.7198.00255-17.43958-.00017a2.01892,2.01892,0,0,1-2.078-2.07858Q-.00231,8.102.00314,2.08141a2.28877,2.28877,0,0,1,.06215-.54188A2.023,2.023,0,0,1,2.12189.0028Q9.90328.00183,17.68466.00255c.64669,0,1.29351-.00751,1.94.00324A2.02172,2.02172,0,0,1,21.50512,1.415C21.5383,1.52023,21.56845,1.62641,21.6,1.73214ZM1.35047,2.83v.23121q0,5.51571.00031,11.03142a.68525.68525,0,0,0,.7549.75919q8.69016.0008,17.38031.00006a.68576.68576,0,0,0,.76378-.7714q.0007-5.51571-.00023-11.03143c0-.05853-.00739-.11706-.013-.20021-.07644.06383-.13007.10717-.18214.15229q-4.36722,3.78422-8.73468,7.56814a.68626.68626,0,0,1-1.03244.00475Q7.322,8.006,4.35808,5.43644C3.37024,4.58039,2.38243,3.7243,1.35047,2.83ZM19.8093,1.42672l-.016-.04619H1.80758l-.01525.04565L10.8012,9.23407Z"/></g></g></svg>