<?xml version="1.0" encoding="utf-8"?>
<!-- Generator: Adobe Illustrator 26.0.1, SVG Export Plug-In . SVG Version: 6.00 Build 0)  -->
<svg version="1.1" id="Layer_1" xmlns="http://www.w3.org/2000/svg" xmlns:xlink="http://www.w3.org/1999/xlink" x="0px" y="0px"
	 viewBox="0 0 219.6 232.9" style="enable-background:new 0 0 219.6 232.9;" xml:space="preserve">
<style type="text/css">
	.st0{fill:#2E8EE5;stroke:#2E8EE5;stroke-width:3.6;stroke-miterlimit:10;}
</style>
<g id="Layer_2_00000071547888720895527770000017505241056695198353_">
	<g id="Layer_1-2">
		<path class="st0" d="M40.1,41c-3.2,0-6.3,0.1-9.5-0.1c-1,0-2.5-0.6-2.8-1.3c-0.3-1.1-0.2-2.3,0.4-3.3
			c7.1-10.9,14.4-21.8,21.6-32.7c1.7-2.5,3.7-2.5,5.4,0.1c7.2,10.8,14.4,21.6,21.5,32.5c0.7,1,0.9,2.2,0.6,3.3
			c-0.4,0.8-1.9,1.3-3,1.4c-3,0.2-6.1,0.1-9.3,0.1c-0.1,0.8-0.2,1.4-0.2,2c0,9.1,0,18.2-0.1,27.3c0,1.6,0.5,2.2,2,2.7
			c16.9,6.2,27.2,18.2,29.6,36c2.5,18.7-5,33.3-20.7,43.7l-2.1,1.4c5.2,0,9.8,0,14.4,0c1.8-0.1,3.5,0,5.3,0.2
			c5.8,0.9,10,5.8,10,11.7c0.1,5.8,0.1,11.6,0,17.4c0,3.6-1.7,7-4.4,9.3c4.9,3.9,4.6,9.2,4.5,14.6c-0.1,3.7,0,7.5,0,11.2
			c-0.1,7.7-5,12.6-12.6,12.6c-25.3,0-50.7,0-76,0c-7.7,0-12.5-4.8-12.6-12.6c0-4.9,0.1-9.8,0-14.7c-0.1-4.3,0.8-8.2,4.5-11.2
			c-4.2-3.5-4.6-8.1-4.5-12.9c0.1-4.4,0-8.9,0-13.3c0.1-7.4,5-12.3,12.4-12.3c5.5,0,11,0,17,0c-0.8-0.6-1.3-1-1.7-1.3
			c-15.8-10.3-23.4-24.8-21-43.4c2.3-18.1,12.8-30.2,29.9-36.5c1-0.4,1.9-0.6,1.9-2.1c-0.1-9.6,0-19.2-0.1-28.8
			C40.3,41.6,40.2,41.3,40.1,41z M91.5,114.9C91.4,93.4,73.8,76,52.3,76.1s-38.9,17.7-38.8,39.2c0.1,21.5,17.6,38.9,39.2,38.8
			C74.2,153.9,91.5,136.4,91.5,114.9L91.5,114.9z M52.6,195.3c-12.8,0-25.6,0-38.5,0c-4.5,0-7.1,2.7-7.1,7.2c0,5.4,0,10.8,0,16.3
			c0,4.4,2.8,7.2,7.1,7.2c25.5,0,51,0,76.5,0c4.4,0,7.1-2.7,7.2-7.1c0-5.5,0-11,0-16.5c0-4.4-2.6-7-7-7
			C78.1,195.3,65.4,195.3,52.6,195.3z M52.5,189.9L52.5,189.9c12.8,0,25.5,0.1,38.2,0c4.6,0,7-2.6,7.1-7.1c0-5.3,0-10.7,0-16
			c0-4.7-2.6-7.4-7.4-7.4c-25.4,0-50.8-0.1-76.2-0.1c-4.4,0-7.1,2.8-7.2,7.2c0,5.5,0,11,0,16.5c0,4.2,2.6,7,6.8,7
			C26.7,189.9,39.6,189.9,52.5,189.9L52.5,189.9z M52.4,9.1L34.8,35.8c2.8,0,5,0,7.3,0c2.8,0,3.5,0.8,3.5,3.5c0,9.3,0,18.6,0,27.9
			v3.5h13.8v-2.4c0-9.7,0-19.4,0-29.1c0-2.7,0.8-3.5,3.5-3.5c2.3,0,4.5,0,7.3,0L52.4,9.1z"/>
		<path class="st0" d="M188.9,154.1c5.2,0,10.5,0,15.7,0c8.4,0,13.2,4.8,13.2,13.2c0,4.8-0.1,9.6,0,14.4c0.1,4.2-1,7.8-4.3,10.8
			c0.4,0.5,0.8,0.9,1.1,1.4c2,2.2,3.1,5.1,3.1,8.1c0,5.7,0.1,11.4,0,17.2c0.1,6.5-5,11.8-11.5,11.9c-0.1,0-0.3,0-0.4,0
			c-25.8,0-51.6,0-77.4,0c-6.9,0-11.9-5.1-11.9-12.1c0-5.1,0.1-10.2,0-15.3c-0.1-4.3,1-8,4.4-11.1c-4.5-3.7-4.6-8.7-4.4-13.8
			c0.1-4.3,0-8.6,0-12.8c-0.1-6.5,5.1-11.8,11.6-11.9c0.1,0,0.2,0,0.3,0c5.6-0.1,11.3,0,17.6,0c-16.5-10.4-24.9-24.9-22.8-44
			s13.5-31.4,31.6-37.9V41c-3,0-6,0.1-9.1-0.1c-1.2-0.1-2.9-0.5-3.3-1.3c-0.3-1.3-0.1-2.6,0.6-3.7c7-10.7,14-21.3,21.1-31.9
			c2-3,3.8-3,5.9,0.1c7,10.5,13.9,21,20.8,31.5c0.7,1.1,1.4,2.9,0.9,3.9s-2.4,1.3-3.6,1.4c-2.9,0.2-5.8,0.1-8.8,0.1
			c0,0.7-0.1,1.1-0.1,1.5c0,9.3,0,18.6,0,27.9c-0.2,1.1,0.5,2.2,1.7,2.5c17.7,6.4,28.3,19.1,30.2,37.8c1.8,18.3-6,32.6-21.6,42.5
			l-0.8,0.5L188.9,154.1z M167.2,154.1c21.6,0,39.1-17.6,39-39.2s-17.6-39.1-39.2-39c-21.5,0-39,17.5-39,39
			C128,136.5,145.6,154.1,167.2,154.1L167.2,154.1z M167.2,189.9L167.2,189.9c12.8,0,25.5,0.1,38.2,0c4.7,0,7.1-2.6,7.2-7.3
			c0.1-5.3,0.1-10.5,0-15.8c0-4.7-2.7-7.5-7.4-7.5c-25.4,0-50.8-0.1-76.3-0.1c-4.4,0-7.2,2.7-7.2,7.1c-0.1,5.6-0.1,11.1,0,16.7
			c0.1,4.1,2.7,6.8,6.8,6.8C141.4,189.9,154.2,189.9,167.2,189.9L167.2,189.9z M167.2,195.3c-12.8,0-25.5-0.1-38.2,0
			c-4.5,0-7.1,2.6-7.2,7.1c-0.1,5.5-0.1,11,0,16.5c-0.2,3.7,2.7,6.8,6.4,7c0.2,0,0.5,0,0.7,0c25.6,0,51.1,0,76.7,0
			c3.7,0.2,6.8-2.6,7-6.2c0-0.2,0-0.4,0-0.6c0.1-5.6,0.1-11.3,0-17c-0.1-4.2-2.7-6.8-7-6.8C192.8,195.3,179.9,195.3,167.2,195.3
			L167.2,195.3z M184.8,35.8L167.1,9.1c-6,9-11.7,17.6-17.7,26.7h6.6c3.8,0,4.3,0.4,4.3,4.2c0,9.5,0,19.1,0,28.6
			c0,0.8,0.1,1.6,0.1,2.2H174v-2.6c0-9.6,0-19.2,0-28.8c0-2.8,0.7-3.5,3.5-3.5C179.8,35.8,182,35.8,184.8,35.8z"/>
		<path class="st0" d="M64.8,127c0,3.7-2.8,7.5-8.2,9.3c-1.7,0.6-2.1,1.4-2,2.9c0.1,0.8,0.1,1.7,0,2.5c0,1.4-1.1,2.5-2.5,2.5
			c0,0-0.1,0-0.1,0c-1.2,0.1-2.3-0.8-2.5-2c0-0.2,0-0.3,0-0.5c0.4-3.4-1-4.9-4.1-6.2c-4.5-1.9-5.7-6.3-5.6-10.9
			c-0.1-1.3,0.9-2.5,2.2-2.6c0.1,0,0.1,0,0.2,0c1.7-0.1,2.5,0.9,2.8,2.4c0,0.2,0,0.3,0,0.5c-0.2,6.5,5.5,8.7,10.9,6
			c4.1-2,5-6.3,1.8-9.6c-1.8-1.8-4.2-2.9-6.5-4.2c-1.5-0.9-3.2-1.3-4.8-2.2c-3.8-2.2-6.9-5-6.5-9.9c0.4-5.3,2.9-9.4,7.9-11.4
			c2-0.8,2.7-1.8,2.4-3.8c-0.2-0.7-0.1-1.4,0.1-2c0.7-0.9,1.7-2.1,2.5-2.1c1.1,0.2,2,1,2.5,2.1c0.7,2.8,2.4,5.3,4.7,7
			c3.2,2.3,5,5.9,5,9.8c0.1,1.7-0.5,3.1-2.5,3.2s-2.6-1.1-2.8-2.9c-0.5-4.5-2.7-6.9-6.5-7.2s-6.8,2-8.1,6c-0.8,1.9-0.1,4.2,1.7,5.3
			c1.8,1.2,3.8,1.9,5.6,3c3.1,1.7,6,3.5,8.8,5.6C63.8,119.6,64.8,122.5,64.8,127z"/>
		<path class="st0" d="M164.1,137.3c-6.9-2.5-9.7-6.1-9.6-12.2c0-1.8,0.6-3.1,2.6-3.1s2.6,1.1,2.6,2.8c0.2,7.7,6.7,8.3,11.2,6
			c3.9-2,4.9-6.2,1.8-9.3c-1.8-1.8-4.3-3.1-6.6-4.4c-1.6-0.9-3.4-1.4-5-2.3c-8.1-4.6-8.7-13.8-1.3-19.6c0.9-0.8,1.9-1.3,3-1.7
			c2.1-0.5,2.6-1.7,2.3-3.6c0-0.5,0-1.1,0-1.6c0-1.6,0.8-2.7,2.4-2.7s2.9,1,2.6,2.7c-0.5,3.2,0.9,4.6,3.8,6c4.3,2,6.1,6,6,10.8
			c0,1.6-0.7,2.7-2.4,2.7s-2.6-1-2.7-2.7c-0.4-4.6-2.7-7.1-6.6-7.4s-7,2.1-8.1,6c-0.6,2.3-0.1,4.2,1.9,5.4s4.1,2,6.1,3.1
			c2.6,1.5,5.4,2.7,7.5,4.7c6.7,6.1,4.9,15.7-3.6,19c-2.1,0.8-2.8,1.7-2.7,3.8c0.2,3.2-0.8,4.5-2.6,4.4s-2.5-1.3-2.5-4.4
			L164.1,137.3z"/>
	</g>
</g>
</svg>
