<svg xmlns="http://www.w3.org/2000/svg" viewBox="0 0 24.47254 24.48"><defs><style>.cls-1{fill:#283456;}</style></defs><g id="Layer_2" data-name="Layer 2"><g id="Layer_5" data-name="Layer 5"><path class="cls-1" d="M12.24412,24.47986A12.23993,12.23993,0,1,1,24.47252,12.215,12.24775,12.24775,0,0,1,12.24412,24.47986Zm10.34872-12.2493A10.35376,10.35376,0,1,0,12.24544,22.597,10.36635,10.36635,0,0,0,22.59284,12.23056Z"/><path class="cls-1" d="M13.2223,18.13064c-.139,1.32308-.32856,1.65166-.96013,1.668-.63841.01647-.82468-.29344-.98967-1.5885a17.6254,17.6254,0,0,1-1.6443-.85942,3.75525,3.75525,0,0,1-.86391-.87591.89737.89737,0,0,1,.14637-1.32008.91863.91863,0,0,1,1.31939.18015,2.35913,2.35913,0,0,0,2.40883.93428,2.87533,2.87533,0,0,0,1.24184-.54769,1.16211,1.16211,0,0,0-.14381-2.02156,10.92361,10.92361,0,0,0-1.91715-.58969,9.928,9.928,0,0,1-1.9951-.68785,3.06768,3.06768,0,0,1-.34421-5.19258,3.28949,3.28949,0,0,1,1.161-.63833.768.768,0,0,0,.67866-.95757.88632.88632,0,0,1,.909-.96252.95455.95455,0,0,1,.94984.89745,1.1055,1.1055,0,0,1,.00544.29706c-.05809.3733.075.5447.464.64733a3.63991,3.63991,0,0,1,1.99911,1.38917A.93994.93994,0,1,1,14.196,9.09008a2.542,2.542,0,0,0-3.04832-.70758,1.47742,1.47742,0,0,0-1.03809,1.37793,1.32263,1.32263,0,0,0,1.08856,1.25674c.5952.18421,1.22833.24194,1.83486.39471a6.35474,6.35474,0,0,1,1.30662.44511,3.1096,3.1096,0,0,1,1.91565,2.84507,3.21027,3.21027,0,0,1-1.85321,2.94939A10.83441,10.83441,0,0,1,13.2223,18.13064Z"/></g></g></svg>