<svg xmlns="http://www.w3.org/2000/svg" viewBox="0 0 216 280.92594"><defs><style>.cls-1{fill:#02b58a;}</style></defs><g id="Layer_2" data-name="Layer 2"><g id="Layer_1-2" data-name="Layer 1"><path class="cls-1" d="M114.26837,0c5.578,1.28724,11.312,2.11329,16.70795,3.93861a70.18755,70.18755,0,1,1-92.31356,77.355C32.192,42.15655,60.5505,4.8509,100.08.48333A18.37734,18.37734,0,0,0,102.19764,0Zm-6.18868,23.46264a46.76664,46.76664,0,1,0,46.78759,46.93109A46.8624,46.8624,0,0,0,108.07969,23.46264Z"/><path class="cls-1" d="M0,250.742c.873-5.02258,1.50329-10.10164,2.6575-15.05875C11.4961,197.723,44.31229,168.67385,82.92181,164.554c3.2663-.34855,6.56037-.52464,9.84541-.59184,7.1186-.14564,12.40355,4.66187,12.56449,11.29061.16216,6.67827-4.8099,11.77732-11.9289,11.96442-21.24718.5585-39.07488,8.54771-53.01561,24.63906a67.55435,67.55435,0,0,0-16.86539,43.56656c-.111,4.11191-.04668,8.2285-.06676,12.34292-.03434,7.03651-3.64225,11.88823-9.76537,12.98256a11.71465,11.71465,0,0,1-13.362-8.732c-.037-.15848-.21529-.284-.32769-.4249Z"/><path class="cls-1" d="M216,250.742c-.873-5.02258-1.50329-10.10164-2.6575-15.05875-8.8386-37.96017-41.65479-67.00935-80.26431-71.12917-3.2663-.34855-6.56037-.52464-9.84541-.59184-7.1186-.14564-12.40355,4.66187-12.56449,11.29061-.16216,6.67827,4.8099,11.77732,11.9289,11.96442,21.24718.5585,39.07488,8.54771,53.01561,24.63906a67.55435,67.55435,0,0,1,16.86539,43.56656c.111,4.11191.04668,8.2285.06676,12.34292.03434,7.03651,3.64225,11.88823,9.76537,12.98256a11.71465,11.71465,0,0,0,13.362-8.732c.037-.15848.21529-.284.32769-.4249Z"/></g></g></svg>