<svg xmlns="http://www.w3.org/2000/svg" viewBox="0 0 216 215.04"><defs><style>.cls-1{fill:#283456;}</style></defs><g id="Layer_2" data-name="Layer 2"><g id="Layer_1-2" data-name="Layer 1"><path class="cls-1" d="M95.04,0c6.357,4.22905,7.11141,6.74153,4.18923,13.95183-17.0301,42.02054,9.73874,89.11308,54.36321,95.22562A68.168,68.168,0,0,0,201.15957,98.619c7.078-4.57917,11.00355-3.44708,14.84043,4.10105v11.52c-.36189,2.5028-.65249,5.01831-1.09629,7.50649-8.03723,45.05991-33.63653,74.969-77.33335,88.89287-7.19379,2.29228-14.90062,2.9744-22.37036,4.40064H99.84c-2.16237-.34395-4.31816-.73778-6.4881-1.02447-42.4907-5.61359-78.75121-37.5912-89.48878-79.19664C2.12292,128.076,1.26548,121.10536,0,114.24V99.84a36.72986,36.72986,0,0,0,.82057-3.69659C5.66105,55.65062,26.63544,26.513,63.19907,8.898,71.6745,4.81482,81.19849,2.90816,90.24,0ZM79.71683,20.33111c-31.9826,8.44251-69.338,46.2629-62.39366,99.86035,5.88471,45.419,49.87745,81.63626,95.74512,78.30618,55.44052-4.0251,83.21629-49.37823,85.11288-79.29867-32.25124,12.05824-62.74665,9.40369-89.56928-13.02548C81.86219,83.80529,73.41376,54.37048,79.71683,20.33111Z"/></g></g></svg>