<svg xmlns="http://www.w3.org/2000/svg" viewBox="0 0 216 197.2593"><defs><style>.cls-1{fill:#283456;}</style></defs><g id="Layer_2" data-name="Layer 2"><g id="Layer_2-2" data-name="Layer 2"><path class="cls-1" d="M41.44473,16.20571c0-4.27626-.01923-7.7814.00587-11.28623.02142-2.99139,1.445-4.96577,4.528-4.91865,2.91942.04461,4.17373,2.113,4.18568,4.82908.04585,10.41779.0661,20.83629-.01726,31.25363-.02284,2.85524-1.27057,4.95364-4.58448,4.7887-3.048-.1517-4.054-2.181-4.1016-4.86071-.06229-3.50668-.01526-7.0153-.01526-10.94115-8.773,0-17.3061-.35158-25.78652.16359a7.20684,7.20684,0,0,0-6.64389,7.19665c-.27715,9.80851-.0916,19.63009-.0916,29.76014H206.84953a30.87959,30.87959,0,0,0,.371-3.32753c.03032-7.8839.07919-15.76866-.00423-23.6518-.07427-7.01489-3.46034-10.33085-10.4096-10.406-2.8153-.03045-5.63324.0504-8.44593-.04245-2.60512-.086-4.2415-1.34626-4.325-4.13674-.08321-2.78107,1.3812-4.2868,4.05709-4.308a98.23471,98.23471,0,0,1,13.48486.32927c8.20718,1.07538,14.30192,8.75808,14.36647,17.80112.10351,14.50025.03115,29.00176.03138,43.50273q.00089,49.62714-.00387,99.25426c-.00467,13.00411-7.056,20.04218-20.11325,20.04483q-87.84616.01791-175.69232.00029C7.08092,197.24818.01054,190.22568.00779,177.24937q-.015-70.53387.00087-141.06775C.01191,23.4233,7.06586,16.31377,19.8179,16.21539,26.83032,16.16129,33.8435,16.20571,41.44473,16.20571ZM9.02605,71.42308c-.11613,1.33123-.27282,2.29172-.27317,3.25226q-.01888,51.525.00992,103.05007c.00985,7.33555,3.42135,10.45407,11.15322,10.4555q88.05287.01617,176.10574,0c8.1787-.00152,11.20835-3.02971,11.21222-11.21082q.02378-50.46927-.0033-100.93856c-.0006-1.48643-.1511-2.9728-.23988-4.60846Z"/><path class="cls-1" d="M165.7809,16.20349c0-3.91748.00516-7.26675-.00154-10.616-.006-2.98707.87653-5.55317,4.30523-5.58192,3.3484-.02809,4.47551,2.32217,4.46658,5.423-.02881,9.994-.00722,19.9881-.01174,29.98217-.00134,2.97813-.80653,5.42683-4.36819,5.45666-3.62627.03037-4.33022-2.5341-4.37722-5.44731-.054-3.3492-.01255-6.69994-.01255-10.6195l-5.33066,0q-46.87132-.00016-93.74266-.00995c-1.40021-.00057-3.15183.34985-4.11418-.33825-1.287-.92027-2.717-2.71487-2.68326-4.09986.03238-1.32946,1.6082-3.10369,2.95844-3.78418,1.37363-.69228,3.29967-.35386,4.98386-.3546q46.02678-.02028,92.05358-.01032Z"/><path class="cls-1" d="M64.60682,105.66V87.79384H82.80288V105.66Z"/><path class="cls-1" d="M151.27284,87.66246v17.942H133.29426v-17.942Z"/><path class="cls-1" d="M64.6663,138.695V120.60527H82.75063V138.695Z"/><path class="cls-1" d="M151.30729,120.60125v17.98648h-18.078V120.60125Z"/><path class="cls-1" d="M82.76481,153.71874v18.25154c-5.54163,0-10.95247.07576-16.3555-.09547a2.87468,2.87468,0,0,1-1.88541-2.0674c-.16389-5.29142-.08754-10.59026-.08754-16.08867Z"/><path class="cls-1" d="M99.02653,87.59575h17.85039V105.5341H99.02653Z"/><path class="cls-1" d="M167.48351,87.60642h17.82967v18.06373H167.48351Z"/><path class="cls-1" d="M48.60825,120.625v17.87467H30.69414V120.625Z"/><path class="cls-1" d="M116.93516,138.67063H99.11566V120.59748h17.8195Z"/><path class="cls-1" d="M185.43686,120.69434v17.883H167.50447v-17.883Z"/><path class="cls-1" d="M30.60224,153.6711H48.41082v18.069H30.60224Z"/><path class="cls-1" d="M116.96858,153.851v17.84751H99.08723V153.851Z"/></g></g></svg>