<svg xmlns="http://www.w3.org/2000/svg" viewBox="0 0 31.104 24.14402"><defs><style>.cls-1{fill:#283456;}</style></defs><g id="Layer_2" data-name="Layer 2"><g id="Layer_2-2" data-name="Layer 2"><path class="cls-1" d="M31.104,22.53832a4.86126,4.86126,0,0,1-.25268.60983,1.8152,1.8152,0,0,1-1.57684.97385c-.59618.02114-1.194.02008-1.79045.00466a1.90375,1.90375,0,0,1-1.90932-1.97317c-.00523-1.07264-.00128-2.14533-.00128-3.218q0-8.39412.00013-16.78825A1.94493,1.94493,0,0,1,27.71247.00094c.46542-.00018.93086-.00231,1.39626.00051a1.9225,1.9225,0,0,1,1.9335,1.44715.95679.95679,0,0,0,.06177.13175ZM26.84481,12.06221q0,4.98117.00029,9.96235c.00012.62165.21516.83482.84142.83737.415.00169.83006.00079,1.24509.00024.70408-.00093.90025-.19744.90027-.9026q.00018-8.6715.00007-17.343c0-.86057.00223-1.72115-.00093-2.5817a.67155.67155,0,0,0-.76694-.76209c-.44537-.00359-.89079-.00122-1.33619-.00074-.68358.00074-.88295.20093-.883.88856Q26.84449,7.11141,26.84481,12.06221Z"/><path class="cls-1" d="M17.05354,14.672q0-3.71936.00125-7.4387a1.90634,1.90634,0,0,1,1.39768-1.96418,2.16322,2.16322,0,0,1,.53787-.07927c.54623-.01021,1.09314-.01684,1.63911-.00129A1.93956,1.93956,0,0,1,22.58686,7.163c.00272.11126.00071.22264.00071.334q0,7.27171-.00068,14.54343a1.85762,1.85762,0,0,1-1.54232,2.0251,9.80543,9.80543,0,0,1-2.448.0036,1.83533,1.83533,0,0,1-1.54182-1.98883Q17.0491,18.37614,17.05354,14.672Zm1.26555-.03589q0,1.214,0,2.428c.00007,1.66923-.00231,3.33846.00172,5.00768.00129.53534.23288.77634.74428.78358.49553.007.99129.00623,1.48685.00033a.67782.67782,0,0,0,.76429-.76855q.00315-7.43565-.00028-14.8713a.68092.68092,0,0,0-.74851-.75871c-.44494-.00709-.89009-.00191-1.33514-.00167-.71037.00038-.91294.20537-.91306.92712Q18.31865,11.00931,18.31909,14.63608Z"/><path class="cls-1" d="M14.04968,17.274q.00012,2.38332-.00048,4.76664A1.91945,1.91945,0,0,1,11.976,24.12513c-.47557.00126-.95116.0026-1.42672-.00031a1.925,1.925,0,0,1-2.02465-2.0196c-.00684-1.80138-.00189-3.60281-.00192-5.40421q0-2.11008.00049-4.22015a1.9385,1.9385,0,0,1,2.09774-2.09952c.47558-.0009.95117-.00276,1.42672.00043a1.9038,1.9038,0,0,1,2.00029,2.00412C14.05458,14.01523,14.04959,15.64461,14.04968,17.274Zm-1.25863-.02254h-.00968q0-2.38315-.00061-4.7663c-.00071-.62032-.21756-.833-.84379-.83542-.46541-.00176-.93092-.00535-1.39624.00156a.67058.67058,0,0,0-.74647.75487q-.00415,4.85736.00037,9.71475a.664.664,0,0,0,.73129.73905c.46528.00817.93082.00313,1.39623.002.65717-.00153.86812-.21293.86856-.87462Q12.79229,19.61941,12.79105,17.25143Z"/><path class="cls-1" d="M5.53653,19.857c.00009.76915.00466,1.53833-.001,2.30744a1.89987,1.89987,0,0,1-1.91937,1.96274c-.59654.01462-1.1945.01733-1.79058-.00608A1.89088,1.89088,0,0,1,.01293,22.26922q-.02649-2.41341-.00111-4.8273a1.90755,1.90755,0,0,1,1.889-1.877c.57621-.01782,1.15378-.01665,1.73009-.00072a1.91772,1.91772,0,0,1,1.9042,1.955C5.54207,18.29837,5.53645,19.07769,5.53653,19.857Zm-1.27134.002c0-.7692.00429-1.53843-.00162-2.30758a.65868.65868,0,0,0-.71962-.717c-.50588-.00632-1.01194-.00487-1.51787-.00051a.6713.6713,0,0,0-.74665.753q-.00414,2.262.00006,4.52408a.65541.65541,0,0,0,.72138.74384c.50582.00851,1.012.00723,1.51784.00067a.66172.66172,0,0,0,.7456-.74959C4.2683,21.35685,4.26535,20.60788,4.26519,19.85893Z"/></g></g></svg>