<svg xmlns="http://www.w3.org/2000/svg" viewBox="0 0 29.3976 29.39428"><defs><style>.cls-1{fill:#283456;}</style></defs><g id="Layer_2" data-name="Layer 2"><g id="Layer_5" data-name="Layer 5"><path class="cls-1" d="M23.76113,22.26861a1.64372,1.64372,0,0,1,1.81555.58606c1.07213,1.108,2.17837,2.18293,3.26461,3.27738a1.31353,1.31353,0,0,1,.01609,2.13506c-1.45021,1.49484-1.76357,1.49852-3.226.03685-.91613-.91568-1.81888-1.84531-2.75321-2.742a1.66641,1.66641,0,0,1-.57372-1.87609A13.42014,13.42014,0,0,1,11.1193,26.717a12.998,12.998,0,0,1-9.31571-6.55622A13.4699,13.4699,0,0,1,22.29177,3.26416,13.645,13.645,0,0,1,23.76113,22.26861ZM8.96828,15.8331a7.062,7.062,0,1,0,7.0458-7.06985A7.07207,7.07207,0,0,0,8.96828,15.8331Zm-.85884-1.54563a8.252,8.252,0,0,1,2.57269-4.49979.47551.47551,0,0,0,.08256-.41348,1.89961,1.89961,0,0,1,.46676-1.93736,8.49628,8.49628,0,0,0,.98976-1.17545A3.16832,3.16832,0,0,0,12.739,4.74424c-.04686-1.63321.28044-2.067,1.9038-2.16447.08207-.00493.16435-.01589.2462-.01332.42641.01343.59439-.19694.53686-.60915-.05035-.36074.19112-.819-.50153-.89265A12.40051,12.40051,0,0,0,6.38888,3.20342a11.74265,11.74265,0,0,0-3.21,3.23808,6.0573,6.0573,0,0,1,1.27568,3.999,1.85869,1.85869,0,0,0,.1104.72119A4.58943,4.58943,0,0,0,8.10944,14.28747Zm3.94206,8.591c-.32534-.22452-.49336-.33571-.65643-.45373a7.33091,7.33091,0,0,1-3.29457-5.4661,2.35285,2.35285,0,0,0-1.70713-2.295,4.74993,4.74993,0,0,1-2.92108-4.5792A5.49557,5.49557,0,0,0,2.61144,7.333c-.06993.13692-.09628.19158-.12526.2448A12.43974,12.43974,0,0,0,5.39776,22.95123a.62933.62933,0,0,0,.537.0858,6.115,6.115,0,0,1,3.56589-.18471A15.1276,15.1276,0,0,0,12.0515,22.8785ZM11.64137,8.84475l.14756.10478a8.17135,8.17135,0,0,1,8.71044.14214,3.5534,3.5534,0,0,1,.16209-1.05032,9.90862,9.90862,0,0,0,.612-3.36294A1.39589,1.39589,0,0,0,20.483,3.11862a12.63638,12.63638,0,0,0-4.02068-1.7589c-.20118,2.05539-.20118,2.05539-1.97049,2.218-.65653.06036-.84849.25945-.74849.914a2.97923,2.97923,0,0,1-.7618,2.4473c-.30193.36373-.64612.69464-.92551,1.074A5.16866,5.16866,0,0,0,11.64137,8.84475Zm10.611-4.14709a1.92871,1.92871,0,0,0-.03487.24979,7.78265,7.78265,0,0,1-.56112,3.30982,1.67611,1.67611,0,0,0,.08317,1.1286c.18194.49417.51727.92936.74392,1.41009a14.18279,14.18279,0,0,1,1.2894,2.96443c.2463,1.17576,1.15847,1.50951,1.88922,2.203A12.06225,12.06225,0,0,0,22.25233,4.69766ZM6.74977,23.71234l-.02909.23853A12.23137,12.23137,0,0,0,14.499,25.88528a2.26013,2.26013,0,0,0-2.57428-2.0018c-1.07611.015-2.15361-.122-3.23152-.16627C8.04638,23.69067,7.39763,23.71234,6.74977,23.71234Zm21.72559,3.54089c-.15633-.19326-.25643-.34155-.3803-.46621q-1.45158-1.4609-2.91151-2.91348c-.9341-.92866-.72-.951-1.72382.02068-.333.32232-.30783.54817.01184.85987,1.07095,1.04423,2.114,2.117,3.18419,3.16208.187.1826.57076.45616.66267.3934A9.8969,9.8969,0,0,0,28.47536,27.25323Zm-13.81373-3.46.96883,1.97292a12.25849,12.25849,0,0,0,5.76488-2.65849l-.59146-.777A8.26542,8.26542,0,0,1,14.66163,23.79325Zm8.43275-2.38005a12.03708,12.03708,0,0,0,2.03189-3.44108c.31649-.80567.27211-.96844-.42065-1.51427-.17218-.13566-.35739-.25479-.5999-.42627a8.40069,8.40069,0,0,1-1.69286,4.73168Zm-.17981,1.58416-.0795.08328-1.2823-1.33044.07543-.06867Z"/><path class="cls-1" d="M21.6282,21.68153l-.07543.06867,1.2823,1.33044.0795-.08328"/></g></g></svg>