<svg xmlns="http://www.w3.org/2000/svg" viewBox="0 0 216 201.52"><defs><style>.cls-1{fill:#707d99;}</style></defs><g id="Layer_2" data-name="Layer 2"><g id="Layer_1-2" data-name="Layer 1"><path class="cls-1" d="M93.75,111.47v-4.66q0-46,0-92c0-11.07,10.93-18.07,20.62-13.17,5.23,2.65,7.82,7.11,7.83,13,0,13.3,0,26.61,0,39.92v56.93c1-.93,1.7-1.49,2.32-2.11q16.81-16.81,33.61-33.64c5.29-5.28,12.75-5.57,17.69-.66s4.68,12.36-.62,17.68Q146,122,116.63,151.31c-5.29,5.28-12,5.26-17.29-.06q-29.43-29.37-58.8-58.79c-5-5-5.22-12.58-.53-17.32,5-5,12.42-4.85,17.67.41L92.2,110.06C92.54,110.4,92.92,110.72,93.75,111.47Z"/><path class="cls-1" d="M108,201.51q-42,0-83.92,0c-10.37,0-19.29-5.62-22.61-14.33a21.77,21.77,0,0,1-1.37-6.91c-.19-5.93-.11-11.87,0-17.8.07-6.42,5.15-11,12.08-11.06A11.5,11.5,0,0,1,24,162.46a44.36,44.36,0,0,0,.51,8.33,11.54,11.54,0,0,0,10.43,9c1,.1,2,.14,3,.14q70.07,0,140.12,0c7.43,0,12.45-3.63,13.58-10a40.28,40.28,0,0,0,.23-6.6c0-7.06,4.89-11.84,12.07-11.87,7,0,11.88,4.79,11.9,11.74,0,5.17-.2,10.35.06,15.51.53,11-7.8,20.26-19,22.32a35,35,0,0,1-6.31.49Q149.35,201.55,108,201.51Z"/></g></g></svg>