<svg xmlns="http://www.w3.org/2000/svg" viewBox="0 0 216 201.51583"><defs><style>.cls-1{fill:#666;}</style></defs><g id="Layer_2" data-name="Layer 2"><g id="Layer_1-2" data-name="Layer 1"><path class="cls-1" d="M93.74823,111.46691v-4.65982q-.00018-46.025.00864-92.05C93.76621,3.6855,104.69108-3.311,114.37676,1.59127c5.23093,2.64757,7.82008,7.11222,7.837,12.96554.03837,13.30731.01359,26.61481.01382,39.92222q.00045,26.82673,0,53.65347c0,.90982,0,1.81964,0,3.28227,1.0243-.93131,1.70111-1.4976,2.32269-2.1191Q141.36206,92.486,158.16179,75.6642c5.28361-5.28846,12.74891-5.5701,17.68462-.66478,4.90964,4.87944,4.68627,12.36518-.62032,17.683q-29.27409,29.33607-58.59535,58.625c-5.28852,5.28319-11.95706,5.26656-17.29409-.06041q-29.4224-29.36687-58.79363-58.785c-5.03321-5.04-5.22726-12.57736-.53-17.318,4.9636-5.00939,12.41211-4.85177,17.67143.40274Q74.94873,92.79528,92.19572,110.061C92.53965,110.40484,92.91642,110.71589,93.74823,111.46691Z"/><path class="cls-1" d="M108.01755,201.5115q-41.95959-.00488-83.9192-.01323C13.73017,201.48746,4.80629,195.87521,1.49406,187.17a21.72214,21.72214,0,0,1-1.37689-6.9133c-.1884-5.9276-.1084-11.86585-.043-17.79881.07069-6.41668,5.146-11.01312,12.08048-11.054A11.49658,11.49658,0,0,1,24.04,162.46068a44.52407,44.52407,0,0,0,.51087,8.32448,11.5233,11.5233,0,0,0,10.4274,8.99248,29.63466,29.63466,0,0,0,3.04487.14361q70.05984.009,140.11967.00064c7.43207-.00106,12.44922-3.6271,13.5774-10.0263a39.70507,39.70507,0,0,0,.22779-6.59173c.04479-7.06054,4.8913-11.84024,12.07589-11.87109,6.98454-.03,11.87885,4.79067,11.89636,11.73252.013,5.17074-.19594,10.35153.05537,15.51023.53545,10.9909-7.79391,20.26732-18.99294,22.32492a35.3432,35.3432,0,0,1-6.3174.49346Q149.34146,201.541,108.01755,201.5115Z"/></g></g></svg>