<?xml version="1.0" encoding="utf-8"?>
<!-- Generator: Adobe Illustrator 26.0.1, SVG Export Plug-In . SVG Version: 6.00 Build 0)  -->
<svg version="1.1" id="Layer_1" xmlns="http://www.w3.org/2000/svg" xmlns:xlink="http://www.w3.org/1999/xlink" x="0px" y="0px"
	 viewBox="0 0 19.3 11.9" style="enable-background:new 0 0 19.3 11.9;" xml:space="preserve">
<style type="text/css">
	.st0{fill:#707D99;}
</style>
<g>
	<path class="st0" d="M9.7,9.2C9.2,8.7,8.7,8.3,8.3,7.8C7.6,7.3,7,6.7,6.4,6.1C5.8,5.5,5.2,5,4.6,4.4C4,3.8,3.4,3.2,2.8,2.6
		C2.3,2.2,1.8,1.7,1.4,1.2C1,0.9,0.5,0.9,0.2,1.2c-0.2,0.2-0.2,0.7,0,0.9c0.7,0.6,1.3,1.2,2,1.8c0.6,0.6,1.2,1.1,1.8,1.7
		c0.6,0.6,1.2,1.2,1.9,1.8C6.4,8,7,8.6,7.5,9.2c0.5,0.5,1,0.9,1.5,1.4c0.4,0.4,0.9,0.4,1.3,0c0.6-0.6,1.2-1.2,1.8-1.7
		c0.6-0.6,1.2-1.2,1.8-1.7c0.6-0.6,1.2-1.2,1.8-1.7c0.5-0.5,1-1,1.6-1.5c0,0,0,0,0.1-0.1c0.6-0.5,1.1-1.1,1.7-1.6
		c0.1-0.1,0.3-0.3,0.2-0.6c-0.2-0.6-0.9-0.8-1.3-0.4c-0.2,0.2-0.4,0.4-0.6,0.6c-0.6,0.6-1.2,1.2-1.8,1.7c-0.6,0.6-1.2,1.1-1.8,1.7
		c-0.6,0.6-1.3,1.2-1.9,1.8c-0.5,0.5-1,1-1.6,1.5C10.1,8.8,9.9,8.9,9.7,9.2z"/>
	<path class="st0" d="M9.7,9.2c0.2-0.2,0.4-0.4,0.7-0.6c0.5-0.5,1-1,1.6-1.5c0.6-0.6,1.2-1.2,1.9-1.8c0.6-0.6,1.2-1.1,1.8-1.7
		c0.6-0.6,1.2-1.2,1.8-1.7c0.2-0.2,0.4-0.4,0.6-0.6c0.5-0.5,1.2-0.3,1.3,0.4c0.1,0.2-0.1,0.4-0.2,0.6c-0.6,0.6-1.1,1.1-1.7,1.6
		c0,0,0,0-0.1,0.1c-0.5,0.5-1,1-1.6,1.5c-0.6,0.6-1.2,1.2-1.8,1.7c-0.6,0.6-1.2,1.2-1.8,1.7c-0.6,0.6-1.2,1.2-1.8,1.7
		C9.9,11,9.4,11,9,10.6c-0.5-0.5-1-1-1.5-1.4C7,8.6,6.4,8,5.8,7.5C5.1,6.9,4.5,6.3,3.9,5.7C3.3,5.1,2.7,4.5,2.1,4
		c-0.7-0.6-1.3-1.2-2-1.8c-0.2-0.2-0.2-0.7,0-0.9c0.4-0.3,0.8-0.3,1.2,0c0.5,0.5,0.9,0.9,1.4,1.4C3.4,3.2,4,3.8,4.6,4.4
		C5.2,5,5.8,5.5,6.4,6.1C7,6.7,7.6,7.3,8.3,7.8C8.7,8.3,9.2,8.7,9.7,9.2z"/>
</g>
</svg>
