<svg xmlns="http://www.w3.org/2000/svg" viewBox="0 0 216 215.95877"><defs><style>.cls-1{fill:#283456;}</style></defs><g id="Layer_2" data-name="Layer 2"><g id="Layer_2-2" data-name="Layer 2"><path class="cls-1" d="M114.29754,0c4.09517.54693,8.21314.96148,12.2817,1.66275a105.30611,105.30611,0,0,1,58.16624,30.44637,106.0883,106.0883,0,0,1,29.29888,55.61172C224.92148,143.7656,189.35947,199.27251,133.87848,212.83a108.13848,108.13848,0,0,1-127.504-68.183A102.737,102.737,0,0,1,.3679,116.31887,17.47907,17.47907,0,0,0,0,114.29754V101.22292c.53569-3.877.96984-7.77114,1.624-11.628A105.71851,105.71851,0,0,1,28.0129,35.46327c.56022-.62077,1.11452-1.24688,1.87126-2.09405L20.655,24.52079H47.66674V51.16433L39.225,42.359C15.1244,65.96469,2.84506,109.47118,22.1027,149.25036A95.32282,95.32282,0,1,0,107.97111,12.54949V0Z"/><path class="cls-1" d="M89.83534,0c2.85827,1.06276,5.24046,2.65178,6.27144,5.71547A8.40891,8.40891,0,1,1,84.56217.8367C85.18614.53884,85.82777.278,86.46124,0Z"/><path class="cls-1" d="M63.19988,8.02864a8.42025,8.42025,0,1,1-8.35564,8.5372A8.47649,8.47649,0,0,1,63.19988,8.02864Z"/><path class="cls-1" d="M106.69214,109.06992h38.25118v19.04179H87.89422V70.98729h18.79792Z"/></g></g></svg>