<svg xmlns="http://www.w3.org/2000/svg" viewBox="0 0 16.20272 16.2072"><defs><style>.cls-1{fill:#bfbfbf;}</style></defs><g id="Layer_2" data-name="Layer 2"><g id="Layer_2-2" data-name="Layer 2"><path class="cls-1" d="M2.21319.03712A2.09623,2.09623,0,0,1,3.48145.71705q1.138,1.14589,2.28348,2.28441Q6.796,4.03217,7.82718,5.06272c.2165.21623.33933.21588.55755-.00222Q10.59522,2.85118,12.80525.64141A1.90882,1.90882,0,0,1,14.93054.132a1.96427,1.96427,0,0,1,.74438,3.16c-.06827.07925-.14176.15425-.21577.22829q-2.14783,2.14851-4.29639,4.2963c-.23725.23724-.23753.34432-.00189.58q2.20362,2.20383,4.40848,4.40643a1.95038,1.95038,0,0,1,.63243,1.35626,1.83006,1.83006,0,0,1-1.0727,1.82763,1.97493,1.97493,0,0,1-2.20249-.30475,2.903,2.903,0,0,1-.24149-.2271q-2.14273-2.14127-4.28466-4.28333c-.24178-.24171-.35-.241-.5945.0034q-2.198,2.19709-4.39487,4.39535a1.97336,1.97336,0,0,1-1.338.63429,1.8459,1.8459,0,0,1-1.77426-.93081A1.92664,1.92664,0,0,1,.3194,13.23333a2.507,2.507,0,0,1,.41259-.515q2.149-2.1597,4.30679-4.31059c.24491-.2449.24582-.35282.00436-.59423Q2.83916,5.61006.63463,3.40714A1.9238,1.9238,0,0,1,.06554,1.4802,1.9845,1.9845,0,0,1,2.21319.03712Z"/></g></g></svg>