<svg xmlns="http://www.w3.org/2000/svg" viewBox="0 0 47.0182 46.00806"><defs><style>.cls-1{fill:#4f5866;}</style></defs><g id="Layer_2" data-name="Layer 2"><g id="Layer_2-2" data-name="Layer 2"><path class="cls-1" d="M1.04783,27.74977c-.02241.40161-.01753.80741-.07814,1.20318a2.55686,2.55686,0,0,1-.27129.61877A1.43112,1.43112,0,0,0,.548,29.12777,3.26128,3.26128,0,0,0,.03291,28.699l1.1095-.32164L0,27.65974l1.34777-.2448-.00584-.15842L.236,26.99791c.31365-.36627.91145-.75287.8769-1.07073a23.294,23.294,0,0,1,3.9133-15.9263,22.97587,22.97587,0,1,1-3.386,18.61539c-.08-.30522-.17973-.6053-.27026-.90777Zm1.91089-4.7727A21.02369,21.02369,0,1,0,24.01043,2.00452,21.01323,21.01323,0,0,0,2.95872,22.97707Z"/><path class="cls-1" d="M31.36778,14.33755c-.90388,0-1.71657-.03911-2.52415.00838a2.36785,2.36785,0,0,0-2.51936,2.30955,9.54451,9.54451,0,0,0-.04566,1.22744c-.00633.778-.00183,1.556-.00183,2.44237h4.88347l-.793,5.10442h-4.056v12.127H20.84784V25.4325H16.44126V20.3979h4.33279c.02439-.46974.05389-.83411.06032-1.19888.0223-1.26414-.02395-2.53272.06564-3.7918A5.8655,5.8655,0,0,1,26.76,9.70441a30.33176,30.33176,0,0,1,3.98284.22472.86276.86276,0,0,1,.597.58079C31.39712,11.72949,31.36778,12.95312,31.36778,14.33755Z"/></g></g></svg>