<svg xmlns="http://www.w3.org/2000/svg" viewBox="0 0 28.40951 29.84116"><defs><style>.cls-1{fill:#5461fc;}</style></defs><g id="Layer_2" data-name="Layer 2"><g id="Layer_2-2" data-name="Layer 2"><path class="cls-1" d="M14.2031.00575c2.727.00008,5.454-.00411,8.18093.00113a5.87025,5.87025,0,0,1,6.0174,6.04127q.00216,3.49175.00011,6.98349c0,.04132.00025.08264,0,.124-.00433.698-.30782,1.10783-.82692,1.11689-.55895.00976-.87846-.38836-.87892-1.10313-.00159-2.438.0122-4.87618-.00634-7.31408A4.12561,4.12561,0,0,0,23.4,1.79619a5.39924,5.39924,0,0,0-1.14866-.10741q-8.07762-.00834-16.15525-.00209A4.207,4.207,0,0,0,2.52162,3.40778a3.80892,3.80892,0,0,0-.80037,2.29993c-.01036,2.50684-.006,5.01375-.01277,7.52062a1.75339,1.75339,0,0,1-.07217.56749.7655.7655,0,0,1-.83428.53544.764.764,0,0,1-.74394-.60256,1.69,1.69,0,0,1-.04984-.44876C.00534,10.82813-.01,8.37618.01056,5.92454A5.78917,5.78917,0,0,1,3.99892.332,6.62371,6.62371,0,0,1,5.981.01984C8.72136-.014,11.46235.00567,14.2031.00575Z"/><path class="cls-1" d="M7.82536,27.29562c.89416-.678,1.70389-1.29065,2.51225-1.90512,1.45774-1.10809,2.90592-2.22914,4.38054-3.31426a1.65568,1.65568,0,0,1,.90956-.28938c2.24481-.024,4.49006-.00162,6.735-.01631A4.12115,4.12115,0,0,0,26.63609,18.245a14.57944,14.57944,0,0,0,.06151-1.772.82146.82146,0,0,1,1.18425-.80638,1.0011,1.0011,0,0,1,.4845.65039A6.48322,6.48322,0,0,1,27.001,21.39013a5.76075,5.76075,0,0,1-4.45706,2.082c-2.13461.02427-4.26971.01178-6.40453.00142a1.32209,1.32209,0,0,0-.8686.28415c-2.51454,1.92446-5.04066,3.83377-7.5591,5.75314a.97528.97528,0,0,1-1.09522.2419.98127.98127,0,0,1-.48634-1.0129c-.00275-1.653-.01571-3.3059-.02557-4.95884-.00049-.081-.00761-.16194-.01212-.25258-.472-.06212-.93646-.09281-1.38746-.18759a5.86419,5.86419,0,0,1-4.69792-5.758c-.00321-.38564-.01366-.772.00432-1.15685a.84049.84049,0,0,1,.883-.88252.8504.8504,0,0,1,.81655.911A15.47192,15.47192,0,0,0,1.80912,18.429a4.10053,4.10053,0,0,0,3.88576,3.33256c.35767.01344.716.00736,1.07407.01223.70619.0096,1.01221.30342,1.02108,1.0042.01672,1.32225.0242,2.64462.03516,3.96694C7.82644,26.89514,7.82536,27.04533,7.82536,27.29562Z"/><path class="cls-1" d="M13.35417,14.04567c0-.3995-.00357-.799.0008-1.1985.00755-.69038.28518-.97868.96771-1.01337a2.85,2.85,0,1,0-2.94782-3.16345c-.01478.13693-.0274.27431-.04867.41029a.83468.83468,0,0,1-1.66366-.125A4.43178,4.43178,0,0,1,11.339,5.46453a4.53832,4.53832,0,1,1,4.164,7.86216c-.37034.105-.511.248-.478.63863a13.851,13.851,0,0,1,.00518,1.40433.84905.84905,0,0,1-.84274.92407.83889.83889,0,0,1-.83774-.9257c-.007-.22016-.00114-.44072-.00114-.6611v-.66125Z"/><path class="cls-1" d="M14.16814,19.11988a1.046,1.046,0,0,1-1.04786-1.08495,1.06763,1.06763,0,0,1,1.05587-1.04608,1.096,1.096,0,0,1,1.08015,1.076A1.06893,1.06893,0,0,1,14.16814,19.11988Z"/></g></g></svg>