<svg xmlns="http://www.w3.org/2000/svg" viewBox="0 0 216 166.23416"><defs><style>.cls-1{fill:#4f5866;}</style></defs><g id="Layer_2" data-name="Layer 2"><g id="Layer_1-2" data-name="Layer 1"><path class="cls-1" d="M187.66949,88.20546c-.26426.78228-.49951,1.48747-.74049,2.1907a23.06355,23.06355,0,0,1-21.60866,15.6533A22.777,22.777,0,0,1,143.65125,90.566c-.65984-1.96024-1.54447-2.40977-3.49331-2.40711q-66.42429.09081-132.84877.04349a24.15811,24.15811,0,0,1-2.93262-.08581,5.0554,5.0554,0,0,1-.08563-10.0067,23.49647,23.49647,0,0,1,3.15639-.11224q66.31148-.0072,132.62289.04583c2.05681.00306,2.94253-.54517,3.62568-2.54469a22.76207,22.76207,0,0,1,43.128.25527c.63671,1.94173,1.54986,2.29506,3.34036,2.2748q10.39116-.11758,20.78454.01609a5.05053,5.05053,0,0,1,1.82351,9.75857,9.77974,9.77974,0,0,1-3.10315.38537c-6.47659.03258-12.95344.01653-19.4302.0166C189.41431,88.20547,188.58968,88.20546,187.66949,88.20546Zm-9.96864-5.154a12.49849,12.49849,0,1,0-12.49661,12.69931A12.41958,12.41958,0,0,0,177.70085,83.05147Z"/><path class="cls-1" d="M164.94171,148.38617c-14.98484.00005-29.96975.02189-44.95441-.03015-1.6937-.00587-2.57427.27067-3.18537,2.16177a22.79014,22.79014,0,0,1-43.30227.08123c-.58421-1.74836-1.31916-2.26322-3.13191-2.25723-21.00867.06951-42.01765.04616-63.02655.03913a21.0023,21.0023,0,0,1-3.15415-.13718,5.0589,5.0589,0,0,1,.06541-9.97735,20.23633,20.23633,0,0,1,2.92928-.12483q31.6263-.00951,63.25252.0294c1.65626.00409,2.44917-.34373,3.02319-2.08727a22.81356,22.81356,0,0,1,43.3979.072c.53361,1.64123,1.26079,2.01291,2.83411,2.01076q44.3897-.06073,88.7795-.02557a24.65423,24.65423,0,0,1,3.15633.11158,5.0561,5.0561,0,0,1,.07113,10.00754,20.90107,20.90107,0,0,1-2.92968.12143Q186.85423,148.39164,164.94171,148.38617ZM82.6399,143.16953a12.49667,12.49667,0,1,0,12.44525-12.53027A12.472,12.472,0,0,0,82.6399,143.16953Z"/><path class="cls-1" d="M40.421,28.0622c-11.109,0-22.0235.00162-32.938-.00275a27.98074,27.98074,0,0,1-2.93342-.07391A5.05926,5.05926,0,0,1,4.3369,17.945a20.80983,20.80983,0,0,1,2.92866-.1359c10.392-.00892,20.78418-.036,31.17579.0277a2.31666,2.31666,0,0,0,2.68-1.91636,22.78082,22.78082,0,0,1,43.428-.0585c.60523,1.86147,1.57875,1.96253,3.11825,1.96156q60.31874-.03782,120.63748-.01445a24.18189,24.18189,0,0,1,3.37966.14407,5.05709,5.05709,0,0,1-.27026,10.03539,28.77506,28.77506,0,0,1-2.93363.07111q-60.20583.00448-120.41161-.03591c-1.95855-.0025-2.96652.35536-3.66846,2.46068A22.71179,22.71179,0,0,1,62.90819,45.88564,23.0568,23.0568,0,0,1,41.27451,30.59693C40.99575,29.82109,40.7474,29.03433,40.421,28.0622ZM75.45247,23.022A12.59922,12.59922,0,1,0,62.78512,35.597,12.597,12.597,0,0,0,75.45247,23.022Z"/></g></g></svg>