<svg xmlns="http://www.w3.org/2000/svg" viewBox="0 0 216 240.24266"><defs><style>.cls-1{fill:#283456;}</style></defs><g id="Layer_2" data-name="Layer 2"><g id="Layer_2-2" data-name="Layer 2"><path class="cls-1" d="M181.16851,0c1.79541.49727,3.64393.85507,5.3773,1.51524,8.94307,3.40605,14.021,10.03626,15.1821,19.404a88.66085,88.66085,0,0,1,.28,14.045c-.19275,5.33469-1.31183,7.978-4.85882,13.65591.60493.42049,1.22207.844,1.83369,1.27541,10.74215,7.57684,16.6863,17.8718,16.8832,31.06765.224,15.01089.118,30.02794.03424,45.04163-.0382,6.84882-3.42461,11.7162-9.619,14.53431a2.57218,2.57218,0,0,0-1.80554,2.54706q-1.516,24.57881-3.13914,49.151c-.73334,11.23171-1.25028,22.48561-2.33828,33.6835-.84053,8.651-7.64424,14.26974-16.32344,14.30728-3.28429.01421-6.56886.02217-9.853-.00217-8.33538-.06177-15.16663-5.8562-16.03152-14.13592-.8847-8.46918-1.35214-16.98479-1.88224-25.48755q-1.77316-28.44069-3.4055-56.89007a3.26531,3.26531,0,0,0-2.22863-3.30566,15.53239,15.53239,0,0,1-9.406-15.38123,4.66029,4.66029,0,0,1,4.49035-4.781c2.62122-.11462,4.62229,1.79961,4.87257,4.66114.466,5.32794,1.67853,6.68691,6.74081,7.55493,2.8402.487,4.23322,2.00367,4.45151,5.16414q1.02622,14.8569,1.94544,29.72117c1.15022,18.49207,2.23935,36.988,3.41951,55.47811.37259,5.83751,2.83568,8.02158,8.65327,8.02261q3.75357.00066,7.50712-.00053c5.05832-.00654,7.59716-2.27847,8.00615-7.44029.44453-5.61039.70766-11.235,1.06648-16.85235q1.7865-27.96923,3.58206-55.93782c.25866-4.0571.47105-8.11713.71915-12.17494.26208-4.2862,1.38036-5.5007,5.56262-6.08683a6.1384,6.1384,0,0,0,5.6155-6.16587c.04291-15.63931.42252-31.295-.168-46.91272-.4013-10.61333-6.28591-18.425-15.74118-23.34518a3.74317,3.74317,0,0,0-2.78477.01091,25.19823,25.19823,0,0,1-19.84121-.00354,3.96253,3.96253,0,0,0-2.98839.11274Q150.38956,63.88132,149.2698,80.466c-.04622.70131.00908,1.40942-.03976,2.1104-.20374,2.92441-2.0664,4.74809-4.78117,4.70877-2.71418-.0393-4.51415-1.90354-4.57454-4.88133a37.4889,37.4889,0,0,1,6.91284-22.69628,39.5312,39.5312,0,0,1,11.90539-11.025c-6.66041-9.22909-5.72589-19.60159-4.21414-29.80115,1.41735-9.56278,8.8521-16.48332,18.35227-18.38507C173.4295.37651,174.01045.16753,174.5997,0ZM163.21524,28.80529l.02685.00039a67.59776,67.59776,0,0,0,.03525,6.7893,14.711,14.711,0,0,0,14.50439,13.034,14.50818,14.50818,0,0,0,14.66385-12.808,74.62449,74.62449,0,0,0,.03294-13.56565A14.36052,14.36052,0,0,0,177.78183,9.28862a14.56612,14.56612,0,0,0-14.53615,13.194C163.04579,24.572,163.21524,26.69676,163.21524,28.80529Z"/><path class="cls-1" d="M82.80182,85.743c-5.40629-8.704-4.858-18.09613-2.82616-27.30864,2.14616-9.73077,11.30609-15.70445,21.74661-15.22925,9.95967.45331,18.33442,7.4616,19.72578,17.20715a66.04645,66.04645,0,0,1,.31284,15.17974c-.31344,3.45455-2.01359,6.78328-3.19629,10.48886.38929.2872,1.2764.90754,2.127,1.57446a33.3128,33.3128,0,0,1,13.35049,27.18458c.08985,11.10359.04675,22.20855.011,33.31273-.02053,6.37731-2.833,11.04007-8.64183,13.88268a2.95032,2.95032,0,0,0-1.36934,2.07023c-1.34727,18.16413-2.60365,36.335-3.90217,54.50276a95.823,95.823,0,0,1-.90567,9.56044,14.27393,14.27393,0,0,1-14.31025,12.05688c-2.73674.0258-5.47394.01-8.2109.00392-8.66965-.01924-14.78723-5.63566-15.41835-14.35606q-2.21763-30.64137-4.27581-61.29412a2.84984,2.84984,0,0,0-1.85833-2.80019c-5.0629-2.43495-8.10859-6.56324-8.18834-12.17731-.17763-12.50691-.33527-25.03124.13043-37.52492.4-10.73236,5.70227-19.125,14.4213-25.35421C81.95861,86.412,82.373,86.07275,82.80182,85.743Zm41.86741,44.93419c0-5.23591.05718-10.47256-.01243-15.70753-.12782-9.61406-4.28766-16.95089-12.67913-21.72539a4.23188,4.23188,0,0,0-3.18268-.20287,22.66475,22.66475,0,0,1-16.69211-.0149,3.99064,3.99064,0,0,0-2.9855.10595c-7.299,4.06332-12.14355,10.20917-12.52394,18.59354-.559,12.32172-.31151,24.68256-.2864,37.02648.00623,3.06848,1.76139,4.608,5.05239,5.08551,2.883.41831,4.34685,1.88362,4.54979,4.7296q1.45855,20.45456,2.87364,40.9122c.607,8.57174,1.2136,17.14374,1.881,25.71089.30295,3.88906,2.32539,5.641,6.29382,5.65436q3.5166.01184,7.03328-.00013c3.94358-.01451,5.97325-1.78112,6.26792-5.68173.68848-9.114,1.29222-18.23445,1.94085-27.35152q1.40532-19.75376,2.83893-39.50543a4.57358,4.57358,0,0,1,4.08169-4.4333c4.4179-.73091,5.53544-2.03236,5.548-6.55028C124.68378,141.77418,124.672,136.22565,124.66923,130.67717ZM88.10693,68.59149l.19147.01165c0,1.718-.09466,3.44217.01686,5.15291a11.831,11.831,0,0,0,11.49405,11.392c6.14581.4013,11.50159-3.45925,12.41957-9.66548a52.17056,52.17056,0,0,0,.22169-12.59285,11.75923,11.75923,0,0,0-11.22364-10.39c-6.14122-.26954-11.25905,3.43341-12.55542,9.3546A49.113,49.113,0,0,0,88.10693,68.59149Z"/><path class="cls-1" d="M13.98025,125.00114c-4.46582-7.985-4.16781-16.48316-2.13184-24.84226,2.11308-8.67571,10.39829-14.018,19.56968-13.53988,9.45612.493,16.94562,6.5226,18.28,15.51525,1.14627,7.72512,1.77942,15.59553-2.77487,22.831,5.4319,3.68928,9.7001,8.3508,11.81129,14.51673a38.60956,38.60956,0,0,1,2.19353,10.933c.31426,8.74479.15361,17.50881.08685,26.26432-.03947,5.17718-2.2901,9.29718-6.892,11.688-1.89158.98273-2.26306,2.21567-2.44389,4.00082-1.20467,11.89265-2.39353,23.78774-3.73472,35.66542a13.31889,13.31889,0,0,1-13.66082,12.19385c-2.57979.01739-5.16.024-7.73966-.00183-6.83581-.06833-12.43345-4.65513-13.34771-11.4481-1.13541-8.43614-1.8895-16.92361-2.80709-25.389-.45465-4.19441-.85787-8.39554-1.40883-12.57722a2.856,2.856,0,0,0-1.28881-1.86675A13.51226,13.51226,0,0,1,.00061,176.01787c.063-8.13012.04254-16.26121.00914-24.39169q-.06754-16.44392,13.2613-26.0285C13.521,125.41705,13.745,125.20035,13.98025,125.00114Zm-4.107,37.67552-.46891.00188c0,4.45337-.01714,8.90685.0059,13.36012.01593,3.07817.99364,4.18878,4.0123,4.68375,2.89734.47509,4.22414,1.83613,4.54286,4.77292q1.65519,15.25184,3.27265,30.50776c.3785,3.57148.6052,7.16193,1.08594,10.71877.39543,2.92575,1.85583,4.08564,4.7194,4.11924,2.10921.02476,4.21895.01026,6.32843.00431,3.62676-.0102,4.91-1.05177,5.38619-4.7061.48407-3.71507.79558-7.45268,1.17917-11.18078.99094-9.631,1.94828-19.26572,2.98582-28.89176.39722-3.68534,1.53141-4.79918,5.01795-5.37707,2.54478-.42181,3.69012-1.75873,3.69729-4.54117.02237-8.67226.18224-17.3497-.05885-26.01546-.2155-7.74563-3.91272-13.69743-10.59163-17.65057a4.31443,4.31443,0,0,0-3.19015-.21978,22.042,22.042,0,0,1-14.69842-.04328,4.06364,4.06364,0,0,0-2.98623.20382c-5.43135,3.10246-9.31867,7.70409-10.0992,13.90516C9.33778,151.69865,9.87323,157.22135,9.87323,162.67666ZM20.043,110.05433l.13255.00493c0,1.40649-.0612,2.81612.01072,4.21892a10.045,10.045,0,0,0,10.20258,9.81966A10.01235,10.01235,0,0,0,40.801,114.74045a66.73011,66.73011,0,0,0,.01182-9.37048c-.35274-5.37053-4.40567-9.15546-9.84365-9.47538a10.03438,10.03438,0,0,0-10.56167,8.09063A44.77892,44.77892,0,0,0,20.043,110.05433Z"/><path class="cls-1" d="M144.50094,99.09534a4.70844,4.70844,0,0,1,4.70162,4.53967,4.66059,4.66059,0,0,1-9.31633.29608A4.65315,4.65315,0,0,1,144.50094,99.09534Z"/></g></g></svg>