<svg xmlns="http://www.w3.org/2000/svg" viewBox="0 0 27.93793 29.8"><defs><style>.cls-1{fill:none;stroke:#283456;stroke-miterlimit:10;}</style></defs><g id="Layer_2" data-name="Layer 2"><g id="Layer_1-2" data-name="Layer 1"><path class="cls-1" d="M.5,22.34828c.0548-.28146.10848-.56314.1646-.84433a4.68515,4.68515,0,0,1,1.99392-3.102,13.14059,13.14059,0,0,1-1.23678-1.00408c-.59969-.61623-.40339-1.19672.4269-1.39223.98266-.23138,1.00792-.21937,1.72074.87314.39078-1.19174.725-2.34273,1.15073-3.45879a10.56435,10.56435,0,0,1,.98116-1.839,3.29979,3.29979,0,0,1,.76037-.619l.60979,1.33679-.17528-.07453a13.02772,13.02772,0,0,0-1.06853,1.87607c-.43108,1.14828-.73418,2.3446-1.10684,3.57308H23.81287c-.41147-1.4885-.722-2.94084-1.2386-4.31574-.20162-.53657-.86689-.89893-1.321-1.34063l-.1782.10807c.07762-.20514.15268-.41131.23335-.61525.26886-.67967.51658-.77909,1.18983-.446a3.15381,3.15381,0,0,1,1.56882,2.12966c.28518.99033.51062,1.99783.76439,2.99727.04341.171.09839.339.17147.58836.28549-.50063.43625-1.11138,1.13369-.85888.44682.16177.86839.39331,1.30128.59357v.37242L25.62784,18.615a7.45365,7.45365,0,0,1,.96556,1.319,23.82449,23.82449,0,0,1,.84453,2.41435V24.831c-.063,1.11033-.14816,2.22005-.17883,3.33128A1.16623,1.16623,0,0,1,26.6931,29.3H22.72069l-.779-1.42994H6.01956L5.21724,29.3H1.24483A1.16387,1.16387,0,0,1,.7005,28.21643C.66485,27.00429.57073,25.79387.5,24.58276Zm21.19214,1.962V24.3046c.26783,0,.53566.00137.80348-.00024,1.331-.008,1.63047-.22534,2.05338-1.48838.21763-.65.03516-.92421-.63536-.85676-1.04345.105-2.08433.242-3.12221.39343a1.39526,1.39526,0,0,0-1.18456,1.03417c-.18257.573-.00433.874.60262.91651C20.70146,24.33776,21.19776,24.31031,21.69214,24.31031Zm-15.4766-.00572v.01373a7.23221,7.23221,0,0,0,1.17492-.01467c.33762-.05624.8701-.175.92952-.37892A1.50453,1.50453,0,0,0,8.0254,22.874,1.226,1.226,0,0,0,7.274,22.3857c-1.11838-.18414-2.24613-.3177-3.37411-.43432-.48405-.05-.70842.22133-.54349.69646.429,1.236.5956,1.716,2.05363,1.65826C5.67814,24.29549,5.947,24.30459,6.21554,24.30459Z"/><path class="cls-1" d="M14.77586.5a6.771,6.771,0,0,1,3.06527,1.36444,6.56368,6.56368,0,0,1,2.10335,6.3494,11.88606,11.88606,0,0,1-5.33006,8.29093.67515.67515,0,0,1-.88591.03074,12.7606,12.7606,0,0,1-5.70143-8.0746A6.41057,6.41057,0,0,1,13.318.59985.93712.93712,0,0,0,13.53448.5Zm-.78151,11.07438c.20626-.01276.4133-.0184.61848-.041a2.17253,2.17253,0,0,0,.36127-.08234A4.39979,4.39979,0,0,0,18.16639,8.1434,4.77206,4.77206,0,0,0,16.9106,3.34754a4.09315,4.09315,0,0,0-5.61631-.2584A4.87354,4.87354,0,0,0,9.60738,6.29669,4.6262,4.6262,0,0,0,13.99435,11.57438Z"/><path class="cls-1" d="M13.64249,7.94962V9.29283H12.1657V4.35751c.93762,0,1.86454-.06244,2.77888.0181a1.63089,1.63089,0,0,1,1.45188,1.6576,1.67342,1.67342,0,0,1-1.42963,1.805C14.56493,7.91229,14.14892,7.90975,13.64249,7.94962Zm.02172-1.088a5.27066,5.27066,0,0,0,1.1087-.43346.69637.69637,0,0,0-.04148-.64336,4.59152,4.59152,0,0,0-1.06722-.34641Z"/></g></g></svg>