<?xml version="1.0" encoding="utf-8"?>
<!-- Generator: Adobe Illustrator 26.0.1, SVG Export Plug-In . SVG Version: 6.00 Build 0)  -->
<svg version="1.1" id="Layer_1" xmlns="http://www.w3.org/2000/svg" xmlns:xlink="http://www.w3.org/1999/xlink" x="0px" y="0px"
	 viewBox="0 0 22.9 25" style="enable-background:new 0 0 22.9 25;" xml:space="preserve">
<style type="text/css">
	.st0{fill:#CCA602;}
</style>
<g id="Layer_2_00000095330465937142196310000004982683759562517149_">
	<g id="Layer_2-2">
		<path class="st0" d="M14.1,0c0.3,0.1,0.6,0.1,0.9,0.2c2.2,0.6,3.8,2.6,3.8,4.9c0,2.1,0,4.2,0,6.3c0,0.6-0.4,1-1,1.1
			c-0.6,0-1-0.4-1.1-1c0,0,0,0,0-0.1c0-2,0-4.1,0-6.1c0-1.5-1-2.8-2.4-3.1c-0.3-0.1-0.5-0.1-0.8-0.1c-2.7,0-5.5,0-8.2,0
			c-1.7,0-3.2,1.3-3.2,3c0,0.1,0,0.1,0,0.2c0,4.8,0,9.6,0,14.4c0,1.7,1.3,3.2,3,3.2c0.1,0,0.1,0,0.2,0c1.3,0,2.7,0,4,0
			c0.5,0,1,0.3,1.1,0.9c0.1,0.5-0.2,1.1-0.8,1.2H9.5c-1.6,0-3.3,0.1-4.9,0c-2.3-0.2-4.1-2-4.5-4.3C0,20.3,0,20,0,19.6
			C0,14.8,0,10,0,5.3c0-2.6,1.8-4.8,4.4-5.2C4.5,0,4.6,0,4.7,0H14.1z"/>
		<path class="st0" d="M18.8,22.3c-0.7,0.7-1.4,1.4-2.1,2.1c-0.1,0.1-0.2,0.2-0.3,0.3c-0.4,0.4-1.1,0.4-1.5,0l0,0
			c-0.4-0.4-0.4-1,0-1.4l0,0c0.7-0.7,1.5-1.5,2.2-2.2c0.1-0.1,0.2-0.1,0.2-0.2c-0.8-0.8-1.6-1.6-2.4-2.4c-0.4-0.4-0.4-1-0.1-1.5
			s1-0.4,1.5-0.1l0,0c0.7,0.7,1.5,1.4,2.2,2.2c0.1,0.1,0.1,0.1,0.2,0.2c0.1-0.1,0.2-0.1,0.2-0.2c0.7-0.7,1.4-1.4,2.2-2.2
			c0.4-0.4,1-0.5,1.5-0.1c0.4,0.4,0.5,1,0.1,1.5c0,0,0,0-0.1,0.1c-0.7,0.7-1.4,1.4-2.2,2.2c-0.1,0.1-0.1,0.1-0.3,0.2
			c0.1,0,0.2,0.1,0.3,0.2c0.7,0.7,1.5,1.5,2.2,2.2c0.3,0.3,0.4,0.8,0.2,1.2c-0.2,0.4-0.6,0.6-1,0.6c-0.3,0-0.5-0.1-0.7-0.4
			C20.3,23.8,19.6,23.1,18.8,22.3z"/>
		<path class="st0" d="M9.4,9.4c1,0,2.1,0,3.1,0c0.6,0,1,0.5,1,1c0,0.4-0.3,0.8-0.7,1c-0.1,0-0.3,0.1-0.5,0.1c-2,0-4,0-6.1,0
			c-0.6,0-1.1-0.4-1.1-1c0-0.2,0-0.4,0.1-0.5c0.2-0.4,0.6-0.6,1-0.6C7.3,9.4,8.4,9.4,9.4,9.4z"/>
		<path class="st0" d="M9.4,5.2c1,0,2.1,0,3.1,0c0.4,0,0.8,0.2,0.9,0.6c0.2,0.4,0.1,0.8-0.2,1.1c-0.2,0.3-0.5,0.4-0.9,0.4
			c-1.2,0-2.4,0-3.6,0c-0.9,0-1.8,0-2.6,0c-0.5,0-0.9-0.4-1-0.9c0.1-0.6,0.4-1,0.9-1.2c0.1,0,0.3,0,0.4,0C7.4,5.2,8.4,5.2,9.4,5.2
			L9.4,5.2z"/>
		<path class="st0" d="M7.8,15.6c-0.5,0-1,0-1.5,0c-0.6,0-1.1-0.4-1.1-1s0.4-1.1,1-1.1h0.1c1,0,2,0,3,0c0.6,0,1.1,0.4,1.1,1
			s-0.4,1.1-1,1.1H9.3C8.8,15.6,8.3,15.6,7.8,15.6z"/>
	</g>
</g>
</svg>
