<svg xmlns="http://www.w3.org/2000/svg" viewBox="0 0 22.93253 24.9662"><defs><style>.cls-1{fill:#138975;}</style></defs><g id="Layer_2" data-name="Layer 2"><g id="Layer_2-2" data-name="Layer 2"><path class="cls-1" d="M14.05651,0c.29232.06314.58838.11269.87636.19157a5.15657,5.15657,0,0,1,3.81628,4.8882c.027,2.11179.01082,4.22417.00614,6.33627a1.03594,1.03594,0,1,1-2.07109-.00648c-.005-2.039.00048-4.078-.00312-6.117a3.1278,3.1278,0,0,0-2.38475-3.11559,3.5025,3.5025,0,0,0-.82119-.08933q-4.09081-.00953-8.18166-.00276A3.11579,3.11579,0,0,0,2.08966,5.29061q-.00169,7.18937,0,14.37871a3.12227,3.12227,0,0,0,3.20882,3.20183c1.3351.004,2.67023-.00156,4.00534.002a1.04153,1.04153,0,0,1,1.10214.86746,1.00386,1.00386,0,0,1-.9189,1.20129c-1.63531.01375-3.27711.06776-4.905-.04994A5.09345,5.09345,0,0,1,.08615,20.6321a6.45346,6.45346,0,0,1-.0815-.99362q-.00769-7.165-.00248-14.33A5.21331,5.21331,0,0,1,4.37049.06782C4.48939.04565,4.60813.02263,4.727,0Z"/><path class="cls-1" d="M18.75982,22.26153c-.70241.70391-1.39086,1.394-2.07949,2.0838-.10336.10354-.20433.20976-.312.30867a1.03923,1.03923,0,0,1-1.47139-.00724,1.02248,1.02248,0,0,1,.00682-1.46616c.72322-.73651,1.45827-1.46149,2.19141-2.18824a1.58414,1.58414,0,0,1,.23609-.16018c-.836-.83211-1.6222-1.60874-2.40137-2.39232a1.03917,1.03917,0,1,1,1.46189-1.47564c.729.71938,1.45173,1.44509,2.17581,2.16941.057.057.10427.1238.1691.20172.08993-.08319.15489-.13951.21562-.2.71966-.71726,1.43642-1.43744,2.15874-2.152a1.0408,1.0408,0,1,1,1.48565,1.4551c-.71316.72364-1.43617,1.43763-2.15664,2.15407-.06294.06258-.13811.11291-.28523.23152a1.6735,1.6735,0,0,1,.27642.17185q1.10031,1.08953,2.19186,2.18782a1.01437,1.01437,0,0,1,.2092,1.16925,1.0434,1.0434,0,0,1-1.00571.6,1.09989,1.09989,0,0,1-.72786-.353C20.33035,23.82813,19.55866,23.05962,18.75982,22.26153Z"/><path class="cls-1" d="M9.38894,9.35862c1.04071.00013,2.08146-.0044,3.12214.002a1.03435,1.03435,0,0,1,.35663,2.006,1.42366,1.42366,0,0,1-.45329.07229q-3.03676.00689-6.07355.0015A1.04083,1.04083,0,0,1,5.31495,9.96367a1.00687,1.00687,0,0,1,.97623-.60451Q7.84005,9.356,9.38894,9.35862Z"/><path class="cls-1" d="M9.41624,5.20527c1.04193,0,2.0839-.00529,3.12576.00254a.9621.9621,0,0,1,.91763.61455.98492.98492,0,0,1-.163,1.09316,1.0551,1.0551,0,0,1-.869.36115c-1.19658-.00541-2.3932-.0016-3.5898-.00215-.87911-.0004-1.75838.00745-2.63728-.00693A1.01846,1.01846,0,0,1,5.22038,6.352a1.03458,1.03458,0,0,1,.75681-1.10989,1.64189,1.64189,0,0,1,.41093-.03738c1.00937-.00292,2.01875-.00158,3.02812-.00158Z"/><path class="cls-1" d="M7.82117,15.59723c-.5038,0-1.00762.00256-1.5114-.00067a1.04119,1.04119,0,1,1-.014-2.08035q1.52348-.013,3.04713-.0001a1.04137,1.04137,0,1,1-.0103,2.08047C8.82878,15.59986,8.325,15.59725,7.82117,15.59723Z"/></g></g></svg>