<?xml version="1.0" encoding="utf-8"?>
<!-- Generator: Adobe Illustrator 26.0.1, SVG Export Plug-In . SVG Version: 6.00 Build 0)  -->
<svg version="1.1" id="Layer_1" xmlns="http://www.w3.org/2000/svg" xmlns:xlink="http://www.w3.org/1999/xlink" x="0px" y="0px"
	 viewBox="0 0 226 217.5" style="enable-background:new 0 0 226 217.5;" xml:space="preserve">
<style type="text/css">
	.st0{fill:none;stroke:#3B4BFF;stroke-width:10;stroke-miterlimit:10;}
	.st1{clip-path:url(#SVGID_00000060732730244408341430000017779610750805633697_);}
	.st2{fill:#3B4BFF;}
</style>
<g id="Layer_2_00000045583170192350726410000010403641085544127373_">
	<g id="Layer_1-2">
		<path class="st0" d="M112.2,5h2.1c0.2,0.1,0.3,0.1,0.5,0.1c2.5,0.2,4.9,0.9,7.2,2c3.8,1.8,6.9,4.7,9,8.4
			c8.1,13.4,16.1,26.9,24.2,40.3c0.7,1.3,2,2.2,3.4,2.5c14.8,3.4,29.5,6.8,44.3,10.2c2.3,0.4,4.6,1.2,6.8,2.2
			c7.8,3.9,12.2,12.3,11.2,20.9c-0.4,3.9-2,7.5-4.5,10.5c-4.2,4.9-8.4,9.7-12.6,14.6c-6.3,7.3-12.7,14.6-19,22c-1,1.1-1.4,2.5-1.3,4
			c0.2,2.2,0.4,4.3,0.6,6.5c0.3,3.4,0.6,6.8,0.9,10.2c0.3,3.9,0.7,7.8,1,11.7c0.5,5.6,1,11.3,1.5,16.9c0.3,2.1,0.3,4.2,0.1,6.3
			c-1.3,10.4-10.1,18.2-20.6,18.2c-2.9,0-5.8-0.7-8.4-1.9c-14.4-6.1-28.8-12.2-43.2-18.3c-1.4-0.6-3.1-0.6-4.5,0
			c-14.4,6.1-28.9,12.3-43.3,18.4c-3.5,1.6-7.3,2.1-11.1,1.6c-5-0.7-9.7-3.2-12.9-7.1c-3.6-4.1-5.3-9.4-4.9-14.8
			c0.3-3.8,0.6-7.6,1-11.4c0.5-5.6,1-11.2,1.4-16.8c0.3-3.4,0.6-6.8,0.9-10.2c0.3-3,0.5-6.1,0.8-9.1c0.2-1.6-0.3-3.3-1.4-4.5
			c-3.3-3.7-6.5-7.5-9.8-11.3c-7-8-13.9-16-20.9-24.1c-3-3.2-4.8-7.3-5.3-11.7c-0.1-0.7-0.1-1.5-0.2-2.2V89c0-0.3,0.1-0.6,0.1-0.8
			c0.1-1.4,0.4-2.9,0.7-4.3c1.7-6.9,7-12.5,13.8-14.4c2.5-0.8,5.1-1.3,7.7-1.9c13.4-3.1,26.7-6.2,40.1-9.3c1.4-0.3,2.7-1.2,3.4-2.5
			c5.5-9.2,11.1-18.4,16.6-27.7c2.8-4.7,5.6-9.5,8.5-14.1c3.1-4.8,8-8,13.6-8.8C110.5,5.2,111.3,5.1,112.2,5z"/>
	</g>
</g>
<g>
	<g>
		<defs>
			<rect id="SVGID_1_" x="9.4" y="4.4" width="108.6" height="208.8"/>
		</defs>
		<clipPath id="SVGID_00000128449848622698847600000002701636132300619440_">
			<use xlink:href="#SVGID_1_"  style="overflow:visible;"/>
		</clipPath>
		
			<g id="Layer_2_00000035521201060690819190000016891657792691334542_" style="clip-path:url(#SVGID_00000128449848622698847600000002701636132300619440_);">
			<g id="Layer_1-2_00000112601813956658211440000017489230211634501768_">
				<path class="st2" d="M117.2,4.4h2.1c0.2,0,0.3,0.1,0.5,0.1c2.5,0.2,5,0.8,7.3,2c3.7,1.9,7,4.8,9,8.4
					c8.1,13.5,16.3,27.1,24.4,40.6c0.7,1.3,2,2.2,3.4,2.6c14.8,3.4,29.7,6.8,44.5,10.3c2.4,0.4,4.7,1.1,6.8,2.2
					c7.8,3.9,12.3,12.3,11.3,21.1c-0.4,3.9-2,7.6-4.6,10.6c-4.2,4.9-8.4,9.8-12.7,14.6c-6.4,7.4-12.8,14.7-19.2,22.1
					c-1,1.1-1.5,2.6-1.2,4c0.2,2.2,0.4,4.4,0.6,6.5c0.3,3.4,0.6,6.8,0.8,10.3c0.3,3.9,0.7,7.8,1,11.7c0.5,5.7,0.9,11.3,1.5,17
					c0.3,2.1,0.3,4.3,0.1,6.3c-1.3,10.5-10.2,18.3-20.8,18.3c-2.9,0-5.8-0.7-8.5-1.9c-14.5-6.1-29-12.3-43.5-18.5
					c-1.5-0.6-3.1-0.6-4.5,0c-14.5,6.2-29.1,12.3-43.6,18.5c-3.5,1.6-7.4,2.1-11.2,1.7c-5.1-0.6-9.8-3.2-13-7.2
					c-3.6-4-5.4-9.4-4.9-14.8c0.2-3.8,0.6-7.7,0.9-11.5c0.5-5.6,0.9-11.2,1.5-16.9c0.3-3.4,0.6-6.8,0.9-10.3c0.3-3,0.5-6.1,0.8-9.1
					c0.2-1.7-0.3-3.3-1.5-4.5c-3.3-3.7-6.5-7.6-9.9-11.3c-7-8.1-14-16.2-21.1-24.2c-2.9-3.2-4.8-7.4-5.3-11.7
					c-0.1-0.7-0.1-1.5-0.2-2.3v-0.2c0-0.3,0.1-0.5,0.1-0.8c0.1-1.5,0.3-2.9,0.6-4.3c1.7-7,7.1-12.6,13.9-14.5
					c2.5-0.8,5.2-1.2,7.8-1.9c13.5-3.1,26.9-6.2,40.4-9.3c1.5-0.3,2.7-1.1,3.4-2.5c5.6-9.2,11.1-18.6,16.7-27.8
					c2.8-4.8,5.6-9.5,8.6-14.1c3.1-4.8,8.1-8,13.7-8.8C115.5,4.5,116.3,4.5,117.2,4.4z"/>
			</g>
		</g>
	</g>
</g>
</svg>
