<svg xmlns="http://www.w3.org/2000/svg" viewBox="0 0 216 216"><defs><style>.cls-1{fill:black;}</style></defs><g id="Layer_2" data-name="Layer 2"><g id="Layer_1-2" data-name="Layer 1"><path class="cls-1" d="M46.8,216c-3.88444-1.47262-8.09107-2.41133-11.58994-4.52285-8.77665-5.29662-13.471-13.4403-13.54231-23.68944-.184-26.4673-.07472-52.9367-.05753-79.40526.00285-4.39288,3.09425-7.58141,7.19738-7.57632,4.084.00507,7.17849,3.21435,7.18189,7.60326q.03,38.69058.01156,77.38122c.00131,9.922,5.87734,15.802,15.78622,15.80887,4.2565.003,8.513.00051,13.01273.00051l0-2.5908q0-23.5068.00307-47.0136c.02127-21.823,14.32783-39.17931,35.70265-43.34376,23.62357-4.60256,47.60341,12.95768,50.2661,36.84348a66.279,66.279,0,0,1,.4098,7.17353q.054,23.0568.01839,46.11379V201.6c1.76458,0,3.4513,0,5.138,0,2.92428-.00011,5.84869.01609,8.77285-.00351,8.69111-.05825,14.86989-6.20073,14.879-14.90765q.04044-38.69056.02383-77.3812a12.47946,12.47946,0,0,1,.33824-3.32721,7.07735,7.07735,0,0,1,7.72884-5.13577,7.30119,7.30119,0,0,1,6.29079,6.64046c.05792.74575.02753,1.49884.02756,2.24855.00107,25.26887-.2408,50.54087.08586,75.80551.21781,16.847-11.96147,28.60943-24.71393,30.14275-.2002.02407-.38113.20849-.571.31808Zm90.037-14.44287,0-2.68086c0-15.96248.0395-31.92517-.04184-47.88722a30.48991,30.48991,0,0,0-.93671-7.3091c-3.48076-13.64552-17.31929-23.01929-31.13533-21.21972-14.66136,1.90969-25.54977,13.97522-25.55791,28.34382q-.01371,24.16859-.0021,48.33716v2.41592Z"/><path class="cls-1" d="M111.6,0c1.42785.37149,2.86459.71211,4.28192,1.12017a29.09639,29.09639,0,0,1,11.968,6.85066q42.34022,39.625,84.65279,79.27953A34.618,34.618,0,0,1,216,91.8v3.6a6.425,6.425,0,0,0-.462.7244c-2.408,5.13924-7.84014,6.25776-12.0043,2.38054q-16.37955-15.2508-32.69585-30.56948-26.11078-24.43964-52.21619-48.885c-6.681-6.25372-14.55867-6.24347-21.235.00491q-41.95956,39.26991-83.92639,78.532C8.0829,102.61712,3.52766,101.8615,0,95.4V91.8a56.0094,56.0094,0,0,1,4.6446-5.61579q41.62518-39.07758,83.343-78.05654A28.9192,28.9192,0,0,1,103.4013.4013,4.81494,4.81494,0,0,0,104.4,0Z"/></g></g></svg>