<svg xmlns="http://www.w3.org/2000/svg" viewBox="0 0 30.76568 29.844"><defs><style>.cls-1{fill:#5461fc;}</style></defs><g id="Layer_2" data-name="Layer 2"><g id="Layer_2-2" data-name="Layer 2"><path class="cls-1" d="M15.38494.002q5.18389,0,10.36779.00131a4.90844,4.90844,0,0,1,4.89842,3.99348,5.62,5.62,0,0,1,.09469,1.107c.00583,5.31334-.034,10.62708.01956,15.93989A5.0547,5.0547,0,0,1,25.58,26.22929c-2.29-.03655-4.581-.00376-6.87154-.01248a.52434.52434,0,0,0-.49261.25467c-.6629.95745-1.33843,1.90619-2.01276,2.8557a.91829.91829,0,0,1-1.6472.00923c-.68-.95776-1.36065-1.91517-2.03042-2.88008a.50165.50165,0,0,0-.4703-.23886q-3.45087.01121-6.9018.00285a4.89288,4.89288,0,0,1-4.74347-2.994,4.40774,4.40774,0,0,1-.406-1.89936Q.00107,13.11584.00589,4.90477A4.92161,4.92161,0,0,1,4.987.00376C8.453-.00351,11.919.002,15.38494.002Zm-.00917,27.362c.57834-.81687,1.14413-1.5834,1.67222-2.37507a1.22173,1.22173,0,0,1,1.13477-.58194c2.47174.0151,4.94362.01107,7.41544.0055a3.14574,3.14574,0,0,0,3.34277-3.3401q.00078-7.97142-.0066-15.94284a3.94532,3.94532,0,0,0-.15989-1.15431,3.09651,3.09651,0,0,0-3.13059-2.16439Q15.37978,1.80889,5.11567,1.8107q-.18073,0-.36143.01062A3.09708,3.09708,0,0,0,1.81778,4.8807q-.02039,8.22753-.003,16.45516a2.90788,2.90788,0,0,0,.54086,1.69529A3.18559,3.18559,0,0,0,5.14594,24.4159c2.49191-.00691,4.98387.00447,7.47573-.00788a1.162,1.162,0,0,1,1.06033.55C14.22285,25.75474,14.78925,26.53411,15.37577,27.364Z"/><path class="cls-1" d="M12.66464,9.49173c0-1.07428-.01223-2.14873.00311-3.22279a2.70877,2.70877,0,0,1,5.337-.595,2.54215,2.54215,0,0,1,.07915.59464c.00555,2.14854.01533,4.29719-.00091,6.44563a2.70453,2.70453,0,0,1-5.31524.65164,3.274,3.274,0,0,1-.1001-.80192c-.01127-1.024-.00455-2.04812-.00455-3.07221Zm1.80711-.03062q0,1.53669.0004,3.0734a.9105.9105,0,1,0,1.80777.0007q.00184-3.04327,0-6.08654a.91047.91047,0,1,0-1.80778-.0007Q14.46993,7.95453,14.47175,9.46111Z"/><path class="cls-1" d="M15.37606,22.5968a2.70732,2.70732,0,1,1,2.71216-2.69236A2.71312,2.71312,0,0,1,15.37606,22.5968Zm.0025-3.60606a.8987.8987,0,1,0,.90112.9012A.90518.90518,0,0,0,15.37856,18.99074Z"/></g></g></svg>