<?xml version="1.0" encoding="utf-8"?>
<!-- Generator: Adobe Illustrator 26.0.1, SVG Export Plug-In . SVG Version: 6.00 Build 0)  -->
<svg version="1.1" id="Layer_1" xmlns="http://www.w3.org/2000/svg" xmlns:xlink="http://www.w3.org/1999/xlink" x="0px" y="0px"
	 viewBox="0 0 216 216" style="enable-background:new 0 0 216 216;" xml:space="preserve">
<style type="text/css">
	.st0{fill:#BFDDD7;}
</style>
<g id="Layer_2_00000096044085690998623180000008675833910425757606_">
	<g id="Layer_1-2">
		<path class="st0" d="M0,211V31.3c0.1-0.2,0.2-0.5,0.3-0.8C2.2,14.1,16.8-0.1,36.2,0c48.1,0.2,96.1,0.1,144.2,0.1
			c20.1,0,35.5,15.4,35.5,35.5c0,31.4,0,62.8,0,94.2c0,2.4-0.2,4.8-0.6,7.1c-3.4,16.9-17.5,28.4-34.8,28.5c-34.8,0-69.6,0-104.4,0
			c-5.5-0.1-10.8,1.9-14.8,5.6c-15,13-30,26.1-45.1,39.1c-2.5,2.1-5.2,4-7.8,6H5.1C2.8,215.1,0.9,213.3,0,211z M13.5,194.4
			c0.8-0.6,1.1-0.9,1.5-1.2c12.4-10.8,24.9-21.5,37.3-32.3c6.6-5.9,15.2-9.1,24.1-9c34.6,0,69.2,0.1,103.8,0
			c13,0,22.3-9.3,22.4-22.3c0-31.3,0-62.6,0-93.8c0-12.9-9.3-22.2-22.2-22.2c-48.2,0-96.3,0-144.5,0c-2,0-3.9,0.2-5.8,0.6
			c-10,2.4-16.5,11-16.5,21.7c0,52.1,0,104.2,0,156.2L13.5,194.4z"/>
		<path class="st0" d="M0,211c0.9,2.3,2.8,4.1,5.1,5.1H0V211z"/>
		<path class="st0" d="M108,53.6c17.9,0,35.7,0,53.6,0c4.3,0,7.3,2.8,7.3,6.8c0,3.5-2.6,6.3-6.1,6.7c-0.5,0-1,0-1.5,0
			c-35.6,0-71.1,0-106.7,0c-4.2,0-7.2-2.5-7.5-6.1c-0.4-3.6,2.2-6.9,5.9-7.3c0.3,0,0.5,0,0.8,0c4.2-0.1,8.4,0,12.7,0
			C80.3,53.6,94.2,53.6,108,53.6z"/>
		<path class="st0" d="M108,111.8c-17.9,0-35.7,0-53.6,0c-4.3,0-7.3-2.8-7.3-6.7c0-3.5,2.7-6.5,6.2-6.7c0.4,0,0.8,0,1.3,0
			c35.6,0,71.1,0,106.7,0c4.3,0,7.3,2.5,7.5,6.3c0.2,4.1-2.7,7.2-7.1,7.2c-10.4,0-20.8,0-31.2,0C123,111.8,115.5,111.8,108,111.8z"
			/>
	</g>
</g>
</svg>
