<svg xmlns="http://www.w3.org/2000/svg" viewBox="0 0 18.2256 17.4096"><defs><style>.cls-1{fill:#2be2a5;}</style></defs><g id="Layer_2" data-name="Layer 2"><g id="Layer_2-2" data-name="Layer 2"><path class="cls-1" d="M6.76711,17.4096c-1.35036-1.413-2.66039-2.78108-3.9672-4.15222-.80037-.83977-1.61872-1.664-2.38636-2.53287A1.59547,1.59547,0,0,1,.631,8.39014a1.62959,1.62959,0,0,1,2.19388.07923c1.083,1.08361,2.137,2.19668,3.187,3.31257.44432.47221.45687.49792.85987-.03569q2.37936-3.15049,4.74506-6.31132Q13.3229,3.16077,15.02217.88148a1.68816,1.68816,0,0,1,3.00389.0696,1.56167,1.56167,0,0,1-.197,1.78973c-.76075,1.03138-1.537,2.05132-2.30706,3.07586Q11.26612,11.47922,7.00921,17.141C6.95182,17.21729,6.88126,17.28371,6.76711,17.4096Z"/></g></g></svg>