<svg xmlns="http://www.w3.org/2000/svg" viewBox="0 0 45.99533 45.98835"><defs><style>.cls-1{fill:#4f5866;}</style></defs><g id="Layer_2" data-name="Layer 2"><g id="Layer_2-2" data-name="Layer 2"><path class="cls-1" d="M22.97164,45.98835A22.9945,22.9945,0,1,1,45.99533,22.99206,22.9759,22.9759,0,0,1,22.97164,45.98835ZM1.95829,22.87507a21.03016,21.03016,0,1,0,21.003-20.92259A21.038,21.038,0,0,0,1.95829,22.87507Z"/><path class="cls-1" d="M10.66817,22.96953c.00014-1.948-.01364-3.896.00312-5.84385a6.36606,6.36606,0,0,1,6.42292-6.45686q5.89485-.04,11.79017.00056a6.36028,6.36028,0,0,1,6.43352,6.44694q.041,5.89477.00048,11.79A6.36045,6.36045,0,0,1,28.945,35.31291q-5.94583.05323-11.89252-.001a6.3617,6.3617,0,0,1-6.38027-6.39607C10.64885,26.934,10.668,24.95166,10.66817,22.96953ZM22.89456,33.34921c1.81037,0,3.62086-.014,5.43107.00309,3.15739.02973,5.00405-1.72571,5.02626-4.88129q.03932-5.58466-.01-11.16987a4.39232,4.39232,0,0,0-4.61079-4.66623q-5.68717-.058-11.37534-.00265a4.43374,4.43374,0,0,0-4.72145,4.77483q-.03342,5.58507.0009,11.17048c.01888,2.97229,1.82709,4.742,4.82782,4.767C19.27342,33.35968,21.084,33.34738,22.89456,33.34921Z"/><path class="cls-1" d="M16.58357,22.89842a6.41311,6.41311,0,1,1,6.24585,6.501A6.35765,6.35765,0,0,1,16.58357,22.89842Zm1.94222.04914a4.47224,4.47224,0,1,0,4.46083-4.42892A4.51947,4.51947,0,0,0,18.52579,22.94756Z"/><path class="cls-1" d="M31.35437,16.1735a1.58777,1.58777,0,1,1-1.60387-1.545A1.63866,1.63866,0,0,1,31.35437,16.1735Z"/></g></g></svg>