<svg xmlns="http://www.w3.org/2000/svg" viewBox="0 0 216 219.52572"><defs><style>.cls-1{fill:#283456;}</style></defs><g id="Layer_2" data-name="Layer 2"><g id="Layer_1-2" data-name="Layer 1"><path class="cls-1" d="M195.32214,61.38606c6.32434,2.01342,12.54392,4.03328,18.79447,5.9524A2.22861,2.22861,0,0,1,216,69.86907q-.06182,73.41608-.0344,146.83224c0,2.25622-.258,2.431-2.43629,1.73407q-52.496-16.79724-104.99929-33.57176a2.71156,2.71156,0,0,0-1.58077-.01719Q67.282,198.16621,27.62853,211.527c-7.762,2.6068-15.55468,5.12229-23.34017,7.65853-2.92117.95159-4.28813-.087-4.28815-3.19222q-.0004-74.11293,0-148.22586c0-2.82683.4929-3.44321,3.12432-4.31367,6.76375-2.23739,13.50626-4.53924,20.27839-6.75065.97542-.31852.96405-.89815.96357-1.66881q-.0147-24.61146-.0074-49.223c0-.32536-.001-.65073.0002-.97609.00708-1.89018.28078-2.0995,2.01414-1.48705Q33.52511,5.87509,40.67184,8.416q30.441,10.7753,60.897,21.50781a4.36538,4.36538,0,0,0,2.63845-.12246c16.82526-5.71662,33.62626-11.5046,50.44836-17.23051Q172.84244,6.3804,191.07032.31132c2.77636-.92752,4.25086.23968,4.2511,3.20478q.0021,28.02781.00072,56.05562ZM5.57558,212.88216c.58107-.1839,1.0188-.31594,1.4523-.46056q47.33111-15.79289,94.66978-31.56285c1.102-.36654,1.32373-.92782,1.32314-1.99452q-.03946-70.61931-.02546-141.23863c0-.48227-.04124-.96455-.06647-1.51822-.54286.165-.93979.27527-1.33.40572Q54.34557,52.30972,7.08167,68.0746a1.81791,1.81791,0,0,0-1.53575,2.089q.05259,70.54958.02966,141.09919ZM154.83527,76.56572c-10.17609,25.05192-20.30831,49.99581-30.4975,75.08,4.87115,1.482,9.59158,2.91806,14.37759,4.37413,2.16175-5.19773,4.27273-10.27326,6.39773-15.38267,9.74714,2.95807,19.33463,5.85457,28.90268,8.81379a2.02594,2.02594,0,0,1,1.00334,1.27876q2.34492,8.30127,4.56613,16.637a1.89381,1.89381,0,0,0,1.49034,1.54889c3.519,1.02154,7.0139,2.12618,10.51986,3.19312.819.24925,1.64644.47089,2.63673.75266-.09484-.43294-.13162-.64868-.18961-.85855q-2.9815-10.79661-5.96705-21.5921-9.462-34.19529-18.94294-68.38534c-.13353-.48083-.42632-1.17393-.79751-1.29329C163.88645,79.3018,159.40892,77.96133,154.83527,76.56572Zm34.91141-70.1122L109.55356,33.7743l.04712.28524q40.01111,12.77487,80.146,25.58927Z"/><path class="cls-1" d="M67.519,103.67227c-2.93084.86982-5.542,1.64934-8.156,2.41961-5.64957,1.6648-11.29327,3.35043-16.95673,4.96679-1.235.3525-1.92541.84113-1.83086,2.28008a2.2199,2.2199,0,0,1-.93155,1.64857,12.80056,12.80056,0,0,1-9.92214,1.52122,5.89231,5.89231,0,0,1-4.74493-6.31333,29.99557,29.99557,0,0,0,3.33945-.5858c7.61616-2.19911,15.2303-4.407,22.8202-6.69447,3.63971-1.097,7.26157-2.27636,10.8217-3.6053,2.11843-.79077,4.081-1.98935,6.14962-2.92508,3.37687-1.52751,6.78089-2.99523,10.18014-4.47277a11.11294,11.11294,0,0,1,1.36729-.37844,10.53084,10.53084,0,0,1-.55643,5.9019,253.80486,253.80486,0,0,1-17.19259,31.66343c-.3294.50168-.64093,1.01509-1.042,1.65193.68659.29919,1.29648.57007,1.91032.83164q13.1863,5.61936,26.36847,11.24841a2.07719,2.07719,0,0,1,1.06584.79692,20.18611,20.18611,0,0,1,1.74033,7.58479,27.647,27.647,0,0,1-2.95215-.74659,83.02248,83.02248,0,0,1-22.39533-12.51564c-2.2487-1.78237-4.54134-3.50933-6.91238-5.33755-1.25515,1.83358-2.40524,3.50866-3.55025,5.18717a268.90816,268.90816,0,0,1-24.67275,30.899c-1.00558,1.08892-2.19579,2.00559-3.22958,3.0708-1.99274,2.05335-4.49968,2.38735-7.23908,2.3172C39.84205,152.92561,56.35616,130.31505,67.519,103.67227Z"/><path class="cls-1" d="M37.52428,83.883c3.95008,1.55708,7.47354.82947,11.03125-.29456,3.35941-1.06137,6.78143-1.92955,10.19134-2.82383,1.31418-.34466,2.76435-.63317,3.71316.69667a4.27323,4.27323,0,0,1,.34786,4.6308,11.13361,11.13361,0,0,1-2.76081,3.4131,19.749,19.749,0,0,1-12.85754,4.17752c-3.71037-.0569-7.41909-3.06832-8.85048-7.027C38.04769,85.84988,37.852,85.0095,37.52428,83.883Z"/><path class="cls-1" d="M170.14138,132.71421l-19.539-5.93914c3.522-8.54188,7.00273-16.98373,10.6285-25.77736C164.24326,111.72009,167.15512,122.08477,170.14138,132.71421Z"/></g></g></svg>