<svg xmlns="http://www.w3.org/2000/svg" viewBox="0 0 216 224.75485"><defs><style>.cls-1{fill:#283456;}</style></defs><g id="Layer_2" data-name="Layer 2"><g id="Layer_2-2" data-name="Layer 2"><path class="cls-1" d="M88.97651,174.58228c-5.34825.59626-10.47787,1.15289-15.60371,1.74239-17.68727,2.03415-35.363,4.17427-53.06353,6.08531A18.59725,18.59725,0,0,1,.097,164.33964C-.07423,149.28739.03392,134.2319.03129,119.17779q-.00618-35.50285,0-71.0057c.00005-.8362-.04357-1.67814.03633-2.50747A3.66,3.66,0,0,1,3.54487,42.0294a3.66,3.66,0,0,1,4.29906,2.96894,13.26913,13.26913,0,0,1,.2094,3.23524q.01378,56.82966.00886,113.65931c.00061,8.882,4.81674,13.30006,13.61912,12.29375,21.342-2.43986,42.67418-4.96455,64.01108-7.44864,7.63829-.88928,15.27637-1.78127,22.91894-2.6326,5.8749-.65441,9.7686-4.60762,10.2313-10.49316.05232-.66562.03962-1.33716.03964-2.006q.00259-60.46775-.00161-120.9355c-.001-6.39448-2.94643-10.78648-8.18065-11.95429a69.8727,69.8727,0,0,0-7.20027-.98761q-27.02657-3.12358-54.056-6.22285c-9.38318-1.08129-18.77443-2.10013-28.14419-3.28792-7.82006-.99133-13.1954,3.5761-13.23555,11.479-.01614,3.178.03985,6.357-.019,9.53407-.05382,2.90453-1.71725,4.66944-4.181,4.58705C1.51369,33.73967.06542,32.02918.04012,29.18915.00882,25.67683-.01452,22.163.04984,18.65154A18.71054,18.71054,0,0,1,21.02471.12984q39.98384,4.58942,79.95384,9.29927c2.90589.33848,5.81514.65,8.71761,1.01547,10.38744,1.3081,16.98561,8.61048,17.20081,19.11332.08737,4.2636.06381,8.53119-.00625,12.79537-.0248,1.50891.32968,2.16731,2.02344,2.358q35.00895,3.9407,69.99946,8.04491a18.72466,18.72466,0,0,1,17.05106,19.03893q.07037,61.84763-.00192,123.69536c-.01214,10.06081-6.9538,17.66921-16.8857,18.84914-1.90935.22684-3.81451.522-5.73066.64988a4.007,4.007,0,0,1-4.43676-3.51024,3.90189,3.90189,0,0,1,3.32663-4.30507c2.04776-.3953,4.13942-.55873,6.20753-.85392a10.52727,10.52727,0,0,0,9.4906-10.78787c.06079-10.03579.02158-20.07217.02181-30.1083q.0011-45.7899-.00009-91.57979c-.00023-8.65417-3.0639-12.22443-11.58421-13.23336q-33.4917-3.96589-66.99505-7.83317c-.66114-.077-1.33161-.074-2.46189-.13221,0,1.1078,0,2.14409,0,3.18038q-.00034,48.048-.00885,96.09607c-.00785,10.9017-6.469,18.6176-16.77729,20.10034-3.14276.452-6.30831.7444-9.46128,1.12755-1.071.13015-2.13552.31451-3.40329.504-.04643.88669-.12454,1.69183-.12525,2.497q-.01269,14.30151-.00065,28.603c.01771,8.37714,5.33372,12.79948,13.662,11.78778,18.00547-2.18725,36.03192-4.20172,54.04976-6.2871,3.48743-.40364,6.97742-.78665,10.46129-1.21921,3.0576-.37961,5.1535.8805,5.46152,3.34948.30261,2.42561-1.20659,4.167-4.20493,4.52939q-18.54585,2.24176-37.10459,4.37667c-9.38143,1.0933-18.78142,2.04147-28.14566,3.26461-12.34309,1.61224-22.1104-6.71511-22.20044-19.22729-.06981-9.70111-.01591-19.40312-.0226-29.10471C89.09438,175.81241,89.03741,175.40133,88.97651,174.58228Z"/><path class="cls-1" d="M95.02037,125.14168c-.09674,2.358-1.12256,3.71765-3.01964,4.19406a3.69025,3.69025,0,0,1-4.55859-2.18973c-1.08114-2.3488-1.99511-4.775-2.96447-7.17464-1.845-4.56722-3.72385-9.12169-5.48719-13.72033a2.42932,2.42932,0,0,0-2.66576-1.91277q-13.04787.12849-26.09759.00588a2.48919,2.48919,0,0,0-2.75738,1.83807q-3.79494,9.54228-7.80049,19.00036c-1.01547,2.40539-3.18371,3.30678-5.27942,2.42818-2.135-.89509-2.97822-2.99829-2.14666-5.41017.21735-.63037.5002-1.23825.75464-1.85575q5.86826-14.2421,11.737-28.484Q51.98723,74.26073,59.2222,56.6535c.81051-1.98386,1.78544-3.64229,4.2097-3.65268,2.42555-.01041,3.44476,1.64044,4.24033,3.621Q80.9763,89.74125,94.30652,122.85023C94.64451,123.69127,94.84962,124.58568,95.02037,125.14168ZM74.9311,96.24784l-11.5229-28.63c-4.07836,9.90239-7.89173,19.16139-11.79141,28.63Z"/><path class="cls-1" d="M173.52434,147.85405c3.74693,3.09258,7.39429,6.11573,11.06,9.11651.64443.52754,1.37843.944,2.04878,1.44182,2.32162,1.72407,2.88591,4.0809,1.46012,6.03242-1.39741,1.91267-3.72448,2.26713-5.97633.56458-3.927-2.96911-7.72183-6.11365-11.55624-9.20425-.71057-.57275-1.34657-1.238-2.0723-1.91191-3.27322,2.83073-6.44456,5.63893-9.69346,8.35434-1.53515,1.28307-3.19265,2.42638-4.84147,3.56534-2.47287,1.70821-4.75828,1.50549-6.18019-.47494-1.39868-1.94809-.7743-4.238,1.49725-6.04494,4.61913-3.67445,9.19011-7.40942,13.37534-10.79168-3.62256-6.1031-6.97061-11.56519-10.119-17.14a33.50969,33.50969,0,0,1-2.76939-6.69371c-.52225-1.71354-1.39638-2.25409-3.06522-2.07762a18.27849,18.27849,0,0,1-3.25635-.01479,3.83608,3.83608,0,0,1-3.84749-3.8136,3.75813,3.75813,0,0,1,3.6008-4.04744c2.40676-.2112,4.84168-.11859,7.2644-.12693,4.16882-.01437,8.33772-.004,12.89167-.004,0-3.23178-.13116-6.29726.06086-9.34236.08346-1.32349.47082-3.04493,1.37541-3.7861a4.62249,4.62249,0,0,1,4.0357-.74851,5.15878,5.15878,0,0,1,2.42675,3.59485,101.93015,101.93015,0,0,1,.1126,10.28212c2.18832,0,4.084-.00056,5.97959.00013,4.43058.00162,8.86216-.05213,13.29141.02588,2.88429.0508,4.73606,1.8024,4.64859,4.1575-.08615,2.31953-1.85143,4.0299-4.65035,3.76855-2.99142-.27933-4.09389.88752-5.00265,3.63817a67.83124,67.83124,0,0,1-10.37621,19.33957C174.75408,146.1711,174.272,146.8372,173.52434,147.85405Zm-5.308-6.47459a68.55844,68.55844,0,0,0,10.108-18.61554H157.57448A67.69356,67.69356,0,0,0,168.21632,141.37946Z"/></g></g></svg>