<?xml version="1.0" encoding="utf-8"?>
<!-- Generator: Adobe Illustrator 26.0.1, SVG Export Plug-In . SVG Version: 6.00 Build 0)  -->
<svg version="1.1" id="Layer_1" xmlns="http://www.w3.org/2000/svg" xmlns:xlink="http://www.w3.org/1999/xlink" x="0px" y="0px"
	 viewBox="0 0 9.9 9.9" style="enable-background:new 0 0 9.9 9.9;" xml:space="preserve">
<style type="text/css">
	.st0{fill:#00916B;}
</style>
<g id="Layer_2_00000104705310489270984550000017935775861082386313_">
	<g id="Layer_1-2">
		<path class="st0" d="M9.8,2.9C9.8,2.9,9.8,2.9,9.8,2.9C9.7,3.1,9.5,3.2,9.4,3.1C9.3,3.1,9.2,3,9.2,2.8c0-0.4,0-0.9,0-1.3V1.2
			c0,0-0.1,0.1-0.1,0.1C7.7,2.6,6.3,4,4.9,5.4C4.8,5.5,4.7,5.6,4.6,5.5c-0.2,0-0.2-0.2-0.2-0.4c0,0,0-0.1,0.1-0.1c0,0,0-0.1,0.1-0.1
			c1.4-1.4,2.8-2.8,4.2-4.2c0,0,0.1,0,0.1-0.1l0,0c0,0-0.1,0-0.1,0c-0.5,0-1,0-1.5,0c-0.2,0-0.3-0.1-0.3-0.3c0-0.1,0-0.1,0-0.2
			c0-0.1,0.1-0.1,0.2-0.2h2.5c0.1,0,0.2,0.1,0.2,0.2L9.8,2.9z"/>
		<path class="st0" d="M9.8,0.4c0-0.1-0.1-0.2-0.2-0.2h0.2V0.4z"/>
		<path class="st0" d="M4.3,9.8c-1.1,0-2.2,0-3.3,0c-0.4,0-0.8-0.3-0.9-0.7c0-0.1,0-0.2,0-0.2c0-2.2,0-4.4,0-6.6
			c0-0.5,0.4-0.9,0.9-0.9c0,0,0,0,0,0c1.2,0,2.4,0,3.6,0c0.2,0,0.3,0.1,0.3,0.3c0,0,0,0.1,0,0.1c0,0.1-0.1,0.2-0.3,0.2
			c0,0-0.1,0-0.1,0c-1.1,0-2.3,0-3.4,0C0.8,1.9,0.7,2,0.7,2.3c0,2.2,0,4.4,0,6.5C0.7,9,0.8,9.2,1,9.2c0,0,0.1,0,0.1,0
			c2.2,0,4.4,0,6.5,0C7.8,9.2,8,9.1,8,8.9c0,0,0-0.1,0-0.1c0-1.1,0-2.3,0-3.4c0,0,0-0.1,0-0.1C8,5.1,8.1,5,8.3,5
			c0.2,0,0.3,0.1,0.3,0.3c0,0,0,0,0,0c0,1.2,0,2.4,0,3.5c0,0.5-0.4,0.9-0.9,0.9c0,0-0.1,0-0.1,0C6.5,9.8,5.4,9.8,4.3,9.8z"/>
	</g>
</g>
</svg>
