<?xml version="1.0" encoding="utf-8"?>
<!-- Generator: Adobe Illustrator 26.0.1, SVG Export Plug-In . SVG Version: 6.00 Build 0)  -->
<svg version="1.1" id="Layer_1" xmlns="http://www.w3.org/2000/svg" xmlns:xlink="http://www.w3.org/1999/xlink" x="0px" y="0px"
	 viewBox="0 0 216 270.6" style="enable-background:new 0 0 216 270.6;" xml:space="preserve">
<style type="text/css">
	.st0{fill:#BFDDD7;}
</style>
<g id="Layer_2_00000127004834247183659070000002418731900807510448_">
	<g id="Layer_1-2">
		<path class="st0" d="M151,36.3c8.4,0,16.6,0,24.9,0c22.5,0,40,17.3,40.1,39.8c0.1,51.5,0.1,103,0,154.5c0,6-3.1,9.1-8.2,8.2
			c-3.1-0.4-5.4-2.9-5.5-6c-0.1-1,0-2,0-3c0-50.7-0.2-101.4,0.1-152.1c0.1-16.6-12.6-28-27.6-27.8c-33.5,0.5-66.9,0.1-100.4,0.1
			c-8.3,0-10.7-2.8-9.8-11.1C67.1,15.7,85.1-0.3,108.6,0c21.1,0.3,37.1,13.2,41.8,33.8C150.6,34.6,150.8,35.4,151,36.3z M136.8,36.2
			c-2.8-14.1-16.6-23.9-31.6-22.5c-13.3,1.2-25.6,12-25.8,22.5H136.8z"/>
		<path class="st0" d="M0,153.3c0-25.6,0-51.2,0-76.7C0,56.9,13,41,32.2,37.1c2.6-0.5,5.3-0.8,8-0.7c3.8-0.2,7.1,2.8,7.2,6.6
			c0,0.1,0,0.1,0,0.2c0.1,3.8-2.9,6.9-6.7,7c-0.1,0-0.2,0-0.3,0c-5,0.1-9.6,0.9-13.9,3.5c-8.1,4.9-12.7,12.2-12.7,21.7
			c-0.1,52.1-0.1,104.3,0,156.4c0,13.9,11.5,25,25.7,25.1c20,0.2,40,0.1,60,0.1c25,0,50.1,0,75.1,0c5.6,0,8.8,4.3,7,9.3
			c-0.7,2.4-2.8,4.1-5.3,4.3c-0.9,0.1-1.8,0.1-2.7,0.1c-44.3,0-88.7,0-133,0c-19.5,0-35-11.9-39.5-30.2c-0.8-3.3-1.1-6.7-1.1-10.1
			C0,204.7,0,179,0,153.3z"/>
		<path class="st0" d="M127.1,118.1c-13.3,0-26.5,0-39.8,0c-4.4,0-7.3-2.8-7.3-6.9c-0.2-3.5,2.5-6.5,5.9-6.8
			c0.8-0.1,1.6-0.1,2.4-0.1c25.8,0,51.6,0,77.5,0c3.2,0,6.1,0.5,7.7,3.8c1.7,3.4,0.4,7.5-2.9,9.2c-1,0.5-2.2,0.8-3.4,0.8
			C153.8,118.1,140.5,118.1,127.1,118.1z"/>
		<path class="st0" d="M127.1,146.6c13.3,0,26.5,0,39.8,0c4.2,0,6.8,2.3,7.3,6c0.5,3.7-2,7.1-5.7,7.6c-0.2,0-0.3,0-0.5,0.1
			c-0.6,0.1-1.3,0.1-1.9,0.1c-26,0-52,0-78,0c-3.3,0-6.1-0.7-7.5-4c-2.1-4.9,1.1-9.7,6.7-9.8C100.6,146.6,113.8,146.6,127.1,146.6z"
			/>
		<path class="st0" d="M127.1,202.6c-13.4,0-26.7,0-40.1,0c-3.8,0.2-6.9-2.7-7.1-6.5c0-1.1,0.2-2.2,0.6-3.2c0.8-2.1,2.6-3.6,4.8-3.8
			c0.9-0.1,1.8-0.2,2.7-0.2c26,0,52,0,78,0c3,0,5.7,0.5,7.3,3.5c1.9,3.3,0.7,7.5-2.6,9.3c-1.1,0.6-2.3,0.9-3.6,0.9
			C153.9,202.7,140.5,202.6,127.1,202.6z"/>
		<path class="st0" d="M56.2,118.6c-3.9,0.2-7.2-2.8-7.4-6.7c0-0.2,0-0.5,0-0.7c-0.1-4,3-7.4,7.1-7.5c4-0.1,7.4,3,7.5,7.1
			c0,0.1,0,0.2,0,0.3C63.4,115.5,60.5,118.6,56.2,118.6z"/>
		<path class="st0" d="M48.7,153.6c0-4.4,2.9-7.5,7.3-7.5c3.9-0.2,7.2,2.8,7.3,6.7c0,0.2,0,0.3,0,0.5c0.1,4.4-2.9,7.6-7.1,7.7
			c-4,0.1-7.3-2.9-7.5-6.9C48.7,153.9,48.7,153.7,48.7,153.6z"/>
		<path class="st0" d="M63.3,195.8c0.1,4-3.1,7.4-7.2,7.4c-4,0.1-7.4-3.1-7.4-7.2c0-0.1,0-0.1,0-0.2c-0.2-4,2.9-7.4,7-7.6
			s7.4,2.9,7.6,7C63.4,195.4,63.4,195.6,63.3,195.8z"/>
	</g>
</g>
</svg>
