<?xml version="1.0" encoding="utf-8"?>
<!-- Generator: Adobe Illustrator 26.0.1, SVG Export Plug-In . SVG Version: 6.00 Build 0)  -->
<svg version="1.1" id="Layer_1" xmlns="http://www.w3.org/2000/svg" xmlns:xlink="http://www.w3.org/1999/xlink" x="0px" y="0px"
	 viewBox="0 0 216 263.1" style="enable-background:new 0 0 216 263.1;" xml:space="preserve">
<style type="text/css">
	.st0{fill:#283456;stroke:#FFFFFF;stroke-width:5;stroke-miterlimit:10;}
</style>
<g id="Layer_2_00000147183416176389488610000016460721501885850542_">
	<g id="Layer_1-2">
		<path class="st0" d="M212.4,111.9c-0.3,28.5-11.9,51.7-32.8,70.5c-10.3,9.2-20.9,18.2-31.1,27.4c-13.5,12.2-24.6,26.3-32,43
			c-1.6,3.7-4.4,5.9-8.5,6c-3.6,0.2-6.9-2-8.2-5.3c-9.6-22-25.8-38.6-43.7-54c-10.5-9-20.9-18.1-30.3-28.3
			c-17.5-19-23.3-42.3-21.9-67.5C6.1,59.8,34.1,23.5,75.6,9.6c63.3-21.2,131.5,24.1,136.2,90.5C212.1,104.1,212.2,108,212.4,111.9z
			 M108,229.5c0.6-0.8,1.2-1.5,1.7-2.3c7.4-11.4,16.3-21.8,26.5-30.8c10.5-9.5,21.4-18.6,31.8-28.2c21.7-19.9,29.3-44.8,24.9-73.5
			c-5.8-37.4-35.6-65.8-74.2-71.4C82.9,18.2,45.8,38,30.4,71.6c-12.5,27.2-12.6,54.5,3.8,80.6c7.2,11.4,17.5,20,27.7,28.7
			C74.4,191.5,87,202,97.3,215C100.9,219.7,104.3,224.5,108,229.5z"/>
		<path class="st0" d="M108.1,56.1c28.9,0.1,52.6,23.7,52.5,52.3c0.2,29.1-23.3,52.8-52.3,52.9c-29.1,0.2-52.8-23.3-52.9-52.3
			C55.1,80,78.6,56.3,107.6,56.2C107.8,56.1,107.9,56.1,108.1,56.1z M107.8,143.2c19,0.1,34.5-15.3,34.6-34.3
			c0.1-19-15.3-34.5-34.3-34.6c-19-0.1-34.4,15.2-34.6,34.2c-0.2,19,15.1,34.5,34.1,34.7C107.7,143.2,107.7,143.2,107.8,143.2
			L107.8,143.2z"/>
	</g>
</g>
</svg>
