<svg xmlns="http://www.w3.org/2000/svg" viewBox="0 0 9.27521 11.30466"><defs><style>.cls-1{fill:#959bad;}</style></defs><g id="Layer_2" data-name="Layer 2"><g id="Layer_1-2" data-name="Layer 1"><path class="cls-1" d="M9.27521,4.77936A4.10693,4.10693,0,0,1,7.817,7.91049c-.4573.41-.92673.80649-1.383,1.21764a5.61954,5.61954,0,0,0-1.41936,1.91152.3984.3984,0,0,1-.3797.265.37493.37493,0,0,1-.36523-.23617A6.78729,6.78729,0,0,0,2.328,8.67086,15.93648,15.93648,0,0,1,.98287,7.41525,3.92161,3.92161,0,0,1,.00849,4.41533a4.62973,4.62973,0,0,1,9.23866-.15917C9.25965,4.43034,9.266,4.605,9.27521,4.77936ZM4.63766,10.00522c.02781-.03678.05473-.06769.07651-.1019A6.64433,6.64433,0,0,1,5.88911,8.5337c.46813-.42107.95-.827,1.4144-1.252a3.4559,3.4559,0,0,0,1.104-3.26683A3.82059,3.82059,0,0,0,1.1893,2.98826,3.5796,3.5796,0,0,0,1.35707,6.5678,5.75447,5.75447,0,0,0,2.5887,7.84107,10.99763,10.99763,0,0,1,4.16146,9.36091C4.32433,9.56715,4.4744,9.7835,4.63766,10.00522Z" transform="translate(0 0)"/><path class="cls-1" d="M4.64035,2.30114a2.33805,2.33805,0,1,1-2.344,2.32846A2.34014,2.34014,0,0,1,4.64035,2.30114Zm-.011,3.86871a1.53057,1.53057,0,1,0-1.525-1.54255A1.52839,1.52839,0,0,0,4.62939,6.16985Z" transform="translate(0 0)"/></g></g></svg>