<svg xmlns="http://www.w3.org/2000/svg" viewBox="0 0 216 263.14728"><defs><style>.cls-1{fill:#283456;}</style></defs><g id="Layer_2" data-name="Layer 2"><g id="Layer_1-2" data-name="Layer 1"><path class="cls-1" d="M216,111.25288c-.27812,29.47753-12.27758,53.45518-33.95937,72.88568-10.64962,9.54385-21.58161,18.77322-32.20657,28.34395-13.98481,12.59707-25.4123,27.15787-33.05388,44.49585-1.70294,3.86371-4.59626,6.14493-8.84245,6.16873a8.73159,8.73159,0,0,1-8.50555-5.49758c-9.91421-22.801-26.70976-39.92284-45.2182-55.81125-10.83238-9.299-21.661-18.76188-31.32507-29.22791C4.78244,153.00113-1.21318,128.85482.19767,102.779,2.65351,57.389,31.51935,19.82232,74.448,5.44871c65.46939-21.92082,135.9669,24.91732,140.89853,93.6252C215.63755,103.1283,215.78551,107.193,216,111.25288ZM108.00128,232.89923c.64751-.8561,1.27457-1.57585,1.78171-2.372a154.68116,154.68116,0,0,1,27.36195-31.88184c10.90173-9.80156,22.12277-19.25083,32.93819-29.14485C192.57729,148.92284,200.42146,123.162,195.794,93.456c-6.023-38.66538-36.80267-68.07837-76.78022-73.84469-36.97206-5.33281-75.375,15.22842-91.31757,49.94881C14.7575,97.7385,14.7152,125.92943,31.60323,152.8837c7.41941,11.84184,18.1473,20.70013,28.682,29.639,12.97091,11.00606,26.01471,21.94613,36.62644,35.37835C100.70442,222.70189,104.19929,227.73812,108.00128,232.89923Z"/><path class="cls-1" d="M108.064,53.56537c29.89531.12782,54.379,24.53966,54.28761,54.12832A54.43828,54.43828,0,1,1,108.064,53.56537Zm-.25527,90.055A35.62821,35.62821,0,1,0,72.294,107.71316,35.58541,35.58541,0,0,0,107.80868,143.62039Z"/></g></g></svg>