<svg xmlns="http://www.w3.org/2000/svg" viewBox="0 0 27.47006 27.48809"><defs><style>.cls-1{fill:#707d99;}</style></defs><g id="Layer_2" data-name="Layer 2"><g id="Layer_5" data-name="Layer 5"><path class="cls-1" d="M24.7217,19.52048a12.09647,12.09647,0,0,0,1.186-8.26481A12.34573,12.34573,0,0,0,14.45228,1.34458,12.17005,12.17005,0,0,0,4.4422,5.49033a11.766,11.766,0,0,0-1.8848,2.783.65591.65591,0,0,1-.70935.42117A.5992.5992,0,0,1,1.30321,8.153,1.09838,1.09838,0,0,1,1.434,7.60245,13.74307,13.74307,0,1,1,11.81333,27.34067,13.54491,13.54491,0,0,1,1.80965,20.57309a8.39438,8.39438,0,0,1-.44251-.83985.65069.65069,0,0,1,1.159-.59136c.03186.05223.05972.107.08772.16148a12.36882,12.36882,0,0,0,6.42305,5.91232,11.77442,11.77442,0,0,0,3.31715.84757,6.975,6.975,0,0,1,2.41511-10.13564,6.7699,6.7699,0,0,1,5.13952-.56661A6.9142,6.9142,0,0,1,24.59989,19.737C24.66207,19.6267,24.69352,19.57445,24.7217,19.52048Zm-11.834.33557a5.41488,5.41488,0,0,0,1.08276,6.05846.6153.6153,0,0,0,.55823.22512,12.16758,12.16758,0,0,0,7.33437-3.0373,20.78748,20.78748,0,0,0,1.60638-1.68124.54792.54792,0,0,0,.11192-.40908,5.71714,5.71714,0,0,0-5.94-4.59413A5.328,5.328,0,0,0,12.88771,19.85605Z"/><path class="cls-1" d="M14.35436,10.22916a3.70581,3.70581,0,1,1,3.6979,3.717A3.71278,3.71278,0,0,1,14.35436,10.22916Zm3.69082-2.377a2.39341,2.39341,0,1,0,2.39262,2.39819A2.40557,2.40557,0,0,0,18.04518,7.85216Z"/><path class="cls-1" d="M9.5017,13.08241c-.1731,0-.2802,0-.3873,0Q4.915,13.082.7155,13.08149a.6537.6537,0,0,0-.71532.63436.6463.6463,0,0,0,.66113.65952c.39788.01583.79679.00681,1.19525.00686q3.63237.00053,7.26475.00018h.39183c-.10259.11676-.15617.1846-.2167.24553-.41772.42045-.84411.83256-1.25308,1.26132a.63006.63006,0,0,0,.00224.9311.62112.62112,0,0,0,.90582-.00812q1.31166-1.28936,2.60241-2.5999a.62347.62347,0,0,0,.00012-.954q-1.28074-1.2987-2.5794-2.57967a.65417.65417,0,1,0-.93163.91689c.39627.41268.807.81148,1.21051,1.21723C9.32231,12.882,9.386,12.9564,9.5017,13.08241Z"/></g></g></svg>