<svg xmlns="http://www.w3.org/2000/svg" viewBox="0 0 29.39606 24.48"><defs><style>.cls-1{fill:#283456;}</style></defs><g id="Layer_2" data-name="Layer 2"><g id="Layer_5" data-name="Layer 5"><path class="cls-1" d="M0,9.99616A3.51529,3.51529,0,0,1,.79747,8.34385a3.10652,3.10652,0,0,1,1.97808-.99519,2.2703,2.2703,0,0,0,.52137-.14243Q12.7567,3.6764,22.21475.14192a1.86355,1.86355,0,0,1,2.52361,1.20069q.98207,2.88861,1.95427,5.78054a.3875.3875,0,0,0,.32544.29858,3.04162,3.04162,0,0,1,2.36924,2.90808c.01495.813.007,1.6264.00326,2.4396a.61083.61083,0,0,1-.69585.684,3.48352,3.48352,0,0,0-1.59627.25592,2.45989,2.45989,0,0,0-1.3582,2.53,2.42475,2.42475,0,0,0,2.12429,2.09178c.30278.0349.61087.02165.91621.03687a.569.569,0,0,1,.59889.54,28.28068,28.28068,0,0,1-.05774,3.03661,2.95618,2.95618,0,0,1-2.815,2.52513c-.363.01427-.72681.00948-1.09025.00952q-7.18847.0008-14.37694.00035-3.84473,0-7.68943,0A3.06468,3.06468,0,0,1,.03307,21.86924C.029,21.8525.01133,21.83906,0,21.82408V18.781a.79823.79823,0,0,1,.83123-.42149,3.75383,3.75383,0,0,0,.714-.03006,2.42452,2.42452,0,0,0,2.096-2.04923,2.45152,2.45152,0,0,0-1.306-2.55235,2.84969,2.84969,0,0,0-1.50389-.26764A.80606.80606,0,0,1,0,13.03927Zm1.2538,2.22119a3.71338,3.71338,0,0,1,3.63276,3.431,3.61667,3.61667,0,0,1-.77088,2.51839,3.70512,3.70512,0,0,1-2.89579,1.43064c0,.5666-.00111,1.11024.00022,1.65388a1.85739,1.85739,0,0,0,2.00006,2.008q3.12795.00141,6.25589.00026h.32683c0-.21971-.00488-.4001.001-.58014a.59343.59343,0,0,1,.5931-.63584.60331.60331,0,0,1,.62369.63893c.00573.18723.001.37478.001.577h.38065q7.34637,0,14.69274-.00014c.11477,0,.22978.00229.34428-.004a1.75589,1.75589,0,0,0,1.66821-1.44494,20.346,20.346,0,0,0,.01679-2.19883,3.70056,3.70056,0,0,1,.04768-7.40052c0-.54044.0009-1.08328-.00018-1.62612a1.85865,1.85865,0,0,0-2.01243-2.02408q-7.40376-.00069-14.80752-.00019h-.3302c0,.21061.00426.39049-.00087.5701a.60663.60663,0,0,1-.61745.646.59253.59253,0,0,1-.59923-.63017c-.00662-.188-.00115-.37633-.00115-.55861a.7962.7962,0,0,0-.12028-.025c-2.23833-.00046-4.47674-.01087-6.71495.00575a1.73853,1.73853,0,0,0-1.70119,1.53771C1.20354,10.797,1.2538,11.49777,1.2538,12.21735Zm5.36648-4.939.0174.04641h18.815c-.03267-.12068-.05394-.22017-.08636-.31588q-.873-2.5773-1.74867-5.15369c-.218-.64148-.467-.75815-1.10368-.52039Q15.042,4.12529,7.57028,6.91622C7.25282,7.03482,6.93691,7.15757,6.62028,7.27839Z"/><path class="cls-1" d="M11.02175,13.33634c.00008.31547.00346.631-.00076.94641a.62083.62083,0,0,1-.61395.68267.608.608,0,0,1-.60264-.6601q-.00961-.98934.00034-1.97884a.61567.61567,0,0,1,.60886-.65667.62218.62218,0,0,1,.60683.66277C11.02637,12.66707,11.02166,13.00174,11.02175,13.33634Z"/><path class="cls-1" d="M11.02168,18.51581c-.00007.325.00486.65-.00134.97489a.60988.60988,0,1,1-1.21572,0q-.00991-.98915-.00018-1.97845a.60548.60548,0,0,1,.60582-.65565.61252.61252,0,0,1,.61021.65565C11.02666,17.84667,11.02175,18.18129,11.02168,18.51581Z"/></g></g></svg>