<svg xmlns="http://www.w3.org/2000/svg" viewBox="0 0 115.27402 105.51435"><defs><style>.cls-1{fill:#828282;}</style></defs><g id="Layer_2" data-name="Layer 2"><g id="Layer_1-2" data-name="Layer 1"><path class="cls-1" d="M57.63886,11.97388q-26.30375,0-52.60748-.00408a6.281,6.281,0,0,1-1.66579-.11039C1.295,11.29279-.1511,8.48923.02245,5.474.19228,2.52315,1.85476.19725,3.93214.01739,4.274-.01222,4.61794.005,4.96091.005q52.6718-.0006,105.3436.00441a5.8761,5.8761,0,0,1,1.66394.12845c2.02006.59256,3.42519,3.3162,3.2863,6.26691-.13852,2.94294-1.79233,5.33653-3.85123,5.55016a12.45372,12.45372,0,0,1-1.28585.01845Q83.87826,11.9743,57.63886,11.97388Z"/><path class="cls-1" d="M57.76631,93.5327q26.49668.00015,52.99334.00495c3.19862.00184,5.26953,3.87242,4.2545,7.94383-.59643,2.39225-1.82181,3.70256-3.55187,3.99225a7.7739,7.7739,0,0,1-1.28525.02745q-52.54317.00124-105.08632-.01355a5.4819,5.4819,0,0,1-2.27842-.36247c-1.89568-.85844-3.03722-3.61753-2.77362-6.40989.26424-2.79906,1.86821-4.97,3.83428-5.1654.4269-.04244.85717-.01676,1.28588-.01678Q31.46257,93.53225,57.76631,93.5327Z"/><path class="cls-1" d="M47.34936,58.7378q-21.41563-.00017-42.83126-.00543C1.31952,58.72962-.75,54.86211.25606,50.79093c.59356-2.402,1.81734-3.7021,3.54671-3.99582a6.89776,6.89776,0,0,1,1.15667-.02578q42.38108-.00123,84.76215.00233a6.40862,6.40862,0,0,1,1.53935.08545c2.06476.5086,3.55338,3.29409,3.41216,6.30966-.13783,2.943-1.7911,5.33764-3.84979,5.55205a12.40849,12.40849,0,0,1-1.28583.01854Q68.44342,58.73837,47.34936,58.7378Z"/></g></g></svg>