<?xml version="1.0" encoding="utf-8"?>
<!-- Generator: Adobe Illustrator 26.0.1, SVG Export Plug-In . SVG Version: 6.00 Build 0)  -->
<svg version="1.1" id="Layer_1" xmlns="http://www.w3.org/2000/svg" xmlns:xlink="http://www.w3.org/1999/xlink" x="0px" y="0px"
	 viewBox="0 0 13.7 13.7" style="enable-background:new 0 0 13.7 13.7;" xml:space="preserve">
<style type="text/css">
	.st0{fill:#283456;}
</style>
<g id="Layer_2_00000091711147575113988580000014563730215129430162_">
	<g id="Layer_1-2">
		<path class="st0" d="M0,13.4V2l0,0c0.2-1.2,1.2-2,2.3-2c3.1,0,6.1,0,9.2,0c1.2,0,2.2,1,2.3,2.2v0.1c0,2,0,4,0,6c0,0.2,0,0.3,0,0.5
			c-0.2,1.1-1.1,1.8-2.2,1.8c-2.2,0-4.4,0-6.6,0c-0.3,0-0.7,0.1-0.9,0.4c-1,0.8-1.9,1.7-2.9,2.5c-0.2,0.1-0.3,0.3-0.5,0.4H0.3
			C0.2,13.7,0.1,13.5,0,13.4z M0.9,12.3L0.9,12.3c0.9-0.8,1.7-1.4,2.5-2.1c0.4-0.4,1-0.6,1.5-0.6c2.2,0,4.4,0,6.6,0
			c0.8,0,1.4-0.6,1.4-1.3V8.2c0-2,0-4,0-6c0-0.8-0.6-1.4-1.3-1.4h-0.1c-3.1,0-6.1,0-9.2,0c-0.1,0-0.2,0-0.4,0C1.3,1,0.8,1.5,0.9,2.2
			c0,3.3,0,6.6,0,9.9C0.9,12.1,0.9,12.3,0.9,12.3z"/>
		<path class="st0" d="M0,13.4c0.1,0.1,0.2,0.3,0.3,0.3H0V13.4z"/>
		<path class="st0" d="M6.9,3.4c1.1,0,2.3,0,3.4,0c0.2,0,0.4,0.2,0.5,0.4c0,0.2-0.2,0.4-0.4,0.5h-0.1c-2.3,0-4.5,0-6.8,0
			C3.2,4.3,3,4.1,3,3.9l0,0c0-0.2,0.1-0.4,0.4-0.5l0,0c0.3,0,0.5,0,0.8,0C5.1,3.4,6,3.4,6.9,3.4z"/>
		<path class="st0" d="M6.9,7.1c-1.1,0-2.3,0-3.4,0C3.2,7.1,3,6.9,3,6.7c0-0.2,0.2-0.4,0.4-0.5l0,0h0.1c2.3,0,4.5,0,6.8,0
			c0.2,0,0.4,0.1,0.5,0.4l0,0c0,0.2-0.2,0.4-0.4,0.5c0,0,0,0-0.1,0c-0.7,0-1.3,0-2,0C7.8,7.1,7.3,7.1,6.9,7.1z"/>
	</g>
</g>
</svg>
