<svg xmlns="http://www.w3.org/2000/svg" viewBox="0 0 31.104 31.13774"><defs><style>.cls-1{fill:#283456;}</style></defs><g id="Layer_2" data-name="Layer 2"><g id="Layer_2-2" data-name="Layer 2"><path class="cls-1" d="M9.47445,21.578v2.092q0,2.62368-.00042,5.24736A2.05548,2.05548,0,0,1,7.24952,31.1365c-.79212.001-1.58425.00234-2.37635-.00037a2.04223,2.04223,0,0,1-2.16494-2.17672c-.00649-2.32114-.00189-4.64231-.00193-6.96347,0-.12836,0-.25671,0-.42036-.26818,0-.497.00577-.72538-.001A1.99015,1.99015,0,0,1,.02748,19.74482c-.04134-.53608-.02234-1.07715-.023-1.616-.00211-1.71612-.00994-3.4323.002-5.14834A3.3623,3.3623,0,0,1,2.8402,9.52811a4.17527,4.17527,0,0,1,.72286-.04429Q6.08792,9.47848,8.6128,9.4826A3.38124,3.38124,0,0,1,12.179,13.042q.004,3.15171.00025,6.30343a2.05286,2.05286,0,0,1-2.24,2.23258C9.79834,21.57829,9.65749,21.578,9.47445,21.578ZM4.064,24.99938c0,1.34224-.00248,2.68449.00138,4.02671a.65252.65252,0,0,0,.66179.74105c.913.01244,1.82634.00648,2.7395.00126a.60585.60585,0,0,0,.60044-.434,1.5357,1.5357,0,0,0,.044-.4892q.00357-3.87819.00246-7.75637c.00044-.62586.23245-.85633.85619-.86168.36306-.00312.72637.00638,1.08922-.00306a.67245.67245,0,0,0,.75563-.755c.00374-2.21138.01181-4.42285-.0045-6.63411A1.9677,1.9677,0,0,0,8.8525,10.83659Q6.097,10.7933,3.34036,10.83524a1.99,1.99,0,0,0-1.9785,2.01832c-.00939,2.20035-.0048,4.40077-.00226,6.60115a.67989.67989,0,0,0,.74424.76882c.37378.01111.74816-.00013,1.12222.00378.60414.00631.83649.24.83725.84438Q4.06577,23.03554,4.064,24.99938Z"/><path class="cls-1" d="M31.104,23.70027a7.43854,7.43854,0,1,1-7.407-7.46A7.44982,7.44982,0,0,1,31.104,23.70027Zm-13.51379-.02609a6.08053,6.08053,0,1,0,6.09176-6.0699A6.066,6.066,0,0,0,17.59016,23.67418Z"/><path class="cls-1" d="M9.47288,3.37789A3.38141,3.38141,0,1,1,6.08174,0,3.40368,3.40368,0,0,1,9.47288,3.37789Zm-1.3626.00916A2.02263,2.02263,0,1,0,6.0806,5.4102,2.00692,2.00692,0,0,0,8.11028,3.38705Z"/><path class="cls-1" d="M22.30829,4.75371a3.37608,3.37608,0,1,1-3.35962-3.38957A3.36008,3.36008,0,0,1,22.30829,4.75371ZM20.96492,4.7519a2.027,2.027,0,1,0-2.0492,2.0218A2.04336,2.04336,0,0,0,20.96492,4.7519Z"/><path class="cls-1" d="M18.38955,10.87156c1.02132,0,2.04743-.06159,3.06265.01717a3.0639,3.0639,0,0,1,2.37558,1.53718.67828.67828,0,1,1-1.13174.73283,2.07718,2.07718,0,0,0-1.86577-.973c-1.71473.00995-3.42957.0046-5.14436.00184-.46894-.00075-.76378-.23477-.79567-.61425a.67993.67993,0,0,1,.76212-.74506c.91232-.0062,1.82471-.00177,2.73706-.00177Z"/><path class="cls-1" d="M23.64448,24.36c-.52794.00014-1.05592.0046-1.5838-.0012a.67519.67519,0,1,1-.00306-1.34069q1.61678-.00717,3.2336.0004a.67334.67334,0,1,1,.003,1.33971C24.74441,24.365,24.19441,24.35988,23.64448,24.36Z"/></g></g></svg>