<svg xmlns="http://www.w3.org/2000/svg" viewBox="0 0 10.54566 13.71551"><defs><style>.cls-1{fill:#283456;}</style></defs><g id="Layer_2" data-name="Layer 2"><g id="Layer_1-2" data-name="Layer 1"><path class="cls-1" d="M5.57887,0c.27233.06285.55228.10318.81572.19229A3.42477,3.42477,0,1,1,4.88616.0236.89862.89862,0,0,0,4.98955,0ZM5.27672,1.1455A2.28327,2.28327,0,1,0,7.561,3.4368,2.28794,2.28794,0,0,0,5.27672,1.1455Z"/><path class="cls-1" d="M0,12.24185c.04262-.24521.07339-.49319.12975-.7352a4.56556,4.56556,0,0,1,3.9187-3.47271c.15947-.017.3203-.02561.48068-.02889a.56866.56866,0,1,1,.031,1.13536,3.39748,3.39748,0,0,0-2.58836,1.203,3.2982,3.2982,0,0,0-.82341,2.127c-.00542.20076-.00228.40174-.00326.60262a.58529.58529,0,0,1-.47677.63384A.57194.57194,0,0,1,.016,13.28052c-.00181-.00774-.01051-.01387-.016-.02075Z"/><path class="cls-1" d="M10.54566,12.24185c-.04262-.24521-.07339-.49319-.12974-.7352A4.56557,4.56557,0,0,0,6.49721,8.03394c-.15947-.017-.32029-.02561-.48068-.02889a.56866.56866,0,1,0-.031,1.13536,3.39747,3.39747,0,0,1,2.58836,1.203,3.2982,3.2982,0,0,1,.82341,2.127c.00542.20076.00228.40174.00326.60262a.58529.58529,0,0,0,.47677.63384.57194.57194,0,0,0,.65236-.42632c.00181-.00774.01051-.01387.016-.02075Z"/></g></g></svg>