<svg xmlns="http://www.w3.org/2000/svg" viewBox="0 0 13.71381 13.71551"><defs><style>.cls-1{fill:#283456;}</style></defs><g id="Layer_2" data-name="Layer 2"><g id="Layer_1-2" data-name="Layer 1"><path class="cls-1" d="M12.66328,4.589H1.05788c-.00293.05948-.00781.11244-.00782.16539q-.00056,3.13686.00037,6.27372A1.5604,1.5604,0,0,0,2.349,12.63658a2.0928,2.0928,0,0,0,.375.02278c1.07033.00167,2.14067.00014,3.211.00145a.53458.53458,0,0,1,.59432.51722.507.507,0,0,1-.49353.52711c-1.21226.00371-2.42538.02659-3.63656-.01053a2.59133,2.59133,0,0,1-2.39207-2.406c-.00295-.06-.00548-.12005-.00549-.18007C.00145,8.27468-.00295,5.44085.00345,2.607A2.58484,2.58484,0,0,1,2.05432.064a2.77833,2.77833,0,0,1,.6004-.06062Q6.85687-.00236,11.059.00143a2.59951,2.59951,0,0,1,2.65165,2.63912c.00583,1.10292.002,2.2059.00074,3.30885a.52437.52437,0,0,1-.52774.57843.53079.53079,0,0,1-.51971-.575c-.00259-.39311-.00065-.78626-.00067-1.17939Zm-.01621-1.06693a8.91055,8.91055,0,0,0-.00838-1.14574,1.53426,1.53426,0,0,0-1.57934-1.326c-1.496-.00353-2.992-.001-4.488-.001-1.31036,0-2.62073-.003-3.93107.0013A1.51382,1.51382,0,0,0,1.10683,2.23,9.36121,9.36121,0,0,0,1.0292,3.52206Z"/><path class="cls-1" d="M13.71128,10.0382a3.66992,3.66992,0,1,1-3.67751-3.67234A3.66448,3.66448,0,0,1,13.71128,10.0382Zm-1.04881.01334a2.62058,2.62058,0,1,0-2.56718,2.60783A2.61906,2.61906,0,0,0,12.66247,10.05154Z"/><path class="cls-1" d="M3.116,3.0882a.6485.6485,0,1,1,.658-.64855A.652.652,0,0,1,3.116,3.0882Z"/><path class="cls-1" d="M10.58784,3.08772a.648.648,0,1,1,.65333-.65373A.64927.64927,0,0,1,10.58784,3.08772Z"/><path class="cls-1" d="M10.31924,9.77364c.17379,0,.32047-.00341.46693.00071a.52341.52341,0,0,1,.52935.5287.51814.51814,0,0,1-.53742.51782c-.32712.0036-.65437.00433-.98147-.00026a.50774.50774,0,0,1-.523-.51389q-.011-.70312-.00048-1.40654a.51643.51643,0,0,1,.514-.5258.52189.52189,0,0,1,.52637.49921c.01417.22814.00477.45774.0057.6867C10.31947,9.62459,10.31924,9.6889,10.31924,9.77364Z"/></g></g></svg>