<svg xmlns="http://www.w3.org/2000/svg" viewBox="0 0 216 195.9169">
  <path fill="#3b4bff" d="M107.58226,195.9169c-.27771-.032-.555-.0882-.83318-.0926a42.71632,42.71632,0,0,1-14.34671-2.69176,53.37515,53.37515,0,0,1-11.58577-6.02206c-4.58188-3.14567-9.10279-6.3824-13.59963-9.64916a219.55791,219.55791,0,0,1-20.78464-17.16391A182.8459,182.8459,0,0,1,28.7179,141.33748,146.71368,146.71368,0,0,1,12.59,116.88226,111.74165,111.74165,0,0,1,1.46305,84.86675,89.89866,89.89866,0,0,1,.0321,66.59105,75.12031,75.12031,0,0,1,6.8715,36.55759,59.54369,59.54369,0,0,1,23.441,15.11023,68.27688,68.27688,0,0,1,37.67986,6.5086,66.49322,66.49322,0,0,1,53.206,1.33257c2.70506-.52275,5.45356-.875,8.19875-1.12475A56.42335,56.42335,0,0,1,79.73285,1.695a58.63837,58.63837,0,0,1,19.24962,8.38137c2.87317,1.93358,5.63062,4.04006,8.42118,6.09444a.83426.83426,0,0,0,1.18292.00277c2.7473-2.02419,5.46673-4.09262,8.29291-6.002a59.44523,59.44523,0,0,1,19.48133-8.50346A58.82582,58.82582,0,0,1,153.53655.10486,67.58931,67.58931,0,0,1,178.461,6.55846a90.832,90.832,0,0,1,11.75431,6.63306,39.64537,39.64537,0,0,1,4.3992,3.6638,61.68283,61.68283,0,0,1,16.79039,25.156,75.96683,75.96683,0,0,1,4.411,21.31092,87.99165,87.99165,0,0,1-1.03909,20.13932,107.57474,107.57474,0,0,1-7.59711,25.51331A133.11439,133.11439,0,0,1,195.0196,130.909a175.04049,175.04049,0,0,1-25.63684,29.56767,222.75648,222.75648,0,0,1-19.73549,16.36541c-5.11029,3.769-10.16488,7.61994-15.56031,10.98667a55.442,55.442,0,0,1-11.97089,5.83309,43.82625,43.82625,0,0,1-12.43338,2.15041c-.41925.01283-.8372.06873-1.25576.10465Z"/>
</svg>
