<svg xmlns="http://www.w3.org/2000/svg" viewBox="0 0 20.088 19.61987"><defs><style>.cls-1{fill:#fff;}</style></defs><g id="Layer_2" data-name="Layer 2"><g id="Layer_2-2" data-name="Layer 2"><path d="M17.888,14.7846a1.34883,1.34883,0,0,1-1.179-1.04277,1.74406,1.74406,0,0,1-.03342-.41668q-.00368-1.74017-.00135-3.48033A1.34268,1.34268,0,0,1,17.80985,8.342a.34613.34613,0,0,0,.05135-.0235,7.83214,7.83214,0,0,0-15.6347.005c.05413.015.11029.032.16719.04594A1.29064,1.29064,0,0,1,3.40984,9.60084c.01268,1.3.0182,2.60034-.00091,3.90014A1.33832,1.33832,0,0,1,1.752,14.76089,2.06382,2.06382,0,0,1,.01377,12.7587c-.016-.80642-.02124-1.61391.00179-2.42A1.99233,1.99233,0,0,1,1.09039,8.583a.274.274,0,0,0,.16434-.2582A8.80239,8.80239,0,0,1,18.68717,7.14143c.075.3915.10967.79132.149,1.18867a.26874.26874,0,0,0,.15135.24621,2.019,2.019,0,0,1,1.09157,1.82751c.01308.75985.01033,1.5202.00085,2.28015a2.02547,2.02547,0,0,1-1.09144,1.84787.24666.24666,0,0,0-.139.25242,10.78449,10.78449,0,0,1-.0447,1.41624A2.88068,2.88068,0,0,1,15.989,18.64662c-.44643.00941-.89325.00513-1.33982.00071a.19754.19754,0,0,0-.21174.12869,1.4187,1.4187,0,0,1-1.34354.84069c-.47993.00358-.96.005-1.43986-.00066a1.44284,1.44284,0,0,1-1.46427-1.41281,1.425,1.425,0,0,1,1.37064-1.4781c.545-.0279,1.09322-.02184,1.63894-.002a1.38831,1.38831,0,0,1,1.24568.83271c.02749.05437.09383.12725.142.12715a16.16112,16.16112,0,0,0,1.657-.034,1.89969,1.89969,0,0,0,1.64229-1.81362C17.89707,15.48986,17.888,15.14362,17.888,14.7846Zm1.23332-3.21829c0-.39323.00722-.78662-.00167-1.17965a1.10562,1.10562,0,0,0-1.073-1.09829.36233.36233,0,0,0-.40966.38571q-.00654,1.87949-.0001,3.759a.36288.36288,0,0,0,.40692.38854A1.10467,1.10467,0,0,0,19.11959,12.726C19.12877,12.33962,19.12131,11.95288,19.12136,11.56631ZM2.45671,11.56313q0-.90978,0-1.81956c0-.01333.00012-.02667-.00033-.04a.37812.37812,0,0,0-.44316-.41442,1.09467,1.09467,0,0,0-1.03949,1.068q-.02115,1.19933.0002,2.39926a1.09483,1.09483,0,0,0,.98324,1.06033c.34711.02865.49757-.10548.49892-.454C2.45839,12.76284,2.45672,12.163,2.45671,11.56313Zm9.91645,7.09376c.24666,0,.49339.00414.73994-.00107a.47921.47921,0,0,0,.50208-.48322.47256.47256,0,0,0-.49127-.4924q-.73972-.01258-1.47982.00014a.47451.47451,0,0,0-.49368.49094.4827.4827,0,0,0,.50282.48448C11.8931,18.66105,12.13318,18.65683,12.37316,18.65689Z"/><path d="M6.97212,12.88867a2.106,2.106,0,0,1-1.194-.37288,2.03186,2.03186,0,0,1-.87617-1.74861c.00025-1.32673-.00516-2.65348.00157-3.98017A2.03212,2.03212,0,0,1,7.03882,4.67q3.0096-.00322,6.0192.00011A2.03092,2.03092,0,0,1,15.18764,6.7925q.00945,1.98.00015,3.96017a2.04155,2.04155,0,0,1-2.14331,2.13308c-.79323.00184-1.58648.00353-2.37966-.00257a.44148.44148,0,0,0-.35017.1411c-.54814.55481-1.098,1.10823-1.65988,1.649a.97641.97641,0,0,1-1.58432-.30555,1.46466,1.46466,0,0,1-.09419-.505C6.96186,13.54468,6.97212,13.22545,6.97212,12.88867Zm.96037,1.07022.04859.0266c.05189-.04807.1053-.09462.15545-.14444.56265-.55882,1.12908-1.11395,1.68448-1.6799a.74824.74824,0,0,1,.58481-.23884c.87281.00916,1.74577.0042,2.61868.00345a1.09394,1.09394,0,0,0,1.20463-1.201q.0026-1.94938,0-3.89878a1.08781,1.08781,0,0,0-1.20584-1.1963q-2.96855-.00064-5.9371-.00006A1.09248,1.09248,0,0,0,5.86266,6.8479q-.00124,1.9294.00029,3.8588a2.37444,2.37444,0,0,0,.01215.25932,1.04022,1.04022,0,0,0,.87626.93238,3.99052,3.99052,0,0,0,.57737.02653c.44409.00458.60283.15919.60358.6Q7.93353,13.24189,7.93249,13.95889Z"/><path class="cls-1" d="M12.37316,18.65686c-.24,0-.48006.00419-.71993-.0011a.4827.4827,0,0,1-.50282-.48448.47451.47451,0,0,1,.49368-.49094q.73973-.013,1.47982-.00014a.47256.47256,0,0,1,.49127.4924.47921.47921,0,0,1-.50208.48322C12.86655,18.661,12.61982,18.65689,12.37316,18.65686Z"/><path d="M10.04565,9.56226a.70966.70966,0,1,1,.70984-.71518A.7205.7205,0,0,1,10.04565,9.56226Z"/><path d="M8.418,8.85268a.70592.70592,0,1,1-.70942-.70977A.70954.70954,0,0,1,8.418,8.85268Z"/><path d="M11.6728,8.84914a.70605.70605,0,1,1,1.41191.01655.71672.71672,0,0,1-.70579.69663A.70939.70939,0,0,1,11.6728,8.84914Z"/></g></g></svg>