<svg xmlns="http://www.w3.org/2000/svg" viewBox="0 0 216 212.55759"><defs><style>.cls-1{fill:#183a6b;}</style></defs><g id="Layer_2" data-name="Layer 2"><g id="Layer_2-2" data-name="Layer 2"><path class="cls-1" d="M108.19117,0c53.8145.26677,99.66648,39.8794,106.86822,92.73941,6.86052,50.35521-24.41966,98.92185-73.83788,114.64324C83.39338,225.77941,21.265,193.50559,4.32569,136.26932-13.55538,75.851,25.87016,12.70322,88.10738,2.23853,94.7399,1.12333,101.49365.72884,108.19117,0ZM99.08775,151.39478c24.49238.33786,43.61113-1.30683,62.282-6.57195,10.14181-2.86,20.03309-6.39044,28.02954-13.66525,8.01775-7.29415,8.28716-16.40554-.207-23.09085a76.083,76.083,0,0,0-18.38213-10.51137c-15.43137-6.235-31.80982-8.47767-48.332-9.45184-23.85288-1.40639-47.45568.14428-70.49681,6.96329C42.71145,97.81024,33.7324,101.327,26.46,107.99326c-8.05483,7.38346-8.2185,16.21653.19524,23.14077a63.91157,63.91157,0,0,0,15.96012,9.5384C62.30415,148.82336,83.16614,150.934,99.08775,151.39478Z"/><path class="cls-1" d="M64.77514,105.90247A12.904,12.904,0,1,1,51.964,118.88911,13.01344,13.01344,0,0,1,64.77514,105.90247Z"/><path class="cls-1" d="M150.84939,105.9105a12.90261,12.90261,0,1,1-12.752,13.06776A13.01968,13.01968,0,0,1,150.84939,105.9105Z"/></g></g></svg>