<?xml version="1.0" encoding="utf-8"?>
<!-- Generator: Adobe Illustrator 26.0.1, SVG Export Plug-In . SVG Version: 6.00 Build 0)  -->
<svg version="1.1" id="Layer_1" xmlns="http://www.w3.org/2000/svg" xmlns:xlink="http://www.w3.org/1999/xlink" x="0px" y="0px"
	 viewBox="0 0 216 216" style="enable-background:new 0 0 216 216;" xml:space="preserve">
<style type="text/css">
	.st0{fill:#17FFC2;}
	.st1{fill:#003D29;}
</style>
<g id="Layer_2_00000150092074421333059320000005279992693197875115_">
	<g id="Layer_1-2">
		<g id="Layer_2-2">
			<g id="Layer_1-2-2">
				<path class="st0" d="M59.1,0h97.8C189.5,0,216,26.5,216,59.1v97.8c0,32.6-26.5,59.1-59.1,59.1H59.1C26.5,216,0,189.5,0,156.9
					V59.1C0,26.5,26.5,0,59.1,0z"/>
				<path class="st1" d="M108.2,22.4c43.2,0.1,79.9,31.9,86,74.7c5.2,41.1-19.9,80-59.4,92.3c-45.9,14.8-95-10.3-109.9-56.2
					c-0.1-0.4-0.2-0.7-0.3-1.1c-13.2-45.2,12.8-92.5,58-105.7c3.1-0.9,6.3-1.6,9.5-2.2C97.3,23.4,102.8,23,108.2,22.4z M100.8,144.3
					c16.9,0.7,33.8-1.1,50.1-5.3c8.3-1.8,16-5.6,22.6-11c6.5-5.9,6.7-13.2-0.2-18.6c-4.5-3.5-9.5-6.3-14.8-8.5
					c-12.5-4.6-25.6-7.2-38.9-7.6c-19.1-1.5-38.3,0.4-56.8,5.6c-7.6,1.8-14.6,5.4-20.5,10.4c-6.5,5.9-6.6,13.1,0.2,18.6
					c3.9,3.2,8.2,5.8,12.8,7.7C69.9,141.3,85.3,144.2,100.8,144.3z"/>
				<path class="st1" d="M73.2,107.7c5.7,0,10.4,4.6,10.5,10.3c0,5.7-4.6,10.4-10.3,10.5c-5.7,0-10.4-4.6-10.5-10.3c0,0,0,0,0,0v0
					C62.9,112.4,67.5,107.8,73.2,107.7z"/>
				<path class="st1" d="M142.5,107.7c5.7-0.1,10.4,4.5,10.5,10.3s-4.5,10.4-10.3,10.5c-5.7,0.1-10.4-4.5-10.5-10.3
					C132.2,112.5,136.8,107.8,142.5,107.7C142.5,107.7,142.5,107.7,142.5,107.7z"/>
			</g>
		</g>
	</g>
</g>
</svg>
