<svg xmlns="http://www.w3.org/2000/svg" viewBox="0 0 216 216"><defs><style>.cls-1{fill:#17ffc2;}.cls-2{fill:#003d29;}</style></defs><g id="Layer_2" data-name="Layer 2"><g id="Layer_1-2" data-name="Layer 1"><g id="Layer_2-2" data-name="Layer 2"><g id="Layer_1-2-2" data-name="Layer 1-2"><rect class="cls-1" width="216" height="216" rx="38.61382"/><path class="cls-2" d="M108.17118,22.44642a87.05934,87.05934,0,0,1,86.03147,74.65745,85.49511,85.49511,0,0,1-59.44124,92.29055A87.25676,87.25676,0,0,1,24.89367,133.21115q-.17175-.53126-.3367-1.06467a85.25818,85.25818,0,0,1,67.44646-107.898C97.34262,23.35073,102.77954,23.03312,108.17118,22.44642Zm-7.32845,121.87642a170.50814,170.50814,0,0,0,50.13849-5.29056,53.90146,53.90146,0,0,0,22.56444-11.00086c6.45448-5.872,6.67136-13.20686-.16664-18.58872a61.25134,61.25134,0,0,0-14.79807-8.4619,121.95084,121.95084,0,0,0-38.90843-7.609,164.17008,164.17008,0,0,0-56.7516,5.60563,50.55406,50.55406,0,0,0-20.54527,10.40606c-6.48435,5.94391-6.61609,13.0547.15714,18.62889A51.45181,51.45181,0,0,0,55.381,135.69108,129.85056,129.85056,0,0,0,100.84273,144.32284Z"/><path class="cls-2" d="M73.22017,107.70044A10.38808,10.38808,0,1,1,62.907,118.16288l0-.00768A10.47615,10.47615,0,0,1,73.22017,107.70044Z"/><path class="cls-2" d="M142.51208,107.70692a10.38693,10.38693,0,1,1-10.26564,10.51986A10.38692,10.38692,0,0,1,142.51208,107.70692Z"/></g></g></g></g></svg>