<?xml version="1.0" encoding="utf-8"?>
<!-- Generator: Adobe Illustrator 26.0.1, SVG Export Plug-In . SVG Version: 6.00 Build 0)  -->
<svg version="1.1" id="Layer_1" xmlns="http://www.w3.org/2000/svg" xmlns:xlink="http://www.w3.org/1999/xlink" x="0px" y="0px"
	 viewBox="0 0 16.2 16.2" style="enable-background:new 0 0 16.2 16.2;" xml:space="preserve">
<style type="text/css">
	.st0{fill:#BFBFBF;}
</style>
<g id="Layer_2_00000001629275936151162460000017239350951879497883_">
	<g id="Layer_2-2_00000043454245303882612570000017957477127144659354_">
		<path class="st0" d="M2.2,0c0.5,0.1,0.9,0.3,1.3,0.7C4.2,1.5,5,2.2,5.8,3c0.7,0.7,1.4,1.4,2.1,2.1c0.2,0.2,0.3,0.2,0.6,0
			c1.5-1.5,2.9-2.9,4.4-4.4c0.5-0.6,1.4-0.8,2.1-0.5c1,0.4,1.5,1.5,1.1,2.5c-0.1,0.2-0.2,0.4-0.4,0.6c-0.1,0.1-0.1,0.2-0.2,0.2
			c-1.4,1.4-2.9,2.9-4.3,4.3c-0.2,0.2-0.2,0.3,0,0.6c1.5,1.5,2.9,2.9,4.4,4.4c0.4,0.4,0.6,0.8,0.6,1.4c0.1,0.8-0.4,1.5-1.1,1.8
			c-0.7,0.4-1.6,0.2-2.2-0.3c-0.1-0.1-0.2-0.1-0.2-0.2c-1.4-1.4-2.9-2.9-4.3-4.3c-0.2-0.2-0.4-0.2-0.6,0c-1.5,1.5-2.9,2.9-4.4,4.4
			c-0.3,0.4-0.8,0.6-1.3,0.6c-0.7,0.1-1.4-0.3-1.8-0.9c-0.4-0.6-0.4-1.4,0-2c0.1-0.2,0.3-0.4,0.4-0.5C2.2,11.3,3.6,9.8,5,8.4
			C5.3,8.2,5.3,8,5,7.8C3.6,6.3,2.1,4.9,0.6,3.4C0.1,2.9-0.1,2.2,0.1,1.5C0.3,0.5,1.2-0.1,2.2,0z"/>
	</g>
</g>
</svg>
