<svg xmlns="http://www.w3.org/2000/svg" viewBox="0 0 216 224.30548"><defs><style>.cls-1{fill:#283456;}</style></defs><g id="Layer_2" data-name="Layer 2"><g id="Layer_2-2" data-name="Layer 2"><path class="cls-1" d="M104.99592,224.30548c-1.06483-.29024-2.13418-.56489-3.19376-.87315-9.33971-2.71716-15.46161-8.68251-18.13943-18.07484a12.85968,12.85968,0,0,1-.54816-6.15707,8.37369,8.37369,0,0,1,8.25436-6.82793,8.51388,8.51388,0,0,1,8.37182,6.8154,15.97922,15.97922,0,0,0,1.15976,3.69173,7.81326,7.81326,0,0,0,7.81433,4.33127,8.25722,8.25722,0,0,0,7.23191-6.35322,20.16458,20.16458,0,0,1,1.34691-4.07709,8.03507,8.03507,0,0,1,9.87962-3.97769,8.33005,8.33005,0,0,1,5.85815,8.849c-1.2087,8.70778-5.41738,15.45838-13.36276,19.61205a28.983,28.983,0,0,1-7.61434,2.60325,6.57022,6.57022,0,0,0-1.0976.43833Z"/><path class="cls-1" d="M215.82876,155.45161a26.74,26.74,0,0,1-1.796,11.5367c-3.019,7.45279-8.58021,11.84989-16.40943,13.43982a31.35217,31.35217,0,0,1-9.8072.32366,9.51036,9.51036,0,0,0-1.06223-.0437q-78.73078-.00273-157.46159.009c-2.12334.00055-4.2511.28985-6.36911.218-5.9704-.20256-11.38759-1.94564-15.80367-6.16351a21.47086,21.47086,0,0,1-6.316-11.6577,37.18323,37.18323,0,0,1,.42388-17.21229c2.172-7.84917,7.323-13.11521,14.75378-16.23371,1.17239-.492,2.39756-.8649,3.61459-1.2401a.67891.67891,0,0,0,.592-.71329c.24916-3.7727.47008-7.54861.80881-11.31371.37683-4.18861.75939-8.382,1.33754-12.54586.72415-5.21523,1.52956-10.42533,2.51188-15.59738A164.43266,164.43266,0,0,1,37.34819,48.42366,99.94137,99.94137,0,0,1,53.5104,23.70543c9.47708-10.4552,20.83819-17.919,34.561-21.57561a62.48828,62.48828,0,0,1,19.798-2.02536c2.11753.1215,4.25437-.12588,6.37655-.04732a63.85637,63.85637,0,0,1,22.27795,4.98037,70.57977,70.57977,0,0,1,21.77144,14.36506c9.39234,8.96975,16.19747,19.71433,21.48126,31.489A164.13137,164.13137,0,0,1,189.99316,82.586a212.99211,212.99211,0,0,1,3.77807,22.13248c.718,6.29007,1.20116,12.6071,1.77369,18.91352.11961,1.31732.20632,2.63951.24532,3.96132a.77738.77738,0,0,0,.6873.86551,27.57567,27.57567,0,0,1,10.36057,5.23057,23.64451,23.64451,0,0,1,8.5282,14.84415c.38,2.273.43212,4.601.63369,6.90386Zm-37.45983-10.081c-.02287-.211-.07478-.51021-.085-.8108-.14653-4.32239-.22913-8.64787-.44538-12.9667-.23872-4.76729-.52672-9.53452-.923-14.291q-.86525-10.38514-2.62975-20.66325a174.63714,174.63714,0,0,0-7.25539-28.81334,99.27683,99.27683,0,0,0-14.1117-27.2693c-5.70685-7.53893-12.56757-13.72926-21.17709-17.80792a45.37224,45.37224,0,0,0-21.54-4.59039c-.62106.0255-1.23692.25473-1.85508.25425-.71121-.00055-1.42021-.17968-2.13378-.23221a39.0215,39.0215,0,0,0-10.56952.78407A50.98862,50.98862,0,0,0,69.66061,33.04576,76.70121,76.70121,0,0,0,55.17644,53.24215,134.04494,134.04494,0,0,0,44.52271,82.9055a200.0187,200.0187,0,0,0-4.81829,28.40908c-.69777,7.36047-1.17606,14.74345-1.64534,22.1232-.23986,3.772-.24487,7.55884-.359,11.33888-.00692.22953-.03967.45827-.06579.74691-2.48884-.07617-4.92-.10743-7.346-.236a16.299,16.299,0,0,0-8.26331,1.52911,5.75873,5.75873,0,0,0-3.47914,4.53077,48.36,48.36,0,0,0-.26388,6.14337,10.64809,10.64809,0,0,0,.56767,2.89735,2.82267,2.82267,0,0,0,2.244,2.05427,20.63867,20.63867,0,0,0,3.50209.3942c1.19852.019,2.4002-.244,3.60054-.24427q79.83-.0204,159.66005-.00806c.37593,0,.75149.07515,1.12787.08269a43.67808,43.67808,0,0,0,4.59175.04323c2.50542-.21522,3.56073-1.20049,3.96294-3.667a24.6035,24.6035,0,0,0-.04677-7.61763,5.6607,5.6607,0,0,0-3.40041-4.5106,25.50591,25.50591,0,0,0-4.144-1.38175c-2.16336-.54692-4.37632-.1657-6.56862-.16307C181.7297,145.37219,180.08038,145.37062,178.36893,145.37062Z"/><path class="cls-1" d="M107.87289,123.69365q-14.04981,0-28.09964-.00151c-2.01009-.00071-4.02018-.02648-6.03028-.0299a8.43948,8.43948,0,1,1,.16579-16.8774c4.96643-.03647,9.9332-.03032,14.89982-.03789q22.03081-.03355,44.06163-.05806c3.33335-.00212,6.67-.023,9.99928.11038a8.28844,8.28844,0,0,1,7.80666,7.70471c.25124,4.52268-2.5537,8.30235-6.84623,8.9622a36.89781,36.89781,0,0,1-5.51576.21885Q123.09359,123.71215,107.87289,123.69365Z"/></g></g></svg>