<svg xmlns="http://www.w3.org/2000/svg" viewBox="0 0 15.91546 15.91065"><defs><style>.cls-1{fill:#283456;}</style></defs><g id="Layer_2" data-name="Layer 2"><g id="Layer_1-2" data-name="Layer 1"><path class="cls-1" d="M0,10.84446c.02263-.095.03911-.19193.06886-.28463A1.84014,1.84014,0,0,1,1.52854,9.2326c.09592-.02.12933-.05749.1414-.14551.10543-.76893.20487-1.53881.32237-2.30592a20.06271,20.06271,0,0,1,.4494-2.64252A5.5974,5.5974,0,0,1,6.83093.09207a4.82412,4.82412,0,0,1,.56738-.0867.62973.62973,0,0,1,.74354.55346.628.628,0,0,1-.62389.68363,4.50631,4.50631,0,0,0-3.965,3.51639c-.15639.7694-.23874,1.554-.34993,2.33239-.131.91685-.25353,1.83492-.38614,2.75154a.62561.62561,0,0,1-.6976.59765c-.09842.00028-.19713-.004-.29518.00214a.62108.62108,0,0,0-.00555,1.23907c.03607.00282.07247.00193.10872.00193q6.02933.00012,12.05865.00116a.62824.62824,0,0,0,.62847-.36826.61732.61732,0,0,0-.53594-.87449c-.124-.006-.2487.00161-.37287-.00286a.60934.60934,0,0,1-.58874-.50261c-.0366-.20356-.06707-.40882-.0871-.61461a.61988.61988,0,0,1,.511-.67552.61246.61246,0,0,1,.69682.43476.18386.18386,0,0,0,.17283.15447,1.86052,1.86052,0,0,1-.05363,3.66223,2.53772,2.53772,0,0,1-.38634.02789q-6.01378.00211-12.02757.001a1.86388,1.86388,0,0,1-1.917-1.5621A.24459.24459,0,0,0,0,11.31068Z"/><path class="cls-1" d="M7.80251,15.91065a2.10853,2.10853,0,0,1-.95189-.4226,1.84028,1.84028,0,0,1-.65946-1.21017.61989.61989,0,0,1,1.21356-.23952c.00981.03473.01695.07033.02338.10588a.59646.59646,0,0,0,1.18376.00011A.62284.62284,0,1,1,9.843,14.324a1.83518,1.83518,0,0,1-1.54905,1.563.28414.28414,0,0,0-.05627.02358Z"/><path class="cls-1" d="M7.32151,9.7254c-.83346,0-1.66692.002-2.50036-.00112a.61305.61305,0,0,1-.60751-.48147.59934.59934,0,0,1,.29655-.673A.73923.73923,0,0,1,4.83475,8.486q2.48481-.00777,4.96966-.00283a.621.621,0,1,1,.00194,1.24142C8.97808,9.72738,8.14979,9.72545,7.32151,9.7254Z"/></g></g></svg>