<?xml version="1.0" encoding="utf-8"?>
<!-- Generator: Adobe Illustrator 26.0.1, SVG Export Plug-In . SVG Version: 6.00 Build 0)  -->
<svg version="1.1" id="Layer_1" xmlns="http://www.w3.org/2000/svg" xmlns:xlink="http://www.w3.org/1999/xlink" x="0px" y="0px"
	 viewBox="0 0 216 224.3" style="enable-background:new 0 0 216 224.3;" xml:space="preserve">
<style type="text/css">
	.st0{fill:#707D99;}
</style>
<g id="Layer_2_00000026882258726307430190000000187951712651469758_">
	<g id="Layer_1-2">
		<path class="st0" d="M105,224.3c-1.1-0.3-2.1-0.6-3.2-0.9c-9.3-2.7-15.5-8.7-18.1-18.1c-0.7-2-0.9-4.1-0.6-6.2
			c0.8-4,4.2-6.8,8.3-6.8c4.1,0,7.6,2.8,8.4,6.8c0.2,1.3,0.6,2.5,1.2,3.7c1.4,2.9,4.6,4.7,7.8,4.3c3.5-0.3,6.4-2.9,7.2-6.4
			c0.3-1.4,0.8-2.8,1.3-4.1c1.8-3.7,6-5.4,9.9-4c3.8,1.2,6.3,4.9,5.9,8.9c-1.2,8.7-5.4,15.5-13.4,19.6c-2.4,1.2-5,2.1-7.6,2.6
			c-0.4,0.1-0.7,0.3-1.1,0.4L105,224.3z"/>
		<path class="st0" d="M215.8,155.4c0.2,3.9-0.4,7.9-1.8,11.6c-3,7.4-8.6,11.9-16.4,13.4c-3.2,0.6-6.5,0.7-9.8,0.3
			c-0.4,0-0.7,0-1.1,0c-52.5,0-105,0-157.5,0c-2.1,0-4.2,0.3-6.4,0.2c-6-0.2-11.4-1.9-15.8-6.2c-3.3-3.1-5.5-7.2-6.3-11.7
			c-1.2-5.7-1.1-11.6,0.4-17.2c2.2-7.8,7.3-13.1,14.8-16.2c1.2-0.5,2.4-0.9,3.6-1.2c0.4-0.1,0.6-0.4,0.6-0.7
			c0.2-3.8,0.5-7.5,0.8-11.3c0.4-4.2,0.8-8.4,1.3-12.6c0.7-5.2,1.5-10.4,2.5-15.6c2.5-13.8,6.7-27.1,12.5-39.8
			c4.1-9,9.6-17.3,16.1-24.7C63,13.2,74.3,5.8,88.1,2.1c6.5-1.7,13.1-2.4,19.8-2c2.1,0.1,4.2-0.1,6.4,0c7.7,0.3,15.2,2,22.3,5
			c8.1,3.4,15.5,8.2,21.8,14.3c9.4,9,16.2,19.7,21.5,31.5c4.5,10.2,7.9,20.8,10.2,31.7c1.6,7.3,2.9,14.7,3.8,22.1
			c0.7,6.3,1.2,12.6,1.8,18.9c0.1,1.3,0.2,2.6,0.2,4c0,0.4,0.3,0.8,0.7,0.9c3.8,1,7.3,2.8,10.4,5.2c4.6,3.7,7.6,9,8.5,14.8
			c0.4,2.3,0.4,4.6,0.6,6.9H215.8z M178.4,145.4c0-0.2-0.1-0.5-0.1-0.8c-0.1-4.3-0.2-8.6-0.4-13c-0.2-4.8-0.5-9.5-0.9-14.3
			c-0.6-6.9-1.5-13.8-2.6-20.7c-1.6-9.8-4-19.4-7.3-28.8c-3.4-9.8-7.8-19-14.1-27.3c-5.7-7.5-12.6-13.7-21.2-17.8
			c-6.7-3.3-14.1-4.9-21.5-4.6c-0.6,0-1.2,0.2-1.8,0.2s-1.4-0.2-2.1-0.2c-3.5-0.2-7.1,0.1-10.5,0.8c-9.9,2-18.9,6.9-26,14.1
			c-6.1,6-11,12.8-14.7,20.2c-4.7,9.4-8.3,19.4-10.7,29.7c-2.3,9.3-3.9,18.8-4.8,28.4c-0.7,7.4-1.2,14.8-1.6,22.1
			c-0.2,3.8-0.2,7.6-0.4,11.3c0,0.2,0,0.4-0.1,0.7c-2.5-0.1-4.9-0.1-7.3-0.2c-2.8-0.2-5.7,0.3-8.3,1.5c-1.9,0.8-3.2,2.5-3.5,4.5
			c-0.2,2-0.3,4.1-0.3,6.1c0.1,1,0.2,2,0.6,2.9c0.3,1.1,1.2,1.9,2.2,2.1c1.2,0.2,2.3,0.4,3.5,0.4s2.4-0.2,3.6-0.2h159.7
			c0.4,0,0.8,0.1,1.1,0.1c1.5,0.1,3.1,0.1,4.6,0c2.5-0.2,3.6-1.2,4-3.7s0.4-5.1,0-7.6c-0.2-2-1.5-3.7-3.4-4.5
			c-1.3-0.6-2.7-1-4.1-1.4c-2.2-0.5-4.4-0.2-6.6-0.2L178.4,145.4z"/>
		<path class="st0" d="M107.9,123.7c-9.3,0-18.7,0-28.1,0c-2,0-4,0-6,0c-4.7,0-8.4-3.9-8.4-8.5c0-4.7,3.9-8.4,8.5-8.4l0,0
			c5,0,9.9,0,14.9,0c14.7,0,29.4,0,44.1-0.1c3.3,0,6.7,0,10,0.1c4.2,0.2,7.5,3.5,7.8,7.7c0.2,4.5-2.6,8.3-6.9,9
			c-1.8,0.2-3.7,0.3-5.5,0.2C128.2,123.7,118,123.7,107.9,123.7z"/>
	</g>
</g>
</svg>
