<?xml version="1.0" encoding="utf-8"?>
<!-- Generator: Adobe Illustrator 26.0.1, SVG Export Plug-In . SVG Version: 6.00 Build 0)  -->
<svg version="1.1" id="Layer_1" xmlns="http://www.w3.org/2000/svg" xmlns:xlink="http://www.w3.org/1999/xlink" x="0px" y="0px"
	 viewBox="0 0 218.5 218.4" style="enable-background:new 0 0 218.5 218.4;" xml:space="preserve">
<style type="text/css">
	.st0{fill:#BFDDD7;stroke:#BFDDD7;stroke-width:2.5;stroke-miterlimit:10;}
</style>
<g id="Layer_2_00000032641842800989764040000001178564879589917589_">
	<g id="Layer_1-2">
		<path class="st0" d="M165.5,142.3c0,5.5-0.1,10.8,0,16c0.2,5.8-1.5,11.4-4.9,16.1c-3.8,5.5-7.4,11.1-11.1,16.6
			c-1.9,2.7-2.9,6-2.8,9.3c0,3.8,0,7.6,0,11.4c0,3.8-1.6,5.4-5.3,5.4c-21.5,0-42.9,0-64.4,0c-3.6,0-5.2-1.7-5.2-5.3
			c0-3.9,0-7.8,0-11.7c0-3.2-0.9-6.4-2.7-9.1c-3.9-5.7-7.6-11.5-11.5-17.2c-3.1-4.5-4.7-9.8-4.6-15.3c0.1-5.3,0-10.7,0-16.4
			c-0.9,0-1.6,0-2.4,0c-8.4,0-16.9,0-25.3,0c-11.4,0.2-21.4-7.9-23.5-19.1c-0.4-2.1-0.5-4.2-0.5-6.3c0-12,0.1-24,0.1-36.1
			c0-18.1-0.1-36.2-0.2-54.3c0-7.2,2.1-13.5,7.4-18.6c5.1-4.8,11.2-6.6,18-6.6c45.2,0.1,90.4,0.1,135.6,0.2c10,0,20.1-0.1,30.1-0.1
			c10.3,0,18,4.4,22.6,13.8c1.6,3.6,2.4,7.6,2.2,11.5c0,11.7-0.1,23.3-0.1,35c0,18.5,0.1,37.1,0.2,55.6c0,7.6-2.4,14.2-8.2,19.3
			c-4.3,3.8-9.9,5.9-15.7,5.8C184.2,142.3,175,142.3,165.5,142.3z M161,10.9H57.5c1,13.4-2.8,24.9-12.2,34.4
			c-9.4,9.5-21.1,13.3-34.3,12.3V86c13.4-1,24.9,2.8,34.3,12.2c9.4,9.4,13.2,21,12.2,34.2h70.6c0-2.2-0.1-4.4,0-6.5
			c0.7-16.6,15.1-30.6,31.7-30.8c3.9-0.1,5.7,1.7,5.7,5.6c0,2.4,0,4.7,0,7.6c9.8-16.1,23.7-23.5,42.1-22.4V57.6
			c-23.4,2.4-44.2-14.7-46.6-38.1C160.7,16.6,160.7,13.8,161,10.9z M156.2,105.5c-0.3-0.1-0.6-0.1-0.9-0.1c-0.4,0-0.7,0.1-1.1,0.2
			c-9,3-14.7,9-16.4,18.3c-0.7,3.7-0.4,7.6-0.5,11.4c-0.1,5.6-1.4,6.9-6.8,6.9c-21.8,0-43.7,0-65.5,0h-2.8c0,5.8,0,11.3,0,16.7
			c-0.1,3.4,0.9,6.7,2.9,9.5c4,5.9,7.9,11.8,11.8,17.7c2.8,4.1,4.2,8.9,4.1,13.9c0,2.5,0,5.1,0,7.7h56.3c0-2.2,0.1-4.2,0-6.2
			c-0.3-6,1.5-11.9,5-16.7c3.7-5.3,7.1-10.7,10.8-16.1c2-3,3.1-6.5,3-10.1c0-16.9,0-33.9,0-50.8L156.2,105.5z M11,47.9
			c22.2,3.3,40.4-16.9,36.7-37c-7.9,0-15.9-0.3-23.9,0.1c-7,0.4-12.1,5-12.7,12C10.5,31.2,11,39.5,11,47.9z M170.7,10.8
			c-3.5,21.7,16.2,40.5,36.9,37c0-8.1,0.5-16.2-0.1-24.3c-0.5-7.4-6-12.3-13.2-12.6C186.5,10.6,178.7,10.8,170.7,10.8z M48,132.6
			c1.2-11.3-2.1-20.9-10.2-28.6c-7.5-7-16.6-9.7-27-8.5c0,7.5,0,14.8,0,22c0,0.7,0,1.3,0.1,2c0.8,7.9,6.6,13.1,14.6,13.1
			c3.9,0,7.8,0,11.7,0C40.6,132.6,44.2,132.6,48,132.6z M170.7,132.6c7.9,0,15.6,0,23.4,0c6.6-0.1,12.1-4.8,13.2-11.3
			c0.3-2.5,0.5-5,0.4-7.4c0.1-6.1,0-12.1,0-18.1C187.2,92.2,167.3,110.7,170.7,132.6z"/>
		<path class="st0" d="M104.5,48c0-1.4-0.1-2.7,0-4.1c0.2-3,2.1-5,4.8-5c2.6,0,4.5,2,4.6,4.9c0.1,1.4,0,2.8,0,4.4
			c3.8,0,7.5,0,11.1,0c1.2,0,2.5,0,3.7,0.2c2.5,0.4,4.2,2.8,3.8,5.3c-0.3,1.9-1.8,3.4-3.7,3.8c-0.9,0.1-1.7,0.2-2.6,0.2
			c-8.5,0-17-0.1-25.5,0.1c-1.6,0.1-3.2,0.7-4.5,1.7c-1.4,1.1-1.5,3-0.7,4.7c0.7,1.8,2.6,3,4.5,2.9c6.2,0,12.3,0,18.5,0
			c7.8,0,14.1,6.3,14.1,14.1c0,7.5-5.8,13.6-13.3,14c-1.7,0.1-3.4,0-5.4,0c0,1.5,0,2.9,0,4.2c-0.1,3.2-2,5.2-4.8,5.1
			c-2.7,0-4.5-2-4.6-5.1c-0.1-1.3,0-2.6,0-4.2c-3.6,0-7.1,0-10.6,0c-1.1,0-2.2,0-3.3,0c-2.5,0.1-4.7-1.9-4.8-4.5c0-0.1,0-0.1,0-0.2
			c-0.1-2.5,1.8-4.5,4.3-4.6c0.2,0,0.3,0,0.5,0c8.6-0.1,17.3,0,25.9,0c0.7,0,1.5,0,2.2,0c2.6-0.1,4.6-2.3,4.5-4.9
			c-0.1-2.5-2.1-4.5-4.7-4.5c-0.7-0.1-1.3,0-2,0c-5.8,0-11.6,0.1-17.4-0.1c-6.8-0.2-12.4-5.3-13.4-12c-0.8-7.3,3.4-13.9,10.3-15.5
			C98.8,48.2,101.5,48.3,104.5,48z"/>
	</g>
</g>
</svg>
