<svg xmlns="http://www.w3.org/2000/svg" viewBox="0 0 216 215.93547"><defs><style>.cls-1{fill:#deba19;}</style></defs><g id="Layer_2" data-name="Layer 2"><g id="Layer_1-2" data-name="Layer 1"><path class="cls-1" d="M164.28238,141.01325c0,5.51008-.10473,10.77512.02776,16.03417a26.30243,26.30243,0,0,1-4.89684,16.086c-3.79338,5.47825-7.3805,11.099-11.12233,16.61364a15.90945,15.90945,0,0,0-2.81169,9.301q.04212,5.717-.00247,11.43458c-.03115,3.75719-1.63566,5.43371-5.324,5.43726q-32.20159.031-64.40326-.0021c-3.55228-.00392-5.188-1.70949-5.22277-5.314-.03744-3.88452-.02082-7.76969-.00789-11.6545a15.745,15.745,0,0,0-2.73986-9.10415c-3.85371-5.70428-7.59175-11.48725-11.47975-17.16771a25.45968,25.45968,0,0,1-4.6021-15.28806c.1034-5.34385.02226-10.69127.02226-16.37509-.85759,0-1.62381,0-2.39,0-8.42592-.00027-16.852.03128-25.2777-.00845A23.57525,23.57525,0,0,1,.52589,121.90737a30.854,30.854,0,0,1-.4936-6.33717c.0049-12.01893.12784-24.03786.12153-36.05673Q.13955,52.3593.00035,25.20523C-.03136,17.9976,2.062,11.676,7.36451,6.59654,12.4187,1.75493,18.55346-.01189,25.409.00006q67.807.11823,135.61408.1607c10.03563.00711,20.07132-.13644,30.107-.13493,10.29969.00155,17.989,4.41626,22.63661,13.75072a25.16745,25.16745,0,0,1,2.21988,11.5288c-.03581,11.65252-.14549,23.305-.1387,34.95743q.0162,27.81339.15181,55.62667c.03112,7.64358-2.37945,14.2148-8.2374,19.32237a23.33889,23.33889,0,0,1-15.69056,5.78751C182.91767,141.052,173.76307,141.01325,164.28238,141.01325ZM159.78593,9.657H56.22693c1.0255,13.366-2.81624,24.92907-12.22109,34.35557-9.44623,9.468-21.07945,13.279-34.33913,12.261v28.5088c13.365-1.01307,24.92909,2.799,34.34634,12.23857,9.39654,9.41882,13.20774,20.97406,12.24022,34.23393h70.60694c0-2.23889-.07628-4.35182.0121-6.45784.69513-16.56367,15.1412-30.58188,31.71344-30.80794,3.87341-.05283,5.66816,1.69387,5.69357,5.568.01547,2.35632.00286,4.71282.00286,7.5765,9.836-16.13435,23.71252-23.503,42.09472-22.41737V56.31258A42.55087,42.55087,0,0,1,159.78593,9.657Zm-4.8471,94.548a4.28613,4.28613,0,0,0-.87289-.12083,5.56323,5.56323,0,0,0-1.06742.23444c-8.96747,2.96237-14.65991,9.00243-16.35742,18.31445-.67493,3.70236-.43551,7.584-.48213,11.38562-.068,5.55-1.35872,6.91222-6.83612,6.91247q-32.74021.00151-65.48044.00045H61.06352c0,5.775.02728,11.25394-.00988,16.7324a16.23929,16.23929,0,0,0,2.852,9.50747c3.98885,5.87508,7.88694,11.81181,11.82716,17.72a23.92445,23.92445,0,0,1,4.13263,13.87773c-.03174,2.54178-.00552,5.08427-.00552,7.67913h56.28171c0-2.17161.081-4.21451-.01514-6.249A26.1424,26.1424,0,0,1,141.156,183.5051c3.69687-5.27425,7.12191-10.73842,10.767-16.05008a17.22037,17.22037,0,0,0,3.03267-10.1198q-.0579-25.38963-.01677-50.77952ZM9.74872,46.6253C31.96689,49.954,50.15546,29.77223,46.48092,9.58362c-7.94956,0-15.93666-.32116-23.88494.09669-6.96645.36623-12.14812,5.04274-12.69611,12.02332C9.25495,29.91893,9.74872,38.2237,9.74872,46.6253ZM169.46285,9.55536c-3.46551,21.71121,16.1505,40.54425,36.9053,36.98481,0-8.09581.452-16.24-.13329-24.30881-.53357-7.35667-5.98506-12.31767-13.15926-12.60491C185.25762,9.31343,177.41745,9.55536,169.46285,9.55536ZM46.72174,131.39119c1.17553-11.3443-2.05173-20.9274-10.245-28.57874-7.53866-7.04-16.5905-9.71322-26.96832-8.54814,0,7.53821-.00137,14.789.00229,22.03973a19.23029,19.23029,0,0,0,.05723,1.97719c.82365,7.91292,6.5864,13.08426,14.60344,13.10747,3.88367.01123,7.76739.00237,11.65109.00248C39.39677,131.39127,42.97105,131.39119,46.72174,131.39119Zm122.73282-.00771c7.88118,0,15.64455.04246,23.40721-.01313a13.5773,13.5773,0,0,0,13.19986-11.30421,50.51482,50.51482,0,0,0,.414-7.43559c.05459-6.06323.01781-12.12729.01781-18.148C185.95109,90.95563,166.05815,109.40273,169.45456,131.38348Z"/><path class="cls-1" d="M103.28247,46.757c0-1.37349-.05713-2.74978.01169-4.11974.15088-3.00326,2.11106-4.99878,4.78449-4.95228,2.60382.04529,4.45918,1.9675,4.6247,4.89037.07791,1.37582.01334,2.75971.01334,4.44133,3.82189,0,7.45741-.01121,11.09277.00619a23.43971,23.43971,0,0,1,3.7227.15618,4.63149,4.63149,0,0,1,.10731,9.11017,13.46014,13.46014,0,0,1-2.62054.17775c-8.49763.01235-16.9969-.07594-25.49149.0856a7.88976,7.88976,0,0,0-4.463,1.727c-1.37522,1.11225-1.486,2.962-.71872,4.6658a4.61794,4.61794,0,0,0,4.53478,2.86935c6.15432.01252,12.3092-.04359,18.46286.02145a14.06279,14.06279,0,0,1,.75021,28.10488c-1.67252.07507-3.35126.01109-5.3699.01109,0,1.49711.04169,2.85685-.00836,4.21319-.11789,3.19487-1.98851,5.16671-4.80445,5.12367-2.70033-.04128-4.50649-2.00194-4.62406-5.0807-.05007-1.31133-.00837-2.62615-.00837-4.23415-3.62024,0-7.1118.00044-10.60337-.00027-1.099-.00022-2.19953.034-3.2966-.01275a4.61872,4.61872,0,0,1-4.76211-4.68957,4.466,4.466,0,0,1,4.78517-4.6165c8.64175-.057,17.2841-.0245,25.9262-.02982a21.0822,21.0822,0,0,0,2.196-.04329,4.69241,4.69241,0,0,0-.12362-9.38188c-.65463-.05886-1.31774-.02869-1.977-.03005-5.78781-.01195-11.57834.086-17.36272-.06017a13.87327,13.87327,0,0,1-13.358-12.01313c-.84125-7.28017,3.42413-13.8627,10.34246-15.51588C97.57412,46.97642,100.26226,47.03719,103.28247,46.757Z"/></g></g></svg>