<svg xmlns="http://www.w3.org/2000/svg" viewBox="0 0 27.8064 20.67538"><defs><style>.cls-1{fill:#283456;}</style></defs><g id="Layer_2" data-name="Layer 2"><g id="Layer_2-2" data-name="Layer 2"><path class="cls-1" d="M20.08654,20.67538h-1.747c0-.11819,0-.2286,0-.339.00042-1.4912.03286-2.98327-.00726-4.47338a3.84994,3.84994,0,0,0-2.34068-3.61962,3.9497,3.9497,0,0,0-4.3492.4309,4.12427,4.12427,0,0,0-1.58386,3.3229c-.01965,1.43322-.00611,2.8669-.007,4.30038-.00008.11448,0,.229,0,.36472H8.28608c0-.11863-.00007-.23071,0-.34279q.0015-2.16465.00335-4.3293a5.90218,5.90218,0,0,1,11.8-.26948c.04769,1.59564.01255,3.19375.014,4.79075C20.10342,20.55764,20.09416,20.60383,20.08654,20.67538Z"/><path class="cls-1" d="M14.18777,8.85865A4.42934,4.42934,0,1,1,18.63368,4.4506,4.43537,4.43537,0,0,1,14.18777,8.85865Zm2.95855-4.42889a2.951,2.951,0,1,0-2.95152,2.9585A2.95492,2.95492,0,0,0,17.14632,4.42976Z"/><path class="cls-1" d="M18.98743,8.85032a3.54837,3.54837,0,1,1,3.52539,3.56332A3.549,3.549,0,0,1,18.98743,8.85032Zm3.51881,2.07575a2.06286,2.06286,0,1,0-2.03733-2.06778A2.05168,2.05168,0,0,0,22.50624,10.92607Z"/><path class="cls-1" d="M5.908,4.1339A3.5441,3.5441,0,1,1,2.36536,7.68215,3.551,3.551,0,0,1,5.908,4.1339ZM7.9814,7.69264A2.06421,2.06421,0,1,0,5.898,9.75274,2.06707,2.06707,0,0,0,7.9814,7.69264Z"/><path class="cls-1" d="M1.77928,20.669H.01806a2.24936,2.24936,0,0,1-.0178-.23513A27.3238,27.3238,0,0,1,.1195,17.27023,5.85477,5.85477,0,0,1,6.65169,12.4634c.39648.056.78682.15538,1.19245.23716l-.591,1.64416a12.8388,12.8388,0,0,0-1.48887-.148,3.96529,3.96529,0,0,0-3.91529,3.50011,24.82435,24.82435,0,0,0-.06932,2.59086C1.77713,20.41,1.77928,20.53237,1.77928,20.669Z"/><path class="cls-1" d="M27.76393,20.67115H26.026c0-.41662.00368-.82647-.00077-1.23624a3.93992,3.93992,0,0,0-.73363-2.29836,4.17011,4.17011,0,0,0-3.71488-1.76747c-.07685.00159-.15365.00735-.23049.00781a.13144.13144,0,0,1-.04818-.01944l-.34678-1.69214a5.80717,5.80717,0,0,1,4.731,1.31821A6.18719,6.18719,0,0,1,27.76393,20.67115Z"/></g></g></svg>