<svg xmlns="http://www.w3.org/2000/svg" viewBox="0 0 11.9664 9.97869"><defs><style>.cls-1{fill:#5b667f;}</style></defs><g id="Layer_2" data-name="Layer 2"><g id="Layer_1-2" data-name="Layer 1"><path class="cls-1" d="M0,8.24639c.02172-.10959.04047-.21987.06563-.32866a2.4875,2.4875,0,0,1,2.36792-1.932c.34645-.00786.69325-.00463,1.03984-.00145a.49949.49949,0,1,1-.00146.99839c-.33493.00224-.66994-.0025-1.00482.00208A1.48653,1.48653,0,0,0,1.001,8.4309c-.00486.17486-.00071.35-.00071.53522H3.99064c0-.16332-.00094-.3257.00016-.48807a2.43175,2.43175,0,0,1,.76473-1.79576,2.3671,2.3671,0,0,1,1.66136-.69421c1.03973-.01268,2.08-.01731,3.11954,0a2.48255,2.48255,0,0,1,2.42819,2.466c.00324.32311.00117.64627.00066.96941a.50315.50315,0,0,1-.55036.55148q-4.04272.00042-8.08544.00016c-.90358,0-1.80723-.00636-2.71069.00351A.5674.5674,0,0,1,0,9.578Zm10.96462.72449c0-.19221.00482-.371-.00083-.54943A1.48123,1.48123,0,0,0,9.50125,6.98567c-1.016-.00681-2.03218-.00393-3.04825.00111a1.296,1.296,0,0,0-.40109.06244,1.60344,1.60344,0,0,0-1.052,1.92166Z"/><path class="cls-1" d="M8.22622,0c.13959.0306.2809.05493.41849.09278a2.49353,2.49353,0,1,1-1.113-.05113C7.59987.029,7.66755.01394,7.73545,0ZM7.9847,1.00028A1.49567,1.49567,0,1,0,9.47,2.49605,1.49546,1.49546,0,0,0,7.9847,1.00028Z"/><path class="cls-1" d="M4.60388,0l.10145.05018a.49943.49943,0,0,1,.27319.52221.48209.48209,0,0,1-.39134.411c-.1182.021-.24072.01792-.35882.03934A1.49347,1.49347,0,0,0,4.181,3.95629a1.81954,1.81954,0,0,0,.30088.0345.49739.49739,0,1,1-.02459.994A2.42243,2.42243,0,0,1,2.44367,3.91764,2.49254,2.49254,0,0,1,4.17534.0207.57283.57283,0,0,0,4.25333,0Z"/></g></g></svg>