<svg xmlns="http://www.w3.org/2000/svg" viewBox="0 0 216 216.05309"><defs><style>.cls-1{fill:#283456;}</style></defs><g id="Layer_2" data-name="Layer 2"><g id="Layer_2-2" data-name="Layer 2"><path class="cls-1" d="M108.32616,0c60.7888.69614,107.9659,49.402,107.67248,108.15424A107.86059,107.86059,0,0,1,107.04937,216.048C47.82125,215.47953-.31975,166.57194.0016,107.75858.33249,47.19967,50.61658.05719,108.32616,0Zm-.295,13.90754c-51.61729.02933-94.0551,42.2399-94.13587,93.6318-.08212,52.2468,42.1508,94.69751,94.19693,94.6827,51.68176-.01468,94.13558-42.38505,94.11557-93.93054C202.18753,56.18152,159.977,13.878,108.03115,13.90754Z"/><path class="cls-1" d="M115.14078,102.58173c8.17493,1.66736,16.20014,3.28218,24.21545,4.94478q13.88773,2.8807,27.759,5.84c4.64727.99889,6.739,4.09657,5.82627,8.3931-.85359,4.01815-4.19141,6.06629-8.672,5.139-13.05073-2.70088-26.08827-5.46546-39.13028-8.20839-5.4631-1.149-10.9425-2.228-16.38179-3.48084-6.019-1.38636-7.66745-3.53373-7.66836-9.57545q-.00442-29.49162.0173-58.98321a20.49072,20.49072,0,0,1,.4402-4.55183,6.38755,6.38755,0,0,1,6.16082-5.1264,6.72018,6.72018,0,0,1,6.79717,4.73869,15.06791,15.06791,0,0,1,.4962,4.26216q.04784,27.46235.027,54.92481C115.0279,101.342,115.08554,101.78584,115.14078,102.58173Z"/></g></g></svg>