<svg xmlns="http://www.w3.org/2000/svg" viewBox="0 0 22.05104 24.48"><defs><style>.cls-1{fill:#283456;}</style></defs><g id="Layer_2" data-name="Layer 2"><g id="Layer_5" data-name="Layer 5"><path class="cls-1" d="M11.03161,0A11.06846,11.06846,0,0,1,21.83943,8.84871a10.58228,10.58228,0,0,1-1.75428,8.21912,19.42085,19.42085,0,0,1-4.92444,4.97925c-1.117.799-2.31459,1.4849-3.47131,2.22885a1.18222,1.18222,0,0,1-1.33357-.0044,27.12244,27.12244,0,0,1-6.34246-4.71265,14.079,14.079,0,0,1-3.464-5.3451,10.42934,10.42934,0,0,1,.69341-8.25072.74265.74265,0,0,1,.94053-.39644.83176.83176,0,0,1,.55762.92216,1.74738,1.74738,0,0,1-.15126.4302,9.07216,9.07216,0,0,0-.89354,5.02588,9.38923,9.38923,0,0,0,1.63342,4.2114A18.41844,18.41844,0,0,0,8.051,20.87062c.90441.645,1.8672,1.20857,2.8104,1.79806a.3675.3675,0,0,0,.31291.0131,23.25271,23.25271,0,0,0,6.606-5.26,10.61782,10.61782,0,0,0,2.42752-4.59762,8.82559,8.82559,0,0,0-1.45178-7.107,9.05385,9.05385,0,0,0-6.64338-4.00274,9.13932,9.13932,0,0,0-6.9021,1.95607,1.01348,1.01348,0,0,1-.91206.27428.77654.77654,0,0,1-.59952-.59709A.72674.72674,0,0,1,3.96579,2.573,10.90129,10.90129,0,0,1,10.11566.05582C10.42043.03061,10.72626.01829,11.03161,0Z"/><path class="cls-1" d="M7.35594,11.02257a3.67408,3.67408,0,1,1,3.64918,3.68634A3.67585,3.67585,0,0,1,7.35594,11.02257Zm1.63357.00352a2.04047,2.04047,0,1,0,2.05521-2.03171A2.04446,2.04446,0,0,0,8.98951,11.02609Z"/></g></g></svg>