<svg xmlns="http://www.w3.org/2000/svg" viewBox="0 0 216 216.0834"><defs><style>.cls-1{fill:#455068;}</style></defs><g id="Layer_2" data-name="Layer 2"><g id="Layer_2-2" data-name="Layer 2"><path class="cls-1" d="M45.7214,176.94566c2.28473-21.87279,8.21572-29.56,28.22175-36.46468C59.68378,126.536,53.40091,109.78436,55.946,90.10345A53.78781,53.78781,0,0,1,74.72574,55.34982c20.30117-17.54891,50.02484-16.37707,69.46135,2.66238,22.28584,21.83055,21.69183,53.73424-1.87226,82.7092,18.59518,4.80751,27.54173,17.14926,27.77467,37.21126,15.00018-13.486,24.30758-29.05942,28.79918-47.43085,14.10559-57.6945-27.476-113.1001-87.05023-116.19075-.96139-.04988-1.92524-.07715-2.88784-.07471-4.8778.01234-8.08047-2.2816-7.94709-7.2484.134-4.98987,3.76461-7.42614,8.35839-6.92315,9.53682,1.04424,19.28384,1.70757,28.45819,4.26913C190.221,18.9647,223.0522,70.90607,214.7085,125.15459c-8.04216,52.28806-54.71169,91.58326-107.98322,90.92055C49.241,215.36006,1.60666,168.91382.10659,111.82739c-.08432-3.20892,1.5545-6.84889,3.44805-9.54646.83343-1.1873,5.33278-1.52593,6.3847-.47136,2.1024,2.1077,4.03359,5.38487,4.18952,8.27862,1.33835,24.83669,10.12677,46.3227,27.67448,64.09345a25.88417,25.88417,0,0,0,2.12978,1.94649A10.27384,10.27384,0,0,0,45.7214,176.94566ZM107.7027,55.58732c-22.12851.13515-40.03187,19.21636-39.96733,42.59674.06436,23.31216,18.16108,42.43573,40.21225,42.494,22.28491.05885,40.56744-19.48226,40.32372-43.09956C148.03,74.20119,129.91569,55.45167,107.7027,55.58732Zm.91755,97.50512q-7.21233,0-14.42466.00066c-5.0486.00317-10.10351-.14889-15.14453.0498-11.81774.46575-19.73035,8.40637-20.19242,20.12258-.11361,2.88076.21506,5.79683-.10157,8.64759-.49748,4.47927,1.37415,6.9164,5.36371,8.92074,26.2279,13.1767,52.91844,14.49536,80.13267,3.5327,13.309-5.36127,13.25741-5.48923,12.9441-19.88-.28436-13.05968-8.16878-21.11947-21.17106-21.35415C126.89387,152.96752,117.75585,153.10053,108.62025,153.09244Z"/><path class="cls-1" d="M44.93785,34.48742a10.34117,10.34117,0,0,1-10.34469-9.87048A10.48064,10.48064,0,0,1,44.98094,14.00876a10.315,10.315,0,0,1,10.2706,10.647A10.1363,10.1363,0,0,1,44.93785,34.48742Z"/><path class="cls-1" d="M20.93052,58.32211a10.44989,10.44989,0,0,1-10.48625-9.79023A10.59913,10.59913,0,0,1,20.517,37.5805a10.82725,10.82725,0,0,1,10.5695,9.822A10.71937,10.71937,0,0,1,20.93052,58.32211Z"/><path class="cls-1" d="M10.04608,70.22614A10.24137,10.24137,0,0,1,20.70419,80.45058a10.37874,10.37874,0,0,1-10.02974,10.2061A10.43469,10.43469,0,0,1,.00006,80.35036,10.31493,10.31493,0,0,1,10.04608,70.22614Z"/></g></g></svg>