<?xml version="1.0" encoding="utf-8"?>
<!-- Generator: Adobe Illustrator 26.0.1, SVG Export Plug-In . SVG Version: 6.00 Build 0)  -->
<svg version="1.1" id="Layer_1" xmlns="http://www.w3.org/2000/svg" xmlns:xlink="http://www.w3.org/1999/xlink" x="0px" y="0px"
	 viewBox="0 0 33.8 33.8" style="enable-background:new 0 0 33.8 33.8;" xml:space="preserve">
<style type="text/css">
	.st0{fill:#00AF7D;}
	.st1{fill:#FFFFFF;}
</style>
<g id="Layer_2_00000090976678846992966370000018197960495191526542_">
	<g id="Layer_2-2">
		<circle class="st0" cx="16.9" cy="16.9" r="16.9"/>
		<path class="st1" d="M15.1,23.4c-1-1.1-2-2.1-3-3.1c-0.6-0.6-1.2-1.2-1.8-1.9c-0.4-0.5-0.4-1.2,0.1-1.7c0,0,0,0,0.1-0.1
			c0.5-0.4,1.2-0.4,1.6,0.1c0.8,0.8,1.6,1.6,2.4,2.5c0.3,0.4,0.3,0.4,0.6,0c1.2-1.6,2.4-3.2,3.6-4.7c0.9-1.1,1.7-2.3,2.6-3.4
			c0.3-0.6,1.1-0.8,1.7-0.5c0.2,0.1,0.4,0.3,0.5,0.6c0.2,0.4,0.2,1-0.1,1.3c-0.6,0.8-1.2,1.5-1.7,2.3c-2.1,2.8-4.3,5.7-6.4,8.5
			C15.3,23.3,15.2,23.3,15.1,23.4z"/>
	</g>
</g>
</svg>
