<svg xmlns="http://www.w3.org/2000/svg" viewBox="0 0 46.99223 216"><defs><style>.cls-1{fill:#b50000;}</style></defs><g id="Layer_2" data-name="Layer 2"><g id="Layer_1-2" data-name="Layer 1"><path class="cls-1" d="M46.80517,73.69146c.00048,16.84847.08131,33.69748-.02718,50.54523A23.10287,23.10287,0,0,1,26.84378,147.1916,23.17064,23.17064,0,0,1,.2037,124.73985C.03674,112.28018.15616,99.81659.15543,87.35474.15418,66.02.10789,44.685.17949,23.35051A23.16117,23.16117,0,0,1,19.07341.40238a23.19578,23.19578,0,0,1,27.6977,22.74395C46.91624,39.99356,46.8047,56.843,46.80517,73.69146Z"/><path class="cls-1" d="M23.40652,168.43107c3.41734.27008,6.80124.43644,10.15973.82361,7.36111.84855,12.48842,5.54838,13.04323,12.91549a141.31744,141.31744,0,0,1,.0176,20.54767c-.51485,7.25572-5.44245,12.311-12.671,12.87812a137.33452,137.33452,0,0,1-20.83852.01645C5.992,215.08327.96014,210.15707.41288,203.11079a137.702,137.702,0,0,1-.01341-21.13637c.55374-7.20658,5.69987-11.85157,12.91059-12.70839C16.66692,168.86715,20.05146,168.70122,23.40652,168.43107Z"/></g></g></svg>