<svg xmlns="http://www.w3.org/2000/svg" viewBox="0 0 28.79258 28.8"><defs><style>.cls-1{fill:#283456;}</style></defs><g id="Layer_2" data-name="Layer 2"><g id="Layer_1-2" data-name="Layer 1"><path class="cls-1" d="M14.20989,18.53609l-.82923.98089a2.45814,2.45814,0,0,0-.24978-.39222c-3.473-3.47767-6.921-6.98093-10.43719-10.41444a4.68569,4.68569,0,0,1-.0123-6.73372,3.19187,3.19187,0,0,0,.33244-.45826c.17787.16834.26343.24548.34477.32684Q14.9954,13.48547,26.63134,25.12662a2.0603,2.0603,0,0,1,.2792,2.9513,2.02827,2.02827,0,0,1-2.82037.25944c-.13881-.11656-.272-.24077-.40005-.3691q-4.55175-4.55949-9.09962-9.12284a2.28349,2.28349,0,0,1-.22319-.31331Zm.08417-1.3988a4.66433,4.66433,0,0,0,.30049.38738q4.875,4.89067,9.75481,9.77653a2.9178,2.9178,0,0,0,.38566.33513,1.12712,1.12712,0,0,0,1.29153-.01159,1.01882,1.01882,0,0,0,.382-1.16511,1.72488,1.72488,0,0,0-.41213-.62975Q14.68445,14.50642,3.36117,3.19426c-.08121-.08117-.16662-.15813-.26453-.25074-.07215.08267-.13157.14173-.18071.20836a3.61372,3.61372,0,0,0,.43524,4.859q4.91147,4.92218,9.832,9.83532c.07359.07359.15245.1419.266.24709Z"/><path class="cls-1" d="M21.1717,0l2.28843,2.26807c-.06458.069-.14111.15539-.22236.237q-2.26089,2.27193-4.52261,4.543c-.06777.06808-.17208.13012-.1901.2105-.02927.13054-.05347.32448.01734.39779.07167.0742.26789.06364.397.03458.09016-.0203.16191-.13161.23734-.20682q2.25828-2.25189,4.51384-4.50651a2.31279,2.31279,0,0,0,.205-.27113l2.1214,2.1705c-.028.02954-.10454.11382-.18483.19434q-2.26314,2.2697-4.5269,4.53877c-.06785.068-.17343.13008-.19052.21007-.02952.13825-.05906.3462.01491.41752.076.0733.28114.0413.41961.01019.07987-.01795.14041-.12454.20839-.19251q2.25519-2.255,4.50819-4.51215a1.62462,1.62462,0,0,0,.1803-.25317l2.3464,2.32113c-.04589.04886-.1214.13371-.20156.21391q-3.47816,3.47975-6.95716,6.95865a2.10773,2.10773,0,0,1-3.29027.01459c-.23345-.23278-.44774-.48478-.68946-.74821l-.48484.43619-2.86574-2.86322.42421-.4752c-.26718-.2551-.53293-.49882-.78752-.75368A2.09012,2.09012,0,0,1,13.938,7.22294Q17.4709,3.6846,21.00841.15084C21.068.09131,21.13214.0364,21.1717,0Zm6.25078,7.64913L26.47231,6.602a2.654,2.654,0,0,1-.21839.2877q-1.991,1.99748-3.98774,3.9891a1.257,1.257,0,1,1-1.78467-1.76756q2.00526-2.0284,4.02205-4.0454c.07966-.08011.154-.16547.18041-.19392l-.78437-.82864a2.60034,2.60034,0,0,1-.21094.27068q-1.939,1.93612-3.88354,3.86667a3.02333,3.02333,0,0,1-.38474.3371,1.23373,1.23373,0,0,1-1.384-.0338,1.24848,1.24848,0,0,1-.13554-1.95233Q19.89619,4.5159,21.90447,2.513c.08648-.08679.16722-.1793.23274-.24987l-.94519-.934a.18538.18538,0,0,0-.0579.03389c-2.22632,2.23037-4.45657,4.45687-6.6679,6.702a1.35676,1.35676,0,0,0-.28812.71824,1.07558,1.07558,0,0,0,.40993.93157c.48758.476.973.95421,1.46934,1.44131l-.40266.44639L17.192,13.13606l.4419-.40914c.45552.466.8925.91755,1.33447,1.36415a1.22166,1.22166,0,0,0,2.01224.00077q3.14217-3.13506,6.282-6.27248C27.3367,7.74532,27.40613,7.6666,27.42248,7.64913Z"/><path class="cls-1" d="M9.14253,16.76911l2.87715,2.87816c-.0324.03646-.09133.10994-.15749.17619q-4.1109,4.116-8.22371,8.23a2.07883,2.07883,0,0,1-2.61973.467A2.03966,2.03966,0,0,1,.4154,25.52224a3.64189,3.64189,0,0,1,.31519-.36215Q4.8432,21.04581,8.9591,16.93481C9.02571,16.86826,9.09891,16.80831,9.14253,16.76911Zm-.06461,1.26206a1.36339,1.36339,0,0,1-.18426.30925q-3.17643,3.18678-6.36142,6.365c-.43034.43016-.86828.853-1.28926,1.29216a1.08749,1.08749,0,0,0,.06962,1.57366,1.13492,1.13492,0,0,0,1.5841-.123Q6.72449,23.622,10.54743,19.791a1.78968,1.78968,0,0,0,.13455-.165Z"/></g></g></svg>