<?xml version="1.0" encoding="utf-8"?>
<!-- Generator: Adobe Illustrator 26.0.1, SVG Export Plug-In . SVG Version: 6.00 Build 0)  -->
<svg version="1.1" id="Layer_1" xmlns="http://www.w3.org/2000/svg" xmlns:xlink="http://www.w3.org/1999/xlink" x="0px" y="0px"
	 viewBox="0 0 21 20.2" style="enable-background:new 0 0 21 20.2;" xml:space="preserve">
<style type="text/css">
	.st0{fill:none;stroke:#008558;stroke-width:1.6344;stroke-miterlimit:10;}
</style>
<g id="Layer_2_00000134949777244349395370000011016230727826107066_">
	<g id="Layer_1-2">
		<path class="st0" d="M10.4,1h0.2l0,0c0.2,0,0.5,0.1,0.7,0.2C11.7,1.4,12,1.6,12.2,2c0.7,1.1,1.4,2.4,2.1,3.5
			c0.1,0.1,0.2,0.2,0.3,0.2c1.3,0.3,2.6,0.6,3.9,0.9c0.2,0,0.4,0.1,0.6,0.2c0.7,0.4,1,1,1,1.8c0,0.4-0.2,0.7-0.4,1
			c-0.4,0.4-0.8,0.9-1.1,1.2C18,11.5,17.5,12,17,12.7c-0.1,0.2-0.1,0.3-0.1,0.4c0,0.2,0,0.4,0.1,0.6c0,0.3,0.1,0.6,0.1,0.9
			c0,0.4,0.1,0.7,0.1,1c0,0.5,0.1,1,0.1,1.5c0,0.2,0,0.4,0,0.6c-0.1,1-0.9,1.6-1.8,1.6c-0.3,0-0.5-0.1-0.8-0.2
			c-1.2-0.6-2.5-1-3.8-1.6c-0.1-0.1-0.3-0.1-0.4,0c-1.2,0.6-2.6,1-3.8,1.6c-0.3,0.1-0.7,0.2-1,0.1c-0.5-0.1-0.9-0.3-1.1-0.6
			c-0.3-0.4-0.5-0.9-0.4-1.3c0-0.3,0.1-0.7,0.1-1c0-0.5,0.1-1,0.1-1.4c0-0.3,0.1-0.6,0.1-0.9c0-0.3,0-0.6,0.1-0.8
			c0-0.1,0-0.3-0.1-0.4c-0.3-0.3-0.6-0.7-0.9-1C3,11.1,2.4,10.4,1.8,9.7C1.2,9.3,1.2,8.9,1.1,8.5c0-0.1,0-0.1,0-0.2l0,0V8.2
			c0-0.1,0-0.3,0.1-0.4c0.2-0.6,0.6-1,1.2-1.2c0.2-0.1,0.5-0.1,0.7-0.2c1.1-0.3,2.4-0.6,3.5-0.9c0.1,0,0.2-0.1,0.3-0.2
			c0.5-0.8,1-1.6,1.4-2.4C8.6,2.5,8.8,2,9.1,1.7C9.3,1.4,9.7,1.1,10.2,1C10.3,1,10.4,1,10.4,1z"/>
	</g>
</g>
</svg>
