<svg xmlns="http://www.w3.org/2000/svg" viewBox="0 0 216 211.66336"><defs><style>.cls-1{fill:#3198ff;}</style></defs><g id="Layer_2" data-name="Layer 2"><g id="Layer_1-2" data-name="Layer 1"><path class="cls-1" d="M0,162.34929c1.539-4.02033,3.98642-7.06371,8.51613-7.80309a17.16063,17.16063,0,0,1,2.72909-.17376q12.34054-.01879,24.68114-.00352c7.10442.0135,11.21049,4.15236,11.21893,11.31954q.02146,18.24715.00406,36.49436v2.6029h8.40776l0-2.54171q.00012-23.20452.00238-46.409c.00361-7.64875,3.914-11.54954,11.55377-11.55163q12.23511-.00334,24.47021.002c6.90109.00846,11.01471,4.10269,11.02227,11.01952q.02558,23.41545.00559,46.83092v2.6301H111.028V202.3277q0-35.756.00059-71.51208.00078-11.77573,11.81036-11.78387,11.70771-.00821,23.41545-.00045c8.04759.00362,11.94291,3.87024,11.94333,11.85421q.00192,35.65056.00049,71.30113v2.60169H166.62v-2.69321q.00024-60.43722.00348-120.87441c.00078-5.4762,2.73008-9.34524,7.5223-10.58495a13.60788,13.60788,0,0,1,3.33744-.33015q12.65688-.03859,25.31394-.00735c6.80886.02138,10.89328,4.06029,10.89728,10.91115q.03668,62.96858.007,125.9372c-.00077,3.42566-1.1197,4.48955-4.61135,4.48972q-102.20531.005-204.41061.027C2.588,211.66427.95727,211.15078,0,209.184ZM206.8377,204.8551c.06117-.731.14709-1.27895.14718-1.82687q.00921-60.829-.00213-121.65792c-.00093-3.23384-1.10974-4.31972-4.29378-4.32421q-12.43987-.01754-24.87979-.00137c-3.48377.00322-4.4512.99008-4.45148,4.54622q-.00483,60.5127.0027,121.02543c.0001.73475.07253,1.46951.113,2.23872Zm-55.37847-.03437,0-2.20762q0-36.04367-.00143-72.08734c-.00041-3.69773-1.06252-4.77038-4.76966-4.77566q-12.01454-.01714-24.0291-.00079c-3.85008.0042-4.8937,1.04875-4.89412,4.87475q-.00384,35.93825-.00131,71.87651l0,2.32015Zm-55.71993-.02815a11.76612,11.76612,0,0,0,.1321-1.18441q.00927-24.33678-.00472-48.67355c-.00373-2.73517-1.24619-3.90763-4.06948-3.91564-8.21755-.0233-16.43522-.01116-24.65284-.00807-3.88412.00146-4.85882.96419-4.86028,4.84485q-.00875,23.3886.00183,46.77722c.00024.68315.06369,1.36627.10318,2.1596Zm-55.44548.0016c.04705-.72117.12168-1.33481.122-1.94847q.01024-18.565.00124-37.12993c-.00285-3.53157-1.113-4.59632-4.731-4.59838q-12.13051-.0069-24.261.00009c-3.62437.00215-4.68152,1.03888-4.68279,4.60026q-.00655,18.45948.00214,36.91895c.00029.685.05614,1.36992.09062,2.15748Z"/><path class="cls-1" d="M0,142.51839c1.32591-1.67067,3.0982-2.03314,5.16109-2.141,47.96314-2.5067,90.81151-18.44556,127.82424-49.2624a218.88184,218.88184,0,0,0,57.87512-73.72839c1.29786-2.68994,2.4263-5.46163,3.84941-8.68454-5.408,2.06673-10.29628,3.93317-15.18323,5.803-3.343,1.2791-6.675,2.5877-10.02945,3.83615-2.3121.86053-4.24087.13676-4.90958-1.75574-.69671-1.97173.19786-3.61893,2.58455-4.53807Q181.80989,6.41026,196.47067.83329c4.33118-1.63684,6.11478-1.015,7.79914,3.23678,3.95423,9.98158,7.71,20.04222,11.48987,30.092a3.28089,3.28089,0,0,1-2.10194,4.39754c-1.75629.576-3.48937-.33046-4.29139-2.39848-2.71548-7.00175-5.3819-14.02252-8.07221-21.034-.26713-.69617-.56949-1.37881-.72685-1.75786-4.30577,8.07264-8.21654,16.42879-13.01751,24.23764-28.64369,46.58942-68.1085,80.06622-120.14164,97.99171a224.38844,224.38844,0,0,1-62.5633,11.60055c-2.0825.1011-3.7152-.33444-4.84484-2.14915Z"/><path class="cls-1" d="M64.00726,108.9431a52.16665,52.16665,0,1,1,52.0654-52.26168A52.18751,52.18751,0,0,1,64.00726,108.9431Zm.0282-6.70858A45.44254,45.44254,0,1,0,18.5388,57.04834,45.434,45.434,0,0,0,64.03546,102.23452Z"/><path class="cls-1" d="M67.30838,83.75453c0,1.74814.05369,3.212-.01227,4.67042-.10529,2.32763-1.48642,3.75533-3.463,3.68663-1.9049-.06621-3.12709-1.4481-3.21851-3.69664-.05421-1.33353-.04362-2.66963-.07615-4.00423-.0031-.12732-.106-.25221-.28366-.64821-1.32978,0-2.78406.02592-4.23716-.00447-6.37815-.13336-10.47338-4.28056-10.54485-10.668-.011-.98394-.03573-1.97169.032-2.95172a3.09221,3.09221,0,0,1,3.03562-3.16522A3.16083,3.16083,0,0,1,52.08226,69.832a30.33612,30.33612,0,0,1,.12042,3.36531c.09369,2.53651,1.2267,3.78621,3.76845,3.81793q8.01406.1,16.03008-.00461c2.41688-.03339,3.61525-1.28133,3.68166-3.69242.07354-2.66952.09013-5.34594-.01449-8.01364-.12623-3.21872-2.02759-5.052-5.244-5.09584-4.21786-.05748-8.43716.00158-12.65563-.02494-7.24182-.04552-12.194-4.94191-12.292-12.15289q-.053-3.9015.00188-7.80427c.09555-6.10444,4.31943-10.29355,10.39882-10.34716,1.472-.013,2.94413-.00193,4.73-.00193,0-1.64726-.04112-3.16923.00972-4.68812.07466-2.23084,1.32427-3.64318,3.2051-3.71951,1.93459-.07851,3.36571,1.39863,3.47012,3.68906.067,1.46907.01255,2.94368.01255,4.71874,1.66119,0,3.18023-.01073,4.69907.00189A10.032,10.032,0,0,1,82.4115,40.013a32.28672,32.28672,0,0,1-.02351,3.373,3.31083,3.31083,0,0,1-6.62129.05317c-.10119-1.046-.0156-2.10859-.07155-3.16065-.12864-2.41873-1.30875-3.63311-3.70009-3.65132q-8.01492-.06106-16.0306-.00209c-2.51265.01695-3.70346,1.23324-3.75311,3.788-.04918,2.5302-.05374,5.06306.00081,7.59306.07509,3.48258,2.0487,5.408,5.58628,5.44143,4.148.03925,8.29673-.01376,12.44483.01634,7.1407.05181,12.0182,4.86395,12.17145,12.02282.05716,2.67053.06583,5.34487-.00465,8.0148-.15639,5.92344-4.1752,9.982-10.11176,10.24285C70.76309,83.81183,69.2224,83.75453,67.30838,83.75453Z"/></g></g></svg>