<?xml version="1.0" encoding="utf-8"?>
<!-- Generator: Adobe Illustrator 26.0.1, SVG Export Plug-In . SVG Version: 6.00 Build 0)  -->
<svg version="1.1" id="Layer_1" xmlns="http://www.w3.org/2000/svg" xmlns:xlink="http://www.w3.org/1999/xlink" x="0px" y="0px"
	 viewBox="0 0 219.6 215.3" style="enable-background:new 0 0 219.6 215.3;" xml:space="preserve">
<style type="text/css">
	.st0{fill:#49DBC2;stroke:#49DBC2;stroke-width:3.6;stroke-miterlimit:10;}
</style>
<g id="Layer_2_00000168825040247274370030000017103274407398521734_">
	<g id="Layer_1-2">
		<path class="st0" d="M1.8,164.1c1.5-4,4-7.1,8.5-7.8c0.9-0.1,1.8-0.2,2.7-0.2c8.2,0,16.4,0,24.7,0c7.1,0,11.2,4.1,11.2,11.3
			c0,12.2,0,24.3,0,36.5v2.6h8.4V204c0-15.5,0-30.9,0-46.4c0-7.6,3.9-11.5,11.5-11.6h24.5c6.9,0,11,4.1,11,11c0,15.6,0,31.2,0,46.8
			v2.6h8.4v-73.9c0-7.9,3.9-11.8,11.8-11.8H148c8,0,11.9,3.9,11.9,11.9v73.9h8.4V83c0-5.5,2.7-9.3,7.5-10.6c1.1-0.3,2.2-0.4,3.3-0.3
			c8.4,0,16.9,0,25.3,0c6.8,0,10.9,4.1,10.9,10.9c0,42,0,84,0,125.9c0,3.4-1.1,4.5-4.6,4.5c-68.1,0-136.3,0-204.4,0
			c-2.1,0-3.7-0.5-4.7-2.5L1.8,164.1z M208.6,206.7c0.1-0.7,0.1-1.3,0.1-1.8c0-40.6,0-81.1,0-121.7c0-3.2-1.1-4.3-4.3-4.3
			c-8.3,0-16.6,0-24.9,0c-3.5,0-4.4,1-4.4,4.6c0,40.3,0,80.7,0,121c0,0.7,0.1,1.5,0.1,2.2H208.6z M153.3,206.7v-74.3
			c0-3.7-1.1-4.8-4.8-4.8h-24c-3.8,0-4.9,1-4.9,4.9v74.2L153.3,206.7z M97.5,206.7c0.1-0.4,0.1-0.8,0.1-1.2c0-16.2,0-32.5,0-48.7
			c0-2.7-1.2-3.9-4.1-3.9c-8.2,0-16.4,0-24.7,0c-3.9,0-4.8,1-4.9,4.9c0,15.6,0,31.2,0,46.8c0,0.7,0.1,1.4,0.1,2.2L97.5,206.7z
			 M42.1,206.7c0-0.7,0.1-1.3,0.1-1.9c0-12.4,0-24.8,0-37.1c0-3.5-1.1-4.6-4.7-4.6H13.2c-3.6,0-4.7,1-4.7,4.6v36.9
			c0,0.7,0.1,1.4,0.1,2.1L42.1,206.7z"/>
		<path class="st0" d="M1.8,144.3c1.3-1.7,3.1-2,5.2-2.1c48-2.5,90.8-18.4,127.8-49.3c24.4-20.1,44.1-45.3,57.9-73.7
			c1.3-2.7,2.4-5.5,3.9-8.7l-15.2,5.8c-3.4,1.3-6.7,2.6-10,3.8c-2.3,0.9-4.2,0.1-4.9-1.8s0.2-3.6,2.6-4.5
			c9.8-3.8,19.5-7.5,29.3-11.2c4.3-1.6,6.1-1,7.8,3.2c4,10,7.7,20,11.5,30.1c0.7,1.7-0.1,3.6-1.8,4.3c-0.1,0-0.2,0.1-0.3,0.1
			c-1.8,0.6-3.5-0.3-4.3-2.4c-2.7-7-5.4-14-8.1-21c-0.3-0.7-0.6-1.4-0.7-1.8c-4.3,8.1-8.2,16.4-13,24.2
			c-28.6,46.6-68.1,80.1-120.1,98C49,144.2,28,148.1,6.6,149c-2.1,0.1-3.7-0.3-4.8-2.1L1.8,144.3z"/>
		<path class="st0" d="M65.8,110.7c-28.8,0.1-52.2-23.2-52.3-52S36.8,6.5,65.6,6.4s52.2,23.2,52.3,52.1l0,0
			C117.9,87.3,94.6,110.7,65.8,110.7z M65.8,104c25.1,0,45.4-20.4,45.4-45.5S90.8,13.1,65.7,13.2c-25.1,0-45.4,20.4-45.4,45.5
			c0,0.1,0,0.1,0,0.2C20.5,83.9,40.8,104.1,65.8,104L65.8,104z"/>
		<path class="st0" d="M69.1,85.6c0,1.8,0,3.2,0,4.7c-0.1,2.3-1.5,3.8-3.5,3.7s-3.1-1.4-3.2-3.7c0-1.3,0-2.7-0.1-4
			c0-0.1-0.1-0.2-0.3-0.7c-1.3,0-2.8,0-4.2,0c-6.4-0.1-10.5-4.3-10.5-10.7c0-1,0-2,0-3c0-1.7,1.3-3.1,3-3.2c1.7-0.2,3.3,1,3.5,2.7
			v0.1c0.1,1.1,0.2,2.3,0.2,3.4c0.1,2.5,1.2,3.8,3.8,3.8c5.3,0.1,10.7,0.1,16,0c2.4,0,3.6-1.3,3.7-3.7c0.1-2.7,0.1-5.3,0-8
			c-0.1-3.2-2-5-5.2-5.1c-4.2,0-8.4,0-12.6,0c-7.2,0-12.2-4.9-12.3-12.2c0-2.6,0-5.2,0-7.8c0.1-6.1,4.3-10.3,10.4-10.4h4.7
			c0-1.6,0-3.2,0-4.7c0.1-2.2,1.3-3.6,3.2-3.7s3.4,1.4,3.5,3.7c0.1,1.5,0,2.9,0,4.7h4.7c5.5-0.2,10.2,4.1,10.4,9.6
			c0,0.2,0,0.3,0,0.5c0.1,1.1,0.1,2.3,0,3.4c0,1.8-1.5,3.3-3.3,3.3s-3.3-1.5-3.3-3.3l0,0c-0.1-1,0-2.1-0.1-3.2
			c-0.1-2.4-1.3-3.6-3.7-3.7c-5.3,0-10.7,0-16,0c-2.5,0-3.7,1.2-3.8,3.8s0,5.1,0,7.6c0.1,3.5,2,5.4,5.6,5.4c4.2,0,8.3,0,12.4,0
			c7.1,0.1,12,4.9,12.2,12c0.1,2.7,0.1,5.3,0,8c-0.2,5.9-4.2,10-10.1,10.2C72.6,85.6,71,85.6,69.1,85.6z"/>
	</g>
</g>
</svg>
