<svg xmlns="http://www.w3.org/2000/svg" viewBox="0 0 216 207.47218"><defs><style>.cls-1{fill:#3B4BFF;}</style></defs><g id="Layer_2" data-name="Layer 2"><g id="Layer_2-2" data-name="Layer 2"><path class="cls-1" d="M107.19572,0h2.11015a3.377,3.377,0,0,0,.50209.11342,19.98352,19.98352,0,0,1,7.17413,1.96347,20.788,20.788,0,0,1,8.97466,8.352q12.10167,20.16741,24.22735,40.32041a5.15237,5.15237,0,0,0,3.39544,2.5301q22.13074,5.11793,44.25866,10.248a29.89215,29.89215,0,0,1,6.81066,2.15582,20.688,20.688,0,0,1,11.2,20.94614A19.51433,19.51433,0,0,1,211.34408,97.14c-4.16068,4.88557-8.39259,9.71051-12.59664,14.55913Q189.2278,122.6782,179.70431,133.654a5.05519,5.05519,0,0,0-1.26953,3.99266c.21829,2.16759.39989,4.33894.58758,6.50951.29513,3.413.57948,6.827.87353,10.24q.50226,5.8298,1.013,11.65889.733,8.46008,1.46541,16.9202a28.27534,28.27534,0,0,1,.12031,6.31364,20.76741,20.76741,0,0,1-20.61,18.18318,21.23977,21.23977,0,0,1-8.42743-1.87344q-21.59211-9.175-43.19676-18.32035a5.37833,5.37833,0,0,0-4.47032.01181q-21.66242,9.21215-43.34525,18.37626A20.55348,20.55348,0,0,1,51.32,207.269a20.3378,20.3378,0,0,1-12.93791-7.07617,19.92815,19.92815,0,0,1-4.86428-14.78522c.25661-3.80567.64154-7.60265.967-11.40371q.71758-8.38,1.43366-16.76015c.29485-3.41294.60751-6.82433.90517-10.237.2641-3.028.47154-6.06193.79536-9.08344a5.50122,5.50122,0,0,0-1.40386-4.462c-3.27932-3.74205-6.5253-7.51332-9.78606-11.27164Q15.99,110.15759,5.54025,98.13481A20.99547,20.99547,0,0,1,.21,86.43386C.12662,85.68852.06933,84.94027,0,84.19337v-.211c.03525-.27558.06476-.552.1067-.8266A35.7736,35.7736,0,0,1,.78645,78.903a19.95013,19.95013,0,0,1,13.83649-14.4487c2.51844-.80134,5.14343-1.27131,7.72486-1.87067q20.0466-4.65447,40.097-9.29235A5.09477,5.09477,0,0,0,65.837,50.84086q8.29731-13.83879,16.62446-27.65968c2.82855-4.69763,5.56587-9.4551,8.54345-14.05675A19.60113,19.60113,0,0,1,104.64307.32811C105.487.1792,106.3445.10745,107.19572,0Z"/></g></g></svg>