<?xml version="1.0" encoding="utf-8"?>
<!-- Generator: Adobe Illustrator 26.0.1, SVG Export Plug-In . SVG Version: 6.00 Build 0)  -->
<svg version="1.1" id="Layer_1" xmlns="http://www.w3.org/2000/svg" xmlns:xlink="http://www.w3.org/1999/xlink" x="0px" y="0px"
	 viewBox="0 0 21.6 21.2" style="enable-background:new 0 0 21.6 21.2;" xml:space="preserve">
<style type="text/css">
	.st0{fill:#AD83FF;stroke:#AD83FF;stroke-width:0.1;stroke-miterlimit:10;}
</style>
<g id="Layer_2_00000067917988403050562720000014827933105954261128_">
	<g id="Layer_1-2">
		<path class="st0" d="M3.8,7.7l2.4-1.9C5.8,5,6,4,6.8,3.4c0.6-0.5,1.5-0.6,2.1-0.2c0.8,0.4,1.2,1.3,1,2.2c0.6,0.3,1.2,0.6,1.8,0.8
			c0.1,0,0.2,0,0.2-0.1c0.6-0.7,1.7-0.8,2.5-0.3c0.1,0,0.2,0,0.3,0c0.8-0.6,1.5-1.3,2.3-1.9c0.2-0.2,0.1-0.3,0-0.5
			c-0.2-0.8,0-1.6,0.6-2.1s1.5-0.6,2.2-0.2c1,0.5,1.3,1.7,0.8,2.7s-1.7,1.3-2.7,0.8c-0.1,0-0.2-0.1-0.3-0.2
			c-0.8,0.7-1.6,1.4-2.5,2.1c-0.1,0.1-0.1,0.2,0,0.3c0.4,1-0.2,2.2-1.2,2.5c-0.3,0.1-0.6,0.1-0.8,0.1c-1.1-0.1-1.9-1.1-1.8-2.2
			c0-0.1,0-0.1,0-0.2c-0.6-0.3-1.2-0.6-1.8-0.8c-0.1,0-0.2,0-0.2,0c-0.5,1-1.8,1.1-2.6,0.4C6,7.2,5.2,7.7,4.4,8.3
			c-0.1,0.1-0.1,0.3,0,0.4c0.3,1.1-0.3,2.2-1.3,2.5S1,10.9,0.6,9.9c-0.3-1,0.2-2.2,1.3-2.5C2.4,7.2,3,7.3,3.4,7.5
			C3.5,7.6,3.6,7.7,3.8,7.7z M13.5,6.5c-0.6,0-1.1,0.5-1.1,1.1s0.5,1.1,1.1,1.1s1.1-0.5,1.1-1.1S14.1,6.5,13.5,6.5L13.5,6.5z
			 M18,2.9C17.9,3.5,18.4,4,19,4s1.1-0.5,1.1-1.1l0,0c0-0.6-0.5-1.1-1.1-1.1C18.5,1.8,18,2.3,18,2.9z M8,6.1c0.6,0,1.1-0.5,1.1-1.1
			S8.6,3.9,8,3.9S6.9,4.4,6.9,5S7.4,6.1,8,6.1z M2.5,10.4c0.6,0,1.1-0.5,1.1-1.1S3.1,8.2,2.5,8.2S1.4,8.7,1.4,9.3
			C1.4,9.9,1.9,10.4,2.5,10.4z"/>
		<path class="st0" d="M17,13.4c0-1.9,0-3.7,0-5.6c-0.1-0.6,0.3-1.2,0.9-1.3c0.1,0,0.2,0,0.4,0c0.6,0,1.2,0,1.8,0
			c0.6-0.1,1.1,0.4,1.2,1c0,0.1,0,0.1,0,0.2c0,3.8,0,7.6,0,11.4c0.1,0.6-0.4,1.1-1,1.2c-0.1,0-0.2,0-0.2,0c-0.6,0-1.3,0-1.9,0
			c-0.6,0.1-1.1-0.4-1.2-1c0-0.1,0-0.1,0-0.2C17,17.2,17,15.3,17,13.4z M17.8,13.4c0,1.9,0,3.7,0,5.6c0,0.3,0.1,0.4,0.4,0.4
			c0.5,0,1.1,0,1.6,0s0.5,0,0.5-0.5c0-1.9,0-3.8,0-5.6s0-3.7,0-5.5c0-0.3-0.1-0.4-0.4-0.4c-0.5,0-1.1,0-1.6,0s-0.5,0-0.5,0.5
			C17.8,9.7,17.8,11.5,17.8,13.4z"/>
		<path class="st0" d="M5.9,14.4c0-1.5,0-3.1,0-4.6C5.8,9.2,6.2,8.7,6.8,8.6c0.1,0,0.2,0,0.3,0c0.6,0,1.2,0,1.9,0
			c0.6-0.1,1.1,0.4,1.2,0.9c0,0.1,0,0.2,0,0.3c0,3.1,0,6.2,0,9.3c0.1,0.6-0.3,1.1-0.9,1.2c-0.1,0-0.2,0-0.3,0c-0.6,0-1.2,0-1.8,0
			C6.6,20.4,6,20,5.9,19.4c0-0.1,0-0.2,0-0.3C5.9,17.5,5.9,16,5.9,14.4z M6.8,14.4c0,1.5,0,3.1,0,4.6c0,0.3,0.1,0.4,0.4,0.4
			c0.6,0,1.2,0,1.8,0c0.3,0,0.4-0.1,0.4-0.4c0-3,0-6.1,0-9.1c0-0.3-0.1-0.4-0.4-0.4c-0.6,0-1.1,0-1.7,0C7,9.5,6.9,9.6,6.9,9.9
			C6.8,11.4,6.8,12.9,6.8,14.4z"/>
		<path class="st0" d="M15.7,15.7c0,1.1,0,2.2,0,3.3c0.1,0.6-0.3,1.2-0.9,1.2c-0.1,0-0.2,0-0.3,0c-0.6,0-1.3,0-1.9,0
			c-0.6,0.1-1.1-0.4-1.1-0.9c0-0.1,0-0.1,0-0.2c0-2.3,0-4.6,0-7c0-0.6,0.4-1.1,1-1.1c0.1,0,0.1,0,0.2,0c0.6,0,1.3,0,1.9,0
			c0.6-0.1,1.1,0.4,1.2,0.9c0,0.1,0,0.2,0,0.2C15.7,13.4,15.7,14.5,15.7,15.7z M14.8,15.7c0-1.1,0-2.2,0-3.3c0-0.3-0.1-0.4-0.4-0.4
			c-0.6,0-1.2,0-1.8,0c-0.3,0-0.4,0.1-0.4,0.4c0,2.2,0,4.5,0,6.7c0,0.3,0.1,0.4,0.4,0.4c0.6,0,1.2,0,1.8,0c0.3,0,0.4-0.1,0.4-0.4
			C14.8,17.9,14.8,16.8,14.8,15.7z"/>
		<path class="st0" d="M4.6,16.5c0,0.9,0,1.7,0,2.6c0.1,0.6-0.4,1.1-1,1.2c-0.1,0-0.2,0-0.2,0c-0.6,0-1.3,0-1.9,0s-1.1-0.4-1.1-1
			v-0.1c0-1.8,0-3.5,0-5.3c0-0.6,0.4-1.1,1-1.1c0.1,0,0.1,0,0.2,0c0.7,0,1.3,0,2,0c0.6,0,1.1,0.4,1.1,1v0.1
			C4.7,14.8,4.6,15.6,4.6,16.5z M3.8,16.5c0-0.8,0-1.7,0-2.5c0-0.3-0.1-0.4-0.4-0.4c-0.6,0-1.2,0-1.8,0c-0.2,0-0.4,0.1-0.4,0.3
			c0,1.7,0,3.4,0,5.1c0,0.3,0.1,0.3,0.4,0.3c0.6,0,1.2,0,1.8,0c0.3,0,0.4-0.1,0.4-0.4C3.8,18.2,3.8,17.3,3.8,16.5z"/>
	</g>
</g>
</svg>
