<svg xmlns="http://www.w3.org/2000/svg" viewBox="0 0 31.47467 28.8"><defs><style>.cls-1{fill:#283456;}</style></defs><g id="Layer_2" data-name="Layer 2"><g id="Layer_2-2" data-name="Layer 2"><path class="cls-1" d="M31.47467,3.27184A4.07654,4.07654,0,0,1,28.56059,5.1046a5.46668,5.46668,0,0,1-4.74073-1.30154c-.055-.04575-.10778-.09415-.162-.14078a.48146.48146,0,0,0-.05433-.02965,5.69231,5.69231,0,0,1-3.90627,1.55276,5.68107,5.68107,0,0,1-3.94758-1.56267,5.694,5.694,0,0,1-3.92017,1.56252A5.66117,5.66117,0,0,1,7.89155,3.62616c-.17094.142-.33092.282-.49808.4128A5.51228,5.51228,0,0,1,.4508,3.87528,1.36,1.36,0,0,1,.051,2.45059,1.15954,1.15954,0,0,1,.9951,1.58194a1.27469,1.27469,0,0,1,1.12318.2675A2.87264,2.87264,0,0,0,6.67657.78416,1.32014,1.32014,0,0,1,9.0829.76963a2.87806,2.87806,0,0,0,2.71936,1.76825A2.88726,2.88726,0,0,0,14.55105.76613a1.32072,1.32072,0,0,1,2.39356-.002,2.87831,2.87831,0,0,0,2.74492,1.77518A2.88277,2.88277,0,0,0,22.41166.77364,1.32268,1.32268,0,0,1,24.82032.7904,2.87278,2.87278,0,0,0,29.35815,1.867a1.30373,1.30373,0,0,1,2.02372.45508c.02681.05248.06168.10085.0928.15112Z"/><path class="cls-1" d="M15.75616,11.49039a5.76043,5.76043,0,0,1-7.87357.00767c-.16068.13325-.32083.27279-.48787.40355A5.52461,5.52461,0,0,1,.474,11.76274a1.42769,1.42769,0,0,1-.36036-1.616A1.29,1.29,0,0,1,2.13816,9.733a2.80561,2.80561,0,0,0,1.98172.68293,2.80192,2.80192,0,0,0,2.528-1.71038,1.3267,1.3267,0,0,1,2.46168-.021,2.87222,2.87222,0,0,0,2.87266,1.71335,2.86761,2.86761,0,0,0,2.552-1.73755A1.27844,1.27844,0,0,1,16.329,8.01448a1.78035,1.78035,0,0,1,.64295.7023,3.004,3.004,0,0,0,4.26308,1.25917,2.91486,2.91486,0,0,0,1.14829-1.28587,1.32581,1.32581,0,0,1,2.46034.0106A2.87492,2.87492,0,0,0,29.25749,9.8131a1.30737,1.30737,0,0,1,1.90808.17589,1.333,1.333,0,0,1-.299,1.898,5.42084,5.42084,0,0,1-6.8091-.02633c-.14437-.11366-.2831-.23448-.447-.37075a5.72636,5.72636,0,0,1-7.85431.0005Z"/><path class="cls-1" d="M15.7216,19.37849a5.75347,5.75347,0,0,1-7.85142-.0201,5.33669,5.33669,0,0,1-2.06839,1.26539,5.398,5.398,0,0,1-5.30412-.9929,1.24664,1.24664,0,0,1-.42294-1.40746,1.26312,1.26312,0,0,1,1.15058-.9137,1.29863,1.29863,0,0,1,.91525.28519,2.87555,2.87555,0,0,0,4.53621-1.08815,1.3202,1.3202,0,0,1,2.40685-.01321,2.877,2.877,0,0,0,2.7196,1.768,2.88619,2.88619,0,0,0,2.748-1.77312,1.31923,1.31923,0,0,1,2.39261.00044,2.99628,2.99628,0,0,0,5.4681.00447,1.32168,1.32168,0,0,1,2.40794.01728,2.87719,2.87719,0,0,0,4.49181,1.12113,1.30174,1.30174,0,0,1,1.83963.19816,1.31724,1.31724,0,0,1-.19648,1.84217,5.4203,5.4203,0,0,1-6.90262.04813c-.14388-.11356-.28224-.23412-.4125-.34255Q19.66717,22.49145,15.7216,19.37849Z"/><path class="cls-1" d="M23.6142,27.22a5.76115,5.76115,0,0,1-7.8749.00218,5.72818,5.72818,0,0,1-7.85763-.01129A5.35361,5.35361,0,0,1,5.80251,28.4871a5.398,5.398,0,0,1-5.30422-.992A1.24688,1.24688,0,0,1,.0745,26.08786a1.26308,1.26308,0,0,1,1.15-.91441,1.29757,1.29757,0,0,1,.9154.28456,2.8754,2.8754,0,0,0,4.53647-1.08682,1.32017,1.32017,0,0,1,2.4068-.01483,2.87794,2.87794,0,0,0,2.71912,1.76889,2.8891,2.8891,0,0,0,2.74913-1.772,1.32063,1.32063,0,0,1,2.39362.00258,2.99642,2.99642,0,0,0,5.46826-.00205,1.32007,1.32007,0,0,1,2.40665.02007,2.87759,2.87759,0,0,0,4.49149,1.12178,1.30177,1.30177,0,0,1,1.83969.19757,1.3178,1.3178,0,0,1-.19589,1.84223,5.42,5.42,0,0,1-6.9025.04876C23.9088,27.47064,23.77044,27.35007,23.6142,27.22Z"/></g></g></svg>