<svg xmlns="http://www.w3.org/2000/svg" viewBox="0 0 28.81713 28.8"><defs><style>.cls-1{fill:#283456;}</style></defs><g id="Layer_2" data-name="Layer 2"><g id="Layer_1-2" data-name="Layer 1"><path class="cls-1" d="M0,14.89581c.21269-.42459.36122-.4991.844-.46668a23.43825,23.43825,0,0,1,4.77529.70034,6.74159,6.74159,0,0,1,1.14226.45976.73012.73012,0,0,1,.42076.887,3.70894,3.70894,0,0,0-.04534.43534c.78438.17507,1.54981.34659,2.31554.51672,2.65139.58906,5.30385,1.1733,7.95362,1.76955a4.8854,4.8854,0,0,1,1.80238.75487,2.65859,2.65859,0,0,1,1.05907,1.54076c.0466.17945.084.36131.12886.55639,1.26119-.31607,2.50439-.62771,3.74762-.93919a3.95627,3.95627,0,0,1,4.5267,1.87664c.26325.48029.16918.8073-.32252,1.026-2.78059,1.23654-5.55525,2.48705-8.3504,3.6899a13.26833,13.26833,0,0,1-3.20605,1.01643q-.26163.04029-.5233.08035h-.33775a10.9578,10.9578,0,0,1-1.25611-.26126c-2.58768-.851-5.16882-1.72193-7.75239-2.58549-.63651-.21276-1.274-.42251-1.92663-.63879l-.1611.50449c-.15107.47306-.32078.60084-.81615.60163-1.07849.00171-2.157-.00319-3.23547.0026A.71879.71879,0,0,1,0,25.9291Zm19.1993,7.46243a1.62377,1.62377,0,0,0-.70891-1.42883,5.19293,5.19293,0,0,0-1.39449-.56035c-2.83821-.65419-5.68382-1.27633-8.52712-1.90842-.54468-.12109-1.09021-.23834-1.59423-.34838L5.38379,24.17289c.06821.02332.14709.0507.22622.0773q4.552,1.53,9.10364,3.06115a3.51194,3.51194,0,0,0,2.17877.15791,25.78062,25.78062,0,0,0,2.68842-.89108c2.5571-1.09252,5.09094-2.23948,7.63346-3.36609a.65418.65418,0,0,0,.09748-.06815c-.03393-.04273-.05957-.08175-.09166-.11446a2.74483,2.74483,0,0,0-2.81241-.74716c-1.898.47688-3.79741.94778-5.69428,1.42891a4.70472,4.70472,0,0,1-2.05729.15139c-1.31575-.2506-2.62884-.51518-3.94292-.77452-.45948-.09068-.92085-.17333-1.37722-.27772a.59759.59759,0,1,1,.22245-1.17189c.05587.00643.11184.01381.16693.02489,1.45087.29185,2.89893.59871,4.35379.869a7.14957,7.14957,0,0,0,1.64.14976A8.81625,8.81625,0,0,0,19.1993,22.35824ZM1.21319,25.21181c.78685,0,1.55366-.00569,2.32027.00413a.26516.26516,0,0,0,.30659-.23586c.489-1.74747,1.01173-3.4859,1.47383-5.24035.278-1.05569.46575-2.13518.69-3.1849a15.642,15.642,0,0,0-4.79068-.8558Z"/><path class="cls-1" d="M6.00027,13.21013A10.86781,10.86781,0,0,1,14.40264,2.67525,2.97537,2.97537,0,0,1,14.736,1.2081,2.43184,2.43184,0,0,1,17.30319.04987a2.4151,2.4151,0,0,1,1.89113,2.14638c.0327.48474.03567.47422.50179.60582A10.70253,10.70253,0,0,1,25.30386,6.547a10.42362,10.42362,0,0,1,2.0672,4.41285c.12656.61207.16289,1.24289.23756,1.8655.01423.11862.01531.23883.02391.3826.19492,0,.37184-.007.548.00144a.59776.59776,0,1,1-.0007,1.193.11788.11788,0,0,1-.02807.00084,1.56465,1.56465,0,0,0-1.56777.67272c-.43842.51121-.94991.95931-1.42181,1.44246a.91971.91971,0,0,1-.7.29411q-7.65471-.00555-15.30941-.00011A.92515.92515,0,0,1,8.455,16.513c-.63206-.64144-1.27477-1.2724-1.9056-1.915a.55812.55812,0,0,0-.4663-.19764,5.55987,5.55987,0,0,1-.675-.0023.591.591,0,0,1-.59783-.58492.59845.59845,0,0,1,.58616-.6003C5.58986,13.19781,5.78543,13.21013,6.00027,13.21013ZM26.427,13.19282a9.33259,9.33259,0,0,0-4.35234-7.98428,9.155,9.155,0,0,0-10.5792.034,9.31554,9.31554,0,0,0-4.29682,7.9503ZM8.15372,14.44333l-.04886.0669c.32987.31356.65237.63553.99419.93549a.648.648,0,0,0,.38628.16215q7.332.0122,14.664.00529c.08138,0,.19161.006.23952-.0408.37085-.36222.72965-.73678,1.11323-1.129ZM15.61891,2.42674H18.0044a1.193,1.193,0,1,0-2.38549,0Z"/><path class="cls-1" d="M16.47027,4.8098c.10309,0,.20627-.00272.30925.00049a.59407.59407,0,1,1,.03965,1.1874c-.27964.02652-.56133.0319-.84078.05991a7.1645,7.1645,0,0,0-6.07484,5.12411c-.03269.11718-.06458.23483-.10378.34989a.593.593,0,0,1-.72843.44764.57556.57556,0,0,1-.41267-.76867A12.60472,12.60472,0,0,1,9.451,9.17826a8.2332,8.2332,0,0,1,6.626-4.34613,3.51739,3.51739,0,0,1,.39326-.00187Z"/></g></g></svg>