<svg xmlns="http://www.w3.org/2000/svg" viewBox="0 0 28.1808 28.28346"><defs><style>.cls-1{fill:#283456;}</style></defs><g id="Layer_2" data-name="Layer 2"><g id="Layer_2-2" data-name="Layer 2"><path class="cls-1" d="M20.622,16.89877c0,2.64812-.018,5.29643.00986,7.94426a1.44837,1.44837,0,0,1-1.53858,1.55418q-7.75431-.035-15.50882.00017A1.44062,1.44062,0,0,1,2.03905,24.853c.01677-5.31581.00771-10.6317.00835-15.94756A1.36019,1.36019,0,0,1,3.58981,7.37265q7.75445-.00012,15.50889,0a1.35874,1.35874,0,0,1,1.52312,1.52286Q20.62269,12.89716,20.622,16.89877ZM3.24624,8.56085V25.19231h16.177V8.56085Z"/><path class="cls-1" d="M2.04949,2.17569H21.323c-.42219-.41194-.79129-.76932-1.157-1.13013a.50334.50334,0,0,1-.14572-.61364.79451.79451,0,0,1,.44046-.37146.669.669,0,0,1,.52292.16431c.73711.70466,1.45448,1.43022,2.16952,2.15758a.5606.5606,0,0,1-.00548.86173q-1.0598,1.083-2.13713,2.1487a.58056.58056,0,0,1-.86382.03347.58648.58648,0,0,1,.0361-.8639c.37037-.37729.75272-.74281,1.18194-1.16445H2.078a1.79485,1.79485,0,0,0,.13.16573c.31742.32058.64117.635.955.959a.58684.58684,0,0,1,.04573.86493.60341.60341,0,0,1-.88787-.04294Q1.26659,4.29761.2219,3.24093a.59143.59143,0,0,1,.00619-.92842Q1.264,1.26788,2.30861.232A.60264.60264,0,0,1,3.19477.16413a.60171.60171,0,0,1-.06.90948C2.7864,1.43171,2.43386,1.78577,2.04949,2.17569Z"/><path class="cls-1" d="M26.00473,7.36651V26.22358c.27406-.274.51083-.511.748-.7477.13189-.13163.25886-.26887.39785-.39257a.58247.58247,0,0,1,.84281.00769.56644.56644,0,0,1-.01119.82016c-.48932.509-.99431,1.003-1.49309,1.50291-.21477.21524-.42608.43415-.64632.64366a.59457.59457,0,0,1-.9319.001q-1.05723-1.04418-2.10224-2.10074a.58429.58429,0,0,1-.04885-.88463.59827.59827,0,0,1,.88625.05634c.37017.36443.73366.73567,1.13883,1.143V7.4l-.8.79934c-.09714.09707-.19249.196-.29175.29083a.597.597,0,1,1-.83947-.83243c.53743-.54449,1.08008-1.08383,1.62065-1.62522.16632-.16658.32787-.33833.50055-.498a.56985.56985,0,0,1,.84241-.006q1.10148,1.083,2.18251,2.18673a.58692.58692,0,1,1-.84.819C26.78792,8.17239,26.42918,7.797,26.00473,7.36651Z"/></g></g></svg>