<svg xmlns="http://www.w3.org/2000/svg" viewBox="0 0 11.15142 11.08236"><defs><style>.cls-1{fill:#959bad;}</style></defs><g id="Layer_2" data-name="Layer 2"><g id="Layer_1-2" data-name="Layer 1"><path class="cls-1" d="M7.35492,8.21823A4.63629,4.63629,0,0,1,.99053,7.39542,4.55073,4.55073,0,0,1,1.34766,1.3297,4.58492,4.58492,0,0,1,8.25023,7.33016q.99093.9848,1.99147,1.97915c.23432.23286.47476.46.70141.7a.62919.62919,0,0,1,.04581.88846.63665.63665,0,0,1-.92133-.02627c-.8555-.83354-1.70243-1.67579-2.55326-2.51408C7.46982,8.3136,7.42015,8.27492,7.35492,8.21823ZM4.61035,7.88434A3.32482,3.32482,0,1,0,4.56675,1.235a3.32474,3.32474,0,1,0,.0436,6.64932Z"/></g></g></svg>