<svg xmlns="http://www.w3.org/2000/svg" viewBox="0 0 30.82948 30.82344"><defs><style>.cls-1{fill:#283456;}</style></defs><g id="Layer_2" data-name="Layer 2"><g id="Layer_5" data-name="Layer 5"><path class="cls-1" d="M23.13941,24.55719A13.9922,13.9922,0,0,1,4.06979,4.10223,13.99292,13.99292,0,0,1,24.58562,23.10991c.274.254.56082.50388.82982.77168q2.48991,2.4788,4.97429,4.96312a1.211,1.211,0,0,1,.43948.90628,1.02261,1.02261,0,0,1-.5568.93152,1.00561,1.00561,0,0,1-1.11136-.05626,2.51018,2.51018,0,0,1-.34993-.31245q-2.72425-2.71977-5.44436-5.44369A2.5105,2.5105,0,0,1,23.13941,24.55719Zm2.68047-10.58433A11.8358,11.8358,0,1,0,13.95741,25.7928,11.83954,11.83954,0,0,0,25.81988,13.97286Z"/></g></g></svg>