<svg xmlns="http://www.w3.org/2000/svg" viewBox="0 0 216 216.02298"><defs><style>.cls-1{fill:#fff;}</style></defs><g id="Layer_2" data-name="Layer 2"><g id="Layer_1-2" data-name="Layer 1"><path class="cls-1" d="M0,210.96151V31.27926a2.9431,2.9431,0,0,0,.3207-.75717C2.24794,14.08266,16.84638-.08115,36.20888.00035,84.28292.2027,132.35839.051,180.43326.07453c20.116.00983,35.5285,15.40793,35.5483,35.51q.04642,47.1186-.019,94.23725a36.69852,36.69852,0,0,1-.63947,7.11657c-3.38977,16.93108-17.48519,28.44724-34.83024,28.46136q-52.18651.04248-104.37307-.00879a21.73468,21.73468,0,0,0-14.821,5.55055q-22.50951,19.57425-45.09892,39.05642c-2.47777,2.13571-5.16974,4.023-7.76272,6.02506H5.06227A9.20383,9.20383,0,0,1,0,210.96151Zm13.49938-16.5174c.76372-.62639,1.14454-.924,1.50938-1.24009q18.64485-16.1529,37.27567-32.32192a35.26672,35.26672,0,0,1,24.08425-8.99083q51.87772.07382,103.75564.01411c13.03961-.00615,22.34947-9.27673,22.35885-22.28563q.03385-46.91451-.001-93.829c-.01048-12.89327-9.32656-22.214-22.20754-22.219q-72.228-.028-144.45608.01858a25.23726,25.23726,0,0,0-5.84189.62635C19.9764,16.624,13.50635,25.17245,13.50419,35.89766q-.01572,78.12058-.00482,156.24116Z"/><path class="cls-1" d="M0,210.96151A9.20383,9.20383,0,0,0,5.06227,216.023H0Z"/><path class="cls-1" d="M108.01608,53.63421q26.77824.00018,53.55649.00594c4.29015.00332,7.27941,2.822,7.26789,6.76623a6.72864,6.72864,0,0,1-6.05141,6.68957,14.54,14.54,0,0,1-1.47478.03408q-53.34564.002-106.6913-.00217c-4.21013-.0007-7.18816-2.47893-7.45141-6.1438a6.62057,6.62057,0,0,1,6.65579-7.32917c4.21568-.07631,8.43378-.02045,12.65081-.02061Q87.24712,53.63352,108.01608,53.63421Z"/><path class="cls-1" d="M108.00878,111.8409q-26.77825-.00017-53.55649-.00572c-4.316-.00326-7.29847-2.78688-7.30474-6.733a6.676,6.676,0,0,1,6.21825-6.73507c.41947-.03328.84289-.02239,1.26449-.0224q53.34565-.00132,106.69129.0021c4.32585.00063,7.30943,2.52772,7.50575,6.30784.21323,4.106-2.73637,7.16261-7.05125,7.1756-10.40195.03132-20.80406.01063-31.2061.0108Q119.28938,111.84118,108.00878,111.8409Z"/></g></g></svg>