<?xml version="1.0" encoding="utf-8"?>
<!-- Generator: Adobe Illustrator 26.0.1, SVG Export Plug-In . SVG Version: 6.00 Build 0)  -->
<svg version="1.1" id="Layer_1" xmlns="http://www.w3.org/2000/svg" xmlns:xlink="http://www.w3.org/1999/xlink" x="0px" y="0px"
	 viewBox="0 0 800 800" style="enable-background:new 0 0 800 800;" xml:space="preserve">
<style type="text/css">
	.st0{fill:#008558;}
	.st1{fill:#FFFFFF;}
</style>
<g id="SVGRepo_bgCarrier">
	<path class="st0" d="M400,0L400,0c220.9,0,400,179.1,400,400l0,0c0,220.9-179.1,400-400,400l0,0C179.1,800,0,620.9,0,400l0,0
		C0,179.1,179.1,0,400,0z"/>
</g>
<g id="SVGRepo_tracerCarrier">
</g>
<g id="SVGRepo_iconCarrier">
	<path class="st1" d="M261.1,351.3l12.1,21.1c7.7,13.5,11.5,20.2,11.5,27.6s-3.8,14.1-11.5,27.6l0,0l-12.1,21.1
		c-34.4,60.2-51.6,90.3-38.2,105.2s45.2,1,108.7-26.8l174.3-76.3c49.9-21.8,74.8-32.7,74.8-50.9c0-18.2-24.9-29.1-74.8-50.9
		l-174.3-76.3c-63.5-27.8-95.3-41.7-108.7-26.8C209.5,260.8,226.7,291.1,261.1,351.3z"/>
</g>
</svg>
