<svg xmlns="http://www.w3.org/2000/svg" viewBox="0 0 216 197.96932"><defs><style>.cls-1{fill:#283456;}</style></defs><g id="Layer_2" data-name="Layer 2"><g id="Layer_1-2" data-name="Layer 1"><path class="cls-1" d="M216,81.67755c-2.70105,3.2489-4.95492,7.04874-8.17384,9.65956-25.89076,20.99957-51.963,41.77554-77.98243,62.61658-.8418.67424-1.67345,1.37222-2.575,1.95918-7.03665,4.58138-14.03658,1.239-14.332-7.15-.33128-9.4083-.12454-18.83556-.15016-28.25458-.00452-1.66012-.00064-3.32028-.00064-5.28441-25.64067-1.96122-48.07881,4.787-67.63659,20.668-19.51576,15.84683-29.68764,37.27949-35.33992,62.07744-13.64068-31.1921-14.93933-71.814,8.26169-106.30921,22.40689-33.31448,54.407-48.3978,94.71489-47.10714,0-9.94209-.00109-19.48061.001-29.01914.0004-1.853-.03689-3.70776.03056-5.55853.14213-3.89966,1.19291-7.378,5.07427-9.165,3.862-1.77807,7.28754-.41183,10.32783,1.98676,8.35851,6.5943,16.64144,13.28442,24.94822,19.94419,18.06515,14.48335,36.201,28.88041,54.12291,43.53888,3.34633,2.737,5.82831,6.53006,8.70918,9.83576ZM10.61255,163.14077c26.97838-50.8397,76.0004-62.46455,111.83857-56.81657v40.73547c1.82437-1.314,3.05179-2.11865,4.19257-3.03146q37.78432-30.23352,75.54676-60.49436c5.3799-4.31266,5.35639-4.73214-.14784-9.14844Q167.552,46.712,133.04822,19.055c-3.29036-2.63706-6.62492-5.219-10.73233-8.45058V55.218c-31.75062-3.60895-60.09975,3.0781-83.03944,25.83476C16.47858,103.66876,7.51081,131.35537,10.61255,163.14077Z"/></g></g></svg>