<svg xmlns="http://www.w3.org/2000/svg" viewBox="0 0 20.22252 20.22252"><defs><style>.cls-1{fill:none;stroke:#2be2a5;stroke-miterlimit:10;stroke-width:1.75px;}.cls-2{fill:#2be2a5;}</style></defs><g id="Layer_2" data-name="Layer 2"><g id="Layer_2-2" data-name="Layer 2"><rect class="cls-1" x="0.375" y="0.375" width="19.47252" height="19.47252" rx="9.73558"/><path class="cls-2" d="M9.29038,10.932H9.03431c-1.12442-.00014-2.24887.005-3.37324-.00248a.82391.82391,0,1,1,.03039-1.64645c1.11149.00248,2.223.00082,3.33447.00078.07679,0,.15359,0,.26445,0V9.04764c.00007-1.12423-.00287-2.24846.0015-3.37267a.81559.81559,0,0,1,.96245-.84633.80441.80441,0,0,1,.68125.79838c.00812.59431.003,1.1888.00319,1.78321.00021.6131,0,1.22619,0,1.87362h.23584c1.12442.00006,2.24885-.00292,3.37325.00145a.82386.82386,0,1,1-.01026,1.64566c-1.11149.00273-2.223.001-3.33448.001h-.26435c0,.088,0,.16216,0,.23629-.00018,1.13069.00494,2.26141-.00264,3.392a.81761.81761,0,0,1-1.147.77235.80881.80881,0,0,1-.49952-.8028q.00351-1.66695.00068-3.33391Z"/></g></g></svg>