<svg xmlns="http://www.w3.org/2000/svg" viewBox="0 0 28.17876 20.95225"><defs><style>.cls-1{fill:#283456;}</style></defs><g id="Layer_2" data-name="Layer 2"><g id="Layer_2-2" data-name="Layer 2"><path class="cls-1" d="M20.35553,20.95225H18.58515c0-.11977,0-.23166,0-.34354.00043-1.51117.0333-3.02322-.00736-4.53329a3.90149,3.90149,0,0,0-2.372-3.66808,4.00259,4.00259,0,0,0-4.40744.43666,4.1795,4.1795,0,0,0-1.60507,3.3674c-.01991,1.45241-.0062,2.90529-.00715,4.358-.00007.116,0,.232,0,.36961H8.397c0-.12022-.00007-.2338,0-.34738q.00151-2.19365.00339-4.38728a5.98122,5.98122,0,0,1,11.958-.27309c.04833,1.617.01272,3.23652.01417,4.8549C20.37263,20.83293,20.36325,20.87974,20.35553,20.95225Z"/><path class="cls-1" d="M14.37776,8.97728A4.48866,4.48866,0,1,1,18.88321,4.5102,4.49476,4.49476,0,0,1,14.37776,8.97728Zm2.99818-4.4882a2.99049,2.99049,0,1,0-2.991,2.99812A2.9945,2.9945,0,0,0,17.37594,4.48908Z"/><path class="cls-1" d="M19.2417,8.96883a3.59589,3.59589,0,1,1,3.57259,3.611A3.59652,3.59652,0,0,1,19.2417,8.96883Zm3.56592,2.10356A2.09049,2.09049,0,1,0,20.743,8.97692,2.07916,2.07916,0,0,0,22.80762,11.07239Z"/><path class="cls-1" d="M5.98711,4.18926A3.59155,3.59155,0,1,1,2.397,7.785,3.59852,3.59852,0,0,1,5.98711,4.18926ZM8.08828,7.79565A2.09185,2.09185,0,1,0,5.977,9.88334,2.09474,2.09474,0,0,0,8.08828,7.79565Z"/><path class="cls-1" d="M1.80311,20.94583H.0183a2.28319,2.28319,0,0,1-.018-.23828A27.6922,27.6922,0,0,1,.1211,17.5015a5.93317,5.93317,0,0,1,6.61967-4.8712c.40178.05678.79735.15746,1.20841.24034l-.599,1.66617a13.01158,13.01158,0,0,0-1.5088-.14994,4.01838,4.01838,0,0,0-3.96772,3.547,25.15553,25.15553,0,0,0-.07024,2.62556C1.80093,20.68332,1.80311,20.80733,1.80311,20.94583Z"/><path class="cls-1" d="M28.13572,20.948H26.37447c0-.42221.00373-.83755-.00078-1.2528a3.99259,3.99259,0,0,0-.74346-2.32914,4.22594,4.22594,0,0,0-3.76462-1.79113c-.07788.00161-.15571.00744-.23358.00791a.13334.13334,0,0,1-.04882-.0197l-.35143-1.71481a5.885,5.885,0,0,1,4.79437,1.33586A6.27,6.27,0,0,1,28.13572,20.948Z"/></g></g></svg>