<svg xmlns="http://www.w3.org/2000/svg" viewBox="0 0 20.1096 22.13883"><defs><style>.cls-1{fill:#283456;}</style></defs><g id="Layer_2" data-name="Layer 2"><g id="Layer_2-2" data-name="Layer 2"><path class="cls-1" d="M4.71059,2.0575a5.19519,5.19519,0,0,1,.05-.564A1.83322,1.83322,0,0,1,6.63914.00233Q9.824-.00232,13.00886.00142c.17571,0,.35167-.00467.52708.00291A1.82915,1.82915,0,0,1,15.33067,1.827c.00163.06513.00021.13032.00021.23045.09779,0,.18211-.00283.26618.00046a11.05109,11.05109,0,0,1,1.64.07888,3.52011,3.52011,0,0,1,2.86931,3.527c.00615,2.29258.0016,4.58518.00161,6.87777,0,1.99228.00381,3.98457-.00127,5.97683a3.52891,3.52891,0,0,1-2.42127,3.41371,3.97816,3.97816,0,0,1-1.20446.19616q-6.42457.02061-12.84925.00723a3.564,3.564,0,0,1-3.6269-3.61526q-.00972-6.42729,0-12.85462a3.55654,3.55654,0,0,1,3.6285-3.60814C3.99005,2.05727,4.34676,2.0575,4.71059,2.0575ZM4.7055,3.18292c-.37361,0-.73868-.005-1.10358.00088A2.42349,2.42349,0,0,0,1.134,5.68775q-.00447,6.4046-.00009,12.8092a2.42489,2.42489,0,0,0,2.50794,2.50753q6.41292.00424,12.82582-.00192a2.75333,2.75333,0,0,0,.65164-.07012A2.41893,2.41893,0,0,0,18.97579,18.498q.00508-3.92186.0011-7.84371c0-1.66249.00351-3.325-.0014-4.98746a2.43219,2.43219,0,0,0-1.54264-2.31714,6.3884,6.3884,0,0,0-2.08939-.17013c-.00555.10519-.01083.17678-.01287.24846a1.81341,1.81341,0,0,1-1.81516,1.79633q-3.49194.01-6.98391-.00014a1.80068,1.80068,0,0,1-1.75909-1.439A5.96418,5.96418,0,0,1,4.7055,3.18292Zm5.33319-2.0502q-1.70126,0-3.40252.00042a.71491.71491,0,0,0-.79047.7876q-.00443.69174-.00012,1.38353a.72469.72469,0,0,0,.804.80048q3.38056.00279,6.76113,0a.72518.72518,0,0,0,.80214-.80274q.00475-.68076.00013-1.36157a.72131.72131,0,0,0-.81565-.80747Q11.718,1.13176,10.03869,1.13272Z"/><path class="cls-1" d="M12.90889,9.88076c-.90671,0-1.81343-.0015-2.72014.001a.59239.59239,0,0,1-.56889-.30016.55243.55243,0,0,1,.34717-.803.87713.87713,0,0,1,.21665-.02666q2.74207-.00213,5.48415-.00009a.56754.56754,0,1,1,.00507,1.128C14.75157,9.88278,13.83023,9.88076,12.90889,9.88076Z"/><path class="cls-1" d="M12.92369,17.48592c-.9213,0-1.84261.002-2.7639-.00111a.55762.55762,0,0,1-.60194-.51206.54342.54342,0,0,1,.459-.598,1.24641,1.24641,0,0,1,.2181-.01614q2.6981-.00126,5.3962,0c.412.00032.65557.19917.66891.53607a.55886.55886,0,0,1-.61246.59037C14.76631,17.488,13.845,17.486,12.92369,17.48592Z"/><path class="cls-1" d="M12.93631,12.56028c.92986,0,1.85972-.0019,2.78956.00119a.55451.55451,0,0,1,.56382.42854.54623.54623,0,0,1-.314.63411.80492.80492,0,0,1-.29867.05458q-2.74563.0047-5.49126.00079a.55814.55814,0,0,1-.63089-.552.55071.55071,0,0,1,.59193-.56617C11.0766,12.55819,12.00646,12.56024,12.93631,12.56028Z"/><path class="cls-1" d="M5.20863,13.21954c.4429-.41238.86779-.81289,1.2993-1.20614a1.08078,1.08078,0,0,1,.33791-.23052A.53236.53236,0,0,1,7.46,12.006a.55043.55043,0,0,1-.0263.65459,2.53884,2.53884,0,0,1-.19288.20964c-.42863.43994-.85286.88432-1.28853,1.31719a.94233.94233,0,0,1-1.3729-.00319q-.30506-.2997-.5963-.61337a.56239.56239,0,1,1,.80269-.78583c.07947.07546.1536.15657.23.23527C5.09206,13.09885,5.16812,13.17767,5.20863,13.21954Z"/><path class="cls-1" d="M5.21371,9.42836c.45774-.43255.89537-.84086,1.32631-1.25612a.61165.61165,0,0,1,.54739-.21316.54857.54857,0,0,1,.34034.89626c-.50611.55689-1.03147,1.09883-1.58027,1.6134a.895.895,0,0,1-1.22118-.04662c-.23538-.2188-.45851-.45187-.675-.68956A.55967.55967,0,0,1,4.752,8.951c.08678.0782.16657.16431.2477.24859C5.08056,9.2836,5.15915,9.36988,5.21371,9.42836Z"/><path class="cls-1" d="M5.21821,17.03018c.46618-.441.91078-.86334,1.35742-1.28352a.56095.56095,0,0,1,.95424.24862.533.533,0,0,1-.144.52579c-.48655.50546-.969,1.0155-1.47192,1.50435a.92153.92153,0,0,1-1.29051-.0002c-.23518-.21859-.4569-.45285-.67223-.69132a.55781.55781,0,0,1,.804-.773C4.92517,16.72,5.08294,16.89228,5.21821,17.03018Z"/></g></g></svg>