<svg xmlns="http://www.w3.org/2000/svg" viewBox="0 0 13.72773 13.71551"><defs><style>.cls-1{fill:#1c1c1c;}</style></defs><g id="Layer_2" data-name="Layer 2"><g id="Layer_1-2" data-name="Layer 1"><path class="cls-1" d="M2.90744,10.80038c-.20844,0-.39959.01232-.58873-.002a2.47881,2.47881,0,0,1-2.306-2.4252Q-.01248,5.409.01253,2.44449A2.48151,2.48151,0,0,1,2.47939.00614Q6.8653-.00613,11.25128.00627a2.47919,2.47919,0,0,1,2.46327,2.44129q.02672,2.95731.0004,5.915a2.49428,2.49428,0,0,1-2.54132,2.44913Q9.31542,10.817,7.45719,10.81a.33573.33573,0,0,0-.26295.10616Q5.95815,12.1531,4.71606,13.384a1.002,1.002,0,0,1-1.0494.284,1.02983,1.02983,0,0,1-.75821-1.03129c-.00391-.551-.001-1.102-.001-1.653ZM.66294,5.40822q0,1.43439,0,2.86879c0,.0091,0,.01821.00007.02732A1.82334,1.82334,0,0,0,2.15053,10.11a6.35285,6.35285,0,0,0,.97962.04538c.33221.007.433.10183.43311.43208q.00042,1.01091.00056,2.02181a.3989.3989,0,0,0,.71313.28807c.85462-.85208,1.7127-1.70071,2.56376-2.55632a.59369.59369,0,0,1,.45939-.18718c1.27523.00558,2.5505.00393,3.82576.00149a2.24052,2.24052,0,0,0,.42106-.03339A1.84021,1.84021,0,0,0,13.06353,8.281q.00378-2.85512.00051-5.71025A1.85053,1.85053,0,0,0,11.149.65923q-4.2835-.00034-8.567,0A1.85151,1.85151,0,0,0,.663,2.58042Q.66212,3.99432.66294,5.40822Z"/><path class="cls-1" d="M4.49046,2.31c.15317.06275.30977.11851.45812.19111a.204.204,0,0,0,.21128-.00337c.21832-.11069.44718-.20041.66786-.30675a.26445.26445,0,0,0,.1151-.12428c.03436-.07806.04306-.16695.07089-.24843a.66.66,0,0,1,.60443-.45468c.15-.00611.30056-.0053.45073-.00183a.64708.64708,0,0,1,.65834.52622.42225.42225,0,0,0,.33708.37244,2.89258,2.89258,0,0,1,.56184.27416.18484.18484,0,0,0,.21015.00467A.82973.82973,0,0,1,9.43262,2.402a1.1545,1.1545,0,0,1,.78924,1.122,1.47894,1.47894,0,0,1-.215.40384.22784.22784,0,0,0-.0263.19768.52007.52007,0,0,0,.46391.43927.619.619,0,0,1,.466.61832c.00352.13195.002.26406.001.39608a.66072.66072,0,0,1-.54541.69967.43192.43192,0,0,0-.35012.30824.45513.45513,0,0,0,.06188.51312.65451.65451,0,0,1-.05092.843c-.08288.09682-.16836.19151-.25513.28488a.66481.66481,0,0,1-.87625.14465.36422.36422,0,0,0-.42894-.00118,5.754,5.754,0,0,1-.57112.255.27418.27418,0,0,0-.11672.12444,1.49268,1.49268,0,0,0-.05733.20973.67513.67513,0,0,1-.65951.49532c-.132.0015-.26413.00089-.39617-.00091a.65614.65614,0,0,1-.67-.53071A.41636.41636,0,0,0,5.6692,8.559a5.76175,5.76175,0,0,1-.58986-.2795.25683.25683,0,0,0-.16824-.009,3.09243,3.09243,0,0,1-.38061.14022.56641.56641,0,0,1-.34492-.03708A1.32136,1.32136,0,0,1,3.49074,7.511a.61748.61748,0,0,1,.17568-.5529.30708.30708,0,0,0,.0535-.33986.4517.4517,0,0,0-.39354-.35364.64225.64225,0,0,1-.51029-.65594q-.00276-.20484.00142-.40975a.65114.65114,0,0,1,.52758-.65745.43327.43327,0,0,0,.36918-.324.44607.44607,0,0,0-.05462-.48858A.65231.65231,0,0,1,3.70677,2.865c.0889-.10367.17872-.20672.272-.30639A.83245.83245,0,0,1,4.49046,2.31Zm-.359,5.11951c.08515.10163.15575.19736.23968.27946a.15267.15267,0,0,0,.13426.02167,3.50168,3.50168,0,0,0,.34376-.16585.344.344,0,0,1,.396.03,2.67994,2.67994,0,0,0,.99577.46111.35664.35664,0,0,1,.28707.29234c.02846.12407.0531.24951.09156.37048a.13082.13082,0,0,0,.09794.0763c.12778-.0161.26976.06481.38252-.049.01356-.01368.01064-.04335.01616-.06541.02871-.11465.05822-.2291.08643-.34387A.38949.38949,0,0,1,7.483,8.05341a4.821,4.821,0,0,0,.8568-.37452.52262.52262,0,0,1,.61409-.01861c.30914.18331.31718.17449.54106-.11207a.15033.15033,0,0,0,.00522-.1352,3.13164,3.13164,0,0,0-.206-.30528A.38566.38566,0,0,1,9.26041,6.686,6.58614,6.58614,0,0,0,9.51,6.02445a.37374.37374,0,0,1,.28578-.27852c.11943-.02844.24053-.05191.357-.08963.04035-.01307.09826-.06273.09783-.095A2.95166,2.95166,0,0,0,10.21,5.1711c-.00152-.0103-.04964-.01372-.07612-.02031-.11911-.02962-.238-.0603-.35739-.08856a.34588.34588,0,0,1-.26369-.265,2.47349,2.47349,0,0,0-.17929-.513.503.503,0,0,1,.06373-.63447c.2225-.27618.21362-.28649-.03938-.54164a.15369.15369,0,0,0-.13463-.02644,2.32162,2.32162,0,0,0-.31841.15541.41546.41546,0,0,1-.45729-.03173,4.12948,4.12948,0,0,0-.84288-.40367.541.541,0,0,1-.44129-.46179c-.06307-.332-.07473-.32982-.41334-.32345-.00911.00017-.02108-.00368-.02686.00072-.03716.02825-.09315.05158-.10554.08893-.0428.1291-.07121.26305-.10329.39559a.32407.32407,0,0,1-.25682.25442,2.76954,2.76954,0,0,0-.97661.43921.3384.3384,0,0,1-.37377.02148c-.12129-.06246-.23935-.13191-.36383-.187a.13164.13164,0,0,0-.12283.02367c-.073.10543-.22565.15915-.21571.318.00122.01958.02364.038.03662.05667q.10518.15135.21051.30259a.36527.36527,0,0,1,.02574.37459q-.14229.34557-.26491.69913a.35754.35754,0,0,1-.26909.26063c-.12849.02944-.25814.05644-.383.09761-.03688.01217-.08728.07255-.083.10439.01685.12667-.07153.27007.05265.37921.015.01316.04356.01043.0656.016.119.03011.2378.06075.35679.09076a.35444.35444,0,0,1,.2587.255c.07432.21888.15182.437.23838.65126a.36489.36489,0,0,1-.0373.38512C4.32015,7.16824,4.23028,7.29388,4.13148,7.42955Z"/><path class="cls-1" d="M6.84471,6.89957A1.49246,1.49246,0,1,1,8.35637,5.42308,1.49732,1.49732,0,0,1,6.84471,6.89957Zm.01618-.656a.83685.83685,0,1,0-.836-.83417A.83832.83832,0,0,0,6.86089,6.24361Z"/></g></g></svg>