<?xml version="1.0" encoding="utf-8"?>
<!-- Generator: Adobe Illustrator 26.0.1, SVG Export Plug-In . SVG Version: 6.00 Build 0)  -->
<svg version="1.1" id="Layer_1" xmlns="http://www.w3.org/2000/svg" xmlns:xlink="http://www.w3.org/1999/xlink" x="0px" y="0px"
	 viewBox="0 0 218.5 218.3" style="enable-background:new 0 0 218.5 218.3;" xml:space="preserve">
<style type="text/css">
	.st0{fill:#BFDDD7;stroke:#BFDDD7;stroke-width:2.5;stroke-miterlimit:10;}
</style>
<g id="Layer_2_00000031896404608405733120000000856938805989906065_">
	<g id="Layer_1-2">
		<path class="st0" d="M47,171.2c-3.3,0-6.3,0.2-9.3,0c-20.1-1.5-36.1-18-36.3-38.2c-0.3-31.1-0.3-62.2,0-93.3
			C1.6,18.6,19.2,1.4,40.3,1.3c46-0.1,92-0.1,138,0c21.2,0.1,38.4,17.2,38.8,38.4c0.3,31,0.3,62,0,93.1c-0.2,21.6-17.9,38.5-40,38.5
			c-19.5,0.1-39,0-58.5,0c-1.6-0.1-3.1,0.5-4.1,1.7c-13,13-26,25.9-39,38.8c-4.6,4.6-10.1,6.3-16.5,4.5c-7.4-2.2-11.9-8.3-11.9-16.2
			c-0.1-8.7,0-17.3,0-26C47,173.3,47,172.5,47,171.2z M11.7,86.3c0,15,0,30.1,0,45.1c0,0.1,0,0.3,0,0.4c0.1,14,9.7,26,23.4,28.4
			c5,0.9,10.3,0.6,15.4,0.7c5.2,0.1,6.8,1.6,6.8,6.8c0,10.6,0,21.2,0,31.8c0,3.6,1.5,5.8,4.5,6.8c2.8,0.9,4.8-0.3,6.7-2.2
			c13.4-13.4,26.9-26.8,40.3-40.2c1.9-2,4.5-3.1,7.2-2.9c20.1,0.1,40.1,0.1,60.2,0c2.2,0,4.4-0.1,6.6-0.5c14-2.5,24.1-14.8,23.9-29
			c0-29.9,0-59.9,0-89.8c0-17.4-12.7-30.1-30.1-30.1c-44.9,0-89.9,0-134.8,0c-17.6,0-30.2,12.6-30.2,30.2
			C11.7,56.7,11.7,71.5,11.7,86.3z"/>
		<path class="st0" d="M71.9,37.6c2.4,1,4.9,1.9,7.2,3c1,0.6,2.3,0.6,3.3-0.1c3.4-1.7,7-3.2,10.5-4.8c0.8-0.4,1.4-1.1,1.8-2
			c0.5-1.2,0.7-2.6,1.1-3.9c1.4-4.1,5.2-7,9.5-7.2c2.4-0.1,4.7-0.1,7.1,0c5.2,0.1,9.4,3.2,10.4,8.3c0.6,3.3,2.1,4.9,5.3,5.9
			c3.1,1.1,6.1,2.6,8.8,4.3c1,0.7,2.3,0.7,3.3,0.1c2.9-1.7,5.9-2.9,9.4-2.2c6.6,1.4,14,11.4,12.4,17.7c-0.6,2.3-2.1,4.3-3.4,6.4
			c-0.6,0.9-0.8,2.1-0.4,3.1c0.9,4.1,3.1,6.1,7.3,6.9c4.5,0.9,7.2,5.1,7.3,9.7c0.1,2.1,0,4.2,0,6.2c0,5.7-3,9.9-8.6,11
			c-3,0.6-4.3,2-5.5,4.8c-1.3,3.2-1,5.4,1,8.1c3.1,4.2,2.6,9.3-0.8,13.3c-1.3,1.5-2.6,3-4,4.5c-3.9,4.2-8.8,5.1-13.8,2.3
			c-2.4-1.4-4.3-1.5-6.7,0c-2.8,1.7-6,2.6-9,4c-0.8,0.4-1.4,1.1-1.8,2c-0.4,1.1-0.7,2.2-0.9,3.3c-1.3,4.7-5.5,7.9-10.4,7.8
			c-2.1,0-4.2,0-6.2,0c-5.3-0.1-9.6-3.2-10.5-8.4c-0.6-3.2-2-4.8-5.1-5.7c-3.2-1-6.2-3-9.3-4.4c-0.8-0.3-1.8-0.4-2.6-0.1
			c-2,0.6-3.9,1.9-6,2.2c-1.8,0.4-3.7,0.2-5.4-0.6c-5.4-3-9.5-7.4-10.9-13.6c-0.8-3.3,0.6-6.2,2.8-8.7c1.5-1.7,1.5-3.2,0.8-5.3
			c-1-3.3-2.7-4.9-6.2-5.6c-5-1-8-5.2-8-10.3c0-2.1,0-4.3,0-6.4c0.1-5.2,3.2-9.3,8.3-10.3c3.2-0.6,4.7-2,5.8-5.1
			c1.1-3,1.1-5.1-0.9-7.7c-3.3-4.3-2.8-9.4,0.7-13.6c1.4-1.6,2.8-3.3,4.3-4.8C66,39.3,68.8,37.9,71.9,37.6z M66.3,118.2
			c1.3,1.6,2.5,3.1,3.8,4.4c0.6,0.4,1.4,0.6,2.1,0.3c1.8-0.8,3.7-1.6,5.4-2.6c2-1.2,4.5-1,6.2,0.5c4.7,3.5,10,5.9,15.7,7.3
			c2.3,0.4,4.1,2.3,4.5,4.6c0.4,2,0.8,3.9,1.4,5.8c0.3,0.6,0.9,1.1,1.5,1.2c2-0.3,4.2,1,6-0.8c0.2-0.2,0.2-0.7,0.3-1
			c0.5-1.8,0.9-3.6,1.4-5.4c0.6-2.4,2.1-3.6,4.4-4.5c4.6-1.7,9.3-3.3,13.5-5.9c3.5-2.1,6.2-2.3,9.7-0.3c4.9,2.9,5,2.7,8.5-1.8
			c0.4-0.7,0.4-1.4,0.1-2.1c-1-1.7-2.1-3.3-3.2-4.8c-1.5-1.9-1.7-4.5-0.5-6.6c1.5-3.4,2.8-6.9,3.9-10.4c0.5-2.2,2.3-3.9,4.5-4.4
			c1.9-0.4,3.8-0.8,5.6-1.4c0.6-0.2,1.5-1,1.5-1.5c-0.1-2.1-0.3-4.1-0.6-6.1c0-0.2-0.8-0.2-1.2-0.3c-1.9-0.5-3.7-0.9-5.6-1.4
			c-2.1-0.5-3.7-2.1-4.1-4.2c-0.8-2.7-1.4-5.6-2.8-8.1c-2.1-3.8-1.6-6.7,1-10c3.5-4.3,3.4-4.5-0.6-8.5c-0.6-0.5-1.4-0.6-2.1-0.4
			c-1.7,0.7-3.4,1.5-5,2.4c-2.6,1.5-4.7,0.9-7.2-0.5c-4.3-2.4-8.6-5-13.3-6.4c-4.1-1.2-6.2-3.2-6.9-7.3c-1-5.2-1.2-5.2-6.5-5.1
			c-0.1,0-0.3-0.1-0.4,0c-0.6,0.4-1.5,0.8-1.7,1.4c-0.7,2-1.1,4.1-1.6,6.2c-0.4,2-2,3.6-4,4c-5.5,1.3-10.7,3.6-15.4,6.9
			c-1.7,1.3-4,1.4-5.9,0.3c-1.9-1-3.8-2.1-5.7-2.9c-0.7-0.2-1.4-0.1-1.9,0.4c-1.1,1.7-3.6,2.5-3.4,5c0,0.3,0.4,0.6,0.6,0.9
			c1.1,1.6,2.2,3.2,3.3,4.8c1.2,1.7,1.4,4,0.4,5.9c-1.5,3.6-2.9,7.3-4.2,11c-0.5,2.1-2.2,3.6-4.2,4.1c-2,0.5-4.1,0.9-6,1.5
			c-0.6,0.2-1.4,1.1-1.3,1.6c0.3,2-1.1,4.2,0.8,6c0.2,0.2,0.7,0.2,1,0.3c1.9,0.5,3.7,1,5.6,1.4c2,0.5,3.6,2,4.1,4
			c1.2,3.4,2.4,6.9,3.8,10.2c1,2,0.8,4.3-0.6,6.1C69.2,114,67.8,116,66.3,118.2z"/>
		<path class="st0" d="M108.9,109.8C95.9,109.5,85.4,98.7,85.7,86c0.4-13.1,11.1-23.5,23.9-23.2c13,0.4,23.4,11,23.1,23.7
			C132.5,99.6,121.8,110.1,108.9,109.8z M109.2,99.5c7.3,0,13.2-5.9,13.2-13.2c0-7.3-5.9-13.2-13.2-13.2C102,73.1,96.1,79,96,86.3
			c0,0,0,0,0,0.1C96.1,93.6,102,99.5,109.2,99.5z"/>
	</g>
</g>
</svg>
