<svg xmlns="http://www.w3.org/2000/svg" viewBox="0 0 216 215.80776"><defs><style>.cls-1{fill:#3b3456;}</style></defs><g id="Layer_2" data-name="Layer 2"><g id="Layer_1-2" data-name="Layer 1"><path class="cls-1" d="M45.74734,169.93937c-3.27972,0-6.28741.19394-9.26336-.03131C16.364,168.38513.36984,151.86854.1992,131.74855q-.39553-46.64-.002-93.28552C.37673,17.38753,17.91781.15564,39.0121.09659q69.01055-.19315,138.022.00206a39.009,39.009,0,0,1,38.75859,38.4126q.42043,46.53207.00636,93.0705c-.18411,21.61958-17.94247,38.47351-39.98668,38.536q-29.23815.0829-58.47657-.02675a5.28336,5.28336,0,0,0-4.1374,1.67038q-19.44949,19.46238-38.99314,38.83066c-4.64557,4.61493-10.13312,6.34962-16.51186,4.46777-7.41741-2.1883-11.87367-8.25454-11.93019-16.22682-.06147-8.6691-.01516-17.339-.01582-26.00849C45.74729,172.0452,45.74734,171.26589,45.74734,169.93937Zm-35.3162-84.8433q0,22.56955,0,45.13912c0,.14331-.00019.28661.00121.4299.13758,14.02086,9.71509,25.96072,23.40525,28.41065,5.02091.89852,10.26742.6058,15.414.71415,5.22711.11,6.81261,1.60219,6.81474,6.79854q.00651,15.90618.00874,31.81233c.00625,3.618,1.54125,5.83866,4.50273,6.75238,2.78083.858,4.82588-.33311,6.71813-2.21973,13.4471-13.40712,26.94865-26.75994,40.33971-40.22265a9.341,9.341,0,0,1,7.22821-2.94512c20.06527.08774,40.13114.06182,60.19672.02337a35.24339,35.24339,0,0,0,6.6252-.52538,28.95512,28.95512,0,0,0,23.86333-28.96636q.05935-44.92411.008-89.84835c-.00944-17.44385-12.67916-30.07477-30.13173-30.07621q-67.3991-.00553-134.79819-.00012c-17.57478.0013-30.18328,12.62307-30.19469,30.22919Q10.41814,62.84891,10.43114,85.09607Z"/><path class="cls-1" d="M70.65551,36.34753c2.41007.98739,4.874,1.86475,7.2083,3.007a3.209,3.209,0,0,0,3.32441-.053c3.4351-1.74174,7.03623-3.1534,10.50855-4.82661a4.16164,4.16164,0,0,0,1.81094-1.95554c.54071-1.22821.6776-2.62685,1.11555-3.90892a10.38492,10.38492,0,0,1,9.51037-7.15422c2.36072-.09608,4.72918-.08341,7.092-.02869,5.20541.12054,9.39771,3.17151,10.35875,8.27986.62726,3.3341,2.12255,4.88282,5.30385,5.86019a45.50223,45.50223,0,0,1,8.84023,4.31377,2.90863,2.90863,0,0,0,3.3066.07348c2.89559-1.66011,5.87656-2.87725,9.38315-2.16028,6.61373,1.35228,13.969,11.44853,12.41841,17.65406-.56562,2.26372-2.09667,4.32491-3.38338,6.35422a3.58464,3.58464,0,0,0-.41384,3.11052c.8925,4.05608,3.10253,6.06251,7.29934,6.91161,4.48332.907,7.20935,5.1306,7.332,9.72909.0554,2.07608.03079,4.15482.016,6.23215-.04082,5.736-3.02348,9.86586-8.58165,11.009-3.01675.62045-4.33414,2.02817-5.50907,4.85-1.3314,3.19764-1.03718,5.36354.97364,8.07373,3.09974,4.17784,2.57576,9.31828-.80119,13.26356-1.304,1.52347-2.64911,3.01346-4.01434,4.4826-3.88831,4.18421-8.79862,5.14157-13.78747,2.276-2.43577-1.39911-4.25937-1.54968-6.7492-.01867-2.76863,1.70246-6.01654,2.61055-8.98622,4.01187a4.31387,4.31387,0,0,0-1.83659,1.95807,23.4917,23.4917,0,0,0-.90211,3.3,10.62281,10.62281,0,0,1-10.37711,7.79367c-2.07754.02354-4.15594.014-6.23348-.01438-5.25783-.07191-9.577-3.20826-10.54228-8.35041-.60562-3.22618-2.04538-4.76092-5.13725-5.74936-3.23033-1.03273-6.15808-2.98628-9.28118-4.39776a4.04071,4.04071,0,0,0-2.64728-.14111c-2.03174.63793-3.92928,1.85564-5.98869,2.20632a8.913,8.913,0,0,1-5.42725-.58343c-5.42006-2.99756-9.48916-7.3745-10.93279-13.574-.76122-3.269.59888-6.24743,2.76423-8.69967,1.50145-1.70037,1.5034-3.171.84188-5.34754-1.01239-3.331-2.74252-4.87037-6.19223-5.56437-5.002-1.00629-7.96064-5.23412-8.02917-10.32107q-.04341-3.22295.02229-6.44718c.09823-5.1565,3.20139-9.334,8.30122-10.34477,3.15926-.62618,4.70081-2.01075,5.809-5.09838,1.07258-2.98852,1.14492-5.06109-.85939-7.68756-3.31864-4.34878-2.82184-9.43687.74129-13.59176,1.39884-1.63114,2.81213-3.25259,4.28027-4.821A13.09814,13.09814,0,0,1,70.65551,36.34753ZM65.007,116.90079c1.34,1.59912,2.45068,3.1054,3.77129,4.39717a2.40184,2.40184,0,0,0,2.11263.341,55.09788,55.09788,0,0,0,5.40887-2.60949,5.41256,5.41256,0,0,1,6.23012.47133,42.16847,42.16847,0,0,0,15.66792,7.25544,5.61174,5.61174,0,0,1,4.517,4.5998c.44779,1.9522.83543,3.9259,1.4407,5.82935a2.058,2.058,0,0,0,1.5409,1.20058c2.01057-.25337,4.24458,1.01976,6.0189-.77065.21338-.21533.16735-.68212.25425-1.02918.45173-1.804.91607-3.60485,1.3599-5.41075.5835-2.37409,2.08926-3.59824,4.41249-4.45837,4.60183-1.70371,9.3379-3.34894,13.48136-5.89287,3.49626-2.14659,6.21527-2.33694,9.66238-.29292,4.86427,2.88434,4.99076,2.7456,8.51343-1.76327a2.36529,2.36529,0,0,0,.08212-2.12727,49.29668,49.29668,0,0,0-3.24128-4.80359,6.0682,6.0682,0,0,1-.53135-6.6354,103.63369,103.63369,0,0,0,3.92706-10.40952,5.88062,5.88062,0,0,1,4.49656-4.3823c1.87916-.44757,3.7847-.81687,5.61714-1.41038.63491-.20564,1.54609-.987,1.5392-1.49459a46.4558,46.4558,0,0,0-.63885-6.13983c-.024-.162-.78116-.21593-1.19775-.31953-1.87411-.466-3.74427-.94879-5.62345-1.39344a5.44258,5.44258,0,0,1-4.14908-4.16971c-.81818-2.735-1.4393-5.62873-2.821-8.0721-2.12416-3.75635-1.62878-6.71676,1.00274-9.98316,3.50095-4.34556,3.36129-4.50772-.61957-8.52242a2.41792,2.41792,0,0,0-2.11843-.416,36.53143,36.53143,0,0,0-5.01,2.44525c-2.55283,1.46308-4.69733.93286-7.19518-.49919-4.25271-2.43812-8.617-4.95942-13.26241-6.35167-4.08795-1.22517-6.16556-3.17009-6.94351-7.266-.99232-5.22454-1.17582-5.18965-6.50372-5.08934-.14327.0027-.33159-.05789-.42263.01132-.58462.44446-1.46572.81161-1.66058,1.39932-.67348,2.03123-1.12052,4.13887-1.62518,6.22434A5.09938,5.09938,0,0,1,98.459,43.366a43.57805,43.57805,0,0,0-15.36652,6.91067,5.32454,5.32454,0,0,1-5.88118.3381c-1.90843-.98289-3.76607-2.07553-5.72464-2.94241a2.0716,2.0716,0,0,0-1.93272.3724c-1.1491,1.659-3.55054,2.50417-3.3942,5.0039.01928.30817.372.59773.5763.89169q1.6549,2.38144,3.31226,4.76116a5.7475,5.7475,0,0,1,.40505,5.89409q-2.239,5.43738-4.16826,11.00038a5.62607,5.62607,0,0,1-4.23409,4.101c-2.02165.46318-4.06164.88806-6.02554,1.5359-.58021.19141-1.37325,1.1415-1.30658,1.64253.2652,1.993-1.12557,4.24945.8284,5.96669.23558.207.68548.16408,1.03227.25185,1.87186.47377,3.74159.9559,5.61383,1.42815a5.57668,5.57668,0,0,1,4.07053,4.01185c1.16947,3.44384,2.38888,6.87618,3.75091,10.24727a5.74128,5.74128,0,0,1-.58691,6.05959C67.97572,112.78925,66.56168,114.76618,65.007,116.90079Z"/><path class="cls-1" d="M107.69864,108.56188c-13.08009-.3043-23.58282-11.0769-23.21024-23.80664.38317-13.09178,11.13943-23.516,23.89217-23.15478,12.96985.36743,23.35827,11.03731,23.10341,23.72938C131.22161,98.39586,120.50835,108.8599,107.69864,108.56188Zm.25459-10.32132A13.16744,13.16744,0,1,0,94.79965,85.11522,13.19068,13.19068,0,0,0,107.95323,98.24056Z"/></g></g></svg>