<?xml version="1.0" encoding="utf-8"?>
<!-- Generator: Adobe Illustrator 26.0.1, SVG Export Plug-In . SVG Version: 6.00 Build 0)  -->
<svg version="1.1" id="Layer_1" xmlns="http://www.w3.org/2000/svg" xmlns:xlink="http://www.w3.org/1999/xlink" x="0px" y="0px"
	 viewBox="0 0 403.7 403.9" style="enable-background:new 0 0 403.7 403.9;" xml:space="preserve">
<style type="text/css">
	.st0{fill:#707D99;}
</style>
<g>
	<path class="st0" d="M202.1,0c37.6,0,75.2-0.1,112.7,0c33.9,0.1,61.9,23.1,68.9,56.2c1,4.7,1.4,9.6,1.4,14.4
		c0.1,67.8,0.1,135.6,0,203.4c0,39.1-30.3,69.9-69.4,70.6c-4.5,0.1-9.1,0-13.7,0c-12.8,0-23.7,4.3-32.8,13.5
		c-9.9,10-20,19.8-30.1,29.7c-21.6,21.2-53,21.2-74.5,0c-9.2-9.1-18.7-17.9-27.5-27.3c-10.8-11.5-23.7-16.7-39.3-16
		c-13.2,0.6-26.2-0.4-38.2-6.4c-25.9-12.9-40.6-33.8-40.8-62.9c-0.5-68.7-0.3-137.4-0.1-206.1c0.1-37.8,31-68.8,68.9-69.4
		c0.6,0,1.2,0,1.8,0C127,0,164.5,0,202.1,0z M202.2,28.1L202.2,28.1c-38.3,0.1-76.6-0.2-114.9,0.2C65,28.5,47,46.9,47,69.1
		c-0.2,68.8-0.2,137.7,0,206.5c0,18.3,12.7,34.7,30.6,38.9c7.9,1.9,16.3,1.8,24.4,1.8c20.4,0.2,37.8,7.2,52.3,21.5
		c9.9,9.8,19.8,19.6,29.7,29.4c11.2,11,25,11,36.2-0.1c10-9.9,20-19.8,30.1-29.7c10.6-10.5,23.2-17.6,38-19.8
		c8.4-1.2,17-1.1,25.5-1.2c25.3-0.3,43.3-18.3,43.3-43.4c0-67.2,0-134.5,0-201.7c0-3.9-0.4-8-1.3-11.8C351,40.4,334.6,28,313.8,28
		C276.5,28,239.4,28.1,202.2,28.1z"/>
	<path class="st0" d="M291.9,222.4c0,4.3,0.1,8.4,0,12.5c-0.2,8.1-6,14-13.8,14.1c-7.5,0.1-13.9-6-14.3-13.8c-0.2-4.2,0-8.4,0-13.2
		c-8.6,0-16.8,0-24.9,0c-3.7,0-7.3,0-11,0c-21.6-0.3-33.7-21.2-22.8-39.8c12.8-21.7,25.8-43.3,38.8-64.9c0.8-1.3,1.5-2.5,2.3-3.7
		c6.3-9.1,17.6-13,27.9-9.8c10.5,3.3,17.6,12.6,17.7,23.7c0.1,20.4,0,40.8,0,61.2c0,1.6,0,3.2,0,5.3c6.1-0.3,11.9,0.5,15.3,6
		c1.6,2.6,2.8,6,2.8,9C309.7,217.1,303.7,221.5,291.9,222.4z M231,193.5c11.5,0,22,0,32.4,0c0-17.9,0-35.5,0-54.2
		C252.2,157.8,241.7,175.4,231,193.5z"/>
	<path class="st0" d="M126.5,220.8c1.6,0,3.1,0,4.7,0c13.4,0,26.7-0.1,40.1,0.1c6.9,0.1,12.4,4.7,13.7,10.9c1.3,6-1.4,12.6-6.9,15.3
		c-2.4,1.2-5.3,1.8-8,1.8c-15.9,0.2-31.7,0.2-47.6,0c-20.9-0.2-32.3-18-24-37.2c5.4-12.5,14.7-21.4,25.4-29.2
		c7.7-5.6,15.6-11,23.2-16.7c5-3.8,9.1-8.4,9.9-15.1c1.2-10.4-5.7-19.1-15.8-20.1c-9.8-1.1-18.5,6.5-19.3,16.9
		c-0.7,8.2-5.1,13.7-12,14.7c-8.9,1.2-16.3-5.6-16.2-14.8c0.3-23.1,18.4-42.4,42.1-44.8c22.2-2.2,43.8,13.6,48.4,35.6
		c3.4,16.2-0.5,30.8-12.1,42.6c-6.5,6.5-14.1,11.9-21.4,17.6c-5.5,4.3-11.5,8.2-16.9,12.7c-3,2.5-5.4,5.7-8,8.6
		C126.1,220,126.3,220.4,126.5,220.8z"/>
</g>
</svg>
