<svg xmlns="http://www.w3.org/2000/svg" viewBox="0 0 142.31 142.19"><defs><style>.cls-1{fill:#72819b;stroke:#72819b;stroke-miterlimit:10;stroke-width:2.09px;}</style></defs><g id="Layer_2" data-name="Layer 2"><g id="Layer_1-2" data-name="Layer 1"><path class="cls-1" d="M30.74,111.37c-2.13,0-4.08.12-6,0A25.33,25.33,0,0,1,1.17,86.57Q.92,56.3,1.17,26a25.35,25.35,0,0,1,25.2-24.9q44.8-.14,89.6,0A25.32,25.32,0,0,1,141.13,26q.27,30.21,0,60.42c-.12,14-11.65,25-26,25q-19,.06-38,0a3.44,3.44,0,0,0-2.69,1.09Q61.9,125.18,49.22,137.76c-3,3-6.58,4.12-10.72,2.9a10.52,10.52,0,0,1-7.75-10.54c0-5.63,0-11.25,0-16.88ZM7.82,56.29V85.87A18.62,18.62,0,0,0,23,104.31c3.26.59,6.67.4,10,.47s4.42,1,4.42,4.41q0,10.32,0,20.65c0,2.35,1,3.79,2.92,4.39s3.13-.22,4.36-1.45c8.73-8.7,17.5-17.37,26.19-26.11a6.07,6.07,0,0,1,4.69-1.91c13,.06,26.05,0,39.08,0a22.83,22.83,0,0,0,4.3-.35,18.79,18.79,0,0,0,15.49-18.8q0-29.16,0-58.33c0-11.32-8.23-19.52-19.56-19.52H27.42C16,7.78,7.82,16,7.82,27.4Q7.81,41.85,7.82,56.29Z"/><path class="cls-1" d="M46.91,24.64c1.57.64,3.17,1.21,4.68,1.95a2.09,2.09,0,0,0,2.16,0c2.23-1.13,4.57-2,6.82-3.14a2.65,2.65,0,0,0,1.18-1.27c.35-.79.44-1.7.72-2.53A6.75,6.75,0,0,1,68.65,15c1.53-.06,3.07-.05,4.6,0A6.6,6.6,0,0,1,80,20.33a4.31,4.31,0,0,0,3.45,3.8,29.86,29.86,0,0,1,5.74,2.8A1.87,1.87,0,0,0,91.3,27c1.88-1.08,3.82-1.87,6.09-1.4,4.3.88,9.07,7.43,8.07,11.46a15.13,15.13,0,0,1-2.2,4.13,2.3,2.3,0,0,0-.27,2c.58,2.64,2,3.94,4.74,4.49,2.91.59,4.68,3.33,4.76,6.32,0,1.35,0,2.69,0,4,0,3.73-2,6.41-5.57,7.15-2,.4-2.81,1.32-3.58,3.15a4.66,4.66,0,0,0,.63,5.24,6.67,6.67,0,0,1-.52,8.61c-.84,1-1.72,2-2.6,2.91-2.53,2.72-5.71,3.34-9,1.48a3.71,3.71,0,0,0-4.38,0,60.2,60.2,0,0,1-5.84,2.6,2.82,2.82,0,0,0-1.19,1.27,16.43,16.43,0,0,0-.59,2.14,6.89,6.89,0,0,1-6.73,5.06c-1.35,0-2.7,0-4.05,0a6.69,6.69,0,0,1-6.84-5.42A4.26,4.26,0,0,0,59,88.47a60,60,0,0,1-6-2.85,2.61,2.61,0,0,0-1.72-.1A31,31,0,0,1,47.32,87a5.83,5.83,0,0,1-3.52-.38,13.52,13.52,0,0,1-7.1-8.81,6.33,6.33,0,0,1,1.79-5.65A3.13,3.13,0,0,0,39,68.65,4.61,4.61,0,0,0,35,65a6.54,6.54,0,0,1-5.21-6.7c0-1.39,0-2.79,0-4.18a6.66,6.66,0,0,1,5.39-6.72A4.41,4.41,0,0,0,39,44.12c.7-1.94.75-3.28-.55-5-2.16-2.82-1.84-6.12.48-8.82.91-1.06,1.82-2.11,2.78-3.13A8.47,8.47,0,0,1,46.91,24.64ZM43.25,76.93c.87,1,1.59,2,2.44,2.86a1.59,1.59,0,0,0,1.38.22c1.2-.48,2.36-1.09,3.51-1.69a3.49,3.49,0,0,1,4,.3,27.33,27.33,0,0,0,10.17,4.71,3.65,3.65,0,0,1,2.93,3c.3,1.27.55,2.55.94,3.78a1.32,1.32,0,0,0,1,.78c1.31-.16,2.76.66,3.91-.5.14-.14.11-.44.16-.67.3-1.17.6-2.34.89-3.51a3.94,3.94,0,0,1,2.86-2.89,49.56,49.56,0,0,0,8.75-3.83c2.27-1.39,4-1.52,6.27-.19,3.16,1.87,3.24,1.78,5.53-1.14a1.54,1.54,0,0,0,0-1.39A32,32,0,0,0,96,73.65a4,4,0,0,1-.34-4.31,67.87,67.87,0,0,0,2.54-6.76,3.81,3.81,0,0,1,2.92-2.84c1.22-.29,2.46-.53,3.65-.92.41-.13,1-.64,1-1a30,30,0,0,0-.42-4c0-.1-.5-.14-.77-.2-1.22-.31-2.43-.62-3.65-.91a3.52,3.52,0,0,1-2.7-2.7,24.8,24.8,0,0,0-1.83-5.24c-1.38-2.44-1.06-4.36.65-6.49,2.28-2.82,2.18-2.92-.4-5.53a1.59,1.59,0,0,0-1.37-.27A23.38,23.38,0,0,0,92,34.11c-1.65,1-3,.6-4.67-.32a42,42,0,0,0-8.61-4.13c-2.65-.79-4-2.06-4.51-4.72-.64-3.39-.76-3.36-4.22-3.3-.09,0-.21,0-.27,0-.38.29-1,.53-1.08.91-.44,1.32-.73,2.68-1,4A3.33,3.33,0,0,1,65,29.2a28.34,28.34,0,0,0-10,4.48,3.45,3.45,0,0,1-3.82.22c-1.24-.64-2.45-1.35-3.72-1.91a1.33,1.33,0,0,0-1.25.24c-.75,1.08-2.31,1.63-2.21,3.25,0,.2.25.39.38.58l2.15,3.09A3.73,3.73,0,0,1,46.78,43c-1,2.35-1.87,4.74-2.7,7.14a3.67,3.67,0,0,1-2.75,2.66c-1.32.3-2.64.58-3.92,1-.37.12-.89.74-.84,1.07.17,1.29-.73,2.75.53,3.87.16.13.45.11.67.16l3.65.93a3.61,3.61,0,0,1,2.64,2.6c.76,2.24,1.55,4.47,2.44,6.66A3.74,3.74,0,0,1,46.12,73C45.17,74.26,44.25,75.55,43.25,76.93Z"/><path class="cls-1" d="M71,71.52A15.25,15.25,0,1,1,86.4,56.44,15.3,15.3,0,0,1,71,71.52Zm.17-6.7a8.55,8.55,0,1,0-8.54-8.52A8.57,8.57,0,0,0,71.13,64.82Z"/></g></g></svg>