<?xml version="1.0" encoding="utf-8"?>
<!-- Generator: Adobe Illustrator 26.0.1, SVG Export Plug-In . SVG Version: 6.00 Build 0)  -->
<svg version="1.1" id="Layer_1" xmlns="http://www.w3.org/2000/svg" xmlns:xlink="http://www.w3.org/1999/xlink" x="0px" y="0px"
	 viewBox="0 0 19.7 12.1" style="enable-background:new 0 0 19.7 12.1;" xml:space="preserve">
<style type="text/css">
	.st0{fill:#707D99;}
</style>
<g>
	<path class="st0" d="M9.8,2.8c0.5,0.4,0.9,0.9,1.4,1.3c0.6,0.6,1.2,1.2,1.8,1.7c0.6,0.6,1.2,1.1,1.8,1.7c0.6,0.6,1.2,1.2,1.9,1.8
		c0.5,0.5,0.9,0.9,1.4,1.4c0.4,0.4,0.8,0.4,1.2,0c0.2-0.2,0.2-0.7,0-0.9c-0.7-0.6-1.3-1.2-2-1.8c-0.6-0.6-1.2-1.1-1.8-1.7
		c-0.6-0.6-1.2-1.2-1.9-1.8c-0.6-0.6-1.2-1.1-1.8-1.7c-0.5-0.5-1-0.9-1.5-1.4C10.1,1,9.6,1,9.2,1.4C8.6,1.9,8,2.5,7.4,3.1
		C6.8,3.7,6.2,4.3,5.6,4.9C4.9,5.4,4.3,6,3.7,6.6c-0.5,0.5-1,1-1.6,1.5c0,0,0,0-0.1,0.1C1.5,8.7,1,9.3,0.4,9.8
		c-0.1,0.1-0.3,0.3-0.2,0.6c0.2,0.6,0.9,0.8,1.3,0.4c0.2-0.2,0.4-0.4,0.6-0.6C2.8,9.6,3.4,9,4,8.4c0.6-0.6,1.2-1.1,1.8-1.7
		C6.4,6.1,7,5.5,7.6,4.9c0.5-0.5,1-1,1.6-1.5C9.4,3.2,9.6,3,9.8,2.8z"/>
	<path class="st0" d="M9.8,2.8C9.6,3,9.4,3.2,9.2,3.4c-0.5,0.5-1,1-1.6,1.5C7,5.5,6.4,6.1,5.8,6.7C5.2,7.3,4.6,7.9,4,8.4
		C3.4,9,2.8,9.6,2.2,10.2c-0.2,0.2-0.4,0.4-0.6,0.6c-0.5,0.5-1.2,0.3-1.3-0.4C0.1,10.2,0.2,10,0.4,9.8C1,9.3,1.5,8.7,2.1,8.2
		c0,0,0,0,0.1-0.1c0.5-0.5,1-1,1.6-1.5C4.3,6,4.9,5.4,5.6,4.9c0.6-0.6,1.2-1.2,1.8-1.7C8,2.5,8.6,1.9,9.2,1.4c0.4-0.4,0.9-0.4,1.3,0
		c0.5,0.5,1,1,1.5,1.4c0.6,0.6,1.2,1.1,1.8,1.7c0.6,0.6,1.2,1.2,1.9,1.8c0.6,0.6,1.2,1.1,1.8,1.7c0.7,0.6,1.3,1.2,2,1.8
		c0.2,0.2,0.2,0.7,0,0.9c-0.4,0.3-0.8,0.3-1.2,0c-0.5-0.5-0.9-0.9-1.4-1.4c-0.6-0.6-1.2-1.2-1.9-1.8c-0.6-0.6-1.2-1.1-1.8-1.7
		c-0.6-0.6-1.2-1.2-1.8-1.7C10.8,3.7,10.3,3.3,9.8,2.8z"/>
</g>
</svg>
