<svg xmlns="http://www.w3.org/2000/svg" viewBox="0 0 216 216.06231"><defs><style>.cls-1{fill:#283456;}</style></defs><g id="Layer_2" data-name="Layer 2"><g id="Layer_2-2" data-name="Layer 2"><path class="cls-1" d="M40.4772,216.06231c-4.02555-.55673-8.07754-.96931-12.0708-1.70208-6.94733-1.27484-13.64966-3.3399-19.60423-7.29111A28.43283,28.43283,0,0,1,4.268,203.32051c-5.93175-6.042-5.63218-13.94567.59707-19.71949,4.93413-4.57342,10.94588-7.001,17.25957-8.85593,1.32574-.38949,2.67148-.71087,4.25081-1.12772-.50665-.99261-.9044-1.79116-1.3188-2.581-8.72008-16.61983-16.69277-33.555-22.33743-51.5184-3.332-10.6036-3.75951-21.11876.32956-31.5795C8.15738,74.86968,17.22928,65.62544,30.38954,60.702c13.46736-5.03833,26.71465-4.04327,39.22117,2.97867,12.72592,7.14511,20.341,18.16761,23.19047,32.526,1.58312,7.97713.33424,15.65636-1.99236,23.25647-5.512,18.00576-13.56267,34.91756-22.28936,51.53489-.41584.79183-.80924,1.59547-1.17149,2.3114,4.42508,1.61035,8.75752,2.97744,12.91388,4.75619,4.5045,1.92779,8.49164,4.68245,11.17975,8.95654a22.25223,22.25223,0,0,0,1.07806,2.03312,6.35371,6.35371,0,0,0,2.07335,1.98082c1.69356.75646,2.608,1.87439,2.47173,3.71805a3.43566,3.43566,0,0,1-2.8556,3.20714A3.28768,3.28768,0,0,0,92.305,199.195a22.98774,22.98774,0,0,1-10.02176,9.34924,64.35937,64.35937,0,0,1-22.90884,6.6778c-2.36163.2751-4.72213.5599-7.08315.84025ZM86.40341,104.02673c-.74324-11.46484-4.10723-19.41528-11.06535-26.9343C60.19254,60.726,32.85094,60.83827,17.95758,77.407,7.65439,88.86923,4.72777,102.017,9.43384,116.75883c7.51649,23.54559,18.29043,45.58424,31.04441,66.68688,3.18917,5.27678,9.55589,5.04819,12.8236-.34436a324.44868,324.44868,0,0,0,29.47847-62.11647C84.78123,115.20091,86.4132,109.31366,86.40341,104.02673ZM49.09547,208.94488c3.49091-.4154,9.31255-.86872,15.04281-1.85383,6.39378-1.09917,12.57649-3.07122,17.92514-6.93272,5.69046-4.10829,5.6705-8.49558.03136-12.66306-5.26463-3.89069-11.37532-5.70291-17.68869-6.92609a1.98858,1.98858,0,0,0-1.58739.79769c-1.31633,1.99054-2.45608,4.09682-3.73884,6.11082a14.31331,14.31331,0,0,1-24.5752.03539c-1.21241-1.89214-2.37982-3.81749-3.46921-5.78232-.5914-1.06665-1.212-1.5261-2.49113-1.13313-2.74758.8441-5.59671,1.38565-8.29516,2.35494-4.04191,1.45191-7.95412,3.23591-10.95218,6.4861-2.79711,3.0323-2.8389,5.98938.14369,8.87044a23.16132,23.16132,0,0,0,5.25713,3.80207C24.7334,207.37866,35.66694,208.54516,49.09547,208.94488Z"/><path class="cls-1" d="M216,92.411c-3.40317,11.8972-12.80009,16.31287-23.66778,18.37481-9.95581,1.88894-19.76078.89624-28.90994-3.85558-5.179-2.68983-9.37733-6.39894-11.45322-12.10623a2.72252,2.72252,0,0,0-1.55534-1.32542c-1.73025-.60825-2.77817-1.69332-2.74315-3.54291a3.52819,3.52819,0,0,1,2.864-3.45148,2.50927,2.50927,0,0,0,1.49363-1.12742,22.73567,22.73567,0,0,1,12.56148-12.95009,2.62409,2.62409,0,0,0,.51358-.40487c-2.52631-5.70408-5.23367-11.32136-7.51214-17.10762a125.98765,125.98765,0,0,1-5.42733-16.13181c-3.13714-12.85009,2.67273-26.45017,13.899-33.583,19.97969-12.69448,45.74589-.9792,49.542,22.51989A11.93674,11.93674,0,0,0,216,29.10826v5.90826c-.50313,2.10321-.93751,4.22571-1.52114,6.30634-2.74013,9.76878-6.94795,18.95016-11.30917,28.06805-.4125.86244-.8055,1.73422-1.27335,2.74363C208.90221,75.42663,214.12176,80.12311,216,87.76879ZM183.66614,7.09451c-1.39373.1604-2.7915.29186-4.18058.48567-14.19544,1.98063-24.00854,16.84026-20.139,30.62831,4.60956,16.425,12.27452,31.48032,20.95929,46.05426,1.69538,2.845,4.88113,2.7903,6.6148-.05509A206.28928,206.28928,0,0,0,206.531,42.8006a35.0434,35.0434,0,0,0,2.15237-10.87882C208.70081,18.34641,197.262,7.24367,183.66614,7.09451ZM168.65939,78.57a19.43585,19.43585,0,0,0-8.33231,6.14833,8.43661,8.43661,0,0,0,.048,10.70946,17.4746,17.4746,0,0,0,3.3302,3.18954c5.9156,4.3145,12.73507,5.73063,19.87727,5.73262,7.21793.002,14.08018-1.46925,20.07308-5.81326,4.67775-3.39072,6.32982-8.01246,4.207-12.16681-1.98267-3.88006-5.40931-6.08142-9.34911-7.80857-1.78765,3.08116-3.41776,6.02659-5.18983,8.88393a14.563,14.563,0,0,1-2.87579,3.58284c-5.29647,4.39261-12.60041,3.01279-16.27413-3.01532C172.28067,84.90633,170.50048,81.73106,168.65939,78.57Z"/><path class="cls-1" d="M216,156.97977c-.27442.39234-.46385.9729-.83889,1.14229-1.19744.54081-2.56217,1.43932-3.67441,1.22488a4.2603,4.2603,0,0,1-2.54344-2.60609,47.94484,47.94484,0,0,1-1.27653-6.78415,3.63884,3.63884,0,0,1,2.68741-4.34381,3.54277,3.54277,0,0,1,4.30426,2.73163c.54072,2.15154.9019,4.34822,1.3416,6.52516Z"/><path class="cls-1" d="M119.2442,91.65069a12.06213,12.06213,0,0,1-2.134,2.34177c-1.69922,1.19983-3.60111,2.10959-5.39774,3.17515-1.85787,1.10186-3.68591.88364-4.8897-.632a3.30014,3.30014,0,0,1,.48359-4.87056,36.0809,36.0809,0,0,1,7.18418-4.18806C116.90356,86.4658,119.35589,88.43355,119.2442,91.65069Z"/><path class="cls-1" d="M199.68143,127.53745c1.07189.39619,1.88475.462,2.32872.901a80.21491,80.21491,0,0,1,5.88353,6.2362,3.50793,3.50793,0,0,1-5.27736,4.51013,45.5553,45.5553,0,0,1-5.35851-5.87543,4.37914,4.37914,0,0,1-.17506-3.64253C197.481,128.71869,198.84715,128.17734,199.68143,127.53745Z"/><path class="cls-1" d="M100.45417,107.5774c.36566-2.30195,1.6907-3.92562,3.63339-4.11956a3.78433,3.78433,0,0,1,3.87344,3.16887q.71307,2.84586,1.56038,5.65751c.65376,2.15474-.02967,3.99385-1.86307,4.7866a3.41792,3.41792,0,0,1-4.68734-1.963C101.961,112.6685,101.2786,110.09353,100.45417,107.5774Z"/><path class="cls-1" d="M174.935,197.95272c-1.259,0-2.52717.09642-3.77477-.02282a3.37,3.37,0,0,1-3.17023-3.327c.01609-1.78263.84173-3.31344,2.68857-3.48408a56.11028,56.11028,0,0,1,8.77441-.14516,3.25758,3.25758,0,0,1,2.73375,3.67925,3.39943,3.39943,0,0,1-3.2651,3.25717c-1.31944.11527-2.657.022-3.98654.022Z"/><path class="cls-1" d="M133.45016,86.488c1.1936,0,2.39234-.07068,3.57963.016a3.42267,3.42267,0,0,1,3.35281,3.19086,3.1955,3.1955,0,0,1-2.7162,3.67807,51.18794,51.18794,0,0,1-8.78973-.01915c-1.82655-.16279-2.671-1.72434-2.65518-3.52644a3.43708,3.43708,0,0,1,3.22883-3.30529c1.32492-.10873,2.66592-.02132,3.99976-.02132Z"/><path class="cls-1" d="M121.71084,126.14717c-1.53592-.14276-3.08331-.21113-4.60511-.44564-2.31415-.3566-3.64421-2.00051-3.40432-4.03888.22937-1.94881,1.77054-3.15719,4.04624-3.09,2.102.062,4.20341.17145,6.30237.30325,2.29066.14385,3.7036,1.46843,3.76182,3.45876.05659,1.93425-1.351,3.42266-3.56919,3.6735a22.59555,22.59555,0,0,1-2.52382.01521Z"/><path class="cls-1" d="M191.3363,123.30048c.0952,3.09455-1.87591,4.88561-4.1568,4.47475-2.41341-.43476-4.80579-1.01279-7.17872-1.63718a3.55835,3.55835,0,0,1,1.42938-6.95472,38.177,38.177,0,0,1,7.15074,1.68567C189.8261,121.34024,190.723,122.73212,191.3363,123.30048Z"/><path class="cls-1" d="M163.337,126.14523c-1.50247-.08717-2.844-.07411-4.1566-.26254a3.479,3.479,0,0,1,.24536-6.92325,72.8755,72.8755,0,0,1,7.78624.024,3.29826,3.29826,0,0,1,3.12773,3.36732,3.25668,3.25668,0,0,1-2.77361,3.46242C166.12348,126.05609,164.6392,126.05153,163.337,126.14523Z"/><path class="cls-1" d="M111.37041,197.9519c-1.3331,0-2.67574.10087-3.997-.02442a3.36457,3.36457,0,0,1-3.14971-3.351c.00763-1.8209.88233-3.30969,2.71947-3.46512a53.55816,53.55816,0,0,1,8.58372-.03261,3.20153,3.20153,0,0,1,2.86087,3.56646,3.36463,3.36463,0,0,1-3.22949,3.29631c-1.25466.10258-2.52451.01917-3.78756.01917Z"/><path class="cls-1" d="M198.67518,183.13311c.92987.82858,2.30772,1.50143,2.66481,2.52912.36412,1.048.17132,2.99722-.55773,3.58661a43.77514,43.77514,0,0,1-7.56124,4.81885c-1.48882.7628-3.04345.0556-3.986-1.43526-.887-1.40308-.96011-3.10133.29037-4.05382a91.24193,91.24193,0,0,1,7.76987-4.94895,2.6452,2.6452,0,0,1,1.03434-.1239Z"/><path class="cls-1" d="M132.47268,197.95678c-1.26329.00232-2.53506.09552-3.78767-.01964a3.36046,3.36046,0,0,1-3.19826-3.30979c-.0059-1.79707.81566-3.34725,2.66389-3.49984a53.92929,53.92929,0,0,1,8.78816-.0087c1.8267.149,2.70594,1.64008,2.68925,3.47662a3.3053,3.3053,0,0,1-3.15775,3.33476C135.149,198.05605,133.80607,197.95446,132.47268,197.95678Z"/><path class="cls-1" d="M214.45016,170.40794c-1.50575,2.88527-2.82717,5.89054-4.59379,8.60605-.905,1.391-2.73279,1.33981-4.20031.41752a3.16136,3.16136,0,0,1-1.44307-4.01421,76.12079,76.12079,0,0,1,3.31662-7.2471c.81513-1.5777,2.33405-1.92751,3.98553-1.50548C213.04853,167.05655,214.00787,168.49119,214.45016,170.40794Z"/><path class="cls-1" d="M153.86053,197.95041a39.74947,39.74947,0,0,1-3.99437-.02606,3.22545,3.22545,0,0,1-3.08552-3.16422,3.10189,3.10189,0,0,1,2.70272-3.65431,51.33707,51.33707,0,0,1,8.78255.03407c1.83054.16564,2.68343,1.71065,2.58133,3.53054a3.1658,3.1658,0,0,1-2.99337,3.23986,35.94428,35.94428,0,0,1-3.99308.02868Z"/><path class="cls-1" d="M141.86623,126.15454a36.43208,36.43208,0,0,1-4.17084-.33579,3.16537,3.16537,0,0,1-2.737-3.64547,3.08589,3.08589,0,0,1,3.03138-3.184,71.92043,71.92043,0,0,1,7.98553-.002,3.11924,3.11924,0,0,1,3.03736,3.184,3.2275,3.2275,0,0,1-2.73936,3.64665A39.69,39.69,0,0,1,141.86623,126.15454Z"/><path class="cls-1" d="M75.5353,104.52206A28.75787,28.75787,0,1,1,46.82811,75.59215,28.85052,28.85052,0,0,1,75.5353,104.52206Zm-50.31557-.17653A21.56349,21.56349,0,1,0,46.855,82.80227,21.76194,21.76194,0,0,0,25.21973,104.34553Z"/><path class="cls-1" d="M183.59008,50.3462a17.97865,17.97865,0,0,1,.0147-35.95724,18.20324,18.20324,0,0,1,17.99813,18.01131A18.11479,18.11479,0,0,1,183.59008,50.3462Zm.08287-7.204a10.82009,10.82009,0,0,0,10.73482-10.765,10.96687,10.96687,0,0,0-10.77868-10.79164A10.8137,10.8137,0,0,0,172.86063,32.5236,10.67329,10.67329,0,0,0,183.67295,43.14217Z"/></g></g></svg>