<svg xmlns="http://www.w3.org/2000/svg" viewBox="0 0 18 18.00043"><g id="Layer_2" data-name="Layer 2"><g id="Layer_2-2" data-name="Layer 2"><path d="M18,8.72148a.39127.39127,0,0,1-.41676.24884q-3.14656-.00649-6.29315-.00267h-.21295c0,.14438-.00189.27158.00028.39872a5.53782,5.53782,0,0,1-3.53455,5.27528.47778.47778,0,0,0-.22986.2103c-.48589.954-.96325,1.91241-1.43991,2.8711-.07074.14227-.14481.27539-.32585.27735s-.25938-.12749-.33057-.27053Q4.497,16.28395,3.7681,14.84267a.45119.45119,0,0,0-.21858-.19942A5.54184,5.54184,0,0,1,4.76937,3.98412,5.43669,5.43669,0,0,1,8.89171,5.0546c.03588.02689.07362.05131.13939.09693V4.94037c0-1.50591.00291-3.01183-.00365-4.51771A.43728.43728,0,0,1,9.24336,0H18ZM5.54086,17.00175c.04217-.07656.07428-.13037.10223-.18626.40038-.80064.80278-1.60029,1.19781-2.40357a.55.55,0,0,1,.32584-.292,4.8426,4.8426,0,0,0,3.21869-3.74936,3.91987,3.91987,0,0,0,.05085-1.40289c-.3447,0-.678.00076-1.01137-.00023-.28935-.00087-.39329-.10341-.39355-.38985-.00072-.79693-.005-1.59391.004-2.39075A.41467.41467,0,0,0,8.88058,5.841a4.84667,4.84667,0,0,0-3.78-1.27586,4.92338,4.92338,0,0,0-1.20228,9.5478.57754.57754,0,0,1,.35389.311c.33645.68877.68271,1.37274,1.02577,2.05828C5.361,16.648,5.44532,16.813,5.54086,17.00175ZM9.65339.62576V5.54927A6.328,6.328,0,0,1,13.24623,6.752a.17038.17038,0,0,0,.029-.01733c.02648-.03116.05282-.06245.0785-.09428a5.33,5.33,0,0,1,3.878-2.07233c.12824-.00987.15039-.06193.15012-.17415Q17.37747,2.58337,17.37962.7728c0-.04594-.00619-.09188-.01015-.147ZM17.366,8.35V5.16518a4.76659,4.76659,0,0,0-2.72448,1.03387A5.53679,5.53679,0,0,0,13.03939,8.35Zm-7.71928.00766c.8939,0,1.76609.0008,2.63826-.00275a.14408.14408,0,0,0,.10776-.0637c.169-.33925.33188-.68159.50283-1.03635a5.66749,5.66749,0,0,0-3.24885-1.087Z"/><path d="M1.801,1.45732c0-.20561-.00291-.38591.00073-.56607.00461-.22874.12914-.36822.31644-.362.18082.006.29436.14252.2976.364.00264.18026.00054.36059.00054.564.19571,0,.37509-.002.55441.0005.23926.0034.3687.11278.36828.3063-.00041.19159-.13475.30491-.36911.3076-.17516.002-.35038.0004-.55454.0004,0,.21007.006.41244-.0018.61427a.29818.29818,0,0,1-.279.30627A.29171.29171,0,0,1,1.811,2.73809a1.2062,1.2062,0,0,1-.00982-.19243c-.00127-.15093-.0004-.30189-.0004-.47356-.19635,0-.37612.00173-.55584-.00043-.23-.00276-.37086-.12148-.37074-.30856.00011-.18817.13689-.30209.3719-.30532C1.42111,1.45539,1.59616,1.45732,1.801,1.45732Z"/><path d="M10.90406,15.67812c0,.20327.002.38883-.00052.57433-.00312.22606-.11168.34726-.30465.34608-.19223-.00117-.29973-.12433-.3019-.34993-.00174-.18069-.00035-.3614-.00035-.57063-.2,0-.39029.00089-.58053-.00028a.31359.31359,0,0,1-.33-.21053.30368.30368,0,0,1,.30579-.40446c.19247-.008.38553-.00162.60471-.00162,0-.19514-.00128-.38015.00033-.56513.002-.22251.11279-.35524.29679-.35928.19313-.00425.30726.12747.31.36233.00209.1799.00042.35983.00042.56142.199,0,.37861-.00185.55818.00047.23174.003.37283.1201.374.30609s-.14106.30719-.37018.3106C11.286,15.68026,11.10589,15.67812,10.90406,15.67812Z"/><path d="M16.14385,11.02718c0,.19878.00081.36751-.00019.53623-.00148.25078-.1087.38993-.30033.392-.19249.0021-.30527-.13979-.307-.3861-.00117-.16381-.00222-.32761-.00441-.49141-.00013-.01022-.00973-.02031-.02537-.05086-.16935,0-.34921.00229-.529-.00058-.2343-.00373-.36912-.1186-.36768-.30779.00145-.19051.13671-.30254.371-.30447.17959-.00148.3592-.0003.55553-.0003,0-.20565-.00184-.39154.00048-.57738.00276-.2203.11849-.34792.30847-.3454.18341.00243.29379.12484.29754.33781.00329.1862.00069.37251.00069.5855.21656,0,.41891-.00549.62081.00164a.30273.30273,0,0,1,.0347.60424,1.52487,1.52487,0,0,1-.19271.00658C16.46094,11.02775,16.31549,11.02718,16.14385,11.02718Z"/><path d="M15.42927,15.32457c.48887.03827.60583.102.60652.31777s-.10663.27494-.6061.32118c0,.08792.003.179-.00062.26982a.30417.30417,0,0,1-.29731.32548.29987.29987,0,0,1-.31344-.32484c-.00439-.08632-.00073-.173-.00073-.28437-.1047,0-.19071.00376-.27628-.00075a.30769.30769,0,1,1,.00154-.61246c.08126-.003.16274-.0005.27556-.0005,0-.1064-.005-.20322.001-.29935a.30445.30445,0,0,1,.6089-.00007C15.43364,15.12892,15.42927,15.22192,15.42927,15.32457Z"/><path d="M5.53517,12.596a3.12969,3.12969,0,1,1,3.13922-3.1204A3.1225,3.1225,0,0,1,5.53517,12.596ZM8.05749,9.4601A2.51767,2.51767,0,1,0,5.5558,11.98928,2.50926,2.50926,0,0,0,8.05749,9.4601Z"/><path d="M12.85224,2.77193a1.23337,1.23337,0,1,1-1.25418,1.20065A1.22628,1.22628,0,0,1,12.85224,2.77193Zm.60353,1.22955a.62514.62514,0,1,0-.62844.62414A.6312.6312,0,0,0,13.45577,4.00148Z"/></g></g></svg>