<svg xmlns="http://www.w3.org/2000/svg" viewBox="0 0 30.84486 28.08"><defs><style>.cls-1{fill:#fff;}</style></defs><g id="Layer_2" data-name="Layer 2"><g id="Layer_2-2" data-name="Layer 2"><path d="M21.43789,15.41932q-1.97137.0001-3.94276.00055c-.536.0006-.6779.14494-.67831.6881-.00114,1.46819.00512,2.93643-.00582,4.40454a.46574.46574,0,0,0,.2976.49927A3.71155,3.71155,0,0,1,19.06794,25.142a3.73378,3.73378,0,0,1-7.25753.1584,3.69086,3.69086,0,0,1,1.83779-4.23717.61051.61051,0,0,0,.38261-.65033c-.01682-1.43512-.00652-2.87056-.00777-4.30589-.00047-.54212-.14317-.68694-.67974-.68716q-3.762-.00159-7.52411-.00007c-.541.0002-.67629.13672-.67681.68317-.0014,1.49011.0038,2.98024-.00531,4.47029a.40081.40081,0,0,0,.26153.42357,3.72311,3.72311,0,0,1,1.98854,4.14857,3.76946,3.76946,0,0,1-3.554,2.93283A3.77253,3.77253,0,0,1,.12587,25.29874,3.7166,3.7166,0,0,1,2.0231,21.02525a.49269.49269,0,0,0,.32143-.51655Q2.33174,14.0169,2.34267,7.52505a.4177.4177,0,0,0-.263-.44965A3.728,3.728,0,0,1,3.7047.0055,3.72771,3.72771,0,0,1,5.45193,7.04568a.49793.49793,0,0,0-.3159.52393c.01212,1.45714.00491,2.91443.00636,4.37167.00054.54628.13616.68331.677.68353q3.76206.00151,7.52411,0c.53536-.00024.67913-.14636.67958-.68792.00123-1.47915-.00412-2.95833.00547-4.43742a.39512.39512,0,0,0-.2618-.41994A3.73863,3.73863,0,1,1,17.11185,7.057a.47017.47017,0,0,0-.3018.49753c.013,1.45712.00571,2.91442.00671,4.37166.00038.56062.13865.69856.70138.69873q3.74562.00114,7.49125,0c.54809-.00018.68735-.13543.688-.67293.00175-1.47915-.00408-2.95834.00567-4.43742a.42734.42734,0,0,0-.27556-.44833,3.73116,3.73116,0,1,1,3.40139-.02767.53154.53154,0,0,0-.333.57354c.01175,1.4681.0082,2.93635.00482,4.40454A3.2569,3.2569,0,0,1,25.1178,15.418C23.8912,15.42485,22.66453,15.41924,21.43789,15.41932Zm-6.482-7.95241V7.8473q0,2.07085-.00043,4.1417a1.4282,1.4282,0,0,1-1.57017,1.56777q-3.795.00127-7.59.0001a1.43908,1.43908,0,0,1-1.596-1.6104q-.00211-2.07085-.00112-4.1417c-.00009-.11414-.01054-.22828-.01575-.33366H3.286V20.58626h.913c0-.13792,0-.25642,0-.37492,0-1.39152-.00278-2.783.001-4.17456a1.42242,1.42242,0,0,1,1.5573-1.54886q3.81141-.00153,7.62281-.0001a1.42729,1.42729,0,0,1,1.57526,1.562q.00267,2.10372.00048,4.20744v.33331H15.884v-.36951q0-2.07086.00026-4.1417a1.4299,1.4299,0,0,1,1.57819-1.59158q3.81139-.001,7.62281-.00118a2.34081,2.34081,0,0,0,2.48748-2.49268q.00351-2.10372-.00014-4.20744c-.00007-.10529-.00954-.21057-.01432-.30923H26.6409v.38024c0,1.38057.0027,2.76114-.001,4.1417a1.42668,1.42668,0,0,1-1.55,1.5574q-3.82784.00194-7.65567,0a1.42258,1.42258,0,0,1-1.54973-1.55454q-.00271-2.08728-.00048-4.17457V7.46691Zm.38369,19.66745a2.80374,2.80374,0,1,0-2.7239-2.87239A2.80883,2.80883,0,0,0,15.33958,27.13436Zm.05567-20.59917a2.79923,2.79923,0,1,0-2.78192-2.815A2.80914,2.80914,0,0,0,15.39525,6.53519ZM.93991,24.339a2.80139,2.80139,0,1,0,2.78482-2.81172A2.80054,2.80054,0,0,0,.93991,24.339ZM29.90024,3.73676A2.80164,2.80164,0,1,0,27.11006,6.535,2.792,2.792,0,0,0,29.90024,3.73676ZM.93947,3.73069A2.80161,2.80161,0,1,0,3.768.937,2.79,2.79,0,0,0,.93947,3.73069Z"/><path d="M28.50141,19.19089c0,.46017.01226.92082-.00537,1.38032a.387.387,0,0,0,.26023.42151,3.7367,3.7367,0,1,1-3.43033.07337.60924.60924,0,0,0,.37866-.65407c-.01842-.87614-.01693-1.75312-.00153-2.62939a1.38622,1.38622,0,0,1,.9916-1.36053,1.337,1.337,0,0,1,1.51481.505,1.85829,1.85829,0,0,1,.27865.8187c.04461.47792.01228.963.01228,1.44513ZM29.8997,24.34a2.80131,2.80131,0,1,0-2.79528,2.798A2.80525,2.80525,0,0,0,29.8997,24.34Zm-2.3278-3.74557c0-.95844.00626-1.88743-.00364-2.81624a.45345.45345,0,0,0-.47764-.47484.44448.44448,0,0,0-.44626.50012c-.009.45975-.00321.91978-.00342,1.37969-.00021.46691-.00005.93383-.00005,1.41127Z"/><path class="cls-1" d="M27.5719,20.59442h-.931c0-.47744-.00016-.94436.00005-1.41127.00021-.45991-.00555-.91994.00342-1.37969a.44448.44448,0,0,1,.44626-.50012.45345.45345,0,0,1,.47764.47484C27.57816,18.707,27.5719,19.636,27.5719,20.59442Z"/></g></g></svg>