<svg xmlns="http://www.w3.org/2000/svg" viewBox="0 0 216 160.6063"><defs><style>.cls-1{fill:#02b58a;}</style></defs><g id="Layer_2" data-name="Layer 2"><g id="Layer_1-2" data-name="Layer 1"><path class="cls-1" d="M156.03216,160.6063H142.46161c0-.91811-.00022-1.77576,0-2.6334.00326-11.58366.25527-23.174-.0564-34.74919-.34774-12.91516-6.409-22.703-18.18239-28.11717-11.69439-5.37779-23.37238-4.878-33.78456,3.3472-8.20925,6.485-12.16041,15.38173-12.30342,25.81228-.15264,11.13325-.04751,22.27006-.05478,33.40531-.00058.88928-.00008,1.77855-.00008,2.83319H64.36624c0-.92153-.00052-1.79216.00008-2.66278q.01163-16.815.026-33.63a45.84816,45.84816,0,0,1,91.66207-2.09332c.37045,12.39489.09748,24.809.10857,37.21449C156.16327,159.69165,156.09139,160.05045,156.03216,160.6063Z" transform="translate(0 0)"/><path class="cls-1" d="M110.21053,68.814a34.4071,34.4071,0,1,1,34.53583-34.24171A34.454,34.454,0,0,1,110.21053,68.814Zm22.982-34.40365A22.92313,22.92313,0,1,0,110.26518,57.392,22.95388,22.95388,0,0,0,133.19258,34.41033Z" transform="translate(0 0)"/><path class="cls-1" d="M147.49431,68.74922a27.56371,27.56371,0,1,1,27.38518,27.6799A27.56863,27.56863,0,0,1,147.49431,68.74922Zm27.334,16.12448a16.02432,16.02432,0,1,0-15.826-16.0625A15.93749,15.93749,0,0,0,174.82836,84.8737Z" transform="translate(0 0)"/><path class="cls-1" d="M45.89326,32.1121A27.53054,27.53054,0,1,1,18.37409,59.67488,27.584,27.584,0,0,1,45.89326,32.1121ZM61.99949,59.75639a16.03476,16.03476,0,1,0-16.1838,16.00287A16.057,16.057,0,0,0,61.99949,59.75639Z" transform="translate(0 0)"/><path class="cls-1" d="M13.82144,160.55705H.1403a17.48291,17.48291,0,0,1-.1383-1.82651c.25-8.19944-.26968-16.5149.92625-24.57548,3.51689-23.7039,26.97429-40.69775,50.74208-37.33939,3.07979.43517,6.112,1.20692,9.26289,1.84225L56.342,111.4297c-3.90123-.41051-7.739-1.20034-11.56548-1.14937a30.80226,30.80226,0,0,0-30.41395,27.1888c-.83584,6.62592-.4017,13.41225-.53847,20.1258C13.80477,158.54479,13.82144,159.49538,13.82144,160.55705Z" transform="translate(0 0)"/><path class="cls-1" d="M215.67005,160.57342H202.1695c0-3.23632.02855-6.42005-.006-9.6031a30.605,30.605,0,0,0-5.69887-17.85366c-7.06485-9.89392-16.94295-13.97588-28.85712-13.72967-.597.01234-1.19359.05707-1.79052.06066a1.02186,1.02186,0,0,1-.3742-.151c-.88078-4.29782-1.75714-8.574-2.69383-13.14456,13.78139-1.88985,26.1159,1.29265,36.75053,10.23984C213.249,127.95972,217.268,143.21985,215.67005,160.57342Z" transform="translate(0 0)"/></g></g></svg>