<svg xmlns="http://www.w3.org/2000/svg" viewBox="0 0 223.63281 46.43197"><defs><style>.cls-1{font-size:39.37189px;font-family:URWGeometric-ExtraBold, URW Geometric;font-weight:800;}.cls-1,.cls-2{fill:#00fcae;}.cls-3{fill:#143e5e;}</style></defs><g id="Layer_2" data-name="Layer 2"><g id="Layer_1-2" data-name="Layer 1"><text class="cls-1" transform="translate(52.36138 35.18539)">travelninja</text><rect class="cls-2" width="45.05545" height="45.05545" rx="11.69844"/><path class="cls-3" d="M22.56343,4.6821A18.15971,18.15971,0,0,1,40.50874,20.2549,17.83343,17.83343,0,0,1,28.10989,39.50579,18.20089,18.20089,0,0,1,5.12234,27.56444,17.784,17.784,0,0,1,19.191,5.058C20.3047,4.87073,21.43879,4.80448,22.56343,4.6821ZM21.03479,30.10431a35.56632,35.56632,0,0,0,10.45839-1.10356,11.24327,11.24327,0,0,0,4.70672-2.29467c1.34634-1.22484,1.39158-2.75482-.03476-3.87742a12.77637,12.77637,0,0,0-3.08673-1.76507,25.43775,25.43775,0,0,0-8.11591-1.58715,34.24423,34.24423,0,0,0-11.83782,1.16928,10.54506,10.54506,0,0,0-4.28554,2.1706c-1.35257,1.23984-1.38005,2.72308.03278,3.8858a10.73217,10.73217,0,0,0,2.68,1.60169A27.0855,27.0855,0,0,0,21.03479,30.10431Z"/><path class="cls-3" d="M15.273,22.46524A2.16685,2.16685,0,1,1,13.12176,24.646,2.18522,2.18522,0,0,1,15.273,22.46524Z"/><path class="cls-3" d="M29.7266,22.46659a2.16661,2.16661,0,1,1-2.14131,2.19434A2.18626,2.18626,0,0,1,29.7266,22.46659Z"/></g></g></svg>