<?xml version="1.0" encoding="utf-8"?>
<!-- Generator: Adobe Illustrator 26.0.1, SVG Export Plug-In . SVG Version: 6.00 Build 0)  -->
<svg version="1.1" id="Layer_1" xmlns="http://www.w3.org/2000/svg" xmlns:xlink="http://www.w3.org/1999/xlink" x="0px" y="0px"
	 viewBox="0 0 205.1 45.1" style="enable-background:new 0 0 205.1 45.1;" xml:space="preserve">
<style type="text/css">
	.st0{fill:#17FFC2;}
	.st1{font-family:'URWGeometric-ExtraBold';}
	.st2{font-size:35.7732px;}
	.st3{fill:#0D2742;}
</style>
<g id="Layer_2_00000080928753483620625450000000458406591333952403_">
	<g id="Layer_1-2">
		<text transform="matrix(1 0 0 1 50.92 34.2004)" class="st0 st1 st2">travelninja</text>
		<path class="st0" d="M8.1,0H37c4.4,0,8.1,3.6,8.1,8.1V37c0,4.4-3.6,8.1-8.1,8.1H8.1C3.6,45.1,0,41.4,0,37V8.1C0,3.6,3.6,0,8.1,0z"
			/>
		<path class="st3" d="M22.6,4.7c9,0,16.7,6.6,17.9,15.6c1.1,8.6-4.1,16.7-12.4,19.3c-9.6,3.1-19.8-2.2-22.9-11.7
			c0-0.1,0-0.1-0.1-0.2C2.4,18.1,7.8,8.3,17.2,5.5c0.6-0.2,1.3-0.3,2-0.5C20.3,4.9,21.4,4.8,22.6,4.7z M21,30.1
			c3.5,0.2,7-0.2,10.5-1.1c1.7-0.4,3.3-1.2,4.7-2.3c1.3-1.2,1.4-2.8,0-3.9c-0.9-0.7-2-1.3-3.1-1.8c-2.6-1-5.3-1.5-8.1-1.6
			c-4-0.3-8,0.1-11.8,1.2c-1.6,0.4-3,1.1-4.3,2.2c-1.4,1.2-1.4,2.7,0,3.9c0.8,0.7,1.7,1.2,2.7,1.6C14.6,29.5,17.8,30.1,21,30.1z"/>
		<path class="st3" d="M15.3,22.5c1.2,0,2.2,1,2.2,2.2c0,1.2-1,2.2-2.2,2.2c-1.2,0-2.2-1-2.2-2.2c0,0,0,0,0,0
			C13.1,23.5,14.1,22.5,15.3,22.5z"/>
		<path class="st3" d="M29.7,22.5c1.2,0,2.2,0.9,2.2,2.1c0,1.2-0.9,2.2-2.1,2.2c-1.2,0-2.2-0.9-2.2-2.1
			C27.6,23.5,28.5,22.5,29.7,22.5z"/>
	</g>
</g>
</svg>
