<svg xmlns="http://www.w3.org/2000/svg" viewBox="0 0 144.38445 154.43391"><defs><style>.cls-1{fill:#005e38;}</style></defs><g id="Layer_2" data-name="Layer 2"><g id="Layer_1-2" data-name="Layer 1"><path class="cls-1" d="M.483,50.50693c-.62682-8.98318,1.39048-17.237,6.79178-24.529A32.95716,32.95716,0,0,1,23.74987,13.97651Q42.63877,7.76045,61.57723,1.69514a35.93112,35.93112,0,0,1,22.71825.30861C96.33362,5.952,108.40393,9.80238,120.43577,13.76959A34.42415,34.42415,0,0,1,144.38343,47.1219,123.80911,123.80911,0,0,1,124.87786,113.666c-1.76926,2.796-4.59215,3.62556-7.11735,2.09827a5.23588,5.23588,0,0,1-1.62153-7.439A122.118,122.118,0,0,0,126.50866,87.7215,113.17393,113.17393,0,0,0,134.091,46.77331a24.1684,24.1684,0,0,0-16.94387-23.27485c-11.991-3.92277-24.01886-7.73341-36.00024-11.68507a27.02467,27.02467,0,0,0-17.471.00336c-11.92762,3.94219-23.902,7.74269-35.84656,11.634a24.10108,24.10108,0,0,0-17.1242,23.29,112.66887,112.66887,0,0,0,18.319,62.06937,109.54328,109.54328,0,0,0,29.59967,30.65863c8.52823,5.96021,18.86559,6.17837,27.30233.09027,4.934-3.56045,9.50583-7.63433,14.137-11.59821,3.07145-2.62889,7.24136-2.05221,8.70321,1.42873a4.38427,4.38427,0,0,1-.73441,5.09952c-6.72186,6.54555-13.55708,13.07163-22.26783,16.88759-11.244,4.92569-22.337,3.90165-32.36364-3.0881C26.4414,129.49481,9.72456,103.77541,2.99972,71.6568,1.54665,64.71676.97672,57.59188,0,50.55214Z"/><path class="cls-1" d="M63.73836,84.92613c2.63824-2.76361,5.21687-5.46036,7.79064-8.16176q8.75033-9.1842,17.4961-18.37271a5.06145,5.06145,0,0,1,5.22443-1.64094,4.88641,4.88641,0,0,1,3.71151,3.8248A5.292,5.292,0,0,1,96.3045,65.6691q-13.08912,13.69966-26.143,27.433c-.95978,1.00763-1.88568,2.05066-2.88859,3.01344a5.02619,5.02619,0,0,1-7.54919-.18812q-5.9337-6.54-11.73578-13.199a5.11557,5.11557,0,0,1,7.6124-6.8355c2.37125,2.5443,4.64207,5.18213,6.95978,7.77642C62.90919,84.06,63.27649,84.4345,63.73836,84.92613Z"/></g></g></svg>