<svg xmlns="http://www.w3.org/2000/svg" viewBox="0 0 45.99559 45.99388"><defs><style>.cls-1{fill:#4f5866;}</style></defs><g id="Layer_2" data-name="Layer 2"><g id="Layer_2-2" data-name="Layer 2"><path class="cls-1" d="M0,22.93783a22.9979,22.9979,0,1,1,22.9636,23.056A22.9751,22.9751,0,0,1,0,22.93783Zm44.01992.08814A21.02393,21.02393,0,1,0,22.99307,44.01728,21.01228,21.01228,0,0,0,44.01994,23.026Z"/><path class="cls-1" d="M11.91684,25.606l2.21014-.11174c-2.59763-1.10914-4.13715-2.8826-4.31492-5.7992l2.45393.62448c-2.61909-3.01048-3.06039-5.20862-1.60591-7.81331a16.7758,16.7758,0,0,0,11.88757,6.03,18.63769,18.63769,0,0,1,.35874-3.017,5.81081,5.81081,0,0,1,9.10814-2.97209,1.90383,1.90383,0,0,0,2.12484.32014,9.33129,9.33129,0,0,1,2.40136-.72541c-.70263.94183-1.40527,1.88366-2.13231,2.85819l2.6214-.68686.13836.13679a24.78922,24.78922,0,0,1-1.92334,1.99639,2.056,2.056,0,0,0-.83442,1.71421,16.59754,16.59754,0,0,1-13.623,16.20879A16.06757,16.06757,0,0,1,9.05189,32.14578a12.50132,12.50132,0,0,0,8.21086-2.52263A6.12777,6.12777,0,0,1,11.91684,25.606Z"/></g></g></svg>