<svg xmlns="http://www.w3.org/2000/svg" viewBox="0 0 33.767 33.767"><defs><style>.cls-1{fill:#05c190;}.cls-2{fill:#fff;}</style></defs><g id="Layer_2" data-name="Layer 2"><g id="Layer_2-2" data-name="Layer 2"><circle class="cls-1" cx="16.8835" cy="16.8835" r="16.8835"/><path class="cls-2" d="M15.12335,23.41539c-1.01329-1.06029-1.9963-2.08687-2.97691-3.11574-.60057-.63014-1.21465-1.24862-1.79066-1.9006a1.19721,1.19721,0,0,1,.16314-1.75167,1.2228,1.2228,0,0,1,1.64623.05946c.81268.81311,1.60356,1.64834,2.39146,2.48568.33342.35433.34283.37363.64523-.02678q1.78544-2.36407,3.56059-4.73588,1.28024-1.70647,2.55533-3.4168a1.26675,1.26675,0,0,1,2.254.05222,1.17184,1.17184,0,0,1-.14781,1.343c-.57086.77393-1.15336,1.53927-1.73117,2.30806q-3.19353,4.249-6.38782,8.49751C15.262,23.27108,15.209,23.32092,15.12335,23.41539Z"/></g></g></svg>