<?xml version="1.0" encoding="utf-8"?>
<!-- Generator: Adobe Illustrator 26.0.1, SVG Export Plug-In . SVG Version: 6.00 Build 0)  -->
<svg version="1.1" id="Layer_1" xmlns="http://www.w3.org/2000/svg" xmlns:xlink="http://www.w3.org/1999/xlink" x="0px" y="0px"
	 viewBox="0 0 800 800" style="enable-background:new 0 0 800 800;" xml:space="preserve">
<style type="text/css">
	.st0{fill-rule:evenodd;clip-rule:evenodd;fill:#283456;}
	.st1{fill:#283456;}
</style>
<g id="SVGRepo_bgCarrier">
</g>
<g id="SVGRepo_tracerCarrier">
</g>
<g id="SVGRepo_iconCarrier">
	<path class="st0" d="M400,83.3c-74.6,0-138.7,44.5-167.3,108.3c-2.8,6.1-4.7,10.5-6.2,13.6c-0.7,1.6-1.3,2.7-1.7,3.5
		c-0.3,0.6-0.5,0.9-0.5,0.9c0,0,0,0,0,0c-2.3,3.2-3.5,4.2-4.2,4.7c-0.7,0.5-2.1,1.2-6,2c-1.2,0.2-3.6,0.3-13.9,0.3
		c-64.4,0-116.7,52.2-116.7,116.7S135.6,450,200,450h22.4l33.3-33.3H200c-46,0-83.3-37.3-83.3-83.3c0-46,37.3-83.3,83.3-83.3l1.8,0
		c7.5,0,13.8,0,18.7-1c6-1.2,12-3,17.6-6.7c5.6-3.6,9.7-8.3,13.3-13.3c1.9-2.7,3.7-6.1,5.2-9.4c1.7-3.5,3.8-8.2,6.4-14.1l0,0
		l0.1-0.2c23.5-52.3,76-88.7,136.9-88.7s113.5,36.4,136.9,88.7l0.1,0.2c2.6,5.9,4.7,10.6,6.4,14.1c1.6,3.3,3.3,6.7,5.2,9.4
		c3.6,5,7.7,9.7,13.3,13.3c5.6,3.6,11.5,5.4,17.6,6.7c4.9,1,11.2,1,18.7,1l1.8,0c46,0,83.3,37.3,83.3,83.3c0,46-37.3,83.3-83.3,83.3
		h-55.7l33.3,33.3H600c64.4,0,116.7-52.2,116.7-116.7S664.4,216.7,600,216.7c-10.3,0-12.8-0.1-13.9-0.3c-3.9-0.8-5.3-1.5-6-2
		c-0.7-0.5-1.9-1.4-4.2-4.7l0,0c0-0.1-0.2-0.3-0.5-0.9c-0.4-0.8-1-1.9-1.7-3.5c-1.5-3.2-3.5-7.5-6.2-13.6
		C538.7,127.8,474.6,83.3,400,83.3z"/>
	<path class="st1" d="M400,400l-11.8-11.8l11.8-11.8l11.8,11.8L400,400z M416.7,700c0,9.2-7.5,16.7-16.7,16.7
		c-9.2,0-16.7-7.5-16.7-16.7H416.7z M254.9,521.5l133.3-133.3l23.6,23.6L278.5,545.1L254.9,521.5z M411.8,388.2l133.3,133.3
		l-23.6,23.6L388.2,411.8L411.8,388.2z M416.7,400v300h-33.3V400H416.7z"/>
</g>
</svg>
