<?xml version="1.0" encoding="utf-8"?>
<!-- Generator: Adobe Illustrator 26.0.1, SVG Export Plug-In . SVG Version: 6.00 Build 0)  -->
<svg version="1.1" id="Layer_1" xmlns="http://www.w3.org/2000/svg" xmlns:xlink="http://www.w3.org/1999/xlink" x="0px" y="0px"
	 viewBox="0 0 216 215.9" style="enable-background:new 0 0 216 215.9;" xml:space="preserve">
<style type="text/css">
	.st0{fill:#283456;}
</style>
<g id="Layer_2_00000136408151545550113320000012391073481595745186_">
	<g id="Layer_1-2">
		<path class="st0" d="M0,106.6c0.6-2.8,1-5.7,1.7-8.4c2.9-11,10.1-20.3,20.1-25.7c1.2-0.5,1.9-1.8,1.6-3.1
			C21.4,48,34.8,29.6,55.8,25c8-1.7,16.3-1,23.8,2.1c0.5,0.2,1,0.4,1.6,0.6c0.2,0,0.4,0.1,0.7,0.1c0.4-0.7,0.8-1.4,1.3-2.2
			c8.6-14.9,21.4-23.5,38.5-25.3c25-2.5,47.8,14.3,52.7,38.9c0.6,4,1,8.1,1,12.1c0,1.3,0.2,1.9,1.5,2.2
			c20.7,5.1,33.6,18.1,38.1,38.9c5.5,25.5-11.6,51.8-37.1,57.5c-4,0.9-8,1.3-12.1,1.3c-14.5,0.2-29,0.1-43.5,0
			c-2.1,0-2.6,0.6-2.6,2.6c0.1,17.5-0.1,35,0.1,52.5c0,4.5-1,7.8-5.4,9.5h-2.1c-4.6-1.5-5.8-4.7-5.8-9.3c0.1-17.6,0-35.2,0.1-52.8
			c0-2.2-0.7-2.7-2.7-2.7c-20.1,0.1-40.2,0.1-60.4,0c-2.2,0-4.5-0.1-6.7-0.4c-17.9-3-29.5-13.1-35-30.4c-0.8-2.9-1.4-5.9-1.8-8.8
			L0,106.6L0,106.6z M39.4,79.7c-2,0.6-3.9,1.3-5.8,1.9c-13.6,4.5-21.9,17.3-20,31.2c2,15,14.2,25.4,29.5,25.4c20.3,0.1,40.7,0,61,0
			c1.8,0,2.6-0.4,2.5-2.4c-0.1-12,0-24.1-0.1-36.1c0-0.7-0.1-1.3-0.2-2.3c-0.8,0.7-1.4,1.1-1.9,1.5c-2.9,2.6-5.7,5.2-8.6,7.8
			c-5.1,4.6-10.1,9.2-15.2,13.7c-2.6,2.5-6.8,2.3-9.2-0.3c-0.8-0.8-1.3-1.9-1.6-3c-0.6-2.9,0.6-5.1,2.7-7.1
			c11.9-10.8,23.9-21.7,35.7-32.5c3-2.8,6.6-2.8,9.6,0c3.6,3.3,7.2,6.5,10.8,9.8c8.5,7.6,16.9,15.3,25.4,22.9
			c2.2,1.9,3.3,4.2,2.6,7.1c-1.3,5-7,6.5-11.1,2.9c-8-7.1-15.9-14.3-23.8-21.5c-0.5-0.5-1.1-0.9-2-1.7v2.6c0,11.9,0,23.8,0,35.7
			c0,2.8,0,2.8,2.7,2.8c14.3,0,28.7,0,43,0c2,0,3.9-0.1,5.9-0.4c19.9-2.8,33.7-21.1,31-41c-2.4-17.6-17.2-30.8-35-31.3
			c-2.6-0.1-5.3-0.3-8-0.4c0.1-0.5,0.1-0.8,0.1-1c0.1-0.5,0.2-1,0.3-1.4c1.7-6.3,2.9-12.5,1.9-19.1c-3-20-22.6-33.9-42.3-29.7
			c-15,3.2-24.4,12.5-28.4,27.3c-0.7,2.6-1.4,5.1-2.1,7.9c-2.8-2.2-5.4-4.2-8.1-6.2c-12.2-9.2-29.6-6.8-38.9,5.5
			c-4.3,5.7-6.2,12.9-5.4,19.9C37.2,72,38.4,75.7,39.4,79.7z"/>
	</g>
</g>
</svg>
