<svg xmlns="http://www.w3.org/2000/svg" viewBox="0 0 216 215.88758"><defs><style>.cls-1{fill#283456;}</style></defs><g id="Layer_2" data-name="Layer 2"><g id="Layer_1-2" data-name="Layer 1"><path class="cls-1" d="M0,106.56977c.56348-2.808.9653-5.66015,1.7187-8.41621A40.86052,40.86052,0,0,1,21.81925,72.49327a2.65426,2.65426,0,0,0,1.58736-3.10252C21.388,48.019,34.80212,29.57056,55.78022,25.01515a40.02,40.02,0,0,1,23.79142,2.07812c.52048.20864,1.03642.429,1.56025.62869a3.88493,3.88493,0,0,0,.66922.08118c.39026-.6749.83294-1.4386,1.27392-2.2033C91.67428,10.68723,104.47526,2.087,121.62469.26957a48.767,48.767,0,0,1,52.728,38.8819,80.17651,80.17651,0,0,1,.96687,12.14244c.04993,1.26615.19335,1.86137,1.52279,2.19144,20.66862,5.13153,33.64313,18.0794,38.125,38.86645,5.50372,25.52636-11.58619,51.75582-37.131,57.50346a58.31565,58.31565,0,0,1-12.09713,1.3263c-14.48889.15516-28.98069.10275-43.47069.01479-2.07519-.0126-2.56364.62334-2.55514,2.619.0745,17.515-.06274,35.03142.116,52.54485.04583,4.49071-1.04021,7.827-5.44664,9.52735h-2.11038c-4.55561-1.45628-5.83-4.7439-5.7945-9.27486.13786-17.58474.0124-35.17146.111-52.75673.0124-2.21318-.664-2.66447-2.73365-2.657q-30.17688.10938-60.35436.02648a41.64457,41.64457,0,0,1-6.7162-.40614c-17.85315-2.95626-29.53549-13.13127-34.986-30.35923A82.13509,82.13509,0,0,1,0,111.63469ZM39.39615,79.69056c-1.95137.63521-3.879,1.25655-5.80275,1.88992C20.01059,86.0526,11.70549,98.8516,13.58553,112.80675c2.02541,15.03418,14.23377,25.358,29.46739,25.40042,20.32852.05658,40.65735-.00462,60.9859.04577,1.83584.00456,2.56128-.38539,2.54424-2.43259-.10016-12.02765-.047-24.05656-.05553-36.085-.00047-.65534-.09145-1.3106-.16584-2.30864-.82587.666-1.377,1.06864-1.88077,1.52368Q100.17468,102.84,95.8868,106.75c-5.05352,4.58357-10.05945,9.2213-15.1806,13.72808a6.533,6.533,0,0,1-10.834-3.30674c-.64348-2.91079.57234-5.11631,2.72711-7.06672q17.912-16.213,35.73354-32.52586c3.042-2.77527,6.5816-2.7929,9.61822-.02258q5.37768,4.90614,10.787,9.77765,12.69044,11.4492,25.3989,22.87842c2.15788,1.93485,3.32269,4.2063,2.57092,7.1058-1.2863,4.96124-7.04891,6.51317-11.07887,2.92582-7.98542-7.10833-15.89481-14.30206-23.84111-21.4544-.53307-.47981-1.11213-.90854-2.03144-1.65446l0,2.61812q0,17.83172.00054,35.66341c.0003,2.79283.00335,2.80276,2.72579,2.8034q21.52465.0051,43.04929-.01661a39.60835,39.60835,0,0,0,5.88537-.40575,36.33328,36.33328,0,0,0-3.98249-72.30466c-2.64349-.05053-5.28376-.26847-7.99921-.41288.06846-.49254.09151-.76874.14765-1.038.1-.47956.2069-.95844.33355-1.43155,1.67721-6.266,2.92433-12.52689,1.92676-19.11318C158.822,23.5469,139.22914,9.57784,119.53229,13.78478c-14.99006,3.20164-24.445,12.492-28.4386,27.30872-.68855,2.55455-1.38435,5.10716-2.14431,7.90958-2.8448-2.17826-5.41825-4.23523-8.08029-6.17034A27.74925,27.74925,0,0,0,36.61534,68.248C37.154,72.02569,38.40559,75.70174,39.39615,79.69056Z"/></g></g></svg>