<svg xmlns="http://www.w3.org/2000/svg" viewBox="0 0 17.24726 17.2584"><defs><style>.cls-1{fill:#283456;}</style></defs><g id="Layer_2" data-name="Layer 2"><g id="Layer_2-2" data-name="Layer 2"><path class="cls-1" d="M9.04317,1.29485h4.30429c0-.26518-.00635-.51941.00307-.773a.73158.73158,0,0,1,.06859-.30912.38462.38462,0,0,1,.4444-.20027.39273.39273,0,0,1,.34138.37283c.01846.214.00908.43037.01126.64572.00087.08591.00015.17185.00015.27006a3.223,3.223,0,0,1,1.36168.38859,3.0114,3.0114,0,0,1,1.663,2.77575c-.00408,1.47473-.00083,2.94947-.00131,4.4242a1.69112,1.69112,0,0,1-.00916.22164.417.417,0,0,1-.42022.38334.42492.42492,0,0,1-.429-.37719,1.50587,1.50587,0,0,1-.00741-.22171c-.00036-1.47474-.02918-2.9502.0082-4.424a2.3066,2.3066,0,0,0-2.16575-2.29352c0,.09756,0,.19412,0,.29069-.00006.29629.00374.59265-.00131.88886a.437.437,0,1,1-.86639-.0075c-.00428-.38846-.001-.777-.001-1.17505H9.04343c0,.359.00017.713,0,1.0671-.00024.39591-.15065.60577-.434.6062-.28368.00044-.43457-.20929-.43482-.605-.00021-.34977,0-.69954,0-1.06374h-4.304v.70464c0,.12794.00026.25589-.00006.38383-.00092.3736-.16068.58428-.43971.58026-.27344-.00393-.42817-.209-.429-.57033-.00067-.2963-.00015-.59259-.00015-.88888V2.172a1.94979,1.94979,0,0,0-1.03127.269A2.11206,2.11206,0,0,0,.86248,4.37444q-.00831,4.909.00086,9.81807A2.1402,2.1402,0,0,0,3.08251,16.39c1.94643.00464,3.89287.00067,5.83931.003a.88579.88579,0,0,1,.29627.04181.42409.42409,0,0,1-.09437.80607,1.39282,1.39282,0,0,1-.22143.01291c-1.92623.00063-3.85258-.0125-5.77867.00452A3.02973,3.02973,0,0,1,.1074,15.01419a3.31269,3.31269,0,0,1-.10194-.79737Q-.00466,9.2876.00186,4.35834A3.00206,3.00206,0,0,1,2.86292,1.31019c.03889-.00267.07745-.01.13935-.01826,0-.28127-.00718-.55577.00183-.82974A.43229.43229,0,0,1,3.576.02482a.44415.44415,0,0,1,.29325.45966c.00461.267.001.53416.001.81051H8.17516c0-.28511-.00724-.55951.00185-.83337A.43242.43242,0,0,1,8.74941.025a.44453.44453,0,0,1,.29272.46007C9.0467.747,9.04317,1.009,9.04317,1.29485Z"/><path class="cls-1" d="M13.00339,8.76514a4.24055,4.24055,0,1,1-4.23893,4.23717A4.253,4.253,0,0,1,13.00339,8.76514Zm3.37492,4.23263A3.37841,3.37841,0,1,0,13.01288,16.388,3.365,3.365,0,0,0,16.37831,12.99777Z"/><path class="cls-1" d="M6.91255,6.98027a.772.772,0,0,1-.0118-1.5439.772.772,0,1,1,.0118,1.5439Z"/><path class="cls-1" d="M3.97024,6.21586a.77247.77247,0,0,1-1.54487-.01371.77247.77247,0,1,1,1.54487.01371Z"/><path class="cls-1" d="M10.616,6.98016a.772.772,0,1,1,.77557-.76336A.77158.77158,0,0,1,10.616,6.98016Z"/><path class="cls-1" d="M3.97023,10.04005a.77248.77248,0,0,1-1.54487.0167.77248.77248,0,1,1,1.54487-.0167Z"/><path class="cls-1" d="M6.911,10.81942a.772.772,0,0,1-.00859-1.54394A.772.772,0,1,1,6.911,10.81942Z"/><path class="cls-1" d="M14.31306,6.98009a.772.772,0,1,1,.78258-.77357A.77434.77434,0,0,1,14.31306,6.98009Z"/><path class="cls-1" d="M3.97032,13.88809a.77248.77248,0,0,1-1.545-.00026.77248.77248,0,1,1,1.545.00026Z"/><path class="cls-1" d="M6.91186,14.65912a.77234.77234,0,0,1-.01016-1.54465.77234.77234,0,1,1,.01016,1.54465Z"/><path class="cls-1" d="M13.43074,12.58169c.47314,0,.9158-.00729,1.35808.00242a.41957.41957,0,0,1,.40187.58723.40578.40578,0,0,1-.39335.26533c-.59864.00337-1.19735.00542-1.79594-.00077a.41258.41258,0,0,1-.427-.42044q-.0122-.89766-.00083-1.79559a.42668.42668,0,1,1,.85327-.003c.0085.3697.00331.73972.0039,1.1096C13.43084,12.39949,13.43074,12.47251,13.43074,12.58169Z"/></g></g></svg>