<svg xmlns="http://www.w3.org/2000/svg" viewBox="0 0 28.5696 28.58806"><defs><style>.cls-1{fill:#283456;}</style></defs><g id="Layer_2" data-name="Layer 2"><g id="Layer_2-2" data-name="Layer 2"><path class="cls-1" d="M14.97976,2.14488H22.1097c0-.43926-.01053-.86038.00508-1.28054a1.21208,1.21208,0,0,1,.11362-.512.63711.63711,0,0,1,.73613-.33173A.65056.65056,0,0,1,23.53.63814c.03057.35445.015.7129.01865,1.06961.00144.14232.00024.28467.00024.44736a5.33873,5.33873,0,0,1,2.25559.64368,4.98829,4.98829,0,0,1,2.75469,4.598c-.00675,2.44284-.00137,4.8857-.00217,7.32856a2.80213,2.80213,0,0,1-.01517.36714.69079.69079,0,0,1-.69608.635.70385.70385,0,0,1-.71066-.62479,2.494,2.494,0,0,1-.01227-.36727c-.0006-2.44285-.04834-4.88692.01358-7.3282A3.82083,3.82083,0,0,0,23.54891,3.608c0,.16161,0,.32156,0,.48152-.00011.4908.00619.98171-.00218,1.47237a.7239.7239,0,1,1-1.43515-.01243c-.00708-.64346-.00172-1.28705-.00172-1.94643H14.98019c0,.59461.00028,1.18111-.00008,1.76762-.0004.65581-.24955,1.00345-.71887,1.00416-.46991.00072-.71987-.34668-.72027-1.00216-.00036-.57938-.00007-1.15876-.00007-1.762H6.41148l0,1.16721c0,.21193.00044.42387-.00009.63581-.00154.61886-.26617.96784-.72838.96118-.45293-.00652-.70925-.34624-.71059-.94474-.0011-.4908-.00024-.98161-.00024-1.47241,0-.10936,0-.21872,0-.35979a3.22978,3.22978,0,0,0-1.70828.44559A3.4986,3.4986,0,0,0,1.42868,7.24614q-.01377,8.13166.00141,16.26336a3.54519,3.54519,0,0,0,3.676,3.64c3.2242.00769,6.44844.0011,9.67266.00493a1.46747,1.46747,0,0,1,.49075.06927.70249.70249,0,0,1-.15632,1.33522,2.30431,2.30431,0,0,1-.36678.02139c-3.19076.001-6.3817-.02071-9.57221.00749A5.01868,5.01868,0,0,1,.1779,24.87059a5.48739,5.48739,0,0,1-.16885-1.32082q-.01679-8.16513-.006-16.33029A4.97285,4.97285,0,0,1,4.74234,2.17029c.06442-.00442.12831-.01657.23083-.03024,0-.46591-.01189-.92062.003-1.37444a.71607.71607,0,0,1,.94732-.7245.73573.73573,0,0,1,.48576.76141c.00764.4423.00174.88483.00174,1.34259h7.1309c0-.47227-.012-.92681.00307-1.38045a.71628.71628,0,0,1,.94816-.72328A.73634.73634,0,0,1,14.978.80347C14.98561,1.23731,14.97976,1.67139,14.97976,2.14488Z"/><path class="cls-1" d="M21.53975,14.51921A7.02434,7.02434,0,1,1,14.51808,21.538,7.045,7.045,0,0,1,21.53975,14.51921Zm5.59046,7.01124a5.59623,5.59623,0,1,0-5.57474,5.61575A5.574,5.574,0,0,0,27.13021,21.53045Z"/><path class="cls-1" d="M11.45044,11.56262a1.27875,1.27875,0,0,1-.01954-2.55743,1.27876,1.27876,0,1,1,.01954,2.55743Z"/><path class="cls-1" d="M6.5766,10.2964a1.27957,1.27957,0,0,1-2.559-.02271,1.27957,1.27957,0,1,1,2.559.02271Z"/><path class="cls-1" d="M17.58505,11.56245a1.27884,1.27884,0,1,1,1.28471-1.2645A1.27811,1.27811,0,0,1,17.58505,11.56245Z"/><path class="cls-1" d="M6.57658,16.63107a1.2796,1.2796,0,0,1-2.559.02765,1.27959,1.27959,0,1,1,2.559-.02765Z"/><path class="cls-1" d="M11.4479,17.92206a1.27876,1.27876,0,0,1-.01423-2.55748,1.27876,1.27876,0,1,1,.01423,2.55748Z"/><path class="cls-1" d="M23.70919,11.56232a1.27882,1.27882,0,1,1,1.29632-1.2814A1.28268,1.28268,0,0,1,23.70919,11.56232Z"/><path class="cls-1" d="M6.57672,23.00524a1.27959,1.27959,0,0,1-2.55917-.00043,1.27959,1.27959,0,1,1,2.55917.00043Z"/><path class="cls-1" d="M11.4493,24.28242a1.27936,1.27936,0,0,1-.01683-2.55867,1.27936,1.27936,0,1,1,.01683,2.55867Z"/><path class="cls-1" d="M22.24764,20.84122c.78375,0,1.517-.01208,2.24963.004a.695.695,0,0,1,.66569.97273.67218.67218,0,0,1-.65158.43952c-.99163.00558-1.98338.009-2.97493-.00127a.68345.68345,0,0,1-.70735-.69645q-.02019-1.487-.00136-2.97434a.70678.70678,0,1,1,1.41341-.005c.01408.6124.00548,1.22532.00647,1.838C22.24781,20.53941,22.24764,20.66036,22.24764,20.84122Z"/></g></g></svg>