<svg xmlns="http://www.w3.org/2000/svg" viewBox="0 0 34.40632 28.08"><defs><style>.cls-1{fill:#283456;}</style></defs><g id="Layer_2" data-name="Layer 2"><g id="Layer_2-2" data-name="Layer 2"><path class="cls-1" d="M0,5.31861a.776.776,0,0,1,.6613-.23343q4.26671.00706,8.5334-.00572a.72211.72211,0,0,0,.48715-.20089A14.16617,14.16617,0,0,1,15.31493.93565c.04026-.01538.07678-.04052.19568-.10447C15.32178.82255,15.21008.813,15.09837.813Q10.4957.81178,5.893.81234c-.07839,0-.1568.00118-.23517-.00029C5.31142.80557,5.11351.655,5.11487.4c.00136-.25453.18906-.39183.55149-.3919C10.21305.00718,14.7598.02047,19.30641.00063a15.60065,15.60065,0,0,1,4.94682.56185,13.89349,13.89349,0,0,1,9.94745,11.15038c.09689.47883.1384.96882.20564,1.45363v1.744c-.0862.58337-.14135,1.1733-.26348,1.74907a13.87142,13.87142,0,0,1-8.52636,10.38063,14.96438,14.96438,0,0,1-6.10478,1.03951c-6.10205-.02862-12.20431-.01012-18.30649-.01031-.12314,0-.24671.00388-.36931-.00486a.36116.36116,0,0,1-.37241-.3558.37332.37332,0,0,1,.33225-.43025,1.88532,1.88532,0,0,1,.3681-.01341q6.95313-.00076,13.90625-.00043h.36l.00871-.04589c-.4608-.21042-.92691-.41009-1.38139-.63334a14.20774,14.20774,0,0,1-3.40091-2.36977.80487.80487,0,0,0-.50006-.18685c-1.99292-.0127-3.986-.0078-5.979-.00908-.12252-.00007-.27942.03159-.3598-.0301-.1335-.10247-.3059-.27417-.29772-.40661.00792-.12834.20857-.26654.35221-.35639.08135-.05088.21828-.01515.33017-.01518q2.51925-.00063,5.0385-.00029H9.689A14.05426,14.05426,0,0,1,8.87127,5.91186c-.16978-.0076-.29492-.018-.42006-.01809-2.59762-.001-5.19528.005-7.79281-.01114A2.1965,2.1965,0,0,1,0,5.654Zm7.08145,8.72081A13.25589,13.25589,0,1,0,20.56651.81148,13.27886,13.27886,0,0,0,7.08145,14.03942Z"/><path class="cls-1" d="M29.13057,14.04569a8.79,8.79,0,1,1-8.76684-8.79305A8.801,8.801,0,0,1,29.13057,14.04569ZM19.91389,10.3334V6.10807a7.8215,7.8215,0,0,0-7.01343,5.15348c1.28556.40778,2.5706.8185,3.8599,1.21547a.29341.29341,0,0,0,.24839-.12284A3.82147,3.82147,0,0,1,19.91389,10.3334ZM24.70968,20.679l-2.50155-3.41063a3.83675,3.83675,0,0,1-3.7075.01863l-2.45989,3.42061A7.8327,7.8327,0,0,0,24.70968,20.679Zm-6.88262-3.841a.3914.3914,0,0,0-.041-.08842,3.71993,3.71993,0,0,1-1.13848-3.2543c.01019-.07876-.11148-.22743-.201-.25777-.70823-.24-1.42348-.4593-2.13669-.68461q-.83888-.265-1.6785-.52937a7.846,7.846,0,0,0,2.74419,8.21925Zm10.18263-4.87515L23.993,13.26955a3.80051,3.80051,0,0,1-1.13332,3.523c.43329.59138.84866,1.15849,1.26423,1.72546q.619.84453,1.23869,1.68939A7.81733,7.81733,0,0,0,28.00969,11.96283Zm-.2488-.78367a7.86524,7.86524,0,0,0-6.98967-5.07625v4.23281a3.82334,3.82334,0,0,1,2.97584,2.16963c1.28615-.42,2.54871-.83212,3.811-1.24513C27.62077,11.23969,27.68094,11.21135,27.76089,11.17916Zm-7.39658-.03475a2.9012,2.9012,0,1,0,2.88945,2.90207A2.90328,2.90328,0,0,0,20.36431,11.14441Z"/></g></g></svg>