<?xml version="1.0" encoding="utf-8"?>
<!-- Generator: Adobe Illustrator 26.0.1, SVG Export Plug-In . SVG Version: 6.00 Build 0)  -->
<svg version="1.1" id="Layer_1" xmlns="http://www.w3.org/2000/svg" xmlns:xlink="http://www.w3.org/1999/xlink" x="0px" y="0px"
	 viewBox="0 0 216 195.9" style="enable-background:new 0 0 216 195.9;" xml:space="preserve">
<style type="text/css">
	.st0{fill:none;stroke:#FFFFFF;stroke-width:15;stroke-miterlimit:10;}
</style>
<g>
	<path class="st0" d="M205.2,61.4c0,3.3,0,6.6,0,9.9c-0.1,0.4-0.3,0.7-0.3,1.1c-1.4,12.6-6.6,23.4-15.6,32.3
		c-25.5,25.5-51,51-76.5,76.5c-3.1,3.1-6.5,3.1-9.6,0c-25.5-25.4-50.9-50.9-76.4-76.4c-6.7-6.7-11.4-14.5-13.9-23.6
		c-0.9-3.3-1.4-6.7-2.1-10c0-3.3,0-6.6,0-9.9c0.4-2.1,0.7-4.2,1.2-6.3C17.5,27.9,44.3,9,71.7,12.9c12.7,1.8,23.5,7.3,32.4,16.6
		c1.3,1.3,2.4,2.7,3.8,4.2c1.9-2,3.5-3.7,5.1-5.3c12-11.8,26.4-17.1,43.3-15.7c22.1,1.8,41.3,17.9,47,39.3
		C204.1,55.1,204.6,58.3,205.2,61.4z"/>
</g>
</svg>
