<svg xmlns="http://www.w3.org/2000/svg" viewBox="0 0 45.99588 45.99519"><defs><style>.cls-1{fill:#4f5866;}</style></defs><g id="Layer_2" data-name="Layer 2"><g id="Layer_2-2" data-name="Layer 2"><path class="cls-1" d="M23.01116,0A22.99763,22.99763,0,1,1,0,23.00839,22.97875,22.97875,0,0,1,23.01116,0ZM1.9768,23.0211A21.02141,21.02141,0,1,0,23.05088,1.97359,21.00257,21.00257,0,0,0,1.9768,23.0211Z"/><path class="cls-1" d="M22.96769,32.91331c-3.17446-.15748-6.31761-.2747-9.45488-.481-2.62144-.17238-3.71976-1.24478-4.08453-3.84547A41.356,41.356,0,0,1,9.47694,17.0351a3.65277,3.65277,0,0,1,3.9007-3.45093q6.60576-.283,13.22067-.3351c2.01249-.01832,4.03035.1624,6.04.32421,2.43781.19628,3.5762,1.28838,3.91122,3.68323a41.88335,41.88335,0,0,1,.02,11.34887c-.33113,2.50135-1.49952,3.66707-4.00008,3.82349C29.3632,32.62943,26.15223,32.756,22.96769,32.91331Zm4.465-9.91775-7.2234-4.09834v8.20347Z"/></g></g></svg>